<svg id="Layer_1" data-name="Layer 1" xmlns="http://www.w3.org/2000/svg" viewBox="0 0 200 200"><defs><style>.cls-1{fill:#e74039;}.cls-2{fill:#151a6a;}</style></defs><path class="cls-1" d="M123.72,88a43.13,43.13,0,1,0,43.13,43.13A43.13,43.13,0,0,0,123.72,88Zm-11,53.58a2.16,2.16,0,1,1-2.59,3.46L93.75,132.88a2.16,2.16,0,0,1-.45-3,2.08,2.08,0,0,1,.45-.44l16.38-12.19a2.17,2.17,0,0,1,2.59,3.47L98.65,131.16Zm17.37-22.71-8.63,25.88a2.16,2.16,0,0,1-4.1-1.37L126,117.54a2.16,2.16,0,0,1,4.1,1.36Zm23.6,14L137.3,145.06a2.15,2.15,0,1,1-2.58-3.45l14.06-10.45L134.72,120.7a2.16,2.16,0,0,1,2.58-3.46l16.39,12.18a2.14,2.14,0,0,1,.49,3A1.66,1.66,0,0,1,153.69,132.88Z"/><path class="cls-2" d="M133.75,94.5a19.38,19.38,0,0,0-10-34.36,19.39,19.39,0,0,0-36.66-9,19.4,19.4,0,0,0-36.66,9,19.41,19.41,0,0,0-10,34.38,19.39,19.39,0,0,0,10,34.36,19.39,19.39,0,0,0,36.66,9,19.4,19.4,0,0,0,36.66-9,19.4,19.4,0,0,0,10-34.37ZM69.81,144.09A15.08,15.08,0,0,1,54.72,129v-.13a19.09,19.09,0,0,0,5.1-1.28,2.16,2.16,0,0,0-1.61-4,15.09,15.09,0,0,1-13-27.2,2.16,2.16,0,0,0,.84-2.94,2.12,2.12,0,0,0-.84-.84,15.1,15.1,0,0,1,13-27.21,2.15,2.15,0,0,0,1.61-4,19.26,19.26,0,0,0-5.11-1.28A15.1,15.1,0,1,1,84.91,60V75.09H80.59V66.47A2.14,2.14,0,0,0,80,64.94l-4.33-4.33a6.2,6.2,0,0,0,.65-2.77,6.47,6.47,0,1,0-6.47,6.47,6.33,6.33,0,0,0,2.77-.65l3.7,3.7v7.73H74.12a6.47,6.47,0,0,0-6.47,6.47v2.16H63A6.46,6.46,0,1,0,63,88h4.7V101H63a6.46,6.46,0,1,0,0,4.31h4.7v2.16a6.47,6.47,0,0,0,6.47,6.47h2.16v7.73l-3.7,3.69a6.32,6.32,0,0,0-2.77-.64,6.47,6.47,0,1,0,6.47,6.47,6.2,6.2,0,0,0-.65-2.77L80,124.06a2.16,2.16,0,0,0,.63-1.53v-8.62h4.32V129A15.12,15.12,0,0,1,69.81,144.09ZM100,79.4a2.16,2.16,0,0,1,2.16,2.16v25.88a2.16,2.16,0,0,1-2.16,2.15H74.12A2.15,2.15,0,0,1,72,107.44V81.56a2.16,2.16,0,0,1,2.15-2.16ZM69.81,60A2.16,2.16,0,1,1,72,57.84,2.16,2.16,0,0,1,69.81,60ZM59,85.87a2.16,2.16,0,1,1-2.16-2.15A2.16,2.16,0,0,1,59,85.87Zm0,17.25A2.16,2.16,0,1,1,56.87,101,2.16,2.16,0,0,1,59,103.12Zm12.94,28A2.16,2.16,0,1,1,69.81,129,2.16,2.16,0,0,1,72,131.16Zm43.94-7.57a2.16,2.16,0,0,0-1.62,4,19.23,19.23,0,0,0,5.12,1.28,15.1,15.1,0,0,1-30.19.13V113.91h4.31v8.62a2.2,2.2,0,0,0,.63,1.53l4.33,4.33a6.45,6.45,0,1,0,5.82-3.7,6.32,6.32,0,0,0-2.77.64l-3.7-3.69v-7.73H100a6.47,6.47,0,0,0,6.47-6.47v-2.16h4.71a6.48,6.48,0,1,0,0-4.31h-4.71V88h4.71a6.48,6.48,0,1,0,0-4.31h-4.71V81.56A6.47,6.47,0,0,0,100,75.09H97.84V67.36l3.7-3.7a6.33,6.33,0,0,0,2.77.65,6.54,6.54,0,1,0-5.82-3.7l-4.33,4.33a2.18,2.18,0,0,0-.63,1.53v8.62H89.22V60a15.1,15.1,0,1,1,30.19.13,19.16,19.16,0,0,0-5.11,1.28,2.15,2.15,0,0,0,1.62,4,15.09,15.09,0,0,1,13,27.21,2.15,2.15,0,0,0-.84,2.93,2.21,2.21,0,0,0,.84.85,15.09,15.09,0,0,1-13,27.2ZM104.31,129a2.16,2.16,0,1,1-2.15,2.16A2.16,2.16,0,0,1,104.31,129Zm10.78-25.88a2.16,2.16,0,1,1,2.16,2.16A2.16,2.16,0,0,1,115.09,103.12Zm0-17.25A2.16,2.16,0,1,1,117.25,88,2.16,2.16,0,0,1,115.09,85.87Zm-12.93-28A2.16,2.16,0,1,1,104.31,60,2.16,2.16,0,0,1,102.16,57.84Z"/><path class="cls-2" d="M76.28,85.87v17.25a2.16,2.16,0,0,0,2.16,2.16H95.69a2.16,2.16,0,0,0,2.15-2.16V85.87a2.15,2.15,0,0,0-2.15-2.15H78.44A2.16,2.16,0,0,0,76.28,85.87ZM80.59,88H93.53V101H80.59Z"/></svg>