<svg id="Layer_1" data-name="Layer 1" xmlns="http://www.w3.org/2000/svg" viewBox="0 0 200 200"><defs><style>.cls-1{fill:#e74039;}.cls-2{fill:#1d1d1d;}</style></defs><circle class="cls-1" cx="136.39" cy="135.59" r="9.97"/><path class="cls-1" d="M166.29,50.87h-59.8A7.47,7.47,0,0,0,99,58.35V168a7.46,7.46,0,0,0,7.47,7.47h59.8a7.47,7.47,0,0,0,7.48-7.47V58.35A7.48,7.48,0,0,0,166.29,50.87Zm-14.95,10a2.49,2.49,0,1,1-2.49,2.49A2.5,2.5,0,0,1,151.34,60.84ZM132.78,96.09l9-21.5a2,2,0,0,1,2.68-1.07h0a2,2,0,0,1,1,2.62l-9,21.53a2.05,2.05,0,0,1-2.62,1.08,2,2,0,0,1-1.14-2.58l0-.08Zm-23.1-11.62L120.05,74a2.42,2.42,0,0,1,3.32,0,2.35,2.35,0,0,1,0,3.31h0l-8.75,8.82,8.75,8.81a2.35,2.35,0,0,1,0,3.31h0a2.4,2.4,0,0,1-3.32,0L109.68,87.72c-.84-.29-.73-2.75,0-3.25Zm46.65,51.12a19.74,19.74,0,0,1-.2,2.77l3.42,2a5,5,0,0,1,1.83,6.81l-2.5,4.32a5,5,0,0,1-6.8,1.82l-3.43-2a19.83,19.83,0,0,1-4.78,2.76v4a5,5,0,0,1-5,5h-5a5,5,0,0,1-5-5v-4a20.2,20.2,0,0,1-4.78-2.77l-3.43,2a5,5,0,0,1-6.81-1.82l-2.49-4.32a5,5,0,0,1,1.83-6.8h0l3.42-2a18.91,18.91,0,0,1,0-5.52l-3.43-2a5,5,0,0,1-1.82-6.81l2.49-4.31a5,5,0,0,1,6.81-1.83l3.43,2a20.2,20.2,0,0,1,4.78-2.77v-4a5,5,0,0,1,5-5h5a5,5,0,0,1,5,5v4a20.2,20.2,0,0,1,4.78,2.77l3.43-2a5,5,0,0,1,6.8,1.82l2.5,4.32a5,5,0,0,1-1.83,6.8l-3.42,2a19.85,19.85,0,0,1,.2,2.77Zm6.77-47.87L152.74,98.23a2.42,2.42,0,0,1-3.32,0,2.34,2.34,0,0,1,0-3.31h0l8.74-8.81-8.74-8.81a2.34,2.34,0,0,1,0-3.31h0a2.4,2.4,0,0,1,3.32,0L163.1,84.48a2.32,2.32,0,0,1,0,3.24Zm-1.79-21.9a2.49,2.49,0,1,1,2.49-2.49A2.49,2.49,0,0,1,161.31,65.82Z"/><path class="cls-2" d="M138.89,21H29.25a7.48,7.48,0,0,0-7.48,7.48V95.73a7.48,7.48,0,0,0,7.48,7.47h29.9v17.44h-10a2.5,2.5,0,0,0,0,5H119a2.5,2.5,0,0,0,0-5H109V103.2h29.91a7.48,7.48,0,0,0,7.47-7.47V28.45A7.48,7.48,0,0,0,138.89,21ZM104,120.64H64.13V103.2h7.73a12.46,12.46,0,0,0,24.42,0H104ZM77.05,103.2h14a7.43,7.43,0,0,1-14,0Zm64.33-7.47a2.5,2.5,0,0,1-2.49,2.49H29.25a2.5,2.5,0,0,1-2.5-2.49V28.45A2.49,2.49,0,0,1,29.25,26H138.89a2.49,2.49,0,0,1,2.49,2.49Z"/><path class="cls-2" d="M60.48,57.1a2.51,2.51,0,0,0,2.16,1.25h13a2.51,2.51,0,0,0,2.16-1.25l6.47-11.21a2.47,2.47,0,0,0,0-2.49L77.76,32.18a2.5,2.5,0,0,0-2.17-1.24h-13a2.49,2.49,0,0,0-2.16,1.24L54,43.4a2.47,2.47,0,0,0,0,2.49Zm3.6-21.18H74.15l5,8.72-5,8.73H64.08l-5-8.73Z"/><path class="cls-2" d="M107.65,49.63a2.51,2.51,0,0,0-2.16-1.25H92.54a2.5,2.5,0,0,0-2.16,1.25L83.9,60.84a2.51,2.51,0,0,0,0,2.49l6.48,11.22a2.49,2.49,0,0,0,2.16,1.24h12.95a2.47,2.47,0,0,0,2.16-1.24l6.48-11.22a2.47,2.47,0,0,0,0-2.49Zm-3.6,21.18H94l-5-8.72,5-8.72h10.07l5,8.72Z"/><path class="cls-2" d="M77.75,67.07a2.53,2.53,0,0,0-2.16-1.25h-13a2.5,2.5,0,0,0-2.16,1.25L54,78.28a2.47,2.47,0,0,0,0,2.49L60.48,92a2.49,2.49,0,0,0,2.16,1.24h13A2.49,2.49,0,0,0,77.75,92l6.48-11.22a2.51,2.51,0,0,0,0-2.49Zm-3.6,21.18H64.08l-5-8.72,5-8.72H74.15l5,8.72Z"/></svg>