<svg id="Layer_1" data-name="Layer 1" xmlns="http://www.w3.org/2000/svg" viewBox="0 0 200 200"><defs><style>.cls-1{fill:#e74039;}.cls-2{fill:#1d1d1d;}</style></defs><rect class="cls-1" x="72.48" y="75.84" width="28.9" height="28.9" rx="6.19"/><rect class="cls-1" x="119.96" y="123.33" width="26.84" height="26.84" rx="2.06"/><path class="cls-1" d="M157.12,88.23H109.64a4.13,4.13,0,0,0-4.13,4.13v4.13a12.39,12.39,0,0,1-12.39,12.38H89A4.13,4.13,0,0,0,84.86,113v47.49a6.2,6.2,0,0,0,6.2,6.19h66.06a6.19,6.19,0,0,0,6.19-6.19V94.42A6.19,6.19,0,0,0,157.12,88.23Zm-6.19,59.87a6.2,6.2,0,0,1-6.2,6.19H122a6.19,6.19,0,0,1-6.19-6.19V125.39A6.19,6.19,0,0,1,122,119.2h22.71a6.2,6.2,0,0,1,6.2,6.19Z"/><path class="cls-2" d="M132.35,38.68H103.44a6.19,6.19,0,0,0-6.19,6.19V57.26H76.6V44.87a6.19,6.19,0,0,0-6.19-6.19H41.51a6.2,6.2,0,0,0-6.2,6.19V73.78A6.2,6.2,0,0,0,41.51,80H53.89v20.65H41.51a6.2,6.2,0,0,0-6.2,6.19v28.9a6.21,6.21,0,0,0,6.2,6.2h28.9a6.2,6.2,0,0,0,6.19-6.2V123.33H97.25v12.38a6.2,6.2,0,0,0,6.19,6.2h28.91a6.2,6.2,0,0,0,6.19-6.2v-28.9a6.19,6.19,0,0,0-6.19-6.19H120V80h12.39a6.19,6.19,0,0,0,6.19-6.19V44.87A6.19,6.19,0,0,0,132.35,38.68ZM41.51,75.84a2.07,2.07,0,0,1-2.07-2.06V44.87a2.07,2.07,0,0,1,2.07-2.06h28.9a2.07,2.07,0,0,1,2.07,2.06V73.78a2.07,2.07,0,0,1-2.07,2.06H58V59.33a2.07,2.07,0,1,0-4.13,0V75.84Zm31,59.87a2.07,2.07,0,0,1-2.07,2.07H41.51a2.07,2.07,0,0,1-2.07-2.07v-28.9a2.07,2.07,0,0,1,2.07-2.06h28.9a2.07,2.07,0,0,1,2.07,2.06V119.2H56a2.07,2.07,0,1,0,0,4.13H72.48Zm59.87-31a2.06,2.06,0,0,1,2.06,2.06v28.9a2.07,2.07,0,0,1-2.06,2.07H103.44a2.07,2.07,0,0,1-2.06-2.07v-28.9a2.06,2.06,0,0,1,2.06-2.06h12.39v16.51a2.07,2.07,0,1,0,4.13,0V104.75Zm-16.52-4.13H103.44a6.19,6.19,0,0,0-6.19,6.19V119.2H76.6V106.81a6.19,6.19,0,0,0-6.19-6.19H58V80H70.41a6.19,6.19,0,0,0,6.19-6.19V61.39H97.25V73.78A6.19,6.19,0,0,0,103.44,80h12.39Zm18.58-26.84a2.06,2.06,0,0,1-2.06,2.06H103.44a2.06,2.06,0,0,1-2.06-2.06V61.39h16.51a2.07,2.07,0,1,0,0-4.13H101.38V44.87a2.06,2.06,0,0,1,2.06-2.06h28.91a2.06,2.06,0,0,1,2.06,2.06Z"/></svg>