<svg id="Layer_1" data-name="Layer 1" xmlns="http://www.w3.org/2000/svg" viewBox="0 0 200 200"><defs><style>.cls-1{fill:#e74039;}.cls-2{fill:#1d1d1d;}</style></defs><path class="cls-1" d="M168.13,85a7.57,7.57,0,0,0-7.57-7.57H69.74A7.57,7.57,0,0,0,62.17,85v2.52h106Z"/><path class="cls-1" d="M178,159.57,169.68,143H60.62l-8.27,16.53a2.92,2.92,0,0,0-.25,1.36,12.6,12.6,0,0,0,12.6,12.38H165.6a12.61,12.61,0,0,0,12.6-12.38A2.92,2.92,0,0,0,178,159.57Zm-12.36,8.7H64.68a7.56,7.56,0,0,1-7.13-5.05H172.74a7.57,7.57,0,0,1-7.14,5.05Z"/><path class="cls-1" d="M168.13,92.59h-106V138h106Zm-34.06,35.32h-58a2.53,2.53,0,0,1,0-5h58a2.53,2.53,0,0,1,0,5Zm0-20.18h-58a2.53,2.53,0,0,1,0-5h58a2.53,2.53,0,0,1,0,5Zm22.7,22.7a2.52,2.52,0,0,1-2.52,2.52H144.16a2.52,2.52,0,0,1-2.52-2.52V120.34a2.52,2.52,0,0,1,2.52-2.52h10.09a2.52,2.52,0,0,1,2.52,2.52Zm0-20.18a2.52,2.52,0,0,1-2.52,2.52H144.16a2.52,2.52,0,0,1-2.52-2.52V100.16a2.52,2.52,0,0,1,2.52-2.52h10.09a2.52,2.52,0,0,1,2.52,2.52Z"/><path class="cls-2" d="M147.19,133.69,137.1,123.6a2.52,2.52,0,0,0-3.57,3.57l5.79,5.78H125.23a17.68,17.68,0,0,1-17.66-17.66V97.64h17.66A22.71,22.71,0,1,0,119.45,53a35.25,35.25,0,0,0-69.05-.77H44.5a22.71,22.71,0,0,0,0,45.41H62.16v17.65A17.68,17.68,0,0,1,44.5,133H30.41l5.78-5.78a2.52,2.52,0,0,0-3.56-3.57L22.54,133.69a2.53,2.53,0,0,0,0,3.57h0l10.09,10.09a2.52,2.52,0,1,0,3.63-3.5l-.07-.06L30.41,138H44.5a22.73,22.73,0,0,0,22.7-22.71V97.64H82.34V142l-5.78-5.79A2.52,2.52,0,0,0,73,139.78l10.09,10.09a2.53,2.53,0,0,0,3.57,0h0l10.09-10.09a2.52,2.52,0,0,0-3.57-3.57L87.39,142V97.64h15.13v17.65A22.74,22.74,0,0,0,125.23,138h14.09l-5.79,5.78a2.52,2.52,0,0,0,3.57,3.57l10.09-10.09a2.53,2.53,0,0,0,0-3.57ZM44.5,92.59a17.66,17.66,0,0,1,0-35.32h8A2.52,2.52,0,0,0,55,55.14a30.23,30.23,0,0,1,59.7-.3,22.7,22.7,0,0,0-12.17,20.09v5a2.53,2.53,0,0,0,5,0v-5a17.66,17.66,0,0,1,10.57-16.16l.18-.09a17.66,17.66,0,1,1,6.91,33.91Z"/></svg>