<svg id="Layer_1" data-name="Layer 1" xmlns="http://www.w3.org/2000/svg" viewBox="0 0 200 200"><defs><style>.cls-1{fill:#e74039;}.cls-2{fill:#1d1d1d;}</style></defs><path class="cls-1" d="M162.21,64.89H64.45a6.67,6.67,0,0,0-6.66,6.67v57.76A6.67,6.67,0,0,0,64.45,136h37.77v6.66H95.56a2.23,2.23,0,0,0-1.74.85l-8.88,11.1a2.21,2.21,0,0,0,1.73,3.6H140a2.22,2.22,0,0,0,1.73-3.6l-8.88-11.1a2.23,2.23,0,0,0-1.74-.85h-6.66V136h37.77a6.67,6.67,0,0,0,6.66-6.67V71.56A6.67,6.67,0,0,0,162.21,64.89ZM120,142.65H106.67V136H120Zm40-17.77a2.22,2.22,0,0,1-2.23,2.22H68.9a2.22,2.22,0,0,1-2.23-2.22V76a2.22,2.22,0,0,1,2.23-2.22h88.86A2.22,2.22,0,0,1,160,76Z"/><path class="cls-2" d="M138.72,65.11l-36.5-17.17V33.79a8.89,8.89,0,0,0-8.89-8.89H40a8.89,8.89,0,0,0-8.88,8.89v91.09a2.21,2.21,0,0,0,2.22,2.22H137.77a2.21,2.21,0,0,0,2.22-2.22V67.11A2.21,2.21,0,0,0,138.72,65.11ZM97.78,122.66H35.57V33.79A4.44,4.44,0,0,1,40,29.34H93.33a4.45,4.45,0,0,1,4.45,4.45Zm26.66,0H113.33V104.88h11.11Zm11.11,0h-6.67v-20a2.21,2.21,0,0,0-2.22-2.22H111.11a2.21,2.21,0,0,0-2.22,2.22v20h-6.67V52.85L135.55,68.4Z"/><path class="cls-2" d="M60,36H44.46a2.21,2.21,0,0,0-2.22,2.22V56a2.22,2.22,0,0,0,2.22,2.22H60A2.22,2.22,0,0,0,62.23,56V38.23A2.21,2.21,0,0,0,60,36ZM57.79,53.78H46.68V40.45H57.79Z"/><path class="cls-2" d="M88.89,36H73.34a2.21,2.21,0,0,0-2.22,2.22V56a2.22,2.22,0,0,0,2.22,2.22H88.89A2.22,2.22,0,0,0,91.11,56V38.23A2.21,2.21,0,0,0,88.89,36ZM86.67,53.78H75.56V40.45H86.67Z"/><path class="cls-2" d="M60,64.89H44.46a2.22,2.22,0,0,0-2.22,2.22V84.89a2.22,2.22,0,0,0,2.22,2.22H60a2.22,2.22,0,0,0,2.22-2.22V67.11A2.22,2.22,0,0,0,60,64.89ZM57.79,82.67H46.68V69.34H57.79Z"/><path class="cls-2" d="M88.89,64.89H73.34a2.22,2.22,0,0,0-2.22,2.22V84.89a2.22,2.22,0,0,0,2.22,2.22H88.89a2.22,2.22,0,0,0,2.22-2.22V67.11A2.22,2.22,0,0,0,88.89,64.89ZM86.67,82.67H75.56V69.34H86.67Z"/><path class="cls-2" d="M60,93.77H44.46A2.22,2.22,0,0,0,42.24,96v17.77A2.21,2.21,0,0,0,44.46,116H60a2.21,2.21,0,0,0,2.22-2.22V96A2.22,2.22,0,0,0,60,93.77Zm-2.22,17.78H46.68V98.22H57.79Z"/><path class="cls-2" d="M88.89,93.77H73.34A2.22,2.22,0,0,0,71.12,96v17.77A2.21,2.21,0,0,0,73.34,116H88.89a2.21,2.21,0,0,0,2.22-2.22V96A2.22,2.22,0,0,0,88.89,93.77Zm-2.22,17.78H75.56V98.22H86.67Z"/></svg>