<svg id="Layer_1" data-name="Layer 1" xmlns="http://www.w3.org/2000/svg" viewBox="0 0 200 200"><defs><style>.cls-1{fill:#e74039;}.cls-2{fill:#151a6a;}</style></defs><path class="cls-1" d="M154.53,102.45a2.1,2.1,0,0,0,3,0,2,2,0,0,0,.61-1.49V67.53a6.27,6.27,0,0,0-6.26-6.27H118.4a2.09,2.09,0,0,0-1.48,3.57l8.46,8.47L105.86,92.82,86.34,73.3l8.47-8.47a2.09,2.09,0,0,0-1.49-3.57H59.89a6.27,6.27,0,0,0-6.27,6.27V101a2.09,2.09,0,0,0,3.57,1.48L65.66,94,85.17,113.5,65.66,133l-8.47-8.46A2.09,2.09,0,0,0,53.62,126v33.44a6.27,6.27,0,0,0,6.27,6.27H93.32a2.09,2.09,0,0,0,1.49-3.58l-8.47-8.36,19.52-19.62,19.52,19.52-8.46,8.36a2.09,2.09,0,0,0,1.48,3.68h33.44a6.27,6.27,0,0,0,6.26-6.27V126a2.09,2.09,0,0,0-2.07-2.1,2.12,2.12,0,0,0-1.5.62L146.17,133,126.55,113.5,146.07,94Z"/><path class="cls-2" d="M126.76,36.18H34.81a6.27,6.27,0,0,0-6.27,6.27v92a6.27,6.27,0,0,0,6.27,6.27h46a2.1,2.1,0,0,0,2.09-2.09V125.14a10.15,10.15,0,0,0,4.17.9,10.45,10.45,0,1,0,0-20.9,10.32,10.32,0,0,0-4.17.9V90.52h19.6a2.09,2.09,0,0,0,1.29-3.66,6.27,6.27,0,1,1,8.36,0,2.09,2.09,0,0,0-.19,3,2.13,2.13,0,0,0,1.49.71h17.51A2.1,2.1,0,0,0,133,88.43v-46A6.27,6.27,0,0,0,126.76,36.18Zm-94,6.27a2.1,2.1,0,0,1,2.09-2.09H78.7V51.71a10.44,10.44,0,1,0-4.18,20,10.24,10.24,0,0,0,4.18-.9V86.34H59.09a2.08,2.08,0,0,0-2,2.17A2.05,2.05,0,0,0,57.8,90,6.28,6.28,0,1,1,47.35,94.7h0A6.27,6.27,0,0,1,49.44,90a2.09,2.09,0,0,0-1.3-3.65H32.72Zm54.33,66.87a6.27,6.27,0,0,1,0,12.54h0a6.26,6.26,0,0,1-4.7-2.09,2.09,2.09,0,0,0-2.95-.18,2.06,2.06,0,0,0-.7,1.56v15.34H34.81a2.1,2.1,0,0,1-2.09-2.09V90.52H44.07a10.2,10.2,0,0,0-.9,4.18,10.45,10.45,0,1,0,20-4.18H78.7v19.6a2.08,2.08,0,0,0,3.65,1.38A6.3,6.3,0,0,1,87.05,109.32Zm41.8-23H117.5a10.24,10.24,0,0,0,.9-4.18,10.45,10.45,0,1,0-20,4.18H82.88V66.74a2.09,2.09,0,0,0-3.66-1.3,6.27,6.27,0,1,1,0-8.36,2.09,2.09,0,0,0,3,.19,2.11,2.11,0,0,0,.71-1.48V40.36h43.88a2.1,2.1,0,0,1,2.09,2.09Z"/></svg>