<svg id="Layer_1" data-name="Layer 1" xmlns="http://www.w3.org/2000/svg" viewBox="0 0 200 200"><defs><style>.cls-1{fill:#e74039;}.cls-2{fill:#151a6a;}</style></defs><circle class="cls-1" cx="118.46" cy="170.32" r="2.33"/><circle class="cls-1" cx="174.36" cy="98.11" r="2.33"/><path class="cls-1" d="M174.36,112.09H148.74V100.44h16.31a2.33,2.33,0,0,0,0-4.66H148.74V91.12a7,7,0,0,0-7-7h-2.33v-6l8.65-8.62a2.36,2.36,0,0,0,.67-1.65V58.51a2.33,2.33,0,0,0-4.66,0v8.36l-8.64,8.62a2.29,2.29,0,0,0-.67,1.66v7h-14V67.83a2.33,2.33,0,0,0-4.66,0v16.3h-14v-7a2.34,2.34,0,0,0-.67-1.66l-8.64-8.62V58.51a2.33,2.33,0,0,0-4.66,0v9.32a2.31,2.31,0,0,0,.67,1.65l8.64,8.62v6H95.17a7,7,0,0,0-7,7v4.66H71.87a2.33,2.33,0,0,0,0,4.66H88.18v11.65H62.55a2.33,2.33,0,0,0,0,4.66H88.18v11.64H71.87a2.33,2.33,0,1,0,0,4.66H88.18v4.66a7,7,0,0,0,7,7h2.32v6l-8.64,8.62a2.31,2.31,0,0,0-.67,1.65v9.32a2.33,2.33,0,1,0,4.66,0V162l8.64-8.62a2.31,2.31,0,0,0,.67-1.65v-7h14V161a2.33,2.33,0,0,0,4.66,0V144.7h14v7a2.27,2.27,0,0,0,.67,1.65l8.64,8.62v8.36a2.33,2.33,0,0,0,4.66,0V161a2.36,2.36,0,0,0-.67-1.65l-8.65-8.62v-6h2.33a7,7,0,0,0,7-7v-4.66h16.31a2.33,2.33,0,0,0,0-4.66H148.74V116.75h25.62a2.33,2.33,0,0,0,0-4.66ZM113.8,130.72a2.33,2.33,0,0,1-2.33,2.33h-9.32a2.33,2.33,0,0,1-2.33-2.33V121.4a2.34,2.34,0,0,1,2.33-2.33h9.32a2.33,2.33,0,0,1,2.33,2.33Zm0-23.29a2.33,2.33,0,0,1-2.33,2.33h-9.32a2.34,2.34,0,0,1-2.33-2.33V98.11a2.33,2.33,0,0,1,2.33-2.33h9.32a2.33,2.33,0,0,1,2.33,2.33Zm23.29,23.29a2.32,2.32,0,0,1-2.32,2.33h-9.32a2.33,2.33,0,0,1-2.33-2.33V121.4a2.33,2.33,0,0,1,2.33-2.33h9.32a2.33,2.33,0,0,1,2.32,2.33Zm0-23.29a2.33,2.33,0,0,1-2.32,2.33h-9.32a2.33,2.33,0,0,1-2.33-2.33V98.11a2.33,2.33,0,0,1,2.33-2.33h9.32a2.32,2.32,0,0,1,2.32,2.33Z"/><circle class="cls-1" cx="174.36" cy="130.72" r="2.33"/><circle class="cls-1" cx="62.55" cy="130.72" r="2.33"/><circle class="cls-1" cx="118.46" cy="58.51" r="2.33"/><circle class="cls-1" cx="62.55" cy="98.11" r="2.33"/><path class="cls-2" d="M141.75,84.13h-2.33V35.22a7,7,0,0,0-7-7H48.58a7,7,0,0,0-7,7V84.13H39.26a7,7,0,0,0-7,7,9.32,9.32,0,0,0,9.32,9.32h97.83a9.32,9.32,0,0,0,9.32-9.32A7,7,0,0,0,141.75,84.13ZM46.25,35.22a2.33,2.33,0,0,1,2.33-2.33h83.86a2.33,2.33,0,0,1,2.33,2.33V84.13H46.25Zm93.17,60.56H41.59a4.66,4.66,0,0,1-4.66-4.66,2.33,2.33,0,0,1,2.33-2.33H141.75a2.33,2.33,0,0,1,2.33,2.33A4.66,4.66,0,0,1,139.42,95.78Z"/><path class="cls-2" d="M71.87,42.2A16.31,16.31,0,1,0,88.18,58.51,16.31,16.31,0,0,0,71.87,42.2Zm0,28A11.65,11.65,0,1,1,83.52,58.51,11.66,11.66,0,0,1,71.87,70.16Z"/><path class="cls-2" d="M123.12,42.2H95.17a2.33,2.33,0,0,0-2.33,2.33v28a2.33,2.33,0,0,0,2.33,2.33h28a2.34,2.34,0,0,0,2.33-2.33v-28A2.34,2.34,0,0,0,123.12,42.2Zm-2.33,28H97.49V46.86h23.3Z"/></svg>