<svg id="Layer_1" data-name="Layer 1" xmlns="http://www.w3.org/2000/svg" viewBox="0 0 200 200"><defs><style>.cls-1{fill:#e74039;}.cls-2{fill:#151a6a;}</style></defs><path class="cls-1" d="M148.39,122.51a135.22,135.22,0,0,1-1,17.07C165.54,136.2,177,129.09,177,122.51a52.6,52.6,0,0,0-41.81-51.4c7.87,9.26,13.17,28.56,13.17,51.4Z"/><path class="cls-1" d="M124.53,141.6a128.81,128.81,0,0,0,17.88-1.22,130.22,130.22,0,0,0,1.21-17.87c0-30.93-10.06-52.49-19.09-52.49A52.55,52.55,0,0,0,72,122.51C72,131.54,93.6,141.6,124.53,141.6Z"/><path class="cls-1" d="M146.61,144.59c-2.18,12.87-6.23,23.25-11.39,29.32a52.66,52.66,0,0,0,40.71-40.72C169.87,138.35,159.49,142.41,146.61,144.59Z"/><path class="cls-1" d="M141.61,145.33a137.39,137.39,0,0,1-17.08,1c-22.83,0-42.14-5.3-51.39-13.18A52.57,52.57,0,0,0,124.53,175C131.12,175,138.23,163.52,141.61,145.33Z"/><path class="cls-2" d="M106.84,72.34l14.33-13.23a16.74,16.74,0,1,0-3.23-3.5L103.6,68.84A27.38,27.38,0,0,0,89.49,62l1-13.67A9.61,9.61,0,1,0,85.71,48l-1,13.69A27.26,27.26,0,0,0,68.4,67.43l-15.69-17a13.13,13.13,0,1,0-3.5,3.24l15.7,17a27.24,27.24,0,0,0-7.06,16h-10a9.55,9.55,0,1,0,0,4.77h10A27.32,27.32,0,0,0,65,107.61L55.2,118.26a16.74,16.74,0,1,0,3.52,3.23l9.76-10.65a27.25,27.25,0,0,0,16.25,5.68l1,13.69a9.48,9.48,0,1,0,4.76-.37l-1-13.67a27.34,27.34,0,0,0,14.18-6.86l8,7.33a20.3,20.3,0,1,0,3.22-3.52l-8-7.33a27.25,27.25,0,0,0,5.58-14.3h9.91a13.12,13.12,0,1,0,0-4.77h-9.91a27.23,27.23,0,0,0-5.64-14.38Zm24.85-38.11a11.93,11.93,0,1,1-11.93,11.93A11.93,11.93,0,0,1,131.69,34.23ZM84,39a4.78,4.78,0,1,1,4.77,4.77A4.77,4.77,0,0,1,84,39ZM33.86,42.58a8.36,8.36,0,1,1,8.36,8.35A8.35,8.35,0,0,1,33.86,42.58Zm4.78,51.3a4.78,4.78,0,1,1,4.77-4.77A4.78,4.78,0,0,1,38.64,93.88ZM45.79,144a11.94,11.94,0,1,1,11.94-11.93A11.94,11.94,0,0,1,45.79,144Zm47.73-4.78a4.78,4.78,0,1,1-4.78-4.77A4.78,4.78,0,0,1,93.52,139.21Zm50.1-10.73A15.51,15.51,0,1,1,128.11,113,15.51,15.51,0,0,1,143.62,128.48ZM85.16,111.77a22.67,22.67,0,1,1,22.67-22.66A22.66,22.66,0,0,1,85.16,111.77Zm50.11-31a8.35,8.35,0,1,1-8.35,8.35A8.35,8.35,0,0,1,135.27,80.76Z"/><path class="cls-2" d="M85.16,71.21a2.39,2.39,0,0,0,0,4.77A13.14,13.14,0,0,1,98.29,89.11a2.39,2.39,0,0,0,4.77,0A17.92,17.92,0,0,0,85.16,71.21Z"/></svg>