<svg id="Layer_1" data-name="Layer 1" xmlns="http://www.w3.org/2000/svg" viewBox="0 0 200 200"><defs><style>.cls-1{fill:#e74039;}.cls-2{fill:#151a6a;}</style></defs><path class="cls-1" d="M87.39,135.26H111v26H87.39Z"/><path class="cls-1" d="M87.39,111.61h70.94v9.46H87.39Z"/><path class="cls-1" d="M73.2,99.79v68.58a7.09,7.09,0,0,0,7.09,7.09h85.14a7.08,7.08,0,0,0,7.09-7.09V99.79Zm42.57,63.85A2.36,2.36,0,0,1,113.4,166H85a2.36,2.36,0,0,1-2.36-2.36V132.9A2.37,2.37,0,0,1,85,130.53H113.4a2.37,2.37,0,0,1,2.37,2.37ZM160.7,166H122.86a2.37,2.37,0,0,1,0-4.73H160.7a2.37,2.37,0,0,1,0,4.73Zm0-9.45H122.86a2.37,2.37,0,0,1,0-4.73H160.7a2.37,2.37,0,0,1,0,4.73Zm0-9.46H122.86a2.37,2.37,0,0,1,0-4.73H160.7a2.37,2.37,0,0,1,0,4.73Zm0-9.46H122.86a2.37,2.37,0,0,1,0-4.73H160.7a2.37,2.37,0,0,1,0,4.73Zm2.36-14.19a2.36,2.36,0,0,1-2.36,2.36H85a2.36,2.36,0,0,1-2.36-2.36V109.25A2.37,2.37,0,0,1,85,106.88H160.7a2.37,2.37,0,0,1,2.36,2.37Z"/><path class="cls-1" d="M172.52,95.06V83.24a7.09,7.09,0,0,0-7.09-7.1H80.29a7.1,7.1,0,0,0-7.09,7.1V95.06ZM158.33,83.24h2.37a2.37,2.37,0,0,1,0,4.73h-2.37a2.37,2.37,0,0,1,0-4.73Zm-11.82,0h2.36a2.37,2.37,0,1,1,0,4.73h-2.36a2.37,2.37,0,1,1,0-4.73Zm-11.82,0h2.36a2.37,2.37,0,0,1,0,4.73h-2.36a2.37,2.37,0,1,1,0-4.73Z"/><path class="cls-2" d="M94.48,28.85H33a7.09,7.09,0,0,0-7.1,7.09V140a7.1,7.1,0,0,0,7.1,7.1H94.48a7.1,7.1,0,0,0,7.1-7.1v-104A7.09,7.09,0,0,0,94.48,28.85ZM30.63,43H96.85V132.9H30.63ZM33,33.58H94.48a2.36,2.36,0,0,1,2.37,2.36V38.3H30.63V35.94A2.36,2.36,0,0,1,33,33.58ZM94.48,142.36H33A2.37,2.37,0,0,1,30.63,140v-2.36H96.85V140A2.37,2.37,0,0,1,94.48,142.36Z"/><path class="cls-2" d="M63.74,102.15A23.65,23.65,0,1,0,40.09,78.51,23.64,23.64,0,0,0,63.74,102.15ZM45,80.87h8.7a42.42,42.42,0,0,0,3.07,15.21A19,19,0,0,1,45,80.87ZM63.74,59.59c1.5,0,4.89,5.62,5.33,16.55H58.41C58.85,65.21,62.24,59.59,63.74,59.59Zm5.33,21.28c-.44,10.93-3.83,16.55-5.33,16.55s-4.89-5.62-5.33-16.55Zm1.65,15.21A42.64,42.64,0,0,0,73.8,80.87h8.7A19,19,0,0,1,70.71,96.08ZM82.5,76.14H73.8a42.59,42.59,0,0,0-3.08-15.2A18.94,18.94,0,0,1,82.5,76.14ZM56.77,60.94a42.59,42.59,0,0,0-3.08,15.2H45A18.94,18.94,0,0,1,56.77,60.94Z"/><path class="cls-2" d="M80.29,106.88H47.19a7.1,7.1,0,1,0,0,14.19h33.1a7.1,7.1,0,1,0,0-14.19Zm0,9.46H47.19a2.37,2.37,0,1,1,0-4.73h33.1a2.37,2.37,0,1,1,0,4.73Z"/></svg>