<svg xmlns="http://www.w3.org/2000/svg" xmlns:xlink="http://www.w3.org/1999/xlink" viewBox="0 0 1920 400"><defs><style>.cls-1,.cls-116,.cls-117{fill:none;}.cls-2{clip-path:url(#clip-path);}.cls-3{fill:url(#linear-gradient);}.cls-4{fill:url(#linear-gradient-2);}.cls-5{fill:url(#linear-gradient-3);}.cls-6{fill:url(#linear-gradient-4);}.cls-7{fill:url(#linear-gradient-5);}.cls-8{fill:url(#linear-gradient-6);}.cls-9{fill:url(#linear-gradient-7);}.cls-10{fill:url(#linear-gradient-8);}.cls-11{fill:url(#linear-gradient-9);}.cls-12{fill:url(#linear-gradient-10);}.cls-13{fill:url(#linear-gradient-11);}.cls-14{fill:url(#linear-gradient-12);}.cls-15{fill:url(#linear-gradient-13);}.cls-16{fill:url(#linear-gradient-14);}.cls-17{fill:url(#linear-gradient-15);}.cls-18{fill:url(#linear-gradient-16);}.cls-19{fill:url(#linear-gradient-17);}.cls-20{fill:url(#linear-gradient-18);}.cls-21{fill:url(#linear-gradient-19);}.cls-22{fill:url(#linear-gradient-20);}.cls-23{fill:url(#linear-gradient-21);}.cls-24{fill:url(#linear-gradient-22);}.cls-25{fill:url(#linear-gradient-23);}.cls-26{fill:url(#linear-gradient-24);}.cls-27{fill:url(#linear-gradient-25);}.cls-28{fill:url(#linear-gradient-26);}.cls-29{fill:url(#linear-gradient-27);}.cls-30{fill:url(#linear-gradient-28);}.cls-31{fill:url(#linear-gradient-29);}.cls-32{fill:url(#linear-gradient-30);}.cls-33{fill:url(#linear-gradient-31);}.cls-34{fill:url(#linear-gradient-32);}.cls-35{fill:url(#linear-gradient-33);}.cls-36{fill:url(#linear-gradient-34);}.cls-37{fill:url(#linear-gradient-35);}.cls-38{fill:url(#linear-gradient-36);}.cls-39{fill:url(#linear-gradient-37);}.cls-40{fill:url(#linear-gradient-38);}.cls-41{fill:url(#linear-gradient-39);}.cls-42{fill:url(#linear-gradient-40);}.cls-43{fill:url(#linear-gradient-41);}.cls-44{fill:url(#linear-gradient-42);}.cls-45{fill:url(#linear-gradient-43);}.cls-46{fill:url(#linear-gradient-44);}.cls-47{fill:url(#linear-gradient-45);}.cls-48{fill:url(#linear-gradient-46);}.cls-49{fill:url(#linear-gradient-47);}.cls-50{fill:url(#linear-gradient-48);}.cls-51{fill:url(#linear-gradient-49);}.cls-52{fill:url(#linear-gradient-50);}.cls-53{fill:url(#linear-gradient-51);}.cls-54{fill:url(#linear-gradient-52);}.cls-55{fill:url(#linear-gradient-53);}.cls-56{fill:url(#linear-gradient-54);}.cls-57{fill:url(#linear-gradient-55);}.cls-58{fill:url(#linear-gradient-56);}.cls-59{fill:url(#linear-gradient-57);}.cls-60{fill:url(#linear-gradient-58);}.cls-61{fill:url(#linear-gradient-59);}.cls-62{fill:url(#linear-gradient-60);}.cls-63{fill:url(#linear-gradient-61);}.cls-64{fill:url(#linear-gradient-62);}.cls-65{fill:url(#linear-gradient-63);}.cls-66{fill:url(#linear-gradient-64);}.cls-67{fill:url(#linear-gradient-65);}.cls-68{fill:url(#linear-gradient-66);}.cls-69{fill:url(#linear-gradient-67);}.cls-70{fill:url(#linear-gradient-68);}.cls-71{fill:url(#linear-gradient-69);}.cls-72{fill:url(#linear-gradient-70);}.cls-73{fill:url(#linear-gradient-71);}.cls-74{fill:url(#linear-gradient-72);}.cls-75{fill:url(#linear-gradient-73);}.cls-76{fill:url(#linear-gradient-74);}.cls-77{fill:url(#linear-gradient-75);}.cls-78{fill:url(#linear-gradient-76);}.cls-79{fill:url(#linear-gradient-77);}.cls-80{fill:url(#linear-gradient-78);}.cls-81{fill:url(#linear-gradient-79);}.cls-82{fill:url(#linear-gradient-80);}.cls-83{fill:url(#linear-gradient-81);}.cls-84{fill:url(#linear-gradient-82);}.cls-85{fill:url(#linear-gradient-83);}.cls-86{fill:url(#linear-gradient-84);}.cls-87{fill:url(#linear-gradient-85);}.cls-88{fill:url(#linear-gradient-86);}.cls-89{fill:url(#linear-gradient-87);}.cls-90{fill:url(#linear-gradient-88);}.cls-91{fill:url(#linear-gradient-89);}.cls-92{fill:url(#linear-gradient-90);}.cls-93{fill:url(#linear-gradient-91);}.cls-94{fill:url(#linear-gradient-92);}.cls-95{fill:url(#linear-gradient-93);}.cls-96{fill:url(#linear-gradient-94);}.cls-97{fill:url(#linear-gradient-95);}.cls-98{fill:url(#linear-gradient-96);}.cls-99{fill:url(#linear-gradient-97);}.cls-100{fill:url(#linear-gradient-98);}.cls-101{fill:url(#linear-gradient-99);}.cls-102{fill:url(#linear-gradient-100);}.cls-103{fill:url(#linear-gradient-101);}.cls-104{clip-path:url(#clip-path-2);}.cls-105{fill-opacity:0.1;fill:url(#linear-gradient-102);}.cls-106,.cls-107,.cls-108,.cls-109,.cls-110,.cls-111,.cls-112,.cls-113,.cls-114,.cls-115{fill-opacity:0.15;}.cls-106{fill:url(#linear-gradient-103);}.cls-107{fill:url(#linear-gradient-104);}.cls-108{fill:url(#linear-gradient-105);}.cls-109{fill:url(#linear-gradient-106);}.cls-110{fill:url(#linear-gradient-107);}.cls-111{fill:url(#linear-gradient-108);}.cls-112{fill:url(#linear-gradient-109);}.cls-113{fill:url(#linear-gradient-110);}.cls-114{fill:url(#linear-gradient-111);}.cls-115{fill:url(#linear-gradient-112);}.cls-116{stroke:#c5c9e0;opacity:0.3;}.cls-116,.cls-117{stroke-linecap:square;isolation:isolate;}.cls-117{stroke:#1d1d1d;opacity:0.5;}</style><clipPath id="clip-path"><rect class="cls-1" x="0.56" y="-498.82" width="1920" height="400"/></clipPath><linearGradient id="linear-gradient" x1="322.37" y1="456.48" x2="324.92" y2="453.93" gradientTransform="matrix(66, 0, 0, -41, -20573, 18656)" gradientUnits="userSpaceOnUse"><stop offset="0" stop-color="#c6c6c6"/><stop offset="1" stop-color="#a5a5a5"/></linearGradient><linearGradient id="linear-gradient-2" x1="318.14" y1="458.31" x2="320.7" y2="455.75" gradientTransform="matrix(92, 0, 0, -70, -29142, 32115)" gradientUnits="userSpaceOnUse"><stop offset="0" stop-color="#e7e7e7"/><stop offset="1" stop-color="#dadada"/></linearGradient><linearGradient id="linear-gradient-3" x1="318.51" y1="459.44" x2="321.06" y2="456.89" gradientTransform="matrix(66, 0, 0, -75, -20770, 34425)" gradientUnits="userSpaceOnUse"><stop offset="0" stop-color="#e3e3e3"/><stop offset="1" stop-color="#dbdbdb"/></linearGradient><linearGradient id="linear-gradient-4" x1="323" y1="458.1" x2="325.54" y2="455.56" gradientTransform="matrix(33, 0, 0, -58, -10009, 26544)" gradientUnits="userSpaceOnUse"><stop offset="0" stop-color="#a9a9a9"/><stop offset="1" stop-color="#d2d2d2"/></linearGradient><linearGradient id="linear-gradient-5" x1="323.35" y1="457.1" x2="325.9" y2="454.55" gradientTransform="matrix(33, 0, 0, -41, -10009, 18656)" gradientUnits="userSpaceOnUse"><stop offset="0" stop-color="#e0e0e0"/><stop offset="1" stop-color="#d5d5d5"/></linearGradient><linearGradient id="linear-gradient-6" x1="341.67" y1="459.57" x2="344.22" y2="457.03" gradientTransform="matrix(16, 0, 0, -114, -4383, 52556)" gradientUnits="userSpaceOnUse"><stop offset="0" stop-color="#dedede"/><stop offset="1" stop-color="#d6d7d7"/></linearGradient><linearGradient id="linear-gradient-7" x1="316.24" y1="452.59" x2="318.79" y2="450.04" gradientTransform="matrix(73, 0, 0, -51, -23102, 23451)" gradientUnits="userSpaceOnUse"><stop offset="0" stop-color="#eeefef"/><stop offset="1" stop-color="#f3f3f3"/></linearGradient><linearGradient id="linear-gradient-8" x1="311.37" y1="457.97" x2="313.92" y2="455.42" gradientTransform="matrix(35, 0, 0, -92, -10910, 42391)" gradientUnits="userSpaceOnUse"><stop offset="0" stop-color="#ececec"/><stop offset="1" stop-color="#efefef"/></linearGradient><linearGradient id="linear-gradient-9" x1="316.26" y1="458.07" x2="318.81" y2="455.52" gradientTransform="matrix(65, 0, 0, -75, -20540, 34488)" gradientUnits="userSpaceOnUse"><stop offset="0" stop-color="#ebeceb"/><stop offset="1" stop-color="#ececec"/></linearGradient><linearGradient id="linear-gradient-10" x1="321.78" y1="456.64" x2="324.34" y2="454.08" gradientTransform="matrix(82, 0, 0, -52, -25727, 23790)" gradientUnits="userSpaceOnUse"><stop offset="0" stop-color="#a0a0a0"/><stop offset="1" stop-color="#c4c4c4"/></linearGradient><linearGradient id="linear-gradient-11" x1="323.38" y1="459.33" x2="325.93" y2="456.78" gradientTransform="matrix(62, 0, 0, -70, -19285, 32106)" gradientUnits="userSpaceOnUse"><stop offset="0" stop-color="#b9b9b9"/><stop offset="1" stop-color="#b2b2b2"/></linearGradient><linearGradient id="linear-gradient-12" x1="325.36" y1="458.53" x2="327.9" y2="455.98" gradientTransform="matrix(45, 0, 0, -70, -13768, 32106)" gradientUnits="userSpaceOnUse"><stop offset="0" stop-color="#cdcdcd"/><stop offset="1" stop-color="#b9baba"/></linearGradient><linearGradient id="linear-gradient-13" x1="323.67" y1="459.11" x2="326.23" y2="456.56" gradientTransform="matrix(90, 0, 0, -60, -28211, 27451)" gradientUnits="userSpaceOnUse"><stop offset="0" stop-color="#99999a"/><stop offset="1" stop-color="#bfc0c1"/></linearGradient><linearGradient id="linear-gradient-14" x1="327.22" y1="460.82" x2="329.77" y2="458.28" gradientTransform="matrix(47, 0, 0, -103, -14365, 47360)" gradientUnits="userSpaceOnUse"><stop offset="0" stop-color="#bdbec0"/><stop offset="1" stop-color="#c1c2c3"/></linearGradient><linearGradient id="linear-gradient-15" x1="321.18" y1="458.21" x2="323.74" y2="455.66" gradientTransform="matrix(85, 0, 0, -87, -26706, 40029)" gradientUnits="userSpaceOnUse"><stop offset="0" stop-color="#e9e9e9"/><stop offset="1" stop-color="#c6c6c6"/></linearGradient><linearGradient id="linear-gradient-16" x1="322.07" y1="452.11" x2="324.62" y2="449.55" gradientTransform="matrix(85, 0, 0, -44, -26706, 20199)" gradientUnits="userSpaceOnUse"><stop offset="0" stop-color="#e9e9e9"/><stop offset="1" stop-color="#ededed"/></linearGradient><linearGradient id="linear-gradient-17" x1="322.41" y1="458.68" x2="324.97" y2="456.13" gradientTransform="matrix(82, 0, 0, -79, -25727, 36325)" gradientUnits="userSpaceOnUse"><stop offset="0" stop-color="#b4b4b4"/><stop offset="1" stop-color="#e7e7e7"/></linearGradient><linearGradient id="linear-gradient-18" x1="318.39" y1="458.36" x2="320.95" y2="455.81" gradientTransform="matrix(54, 0, 0, -98, -16871, 45149)" gradientUnits="userSpaceOnUse"><stop offset="0" stop-color="#f2f2f2"/><stop offset="1" stop-color="#e3e3e3"/></linearGradient><linearGradient id="linear-gradient-19" x1="320.59" y1="454.83" x2="323.15" y2="452.28" gradientTransform="matrix(62, 0, 0, -61, -19385, 28078)" gradientUnits="userSpaceOnUse"><stop offset="0" stop-color="#e7e7e7"/><stop offset="1" stop-color="#efefef"/></linearGradient><linearGradient id="linear-gradient-20" x1="318.21" y1="459.1" x2="320.76" y2="456.55" gradientTransform="matrix(56, 0, 0, -98, -17550, 45149)" gradientUnits="userSpaceOnUse"><stop offset="0" stop-color="#f4f4f4"/><stop offset="1" stop-color="#e4e4e4"/></linearGradient><linearGradient id="linear-gradient-21" x1="316.46" y1="457.39" x2="319.01" y2="454.83" gradientTransform="matrix(66, 0, 0, -75, -20826, 34488)" gradientUnits="userSpaceOnUse"><stop offset="0" stop-color="#f2f2f2"/><stop offset="1" stop-color="#eee"/></linearGradient><linearGradient id="linear-gradient-22" x1="317.23" y1="456.14" x2="319.78" y2="453.59" gradientTransform="matrix(66, 0, 0, -67, -20826, 30843)" gradientUnits="userSpaceOnUse"><stop offset="0" stop-color="#f3f3f3"/><stop offset="1" stop-color="#f5f5f5"/></linearGradient><linearGradient id="linear-gradient-23" x1="318.61" y1="456.42" x2="321.17" y2="453.86" gradientTransform="matrix(92, 0, 0, -59, -29142, 27080)" gradientUnits="userSpaceOnUse"><stop offset="0" stop-color="#ebebeb"/><stop offset="1" stop-color="#e3e3e3"/></linearGradient><linearGradient id="linear-gradient-24" x1="317.06" y1="455.33" x2="319.61" y2="452.77" gradientTransform="matrix(59, 0, 0, -67, -18535, 30843)" gradientUnits="userSpaceOnUse"><stop offset="0" stop-color="#f6f6f6"/><stop offset="1" stop-color="#f4f4f4"/></linearGradient><linearGradient id="linear-gradient-25" x1="313.48" y1="457.7" x2="316.02" y2="455.17" gradientTransform="matrix(44, 0, 0, -65, -13799, 29825)" gradientUnits="userSpaceOnUse"><stop offset="0" stop-color="#d8d9da"/><stop offset="1" stop-color="#e1e1e1"/></linearGradient><linearGradient id="linear-gradient-26" x1="312.88" y1="458.48" x2="315.43" y2="455.93" gradientTransform="matrix(44, 0, 0, -63, -13799, 28837)" gradientUnits="userSpaceOnUse"><stop offset="0" stop-color="#d1d2d3"/><stop offset="1" stop-color="#d0d1d2"/></linearGradient><linearGradient id="linear-gradient-27" x1="315.7" y1="457.41" x2="318.26" y2="454.85" gradientTransform="matrix(65, 0, 0, -64, -20540, 29363)" gradientUnits="userSpaceOnUse"><stop offset="0" stop-color="#e7e7e7"/><stop offset="1" stop-color="#e2e2e2"/></linearGradient><linearGradient id="linear-gradient-28" x1="315.7" y1="458.03" x2="318.25" y2="455.48" gradientTransform="matrix(47, 0, 0, -58, -14718, 26559)" gradientUnits="userSpaceOnUse"><stop offset="0" stop-color="#e3e3e3"/><stop offset="1" stop-color="#dedede"/></linearGradient><linearGradient id="linear-gradient-29" x1="319.81" y1="458.29" x2="322.36" y2="455.74" gradientTransform="matrix(58, 0, 0, -82, -18136, 37741)" gradientUnits="userSpaceOnUse"><stop offset="0" stop-color="#dcdcdc"/><stop offset="1" stop-color="#e2e2e2"/></linearGradient><linearGradient id="linear-gradient-30" x1="320.03" y1="457.12" x2="322.58" y2="454.57" gradientTransform="matrix(62, 0, 0, -77, -19385, 35431)" gradientUnits="userSpaceOnUse"><stop offset="0" stop-color="#eee"/><stop offset="1" stop-color="#dcdcdc"/></linearGradient><linearGradient id="linear-gradient-31" x1="321.41" y1="459.13" x2="323.96" y2="456.58" gradientTransform="matrix(55, 0, 0, -87, -17115, 40029)" gradientUnits="userSpaceOnUse"><stop offset="0" stop-color="#efefef"/><stop offset="1" stop-color="#bababa"/></linearGradient><linearGradient id="linear-gradient-32" x1="318.27" y1="456.56" x2="320.82" y2="454.01" gradientTransform="matrix(46, 0, 0, -41, -14305, 18660)" gradientUnits="userSpaceOnUse"><stop offset="0" stop-color="#e4e4e4"/><stop offset="1" stop-color="#dbdbdb"/></linearGradient><linearGradient id="linear-gradient-33" x1="318.5" y1="459.18" x2="321.05" y2="456.62" gradientTransform="matrix(46, 0, 0, -75, -14305, 34425)" gradientUnits="userSpaceOnUse"><stop offset="0" stop-color="#e7e7e7"/><stop offset="1" stop-color="#ddd"/></linearGradient><linearGradient id="linear-gradient-34" x1="319.77" y1="459.52" x2="322.32" y2="456.97" gradientTransform="matrix(61, 0, 0, -61, -19101, 27900)" gradientUnits="userSpaceOnUse"><stop offset="0" stop-color="#d4d4d4"/><stop offset="1" stop-color="#e0e0e0"/></linearGradient><linearGradient id="linear-gradient-35" x1="319.15" y1="457.46" x2="321.7" y2="454.9" gradientTransform="matrix(58, 0, 0, -62, -18136, 28424)" gradientUnits="userSpaceOnUse"><stop offset="0" stop-color="#d0d0d0"/><stop offset="1" stop-color="#d7d7d7"/></linearGradient><linearGradient id="linear-gradient-36" x1="320.35" y1="457.69" x2="322.89" y2="455.14" gradientTransform="matrix(88, 0, 0, -62, -27741, 28424)" gradientUnits="userSpaceOnUse"><stop offset="0" stop-color="#c4c4c4"/><stop offset="1" stop-color="#b7b7b7"/></linearGradient><linearGradient id="linear-gradient-37" x1="319.99" y1="458.9" x2="322.54" y2="456.35" gradientTransform="matrix(77, 0, 0, -61, -24210, 27900)" gradientUnits="userSpaceOnUse"><stop offset="0" stop-color="#ddd"/><stop offset="1" stop-color="#e7e7e7"/></linearGradient><linearGradient id="linear-gradient-38" x1="320.68" y1="458.4" x2="323.22" y2="455.86" gradientTransform="matrix(88, 0, 0, -58, -27741, 26544)" gradientUnits="userSpaceOnUse"><stop offset="0" stop-color="#e8e8e8"/><stop offset="1" stop-color="#c3c3c3"/></linearGradient><linearGradient id="linear-gradient-39" x1="315.08" y1="457.73" x2="317.63" y2="455.18" gradientTransform="matrix(47, 0, 0, -53, -14718, 24217)" gradientUnits="userSpaceOnUse"><stop offset="0" stop-color="#dbdbdc"/><stop offset="1" stop-color="#dadadc"/></linearGradient><linearGradient id="linear-gradient-40" x1="315.61" y1="459.46" x2="318.16" y2="456.91" gradientTransform="matrix(57, 0, 0, -63, -17971, 28837)" gradientUnits="userSpaceOnUse"><stop offset="0" stop-color="#cccdcf"/><stop offset="1" stop-color="#d6d7d8"/></linearGradient><linearGradient id="linear-gradient-41" x1="316.18" y1="457.56" x2="318.73" y2="455.01" gradientTransform="matrix(46, 0, 0, -41, -14383, 18647)" gradientUnits="userSpaceOnUse"><stop offset="0" stop-color="#d8d8da"/><stop offset="1" stop-color="#d0d0d1"/></linearGradient><linearGradient id="linear-gradient-42" x1="316.31" y1="456.7" x2="318.87" y2="454.14" gradientTransform="matrix(45, 0, 0, -41, -14029, 18647)" gradientUnits="userSpaceOnUse"><stop offset="0" stop-color="#dfdfdf"/><stop offset="1" stop-color="#d4d4d4"/></linearGradient><linearGradient id="linear-gradient-43" x1="324.45" y1="456.01" x2="327" y2="453.46" gradientTransform="matrix(49, 0, 0, -61, -15065, 28009)" gradientUnits="userSpaceOnUse"><stop offset="0" stop-color="#f2f2f2"/><stop offset="1" stop-color="#e5e5e5"/></linearGradient><linearGradient id="linear-gradient-44" x1="326.03" y1="458.8" x2="328.57" y2="456.25" gradientTransform="matrix(45, 0, 0, -76, -13768, 34919)" gradientUnits="userSpaceOnUse"><stop offset="0" stop-color="#c7c8c8"/><stop offset="1" stop-color="#d7d7d8"/></linearGradient><linearGradient id="linear-gradient-45" x1="325.38" y1="458.1" x2="327.93" y2="455.55" gradientTransform="matrix(56, 0, 0, -76, -17263, 34919)" gradientUnits="userSpaceOnUse"><stop offset="0" stop-color="#d4d4d5"/><stop offset="1" stop-color="#cecfcf"/></linearGradient><linearGradient id="linear-gradient-46" x1="326.12" y1="458.08" x2="328.67" y2="455.53" gradientTransform="matrix(56, 0, 0, -78, -17263, 35888)" gradientUnits="userSpaceOnUse"><stop offset="0" stop-color="#dedee0"/><stop offset="1" stop-color="#d7d8d8"/></linearGradient><linearGradient id="linear-gradient-47" x1="327.33" y1="455.66" x2="329.88" y2="453.11" gradientTransform="matrix(40, 0, 0, -66, -12127, 30365)" gradientUnits="userSpaceOnUse"><stop offset="0" stop-color="#dedede"/><stop offset="1" stop-color="#dadada"/></linearGradient><linearGradient id="linear-gradient-48" x1="326.85" y1="448.2" x2="329.4" y2="445.66" gradientTransform="matrix(48, 0, 0, -36, -14687, 16520)" gradientUnits="userSpaceOnUse"><stop offset="0" stop-color="#d2d2d3"/><stop offset="1" stop-color="#e3e3e3"/></linearGradient><linearGradient id="linear-gradient-49" x1="320.71" y1="454.61" x2="323.27" y2="452.05" gradientTransform="matrix(52, 0, 0, -61, -16159, 28078)" gradientUnits="userSpaceOnUse"><stop offset="0" stop-color="#e6e6e6"/><stop offset="1" stop-color="#f2f2f2"/></linearGradient><linearGradient id="linear-gradient-50" x1="321.89" y1="453.59" x2="324.43" y2="451.05" gradientTransform="matrix(49, 0, 0, -56, -15150, 25763)" gradientUnits="userSpaceOnUse"><stop offset="0" stop-color="#efefef"/><stop offset="1" stop-color="#f3f3f3"/></linearGradient><linearGradient id="linear-gradient-51" x1="319.15" y1="447.39" x2="321.7" y2="444.84" gradientTransform="matrix(54, 0, 0, -34, -16871, 15599)" gradientUnits="userSpaceOnUse"><stop offset="0" stop-color="#f4f4f4"/><stop offset="1" stop-color="#f6f6f6"/></linearGradient><linearGradient id="linear-gradient-52" x1="318.93" y1="448.88" x2="321.48" y2="446.33" gradientTransform="matrix(34, 0, 0, -39, -10415, 17914)" xlink:href="#linear-gradient-21"/><linearGradient id="linear-gradient-53" x1="323.28" y1="451.54" x2="325.84" y2="448.98" gradientTransform="matrix(54, 0, 0, -44, -16706, 20199)" xlink:href="#linear-gradient-50"/><linearGradient id="linear-gradient-54" x1="323.81" y1="449.27" x2="326.36" y2="446.73" gradientTransform="matrix(54, 0, 0, -38, -16706, 17445)" xlink:href="#linear-gradient-16"/><linearGradient id="linear-gradient-55" x1="325.12" y1="452.68" x2="327.68" y2="450.13" gradientTransform="matrix(49, 0, 0, -44, -15065, 20179)" gradientUnits="userSpaceOnUse"><stop offset="0" stop-color="#f0f0f0"/><stop offset="1" stop-color="#eee"/></linearGradient><linearGradient id="linear-gradient-56" x1="326.04" y1="448.6" x2="328.59" y2="446.06" gradientTransform="matrix(40, 0, 0, -38, -12159, 17445)" gradientUnits="userSpaceOnUse"><stop offset="0" stop-color="#efefef"/><stop offset="1" stop-color="#f0f0f0"/></linearGradient><linearGradient id="linear-gradient-57" x1="326.69" y1="456.04" x2="329.23" y2="453.5" gradientTransform="matrix(39, 0, 0, -66, -11837, 30365)" gradientUnits="userSpaceOnUse"><stop offset="0" stop-color="#e1e1e1"/><stop offset="1" stop-color="#e6e6e6"/></linearGradient><linearGradient id="linear-gradient-58" x1="339.43" y1="456.3" x2="341.98" y2="453.76" gradientTransform="translate(23938.5 18656) rotate(180) scale(66 41)" xlink:href="#linear-gradient"/><linearGradient id="linear-gradient-59" x1="330.38" y1="458.2" x2="332.93" y2="455.65" gradientTransform="translate(32507.5 32115) rotate(180) scale(92 70)" xlink:href="#linear-gradient-2"/><linearGradient id="linear-gradient-60" x1="335.56" y1="459.34" x2="338.12" y2="456.79" gradientTransform="translate(24135.5 34425) rotate(180) scale(66 75)" xlink:href="#linear-gradient-3"/><linearGradient id="linear-gradient-61" x1="357.11" y1="457.98" x2="359.65" y2="455.43" gradientTransform="translate(13374.5 26544) rotate(180) scale(33 58)" xlink:href="#linear-gradient-4"/><linearGradient id="linear-gradient-62" x1="357.46" y1="456.92" x2="360.01" y2="454.37" gradientTransform="translate(13374.5 18656) rotate(180) scale(33 41)" xlink:href="#linear-gradient-5"/><linearGradient id="linear-gradient-63" x1="412.03" y1="459.51" x2="414.57" y2="456.97" gradientTransform="translate(7748.5 52556) rotate(180) scale(16 114)" xlink:href="#linear-gradient-6"/><linearGradient id="linear-gradient-64" x1="335.51" y1="456.5" x2="338.06" y2="453.94" gradientTransform="translate(29092.5 23790) rotate(180) scale(82 52)" xlink:href="#linear-gradient-10"/><linearGradient id="linear-gradient-65" x1="341.54" y1="459.22" x2="344.09" y2="456.67" gradientTransform="translate(22650.5 32106) rotate(180) scale(62 70)" xlink:href="#linear-gradient-11"/><linearGradient id="linear-gradient-66" x1="350.37" y1="458.43" x2="352.92" y2="455.88" gradientTransform="translate(17133.5 32106) rotate(180) scale(45 70)" xlink:href="#linear-gradient-12"/><linearGradient id="linear-gradient-67" x1="336.18" y1="458.99" x2="338.73" y2="456.44" gradientTransform="translate(31576.5 27451) rotate(180) scale(90 60)" xlink:href="#linear-gradient-13"/><linearGradient id="linear-gradient-68" x1="351.17" y1="460.75" x2="353.72" y2="458.2" gradientTransform="translate(17730.5 47360) rotate(180) scale(47 103)" xlink:href="#linear-gradient-14"/><linearGradient id="linear-gradient-69" x1="334.43" y1="458.13" x2="336.98" y2="455.58" gradientTransform="translate(30071.5 40029) rotate(180) scale(85 87)" xlink:href="#linear-gradient-15"/><linearGradient id="linear-gradient-70" x1="335.31" y1="451.94" x2="337.86" y2="449.39" gradientTransform="translate(30071.5 20199) rotate(180) scale(85 44)" xlink:href="#linear-gradient-16"/><linearGradient id="linear-gradient-71" x1="336.14" y1="458.59" x2="338.69" y2="456.04" gradientTransform="translate(29092.5 36325) rotate(180) scale(82 79)" xlink:href="#linear-gradient-17"/><linearGradient id="linear-gradient-72" x1="339.24" y1="458.29" x2="341.79" y2="455.74" gradientTransform="translate(20236.5 45149) rotate(180) scale(54 98)" xlink:href="#linear-gradient-18"/><linearGradient id="linear-gradient-73" x1="338.75" y1="454.71" x2="341.31" y2="452.16" gradientTransform="translate(22750.5 28078) rotate(180) scale(62 61)" xlink:href="#linear-gradient-19"/><linearGradient id="linear-gradient-74" x1="338.31" y1="459.03" x2="340.86" y2="456.48" gradientTransform="translate(20915.5 45149) rotate(180) scale(56 98)" xlink:href="#linear-gradient-20"/><linearGradient id="linear-gradient-75" x1="330.84" y1="456.3" x2="333.4" y2="453.74" gradientTransform="translate(32507.5 27080) rotate(180) scale(92 59)" xlink:href="#linear-gradient-23"/><linearGradient id="linear-gradient-76" x1="336.14" y1="455.22" x2="338.69" y2="452.66" gradientTransform="translate(21900.5 30843) rotate(180) scale(59 67)" xlink:href="#linear-gradient-24"/><linearGradient id="linear-gradient-77" x1="339.21" y1="458.2" x2="341.77" y2="455.65" gradientTransform="translate(21501.5 37741) rotate(180) scale(58 82)" xlink:href="#linear-gradient-29"/><linearGradient id="linear-gradient-78" x1="338.18" y1="457.03" x2="340.73" y2="454.48" gradientTransform="translate(22750.5 35431) rotate(180) scale(62 77)" xlink:href="#linear-gradient-30"/><linearGradient id="linear-gradient-79" x1="341.87" y1="459.04" x2="344.42" y2="456.49" gradientTransform="translate(20480.5 40029) rotate(180) scale(55 87)" xlink:href="#linear-gradient-31"/><linearGradient id="linear-gradient-80" x1="342.74" y1="456.38" x2="345.29" y2="453.83" gradientTransform="translate(17670.5 18660) rotate(180) scale(46 41)" xlink:href="#linear-gradient-32"/><linearGradient id="linear-gradient-81" x1="342.97" y1="459.08" x2="345.52" y2="456.53" gradientTransform="translate(17670.5 34425) rotate(180) scale(46 75)" xlink:href="#linear-gradient-33"/><linearGradient id="linear-gradient-82" x1="338.22" y1="459.4" x2="340.78" y2="456.85" gradientTransform="translate(22466.5 27900) rotate(180) scale(61)" xlink:href="#linear-gradient-34"/><linearGradient id="linear-gradient-83" x1="338.56" y1="457.34" x2="341.11" y2="454.78" gradientTransform="translate(21501.5 28424) rotate(180) scale(58 62)" xlink:href="#linear-gradient-35"/><linearGradient id="linear-gradient-84" x1="333.14" y1="457.57" x2="335.69" y2="455.03" gradientTransform="translate(31106.5 28424) rotate(180) scale(88 62)" xlink:href="#linear-gradient-36"/><linearGradient id="linear-gradient-85" x1="334.61" y1="458.78" x2="337.16" y2="456.23" gradientTransform="translate(27575.5 27900) rotate(180) scale(77 61)" xlink:href="#linear-gradient-37"/><linearGradient id="linear-gradient-86" x1="333.47" y1="458.28" x2="336.02" y2="455.73" gradientTransform="translate(31106.5 26544) rotate(180) scale(88 58)" xlink:href="#linear-gradient-38"/><linearGradient id="linear-gradient-87" x1="339.89" y1="456.3" x2="342.45" y2="453.74" gradientTransform="translate(19307.5 16332) rotate(180) scale(51 36)" gradientUnits="userSpaceOnUse"><stop offset="0" stop-color="#e2e2e2"/><stop offset="1" stop-color="#c9c9c9"/></linearGradient><linearGradient id="linear-gradient-88" x1="341.33" y1="456.52" x2="343.88" y2="453.97" gradientTransform="translate(17394.5 18647) rotate(180) scale(45 41)" xlink:href="#linear-gradient-42"/><linearGradient id="linear-gradient-89" x1="347.43" y1="455.89" x2="349.98" y2="453.34" gradientTransform="translate(18430.5 28009) rotate(180) scale(49 61)" xlink:href="#linear-gradient-43"/><linearGradient id="linear-gradient-90" x1="351.04" y1="458.7" x2="353.59" y2="456.16" gradientTransform="translate(17133.5 34919) rotate(180) scale(45 76)" xlink:href="#linear-gradient-44"/><linearGradient id="linear-gradient-91" x1="345.48" y1="458" x2="348.03" y2="455.45" gradientTransform="translate(20628.5 34919) rotate(180) scale(56 76)" xlink:href="#linear-gradient-45"/><linearGradient id="linear-gradient-92" x1="346.22" y1="457.98" x2="348.77" y2="455.43" gradientTransform="translate(20628.5 35888) rotate(180) scale(56 78)" xlink:href="#linear-gradient-46"/><linearGradient id="linear-gradient-93" x1="355.48" y1="455.55" x2="358.02" y2="453" gradientTransform="translate(15492.5 30365) rotate(180) scale(40 66)" xlink:href="#linear-gradient-47"/><linearGradient id="linear-gradient-94" x1="350.31" y1="448" x2="352.85" y2="445.46" gradientTransform="translate(18052.5 16520) rotate(180) scale(48 36)" xlink:href="#linear-gradient-48"/><linearGradient id="linear-gradient-95" x1="342.35" y1="454.49" x2="344.92" y2="451.93" gradientTransform="translate(19524.5 28078) rotate(180) scale(52 61)" xlink:href="#linear-gradient-49"/><linearGradient id="linear-gradient-96" x1="344.86" y1="453.46" x2="347.41" y2="450.92" gradientTransform="translate(18515.5 25763) rotate(180) scale(49 56)" xlink:href="#linear-gradient-50"/><linearGradient id="linear-gradient-97" x1="344.13" y1="451.37" x2="346.69" y2="448.82" gradientTransform="translate(20071.5 20199) rotate(180) scale(54 44)" xlink:href="#linear-gradient-50"/><linearGradient id="linear-gradient-98" x1="344.66" y1="449.08" x2="347.2" y2="446.54" gradientTransform="translate(20071.5 17445) rotate(180) scale(54 38)" xlink:href="#linear-gradient-16"/><linearGradient id="linear-gradient-99" x1="348.1" y1="452.52" x2="350.65" y2="449.96" gradientTransform="translate(18430.5 20179) rotate(180) scale(49 44)" xlink:href="#linear-gradient-55"/><linearGradient id="linear-gradient-100" x1="354.19" y1="448.41" x2="356.73" y2="445.87" gradientTransform="translate(15524.5 17445) rotate(180) scale(40 38)" xlink:href="#linear-gradient-56"/><linearGradient id="linear-gradient-101" x1="355.55" y1="455.93" x2="358.09" y2="453.39" gradientTransform="translate(15202.5 30365) rotate(180) scale(39 66)" xlink:href="#linear-gradient-57"/><clipPath id="clip-path-2"><rect class="cls-1" width="1920" height="400"/></clipPath><linearGradient id="linear-gradient-102" x1="1.33" y1="152.36" x2="1.33" y2="150.91" gradientTransform="matrix(-1440, 0, 0, 275, 2881, -41499)" gradientUnits="userSpaceOnUse"><stop offset="0" stop-color="#e74039"/><stop offset="1" stop-color="#e74039" stop-opacity="0"/></linearGradient><linearGradient id="linear-gradient-103" x1="-0.05" y1="151.55" x2="0.88" y2="151.55" gradientTransform="matrix(0, -500, 105.07, 0, -14148.53, 554.49)" xlink:href="#linear-gradient-102"/><linearGradient id="linear-gradient-104" x1="-0.14" y1="152.13" x2="0.79" y2="152.13" gradientTransform="matrix(0, -501.04, 101.91, 0, -13497.23, 483.58)" xlink:href="#linear-gradient-102"/><linearGradient id="linear-gradient-105" x1="0.75" y1="150.22" x2="1.67" y2="150.22" gradientTransform="matrix(0, -991.28, 160.56, 0, -22996.78, 1478.47)" xlink:href="#linear-gradient-102"/><linearGradient id="linear-gradient-106" x1="0.26" y1="151.94" x2="1.19" y2="151.94" gradientTransform="matrix(0, -625.72, 47.4, 0, -5581.6, 804.44)" xlink:href="#linear-gradient-102"/><linearGradient id="linear-gradient-107" x1="0.95" y1="144.86" x2="1.88" y2="144.86" gradientTransform="matrix(500, 0, 0, -67.95, -110.79, 10297.83)" xlink:href="#linear-gradient-102"/><linearGradient id="linear-gradient-108" x1="0.99" y1="147.44" x2="1.92" y2="147.44" gradientTransform="matrix(677.81, 0, 0, -101.91, -588.26, 15403.49)" xlink:href="#linear-gradient-102"/><linearGradient id="linear-gradient-109" x1="0.68" y1="140.58" x2="1.61" y2="140.58" gradientTransform="matrix(338.2, 0, 0, -27.21, -175.41, 4106.25)" xlink:href="#linear-gradient-102"/><linearGradient id="linear-gradient-110" x1="1.49" y1="146.92" x2="2.42" y2="146.92" gradientTransform="matrix(530.33, 0, 0, -186.98, 853.17, 27955.97)" xlink:href="#linear-gradient-102"/><linearGradient id="linear-gradient-111" x1="0.83" y1="149.29" x2="1.76" y2="149.29" gradientTransform="matrix(0, -790.04, 186.98, 0, -27615.96, 1358.6)" xlink:href="#linear-gradient-102"/><linearGradient id="linear-gradient-112" x1="1.18" y1="148.39" x2="2.11" y2="148.39" gradientTransform="matrix(700.73, 0, 0, -229.76, -59.5, 34567.01)" xlink:href="#linear-gradient-102"/></defs><g id="Layer_1" data-name="Layer 1"><g class="cls-2"><polygon id="triangle36" class="cls-3" points="725.45 -73.16 735.6 32.05 892.84 -14.14 725.45 -73.16"/><polygon id="triangle36-2" data-name="triangle36" class="cls-4" points="159.88 157.8 225.82 8.96 393.21 188.6 159.88 157.8"/><polygon id="triangle36-3" data-name="triangle36" class="cls-5" points="225.82 8.96 339.95 -3.87 393.21 188.6 225.82 8.96"/><polygon id="triangle36-4" data-name="triangle36" class="cls-6" points="679.8 119.31 735.6 32.05 651.9 -29.54 679.8 119.31"/><polygon id="triangle36-5" data-name="triangle36" class="cls-7" points="725.45 -73.16 735.6 32.05 651.9 -29.54 725.45 -73.16"/><polygon id="triangle36-6" data-name="triangle36" class="cls-8" points="1080.53 386.2 1121.1 478.58 1121.1 186.03 1080.53 386.2"/><polygon id="triangle36-7" data-name="triangle36" class="cls-9" points="10.24 476.02 195.38 481.15 83.79 350.27 10.24 476.02"/><polygon id="triangle36-8" data-name="triangle36" class="cls-10" points="-4.98 239.92 10.24 476.02 83.79 350.27 -4.98 239.92"/><polygon id="triangle36-9" data-name="triangle36" class="cls-11" points="-4.98 239.92 159.88 157.8 83.79 350.27 -4.98 239.92"/><polygon id="triangle36-10" data-name="triangle36" class="cls-12" points="679.8 119.31 735.6 32.05 887.77 165.5 679.8 119.31"/><polygon id="triangle36-11" data-name="triangle36" class="cls-13" points="735.6 32.05 892.84 -14.14 887.77 165.5 735.6 32.05"/><polygon id="triangle36-12" data-name="triangle36" class="cls-14" points="887.77 165.5 892.84 -14.14 1001.9 75.68 887.77 165.5"/><polygon id="triangle36-13" data-name="triangle36" class="cls-15" points="892.84 -14.14 1121.1 -78.3 1001.9 75.68 892.84 -14.14"/><polygon id="triangle36-14" data-name="triangle36" class="cls-16" points="1121.1 -78.3 1121.1 186.03 1001.9 75.68 1121.1 -78.3"/><polygon id="triangle36-15" data-name="triangle36" class="cls-17" points="639.22 342.57 679.8 119.31 854.8 322.04 639.22 342.57"/><polygon id="triangle36-16" data-name="triangle36" class="cls-18" points="639.22 342.57 763.5 434.96 854.8 322.04 639.22 342.57"/><polygon id="triangle36-17" data-name="triangle36" class="cls-19" points="679.8 119.31 887.77 165.5 854.8 322.04 679.8 119.31"/><polygon id="triangle36-18" data-name="triangle36" class="cls-20" points="345.02 440.09 393.21 188.6 481.98 399.03 345.02 440.09"/><polygon id="triangle36-19" data-name="triangle36" class="cls-21" points="522.56 499.11 639.22 342.57 481.98 399.03 522.56 499.11"/><polygon id="triangle36-20" data-name="triangle36" class="cls-22" points="345.02 440.09 393.21 188.6 251.18 309.21 345.02 440.09"/><polygon id="triangle36-21" data-name="triangle36" class="cls-23" points="83.79 350.27 159.88 157.8 251.18 309.21 83.79 350.27"/><polygon id="triangle36-22" data-name="triangle36" class="cls-24" points="83.79 350.27 195.38 481.15 251.18 309.21 83.79 350.27"/><polygon id="triangle36-23" data-name="triangle36" class="cls-25" points="159.88 157.8 393.21 188.6 251.18 309.21 159.88 157.8"/><polygon id="triangle36-24" data-name="triangle36" class="cls-26" points="195.38 481.15 345.02 440.09 251.18 309.21 195.38 481.15"/><polygon id="triangle36-25" data-name="triangle36" class="cls-27" points="-4.98 73.11 -4.98 239.92 106.61 75.68 -4.98 73.11"/><polygon id="triangle36-26" data-name="triangle36" class="cls-28" points="-4.98 73.11 -2.44 -85.99 106.61 75.68 -4.98 73.11"/><polygon id="triangle36-27" data-name="triangle36" class="cls-29" points="-4.98 239.92 159.88 157.8 106.61 75.68 -4.98 239.92"/><polygon id="triangle36-28" data-name="triangle36" class="cls-30" points="159.88 157.8 225.82 8.96 106.61 75.68 159.88 157.8"/><polygon id="triangle36-29" data-name="triangle36" class="cls-31" points="393.21 188.6 481.98 399.03 540.31 201.43 393.21 188.6"/><polygon id="triangle36-30" data-name="triangle36" class="cls-32" points="481.98 399.03 639.22 342.57 540.31 201.43 481.98 399.03"/><polygon id="triangle36-31" data-name="triangle36" class="cls-33" points="639.22 342.57 679.8 119.31 540.31 201.43 639.22 342.57"/><polygon id="triangle36-32" data-name="triangle36" class="cls-34" points="339.95 -3.87 388.14 -62.9 456.61 42.32 339.95 -3.87"/><polygon id="triangle36-33" data-name="triangle36" class="cls-35" points="339.95 -3.87 393.21 188.6 456.61 42.32 339.95 -3.87"/><polygon id="triangle36-34" data-name="triangle36" class="cls-36" points="388.14 -62.9 542.85 -114.22 456.61 42.32 388.14 -62.9"/><polygon id="triangle36-35" data-name="triangle36" class="cls-37" points="393.21 188.6 540.31 201.43 456.61 42.32 393.21 188.6"/><polygon id="triangle36-36" data-name="triangle36" class="cls-38" points="540.31 201.43 679.8 119.31 456.61 42.32 540.31 201.43"/><polygon id="triangle36-37" data-name="triangle36" class="cls-39" points="542.85 -114.22 651.9 -29.54 456.61 42.32 542.85 -114.22"/><polygon id="triangle36-38" data-name="triangle36" class="cls-40" points="651.9 -29.54 679.8 119.31 456.61 42.32 651.9 -29.54"/><polygon id="triangle36-39" data-name="triangle36" class="cls-41" points="106.61 75.68 225.82 8.96 142.12 -60.33 106.61 75.68"/><polygon id="triangle36-40" data-name="triangle36" class="cls-42" points="-2.44 -85.99 106.61 75.68 142.12 -60.33 -2.44 -85.99"/><polygon id="triangle36-41" data-name="triangle36" class="cls-43" points="142.12 -60.33 225.82 8.96 258.79 -96.26 142.12 -60.33"/><polygon id="triangle36-42" data-name="triangle36" class="cls-44" points="225.82 8.96 339.95 -3.87 258.79 -96.26 225.82 8.96"/><polygon id="triangle36-43" data-name="triangle36" class="cls-45" points="854.8 322.04 887.77 165.5 979.07 270.72 854.8 322.04"/><polygon id="triangle36-44" data-name="triangle36" class="cls-46" points="887.77 165.5 1001.9 75.68 979.07 270.72 887.77 165.5"/><polygon id="triangle36-45" data-name="triangle36" class="cls-47" points="1001.9 75.68 1121.1 186.03 979.07 270.72 1001.9 75.68"/><polygon id="triangle36-46" data-name="triangle36" class="cls-48" points="1080.53 386.2 1121.1 186.03 979.07 270.72 1080.53 386.2"/><polygon id="triangle36-47" data-name="triangle36" class="cls-49" points="979.07 270.72 1080.53 386.2 999.37 440.09 979.07 270.72"/><polygon id="triangle36-48" data-name="triangle36" class="cls-50" points="1080.53 386.2 1121.1 478.58 999.37 440.09 1080.53 386.2"/><polygon id="triangle36-49" data-name="triangle36" class="cls-51" points="522.56 499.11 639.22 342.57 654.44 486.28 522.56 499.11"/><polygon id="triangle36-50" data-name="triangle36" class="cls-52" points="639.22 342.57 763.5 434.96 654.44 486.28 639.22 342.57"/><polygon id="triangle36-51" data-name="triangle36" class="cls-53" points="345.02 440.09 481.98 399.03 436.32 486.28 345.02 440.09"/><polygon id="triangle36-52" data-name="triangle36" class="cls-54" points="481.98 399.03 522.56 499.11 436.32 486.28 481.98 399.03"/><polygon id="triangle36-53" data-name="triangle36" class="cls-55" points="763.5 434.96 854.8 322.04 900.45 383.63 763.5 434.96"/><polygon id="triangle36-54" data-name="triangle36" class="cls-56" points="763.5 434.96 897.91 481.15 900.45 383.63 763.5 434.96"/><polygon id="triangle36-55" data-name="triangle36" class="cls-57" points="854.8 322.04 979.07 270.72 900.45 383.63 854.8 322.04"/><polygon id="triangle36-56" data-name="triangle36" class="cls-58" points="897.91 481.15 999.37 440.09 900.45 383.63 897.91 481.15"/><polygon id="triangle36-57" data-name="triangle36" class="cls-59" points="979.07 270.72 999.37 440.09 900.45 383.63 979.07 270.72"/><polygon id="triangle36-58" data-name="triangle36" class="cls-60" points="1514.36 -65.89 1504.21 39.33 1346.97 -6.86 1514.36 -65.89"/><polygon id="triangle36-59" data-name="triangle36" class="cls-61" points="2079.94 165.08 2013.99 16.23 1846.6 195.87 2079.94 165.08"/><polygon id="triangle36-60" data-name="triangle36" class="cls-62" points="2013.99 16.23 1899.87 3.4 1846.6 195.87 2013.99 16.23"/><polygon id="triangle36-61" data-name="triangle36" class="cls-63" points="1560.01 126.58 1504.21 39.33 1587.91 -22.26 1560.01 126.58"/><polygon id="triangle36-62" data-name="triangle36" class="cls-64" points="1514.36 -65.89 1504.21 39.33 1587.91 -22.26 1514.36 -65.89"/><polygon id="triangle36-63" data-name="triangle36" class="cls-65" points="1159.29 393.48 1118.71 485.86 1118.71 193.31 1159.29 393.48"/><polygon id="triangle36-64" data-name="triangle36" class="cls-66" points="1560.01 126.58 1504.21 39.33 1352.04 172.78 1560.01 126.58"/><polygon id="triangle36-65" data-name="triangle36" class="cls-67" points="1504.21 39.33 1346.97 -6.86 1352.04 172.78 1504.21 39.33"/><polygon id="triangle36-66" data-name="triangle36" class="cls-68" points="1352.04 172.78 1346.97 -6.86 1237.91 82.96 1352.04 172.78"/><polygon id="triangle36-67" data-name="triangle36" class="cls-69" points="1346.97 -6.86 1118.71 -71.02 1237.91 82.96 1346.97 -6.86"/><polygon id="triangle36-68" data-name="triangle36" class="cls-70" points="1118.71 -71.02 1118.71 193.31 1237.91 82.96 1118.71 -71.02"/><polygon id="triangle36-69" data-name="triangle36" class="cls-71" points="1600.59 349.85 1560.01 126.58 1385.01 329.32 1600.59 349.85"/><polygon id="triangle36-70" data-name="triangle36" class="cls-72" points="1600.59 349.85 1476.32 442.23 1385.01 329.32 1600.59 349.85"/><polygon id="triangle36-71" data-name="triangle36" class="cls-73" points="1560.01 126.58 1352.04 172.78 1385.01 329.32 1560.01 126.58"/><polygon id="triangle36-72" data-name="triangle36" class="cls-74" points="1894.79 447.37 1846.6 195.87 1757.84 406.31 1894.79 447.37"/><polygon id="triangle36-73" data-name="triangle36" class="cls-75" points="1717.26 506.39 1600.59 349.85 1757.84 406.31 1717.26 506.39"/><polygon id="triangle36-74" data-name="triangle36" class="cls-76" points="1894.79 447.37 1846.6 195.87 1988.63 316.49 1894.79 447.37"/><polygon id="triangle36-75" data-name="triangle36" class="cls-77" points="2079.94 165.08 1846.6 195.87 1988.63 316.49 2079.94 165.08"/><polygon id="triangle36-76" data-name="triangle36" class="cls-78" points="2044.43 488.43 1894.79 447.37 1988.63 316.49 2044.43 488.43"/><polygon id="triangle36-77" data-name="triangle36" class="cls-79" points="1846.6 195.87 1757.84 406.31 1699.5 208.7 1846.6 195.87"/><polygon id="triangle36-78" data-name="triangle36" class="cls-80" points="1757.84 406.31 1600.59 349.85 1699.5 208.7 1757.84 406.31"/><polygon id="triangle36-79" data-name="triangle36" class="cls-81" points="1600.59 349.85 1560.01 126.58 1699.5 208.7 1600.59 349.85"/><polygon id="triangle36-80" data-name="triangle36" class="cls-82" points="1899.87 3.4 1851.67 -55.62 1783.2 49.6 1899.87 3.4"/><polygon id="triangle36-81" data-name="triangle36" class="cls-83" points="1899.87 3.4 1846.6 195.87 1783.2 49.6 1899.87 3.4"/><polygon id="triangle36-82" data-name="triangle36" class="cls-84" points="1851.67 -55.62 1696.97 -106.94 1783.2 49.6 1851.67 -55.62"/><polygon id="triangle36-83" data-name="triangle36" class="cls-85" points="1846.6 195.87 1699.5 208.7 1783.2 49.6 1846.6 195.87"/><polygon id="triangle36-84" data-name="triangle36" class="cls-86" points="1699.5 208.7 1560.01 126.58 1783.2 49.6 1699.5 208.7"/><polygon id="triangle36-85" data-name="triangle36" class="cls-87" points="1696.97 -106.94 1587.91 -22.26 1783.2 49.6 1696.97 -106.94"/><polygon id="triangle36-86" data-name="triangle36" class="cls-88" points="1587.91 -22.26 1560.01 126.58 1783.2 49.6 1587.91 -22.26"/><polygon id="triangle36-87" data-name="triangle36" class="cls-89" points="1899.87 3.4 1851.67 -55.62 1981.02 -88.98 1899.87 3.4"/><polygon id="triangle36-88" data-name="triangle36" class="cls-90" points="2013.99 16.23 1899.87 3.4 1981.02 -88.98 2013.99 16.23"/><polygon id="triangle36-89" data-name="triangle36" class="cls-91" points="1385.01 329.32 1352.04 172.78 1260.74 277.99 1385.01 329.32"/><polygon id="triangle36-90" data-name="triangle36" class="cls-92" points="1352.04 172.78 1237.91 82.96 1260.74 277.99 1352.04 172.78"/><polygon id="triangle36-91" data-name="triangle36" class="cls-93" points="1237.91 82.96 1118.71 193.31 1260.74 277.99 1237.91 82.96"/><polygon id="triangle36-92" data-name="triangle36" class="cls-94" points="1159.29 393.48 1118.71 193.31 1260.74 277.99 1159.29 393.48"/><polygon id="triangle36-93" data-name="triangle36" class="cls-95" points="1260.74 277.99 1159.29 393.48 1240.45 447.37 1260.74 277.99"/><polygon id="triangle36-94" data-name="triangle36" class="cls-96" points="1159.29 393.48 1118.71 485.86 1240.45 447.37 1159.29 393.48"/><polygon id="triangle36-95" data-name="triangle36" class="cls-97" points="1717.26 506.39 1600.59 349.85 1585.37 493.56 1717.26 506.39"/><polygon id="triangle36-96" data-name="triangle36" class="cls-98" points="1600.59 349.85 1476.32 442.23 1585.37 493.56 1600.59 349.85"/><polygon id="triangle36-97" data-name="triangle36" class="cls-99" points="1476.32 442.23 1385.01 329.32 1339.36 390.91 1476.32 442.23"/><polygon id="triangle36-98" data-name="triangle36" class="cls-100" points="1476.32 442.23 1341.9 488.43 1339.36 390.91 1476.32 442.23"/><polygon id="triangle36-99" data-name="triangle36" class="cls-101" points="1385.01 329.32 1260.74 277.99 1339.36 390.91 1385.01 329.32"/><polygon id="triangle36-100" data-name="triangle36" class="cls-102" points="1341.9 488.43 1240.45 447.37 1339.36 390.91 1341.9 488.43"/><polygon id="triangle36-101" data-name="triangle36" class="cls-103" points="1260.74 277.99 1240.45 447.37 1339.36 390.91 1260.74 277.99"/></g></g><g id="Layer_2" data-name="Layer 2"><g class="cls-104"><g id="pattern-fdesk-dark"><g id="cover-copy-3"><g id="Mask"><rect id="path-2" class="cls-105" width="1920.56" height="400.56"/></g></g><g id="Group"><rect id="Rectangle-Copy" class="cls-106" x="1698.73" y="116.08" width="152" height="723.32" transform="translate(181.99 1394.86) rotate(-45)"/><rect id="Rectangle-Copy-3" class="cls-107" x="1932.85" y="87.37" width="147.43" height="724.82" transform="translate(269.66 1550.59) rotate(-45)"/><rect id="Rectangle-Copy-2" class="cls-108" x="1007.13" y="-181.94" width="232.28" height="1434.04" transform="translate(-49.36 950.99) rotate(-45)"/><rect id="Rectangle-Copy-4" class="cls-109" x="1586.47" y="60.64" width="68.57" height="905.2" transform="translate(111.79 1296.37) rotate(-45)"/><rect id="Rectangle-Copy-2-2" data-name="Rectangle-Copy" class="cls-110" x="107.6" y="404.69" width="723.32" height="98.3" transform="translate(-183.47 464.75) rotate(-45)"/><rect id="Rectangle-Copy-3-2" data-name="Rectangle-Copy-3" class="cls-111" x="-269.6" y="304.89" width="980.56" height="147.43" transform="translate(-203.08 266.93) rotate(-45)"/><rect id="Rectangle-Copy-6" class="cls-112" x="-120.15" y="261.04" width="489.26" height="39.37" transform="translate(-162.04 170.24) rotate(-45)"/><rect id="Rectangle-Copy-5" class="cls-113" x="1368.25" y="350.13" width="767.2" height="270.49" transform="translate(169.89 1380.91) rotate(-45)"/><rect id="Rectangle-Copy-5-2" data-name="Rectangle-Copy-5" class="cls-114" x="163.91" y="-33.71" width="270.49" height="1142.91" transform="translate(-292.62 369.04) rotate(-45)"/><rect id="Rectangle-Copy-4-2" data-name="Rectangle-Copy-4" class="cls-115" x="407.95" y="306.5" width="1013.7" height="332.38" transform="translate(-66.3 785.31) rotate(-45)"/></g></g><path class="cls-116" d="M125.56,489.83,1920,182.52"/><path class="cls-117" d="M125.56,489.83,1920,124.49"/><path class="cls-116" d="M125.56,489.83,1944.21,54.22M125.56,489.83l1765-495.67m-1765,495.67,1670-546m-1670,546,1670-632m-1670,632,1670-716"/><path class="cls-116" d="M1795.56,489.83,0,182.33"/><path class="cls-117" d="M1795.56,489.83-15.07,121.2"/><path class="cls-116" d="M1795.56,489.83-34.1,51.59M1795.56,489.83,46.93-1.25M1795.56,489.83l-1670-546m1670,546-1670-632m1670,632-1670-716"/></g></g></svg>