<?xml version="1.0" encoding="utf-8"?>
<!-- Generator: Adobe Illustrator 24.1.3, SVG Export Plug-In . SVG Version: 6.00 Build 0)  -->
<svg version="1.1" id="Layer_1" xmlns="http://www.w3.org/2000/svg" xmlns:xlink="http://www.w3.org/1999/xlink" x="0px" y="0px"
	 viewBox="0 0 360 360" style="enable-background:new 0 0 360 360;" xml:space="preserve">
<style type="text/css">
	.st0{clip-path:url(#SVGID_2_);fill:#F7AE43;}
	.st1{fill:#F7AE43;}
</style>
<g>
	<g>
		<defs>
			<rect id="SVGID_1_" x="8.7" y="11.4" width="342.6" height="337.3"/>
		</defs>
		<clipPath id="SVGID_2_">
			<use xlink:href="#SVGID_1_"  style="overflow:visible;"/>
		</clipPath>
		<path class="st0" d="M330.3,69.3c0-3-2.5-5.5-5.5-5.5c0,0,0,0,0,0c-3,0-5.5,2.5-5.5,5.6l0.1,11.5C287.5,37.3,236.7,11.4,182,11.4
			C129.3,11.4,80.5,35,48.2,76.2c-1.9,2.4-1.5,5.9,0.9,7.8c2.4,1.9,5.9,1.5,7.8-0.9C87.1,44.6,132.7,22.5,182,22.5
			c51.3,0,98.9,24.3,128.6,65.3H299c-3,0-5.5,2.5-5.5,5.5c0,3,2.5,5.5,5.5,5.5h26c3,0,5.6-2.6,5.5-5.6L330.3,69.3z M330.3,69.3"/>
		<path class="st0" d="M351.3,178.5c0-20.7-3.8-40.8-11.2-60c-1.1-2.8-4.3-4.2-7.2-3.1c-2.8,1.1-4.3,4.3-3.1,7.2
			c6.9,17.8,10.5,36.7,10.5,55.9c0,66.3-41.6,124.4-104.2,146.7l6-9.1c1.7-2.6,0.9-6-1.6-7.6c-2.6-1.7-6-1-7.7,1.6l-13.2,20.2
			c-1.8,2.8-0.7,6.7,2.4,8.1l22.2,9.8c6.5,2.9,11-7.2,4.5-10.1l-6.9-3.1C307.7,310.5,351.3,248.8,351.3,178.5L351.3,178.5z
			 M351.3,178.5"/>
		<path class="st0" d="M188.6,334.4c-2.2,0.1-4.4,0.1-6.6,0.1c-87.2,0-158.2-70-158.2-156c0-15.2,6.4-34.3,12.5-50.3l4.9,10.8
			c2.9,6.5,13,1.9,10.1-4.5l-10.3-22.8c-1.3-2.8-4.7-4-7.5-2.7l-21.7,10.9c-2.7,1.4-3.8,4.7-2.5,7.4c1.4,2.7,4.7,3.8,7.4,2.5
			l8.9-4.5c-6.3,16.7-12.8,36.5-12.8,53.3c0,92.1,75.9,167.1,169.3,167.1c2.3,0,4.7-0.1,7-0.1c3-0.1,5.4-2.7,5.3-5.7
			C194.2,336.7,191.6,334.3,188.6,334.4C186.4,334.5,191.6,334.3,188.6,334.4L188.6,334.4z M188.6,334.4"/>
	</g>
	<path class="st1" d="M180.2,142.5c-21.5,0-38.9,17-38.9,37.9c0,20.9,17.5,37.9,38.9,37.9s38.9-17,38.9-37.9
		C219.1,159.5,201.7,142.5,180.2,142.5L180.2,142.5z M180.2,142.5"/>
	<path class="st1" d="M277.3,159.1h-10.9c-1.9-8.1-5.2-16.2-9.8-24l7.8-7.8c4.8-4.8,4.9-12.6,0.5-17.7c-2-2.4-10.9-11.4-13.2-13.6
		c-4.7-4.5-13-5.3-17.8-0.5l-7.7,7.7c-7.3-4.4-15.3-7.8-23.7-10v-11c0-6.9-5.4-12.6-12.3-12.8c-3.2-0.1-15.9-0.2-19.1,0
		c-6.7,0.4-12.3,6-12.3,12.8v11.3c-8.1,1.9-16.3,5.2-24,9.8l-7.8-7.8c-4.8-4.8-12.6-4.9-17.7-0.5c-2.4,2-11.5,10.9-13.6,13.2
		c-4.5,4.6-5.3,13-0.5,17.8l7.7,7.7c-4.4,7.3-7.8,15.3-10,23.6h-11c-6.9,0-12.1,6.3-12.3,12.8c-0.1,3.2-0.2,15.9,0,19
		c0.4,6.7,6,12.3,12.8,12.3h10.9c1.9,8.1,5.2,16.2,9.8,24l-7.8,7.8c-4.8,4.8-4.9,12.6-0.5,17.7c2,2.4,10.9,11.4,13.2,13.6
		c4.7,4.5,12.9,5.3,17.8,0.5l7.7-7.7c7.3,4.4,15.3,7.8,23.7,10v11c0,6.9,6.3,12.1,12.8,12.3c3.2,0.1,15.9,0.2,19,0
		c6.7-0.4,12.3-6,12.3-12.8v-10.9c8.1-1.9,16.3-5.2,24-9.8l7.8,7.8c4.8,4.8,12.6,4.9,17.7,0.5c2.4-2,11.5-10.9,13.6-13.2
		c4.5-4.6,5.3-13,0.5-17.8l-7.7-7.7c4.4-7.3,7.8-15.3,10-23.6h11c5.3,0,10.3-4.2,11.8-9.1c0.8-2.6,0.4-24.3,0.5-23.3
		C289.6,163.8,284.2,159.1,277.3,159.1L277.3,159.1z M180.2,229.4c-27.6,0-50-22-50-49c0-27,22.4-49,50-49s50,22,50,49
		C230.2,207.4,207.8,229.4,180.2,229.4L180.2,229.4z M180.2,229.4"/>
</g>
</svg>
