<svg xmlns="http://www.w3.org/2000/svg" viewBox="0 0 440 350"><defs><style>.cls-1{fill:#150035;}.cls-2{fill:#ffb000;}.cls-3{fill:#fec;}.cls-12,.cls-4,.cls-6{fill:#fff;}.cls-5{fill:#5793ce;}.cls-6{stroke:#041b2b;}.cls-12,.cls-6{stroke-miterlimit:10;}.cls-7{fill:#d4ecff;}.cls-8{fill:#173d7a;}.cls-9{fill:#396caa;}.cls-10{fill:#ffbe2e;}.cls-11{fill:#274f89;}.cls-12{stroke:#150035;}.cls-13{fill:#1d1d1d;}</style></defs><g id="Layer_4" data-name="Layer 4"><path class="cls-1" d="M308.66,126.23a.84.84,0,0,1-.84-.84V90.89a.84.84,0,0,1,1.68,0v34.5A.84.84,0,0,1,308.66,126.23Z"/><rect class="cls-1" x="305.66" y="88.72" width="5.99" height="12.93"/><path class="cls-1" d="M310.78,102.88a4.66,4.66,0,0,1-4.24,0,1.29,1.29,0,0,1,0-2.45,4.72,4.72,0,0,1,4.24,0A1.29,1.29,0,0,1,310.78,102.88Z"/><rect class="cls-1" x="303.81" y="70.69" width="9.71" height="20.29"/><path class="cls-2" d="M305.66,90.85v4.38a7.8,7.8,0,0,0,6,0V90.85A7.8,7.8,0,0,0,305.66,90.85Z"/><path class="cls-1" d="M312.1,93a7.56,7.56,0,0,1-6.87,0c-1.9-1.09-1.9-2.87,0-4a7.56,7.56,0,0,1,6.87,0C314,90.09,314,91.87,312.1,93Z"/><path class="cls-1" d="M342.31,145.16a.84.84,0,0,1-.84-.83V109.82a.84.84,0,1,1,1.68,0v34.51A.84.84,0,0,1,342.31,145.16Z"/><rect class="cls-1" x="339.31" y="107.65" width="5.99" height="12.94"/><path class="cls-1" d="M344.43,121.81a4.66,4.66,0,0,1-4.24,0,1.29,1.29,0,0,1,0-2.45,4.72,4.72,0,0,1,4.24,0A1.29,1.29,0,0,1,344.43,121.81Z"/><rect class="cls-1" x="337.45" y="89.63" width="9.71" height="20.29"/><path class="cls-2" d="M339.31,109.78v4.38a7.8,7.8,0,0,0,6,0v-4.38A7.8,7.8,0,0,0,339.31,109.78Z"/><path class="cls-1" d="M345.74,111.9a7.63,7.63,0,0,1-6.87,0c-1.89-1.1-1.89-2.87,0-4a7.63,7.63,0,0,1,6.87,0C347.64,109,347.64,110.8,345.74,111.9Z"/><polygon class="cls-2" points="375.01 123.29 388.04 115.62 375.63 100.14 372.37 105.47 375.01 123.29"/><path class="cls-2" d="M280.45,38.33l20.79-12s-.79,11.93-.79,12S288.51,42,288.51,42Z"/><path class="cls-2" d="M378.63,84.36a13.16,13.16,0,0,0-4.49-1.67c-2.1-11-9.76-22.71-18.9-28a18.43,18.43,0,0,0-7.73-2.62c-1.25-13.35-10.53-28.52-21.8-35-5.89-3.4-11.23-3.8-15.18-1.72h0l-.19.11-.3.18-12.25,7.23,4.07,3.22c-3.66,1.6-6,5.7-6,11.76,0,11.18,7.85,24.77,17.53,30.36l65.21,46.56c7.27,4.2,13.17.8,13.17-7.59S385.9,88.56,378.63,84.36Z"/><path class="cls-2" d="M296.5,32.91l28.13-16.44c-5.46-2.85-10.4-3.08-14.1-1.13h0l-.19.11-.3.18-12.25,7.23,4.07,3.22C299.3,27.19,297.41,29.53,296.5,32.91Z"/><path class="cls-2" d="M348.45,81.26l20.52-12c-3.52-6.09-8.36-11.41-13.73-14.51a23.3,23.3,0,0,0-2.1-1.08L327,68.89Z"/><path class="cls-3" d="M303.57,24.2l9.15,5.28,16.75-9.87a33.2,33.2,0,0,0-3.76-2.55,23.5,23.5,0,0,0-5.86-2.46Z"/><path class="cls-3" d="M366.71,65.67l-16.38,9.65,5.7,6.36L370.9,72.9A47.72,47.72,0,0,0,366.71,65.67Z"/><path class="cls-3" d="M365.77,91.94a13.28,13.28,0,0,0-4.5-1.67c-2.1-11-9.76-22.71-18.9-28a18.43,18.43,0,0,0-7.73-2.62c-1.25-13.35-10.53-28.52-21.8-35-12.12-7-21.95-1.32-21.95,12.67,0,.48,0,1,0,1.44-8.87-4.11-15.79.52-15.79,11,0,11.18,7.84,24.77,17.52,30.36l73.11,42.2c7.26,4.2,13.16.8,13.16-7.59S373,96.14,365.77,91.94Z"/><path class="cls-2" d="M290.93,38.75c0-.48,0-1,0-1.44v-.05c-4.9-1.91-9.1-1.08-11.75,2C282,36.87,286.19,36.55,290.93,38.75Z"/><path class="cls-4" d="M366.84,90.9a13.07,13.07,0,0,0-4.5-1.67c-2.1-11-9.76-22.71-18.9-28a18.43,18.43,0,0,0-7.73-2.62c-1.25-13.35-10.53-28.52-21.8-35-7.55-4.36-14.21-3.8-18.16.63,4-3.44,10.18-3.58,17.09.41,11.27,6.51,20.55,21.68,21.8,35a18.43,18.43,0,0,1,7.73,2.62c9.14,5.27,16.8,17,18.9,28a13.28,13.28,0,0,1,4.5,1.67c7.26,4.2,13.16,14.4,13.16,22.8a10.88,10.88,0,0,1-2.1,7c2-1.52,3.17-4.27,3.17-8C380,105.3,374.11,95.09,366.84,90.9Z"/><path class="cls-2" d="M289.38,42.08l5.49,2.55-.27-6.05c0-.42,0-.85,0-1.27,0-5.4,1.63-9.31,4.59-11s7.17-1.17,11.85,1.53c10.06,5.81,18.84,20,20,32.19l.29,3.09,3.09.23a15,15,0,0,1,6.18,2.14c8,4.61,15.19,15.33,17.12,25.49l.48,2.54,2.56.4a9.44,9.44,0,0,1,3.23,1.22c6.14,3.55,11.32,12.53,11.32,19.62,0,2.65-.73,4.59-2,5.33s-3.34.41-5.64-.92L294.5,76.94C286,72,278.81,59.59,278.81,49.77c0-3.85,1.14-6.79,3.12-8.05a5.32,5.32,0,0,1,2.91-.78A11.06,11.06,0,0,1,289.38,42.08Z"/><polygon class="cls-1" points="325.87 87.9 327.79 86.93 325.89 85.49 325.87 87.9"/><polygon class="cls-5" points="320.07 61.85 321.94 60.9 321.98 61.88 320.07 61.85"/><polygon class="cls-1" points="331.37 81.81 333.32 80.83 329.56 77.25 331.37 81.81"/><path class="cls-1" d="M327.23,86.87l-9.13-5.38a2,2,0,0,1-.84-1.53l0-10.57,10.81,6.36,0,10.57C328.07,86.9,327.69,87.14,327.23,86.87Z"/><path class="cls-1" d="M321.93,60.91l-9.87,6.35c-.41.27-.08,1.27.56,1.65l10.07,5.93,10.07,5.93c.64.38,1-.23.56-1l-9.79-17.92C323.11,61.09,322.35,60.64,321.93,60.91Z"/><path class="cls-4" d="M325.27,87.86l-9.13-5.38a2,2,0,0,1-.84-1.54l0-10.57,10.81,6.37,0,10.57C326.11,87.88,325.73,88.13,325.27,87.86Z"/><path class="cls-4" d="M320,61.9l-9.86,6.35c-.42.27-.08,1.27.55,1.64l10.07,5.94,10.07,5.93c.64.37,1-.23.57-1l-9.8-17.92C321.15,62.07,320.39,61.63,320,61.9Z"/><path class="cls-2" d="M307.74,99.41c0,.6-.42.84-.93.54a2,2,0,0,1-.93-1.61c0-.6.41-.84.93-.54A2.07,2.07,0,0,1,307.74,99.41Z"/><path class="cls-2" d="M341.47,118.62c0,.6-.42.84-.94.54a2.08,2.08,0,0,1-.93-1.62c0-.59.42-.83.93-.53A2,2,0,0,1,341.47,118.62Z"/><path class="cls-3" d="M281.21,249.07,238.48,224.7c-1.56-.9-1.36-2.47.44-3.51L263.5,207a6.8,6.8,0,0,1,6.1-.25l42.72,24.36c1.56.9,1.37,2.48-.44,3.52L287.3,248.81A6.78,6.78,0,0,1,281.21,249.07Z"/><path class="cls-2" d="M316.13,222.9h0V123.16l-39.65-10.38-7.3-4.21a7.25,7.25,0,0,0-6.54.27l-6.82,3.93H234.67L240.94,209a1.89,1.89,0,0,0,1.12,1.76l39.57,29.85c1.67,1,4.6,1.4,6.53.28l26.38-15.77A2.61,2.61,0,0,0,316.13,222.9Z"/><path class="cls-6" d="M266.14,107.92a7.5,7.5,0,0,0-3.5.92l-6.82,3.93H234.67v100a1.91,1.91,0,0,0,1.13,1.75l45.83,26.13a5.83,5.83,0,0,0,3,.65l.48-100.63Z"/><path class="cls-2" d="M282.05,241.37a7.48,7.48,0,0,0,5.23-.06V139.48h-5.23Z"/><path class="cls-3" d="M281.63,140.68,235.8,114.55c-1.68-1-1.47-2.66.47-3.78l26.37-15.22a7.25,7.25,0,0,1,6.54-.27L315,121.41c1.67,1,1.46,2.66-.47,3.78l-26.37,15.22A7.25,7.25,0,0,1,281.63,140.68Z"/><path class="cls-1" d="M314.54,123.33l-26.37,15.23a7.29,7.29,0,0,1-6.54.27L235.8,112.69A2.37,2.37,0,0,1,235,112a1.76,1.76,0,0,0,.84,2.6l45.83,26.13a7.25,7.25,0,0,0,6.54-.27l26.37-15.22c1.5-.87,2-2.09,1.3-3A3.6,3.6,0,0,1,314.54,123.33Z"/><path class="cls-2" d="M282.92,130.09,252.41,112.4c-.78-.45-.69-1.24.22-1.76L265,103.51a3.42,3.42,0,0,1,3.06-.13l30.51,17.69c.79.46.69,1.25-.22,1.77L286,130A3.39,3.39,0,0,1,282.92,130.09Z"/><path class="cls-7" d="M266.45,113.2l-1.77-1c-.11-.07-.09-.18,0-.25l1.71-1a.45.45,0,0,1,.42,0l1.77,1c.11.06.1.17,0,.24l-1.71,1A.48.48,0,0,1,266.45,113.2Z"/><path class="cls-7" d="M272.36,116.59l-1.77-1c-.11-.06-.1-.17,0-.24l1.71-1a.45.45,0,0,1,.42,0l1.77,1c.11.06.09.17,0,.24l-1.71,1A.45.45,0,0,1,272.36,116.59Z"/><path class="cls-7" d="M278.27,120l-1.77-1c-.11-.06-.1-.17,0-.25l1.7-1a.5.5,0,0,1,.43,0l1.77,1c.1.07.09.17,0,.25l-1.71,1A.45.45,0,0,1,278.27,120Z"/><path class="cls-7" d="M284.17,123.39l-1.77-1c-.1-.07-.09-.18,0-.25l1.71-1a.47.47,0,0,1,.43,0l1.76,1c.11.06.1.17,0,.24l-1.7,1A.5.5,0,0,1,284.17,123.39Z"/><path class="cls-4" d="M252.41,112.4l0,0,.18-.12L265,105.17a3.39,3.39,0,0,1,3.06-.12l30.48,17.66c.72-.51.76-1.22,0-1.64L268,103.38a3.42,3.42,0,0,0-3.06.13l-12.34,7.13C251.72,111.16,251.63,112,252.41,112.4Z"/><path class="cls-8" d="M293.32,160.44l17.34-9.93a4.23,4.23,0,0,0,1.77-3.38v-6.2c0-1.3-.79-1.9-1.77-1.34l-17.34,9.93a4.24,4.24,0,0,0-1.77,3.38v6.21C291.55,160.41,292.34,161,293.32,160.44Z"/><path class="cls-4" d="M311.52,139.4a1.72,1.72,0,0,1,.45,1.29v6.21a4.24,4.24,0,0,1-1.77,3.38l-17.35,9.93a1.3,1.3,0,0,1-.86.19,1.07,1.07,0,0,0,1.33,0l17.34-9.93a4.23,4.23,0,0,0,1.77-3.38v-6.2C312.43,140,312.06,139.5,311.52,139.4Z"/><path class="cls-9" d="M298.53,153.7l1.6-.92a.92.92,0,0,0,.38-.73v-1.7c0-.29-.17-.42-.38-.29l-1.6.92a.92.92,0,0,0-.38.73v1.7C298.15,153.7,298.32,153.83,298.53,153.7Z"/><path class="cls-4" d="M303.86,150.63l1.59-.92a.92.92,0,0,0,.38-.73v-1.7c0-.29-.17-.42-.38-.3l-1.59.92a.93.93,0,0,0-.39.74v1.7C303.47,150.62,303.64,150.75,303.86,150.63Z"/><path class="cls-8" d="M293.32,205.27l17.34-9.93a4.21,4.21,0,0,0,1.77-3.38v-6.2c0-1.3-.79-1.9-1.77-1.34l-17.34,9.94a4.21,4.21,0,0,0-1.77,3.37v6.21C291.55,205.24,292.34,205.84,293.32,205.27Z"/><path class="cls-4" d="M311.52,184.24a1.68,1.68,0,0,1,.45,1.29v6.2a4.23,4.23,0,0,1-1.77,3.38L292.85,205a1.3,1.3,0,0,1-.86.19,1.07,1.07,0,0,0,1.33,0l17.34-9.93a4.21,4.21,0,0,0,1.77-3.38v-6.2C312.43,184.88,312.06,184.33,311.52,184.24Z"/><path class="cls-9" d="M298.53,198.54l1.6-.92a1,1,0,0,0,.38-.74v-1.7c0-.28-.17-.41-.38-.29l-1.6.92a.92.92,0,0,0-.38.73v1.7C298.15,198.53,298.32,198.66,298.53,198.54Z"/><path class="cls-4" d="M303.86,195.46l1.59-.92a.92.92,0,0,0,.38-.73v-1.7c0-.29-.17-.42-.38-.29l-1.59.92a.9.9,0,0,0-.39.73v1.7C303.47,195.46,303.64,195.59,303.86,195.46Z"/><path class="cls-8" d="M293.32,227.69l17.34-9.93a4.24,4.24,0,0,0,1.77-3.38v-6.2c0-1.31-.79-1.9-1.77-1.34l-17.34,9.93a4.24,4.24,0,0,0-1.77,3.38v6.2C291.55,227.66,292.34,228.25,293.32,227.69Z"/><path class="cls-4" d="M311.52,206.65a1.72,1.72,0,0,1,.45,1.29v6.21a4.24,4.24,0,0,1-1.77,3.38l-17.35,9.93a1.3,1.3,0,0,1-.86.19,1.07,1.07,0,0,0,1.33,0l17.34-9.93a4.24,4.24,0,0,0,1.77-3.38v-6.2C312.43,207.29,312.06,206.74,311.52,206.65Z"/><path class="cls-9" d="M298.53,221l1.6-.92a.92.92,0,0,0,.38-.73v-1.7c0-.29-.17-.42-.38-.29l-1.6.91a1,1,0,0,0-.38.74v1.7C298.15,220.94,298.32,221.07,298.53,221Z"/><path class="cls-4" d="M303.86,217.88l1.59-.92a.92.92,0,0,0,.38-.74v-1.7c0-.28-.17-.41-.38-.29l-1.59.92a.9.9,0,0,0-.39.74v1.7C303.47,217.87,303.64,218,303.86,217.88Z"/><path class="cls-8" d="M293.32,182.86l17.34-9.93a4.24,4.24,0,0,0,1.77-3.38v-6.21c0-1.3-.79-1.9-1.77-1.33l-17.34,9.93a4.23,4.23,0,0,0-1.77,3.38v6.2C291.55,182.82,292.34,183.42,293.32,182.86Z"/><path class="cls-4" d="M311.52,161.82a1.72,1.72,0,0,1,.45,1.29v6.21a4.21,4.21,0,0,1-1.77,3.37l-17.35,9.94a1.23,1.23,0,0,1-.86.18,1.07,1.07,0,0,0,1.33.05l17.34-9.93a4.24,4.24,0,0,0,1.77-3.38v-6.21C312.43,162.46,312.06,161.91,311.52,161.82Z"/><path class="cls-9" d="M298.53,176.12l1.6-.92a.92.92,0,0,0,.38-.74v-1.7c0-.28-.17-.41-.38-.29l-1.6.92a.92.92,0,0,0-.38.74v1.7C298.15,176.11,298.32,176.24,298.53,176.12Z"/><path class="cls-4" d="M303.86,173.05l1.59-.92a.93.93,0,0,0,.38-.74v-1.7c0-.28-.17-.41-.38-.29l-1.59.92a.9.9,0,0,0-.39.74v1.7C303.47,173,303.64,173.17,303.86,173.05Z"/><path class="cls-1" d="M278.29,154.09l-40-23.11a3.88,3.88,0,0,1-1.62-3.1v-7.63c0-1.19.73-1.74,1.62-1.23l40,23.11a3.88,3.88,0,0,1,1.62,3.1v7.64C279.91,154.06,279.19,154.61,278.29,154.09Z"/><path class="cls-2" d="M277.14,151.42l-37.73-21.79a2,2,0,0,1-.82-1.57v-5.74c0-.6.37-.88.82-.62l37.73,21.78a2,2,0,0,1,.82,1.58v5.73C278,151.4,277.59,151.68,277.14,151.42Z"/><path class="cls-7" d="M247.28,131.27,241.64,128a1.91,1.91,0,0,1-.79-1.53h0c0-.58.35-.85.79-.6l5.64,3.25a1.92,1.92,0,0,1,.79,1.53h0C248.07,131.26,247.72,131.53,247.28,131.27Z"/><path class="cls-8" d="M252.07,133c0,.58-.41.82-.92.53a2,2,0,0,1-.92-1.6c0-.59.41-.83.92-.53A2,2,0,0,1,252.07,133Z"/><path class="cls-8" d="M255.33,134.86c0,.58-.41.82-.92.53a2.06,2.06,0,0,1-.93-1.6c0-.59.42-.83.93-.53A2,2,0,0,1,255.33,134.86Z"/><path class="cls-7" d="M258.58,136.74c0,.58-.41.82-.92.53a2,2,0,0,1-.92-1.6c0-.59.41-.83.92-.53A2,2,0,0,1,258.58,136.74Z"/><path class="cls-8" d="M261.84,138.62c0,.58-.41.82-.92.53a2.06,2.06,0,0,1-.93-1.6c0-.59.42-.83.93-.53A2,2,0,0,1,261.84,138.62Z"/><path class="cls-8" d="M275.55,148.22l-1.89-1.09a1.24,1.24,0,0,1-.52-1v-2c0-.38.23-.55.52-.39l1.89,1.1a1.21,1.21,0,0,1,.52,1v2C276.07,148.21,275.84,148.38,275.55,148.22Z"/><path class="cls-1" d="M278.29,167.55l-40-23.11a3.9,3.9,0,0,1-1.62-3.1v-7.63c0-1.19.73-1.74,1.62-1.23l40,23.11a3.88,3.88,0,0,1,1.62,3.1v7.63C279.91,167.52,279.19,168.07,278.29,167.55Z"/><path class="cls-2" d="M277.14,164.87l-37.73-21.78a2,2,0,0,1-.82-1.57v-5.74c0-.6.37-.88.82-.62l37.73,21.78a2,2,0,0,1,.82,1.57v5.74C278,164.86,277.59,165.14,277.14,164.87Z"/><path class="cls-7" d="M247.28,144.73l-5.64-3.25a1.91,1.91,0,0,1-.79-1.53h0c0-.59.35-.86.79-.6l5.64,3.25a1.91,1.91,0,0,1,.79,1.53h0C248.07,144.71,247.72,145,247.28,144.73Z"/><path class="cls-4" d="M252.07,146.44c0,.58-.41.82-.92.53a2,2,0,0,1-.92-1.6c0-.59.41-.83.92-.53A2,2,0,0,1,252.07,146.44Z"/><path class="cls-8" d="M255.33,148.31c0,.59-.41.83-.92.54a2.06,2.06,0,0,1-.93-1.6c0-.59.42-.83.93-.53A2,2,0,0,1,255.33,148.31Z"/><path class="cls-7" d="M258.58,150.19c0,.59-.41.83-.92.54a2,2,0,0,1-.92-1.6c0-.59.41-.83.92-.53A2,2,0,0,1,258.58,150.19Z"/><path class="cls-8" d="M261.84,152.07c0,.59-.41.83-.92.54A2.06,2.06,0,0,1,260,151c0-.59.42-.83.93-.53A2,2,0,0,1,261.84,152.07Z"/><path class="cls-8" d="M275.55,161.68l-1.89-1.1a1.21,1.21,0,0,1-.52-1v-2c0-.38.23-.55.52-.39l1.89,1.09a1.24,1.24,0,0,1,.52,1v2C276.07,161.67,275.84,161.84,275.55,161.68Z"/><path class="cls-1" d="M278.29,181l-40-23.11a3.9,3.9,0,0,1-1.62-3.1v-7.63c0-1.2.73-1.75,1.62-1.23l40,23.11a3.88,3.88,0,0,1,1.62,3.1v7.63C279.91,181,279.19,181.53,278.29,181Z"/><path class="cls-2" d="M277.14,178.33l-37.73-21.78a2,2,0,0,1-.82-1.57v-5.74c0-.61.37-.88.82-.62l37.73,21.78A2,2,0,0,1,278,172v5.74C278,178.32,277.59,178.6,277.14,178.33Z"/><path class="cls-7" d="M247.28,158.19l-5.64-3.25a1.92,1.92,0,0,1-.79-1.53h0c0-.59.35-.86.79-.6l5.64,3.25a1.91,1.91,0,0,1,.79,1.53h0C248.07,158.17,247.72,158.44,247.28,158.19Z"/><path class="cls-4" d="M252.07,159.89c0,.59-.41.83-.92.54a2,2,0,0,1-.92-1.6c0-.59.41-.83.92-.53A2,2,0,0,1,252.07,159.89Z"/><path class="cls-8" d="M255.33,161.77c0,.59-.41.83-.92.54a2.06,2.06,0,0,1-.93-1.6c0-.59.42-.83.93-.53A2,2,0,0,1,255.33,161.77Z"/><path class="cls-7" d="M258.58,163.65c0,.59-.41.83-.92.54a2,2,0,0,1-.92-1.6c0-.59.41-.83.92-.54A2,2,0,0,1,258.58,163.65Z"/><path class="cls-8" d="M261.84,165.53c0,.59-.41.83-.92.54a2.06,2.06,0,0,1-.93-1.6c0-.59.42-.83.93-.54A2,2,0,0,1,261.84,165.53Z"/><path class="cls-8" d="M275.55,175.14l-1.89-1.1a1.21,1.21,0,0,1-.52-1v-2c0-.38.23-.56.52-.39l1.89,1.09a1.24,1.24,0,0,1,.52,1v2C276.07,175.13,275.84,175.3,275.55,175.14Z"/><path class="cls-1" d="M278.29,194.47l-40-23.11a3.91,3.91,0,0,1-1.62-3.1v-7.63c0-1.2.73-1.75,1.62-1.23l40,23.11a3.87,3.87,0,0,1,1.62,3.1v7.63C279.91,194.44,279.19,195,278.29,194.47Z"/><path class="cls-2" d="M277.14,191.79,239.41,170a2,2,0,0,1-.82-1.57V162.7c0-.61.37-.89.82-.62l37.73,21.78a2,2,0,0,1,.82,1.57v5.74C278,191.78,277.59,192.05,277.14,191.79Z"/><path class="cls-7" d="M247.28,171.65l-5.64-3.25a1.92,1.92,0,0,1-.79-1.53h0c0-.59.35-.86.79-.6l5.64,3.25a1.9,1.9,0,0,1,.79,1.52h0C248.07,171.63,247.72,171.9,247.28,171.65Z"/><path class="cls-8" d="M252.07,173.35c0,.59-.41.83-.92.54a2,2,0,0,1-.92-1.6c0-.59.41-.83.92-.54A2,2,0,0,1,252.07,173.35Z"/><path class="cls-8" d="M255.33,175.23c0,.59-.41.83-.92.53a2,2,0,0,1-.93-1.59c0-.59.42-.83.93-.54A2,2,0,0,1,255.33,175.23Z"/><path class="cls-7" d="M258.58,177.11c0,.59-.41.83-.92.53a2,2,0,0,1-.92-1.59c0-.59.41-.83.92-.54A2,2,0,0,1,258.58,177.11Z"/><path class="cls-8" d="M261.84,179c0,.59-.41.83-.92.53a2,2,0,0,1-.93-1.59c0-.59.42-.83.93-.54A2,2,0,0,1,261.84,179Z"/><path class="cls-7" d="M275.55,188.6l-1.89-1.1a1.21,1.21,0,0,1-.52-1v-2c0-.37.23-.55.52-.38l1.89,1.09a1.22,1.22,0,0,1,.52,1v2C276.07,188.59,275.84,188.76,275.55,188.6Z"/><path class="cls-1" d="M278.29,207.93l-40-23.11a3.91,3.91,0,0,1-1.62-3.1v-7.63c0-1.2.73-1.75,1.62-1.23l40,23.11a3.87,3.87,0,0,1,1.62,3.1v7.63C279.91,207.89,279.19,208.44,278.29,207.93Z"/><path class="cls-2" d="M277.14,205.25l-37.73-21.78a2,2,0,0,1-.82-1.57v-5.74c0-.61.37-.89.82-.62l37.73,21.78a2,2,0,0,1,.82,1.57v5.74C278,205.23,277.59,205.51,277.14,205.25Z"/><path class="cls-7" d="M247.28,185.11l-5.64-3.25a1.92,1.92,0,0,1-.79-1.53h0c0-.59.35-.86.79-.61l5.64,3.26a1.89,1.89,0,0,1,.79,1.52h0C248.07,185.09,247.72,185.36,247.28,185.11Z"/><path class="cls-8" d="M252.07,186.81c0,.59-.41.83-.92.53a2,2,0,0,1-.92-1.59c0-.59.41-.83.92-.54A2,2,0,0,1,252.07,186.81Z"/><path class="cls-4" d="M255.33,188.69c0,.59-.41.83-.92.53a2,2,0,0,1-.93-1.59c0-.59.42-.83.93-.54A2,2,0,0,1,255.33,188.69Z"/><path class="cls-7" d="M258.58,190.57c0,.59-.41.83-.92.53a2,2,0,0,1-.92-1.6c0-.58.41-.82.92-.53A2,2,0,0,1,258.58,190.57Z"/><path class="cls-4" d="M261.84,192.45c0,.59-.41.83-.92.53a2,2,0,0,1-.93-1.6c0-.58.42-.82.93-.53A2,2,0,0,1,261.84,192.45Z"/><path class="cls-7" d="M275.55,202.05,273.66,201a1.21,1.21,0,0,1-.52-1v-2c0-.37.23-.55.52-.38l1.89,1.09a1.21,1.21,0,0,1,.52,1v2C276.07,202,275.84,202.22,275.55,202.05Z"/><path class="cls-1" d="M278.29,221.38l-40-23.1a3.91,3.91,0,0,1-1.62-3.1v-7.64c0-1.19.73-1.74,1.62-1.22l40,23.11a3.85,3.85,0,0,1,1.62,3.1v7.63C279.91,221.35,279.19,221.9,278.29,221.38Z"/><path class="cls-2" d="M277.14,218.71l-37.73-21.78a2,2,0,0,1-.82-1.58v-5.73c0-.61.37-.89.82-.63l37.73,21.79a2,2,0,0,1,.82,1.57v5.74C278,218.69,277.59,219,277.14,218.71Z"/><path class="cls-7" d="M247.28,198.57l-5.64-3.26a1.89,1.89,0,0,1-.79-1.52h0c0-.59.35-.86.79-.61l5.64,3.25a1.92,1.92,0,0,1,.79,1.53h0C248.07,198.55,247.72,198.82,247.28,198.57Z"/><path class="cls-8" d="M252.07,200.27c0,.59-.41.83-.92.53a2,2,0,0,1-.92-1.6c0-.58.41-.82.92-.53A2,2,0,0,1,252.07,200.27Z"/><path class="cls-8" d="M255.33,202.15c0,.59-.41.83-.92.53a2,2,0,0,1-.93-1.6c0-.58.42-.82.93-.53A2,2,0,0,1,255.33,202.15Z"/><path class="cls-7" d="M258.58,204c0,.59-.41.83-.92.53a2,2,0,0,1-.92-1.6c0-.58.41-.82.92-.53A2,2,0,0,1,258.58,204Z"/><path class="cls-8" d="M261.84,205.91c0,.59-.41.83-.92.53a2,2,0,0,1-.93-1.6c0-.59.42-.82.93-.53A2,2,0,0,1,261.84,205.91Z"/><path class="cls-8" d="M275.55,215.51l-1.89-1.09a1.21,1.21,0,0,1-.52-1v-2c0-.38.23-.55.52-.39l1.89,1.1a1.21,1.21,0,0,1,.52,1v2C276.07,215.5,275.84,215.68,275.55,215.51Z"/><path class="cls-1" d="M278.29,234.84l-40-23.11a3.88,3.88,0,0,1-1.62-3.09V201c0-1.19.73-1.74,1.62-1.22l40,23.11a3.85,3.85,0,0,1,1.62,3.1v7.63C279.91,234.81,279.19,235.36,278.29,234.84Z"/><path class="cls-2" d="M277.14,232.17l-37.73-21.78a2,2,0,0,1-.82-1.58v-5.73c0-.61.37-.89.82-.63l37.73,21.79a2,2,0,0,1,.82,1.57v5.74C278,232.15,277.59,232.43,277.14,232.17Z"/><path class="cls-7" d="M247.28,212l-5.64-3.25a1.9,1.9,0,0,1-.79-1.52h0c0-.59.35-.86.79-.61l5.64,3.25a1.92,1.92,0,0,1,.79,1.53h0C248.07,212,247.72,212.28,247.28,212Z"/><path class="cls-4" d="M273.14,226.15c0,1.11-.78,1.56-1.74,1a3.83,3.83,0,0,1-1.74-3c0-1.12.78-1.57,1.74-1A3.87,3.87,0,0,1,273.14,226.15Z"/><path class="cls-8" d="M252.07,213.9c0,.59-.41.82-.92.53a2,2,0,0,1-.92-1.6c0-.59.41-.83.92-.53A2,2,0,0,1,252.07,213.9Z"/><path class="cls-7" d="M255.33,215.78c0,.58-.41.82-.92.53a2.06,2.06,0,0,1-.93-1.6c0-.59.42-.83.93-.53A2,2,0,0,1,255.33,215.78Z"/><path class="cls-8" d="M258.58,217.66c0,.58-.41.82-.92.53a2,2,0,0,1-.92-1.6c0-.59.41-.83.92-.53A2,2,0,0,1,258.58,217.66Z"/><path class="cls-3" d="M338,281.61l-42.73-24.36c-1.56-.9-1.36-2.48.44-3.52l24.58-14.19a6.8,6.8,0,0,1,6.1-.26l42.72,24.36c1.56.91,1.37,2.48-.44,3.52l-24.58,14.2A6.77,6.77,0,0,1,338,281.61Z"/><path class="cls-2" d="M372.91,255.44h0V155.71l-39.65-10.38-7.3-4.22a7.28,7.28,0,0,0-6.54.27l-6.82,3.94-21.15,0,6.27,96.29a1.88,1.88,0,0,0,1.12,1.75l39.57,29.86a7.38,7.38,0,0,0,6.6.25l26.31-15.75A2.6,2.6,0,0,0,372.91,255.44Z"/><path class="cls-6" d="M322.92,140.46a7.53,7.53,0,0,0-3.5.92l-6.82,3.94-21.15,0v100a1.9,1.9,0,0,0,1.13,1.75l45.83,26.14a6,6,0,0,0,3,.65l.48-100.64Z"/><path class="cls-2" d="M338.83,273.91a7.48,7.48,0,0,0,5.23-.06V172h-5.23Z"/><path class="cls-3" d="M338.41,173.23l-45.83-26.14c-1.68-1-1.47-2.66.47-3.77l26.37-15.23a7.25,7.25,0,0,1,6.54-.27L371.79,154c1.67,1,1.46,2.66-.47,3.78L345,173A7.29,7.29,0,0,1,338.41,173.23Z"/><path class="cls-1" d="M371.32,155.88,345,171.1a7.25,7.25,0,0,1-6.54.27l-45.83-26.13a2.58,2.58,0,0,1-.84-.74,1.75,1.75,0,0,0,.84,2.59l45.83,26.14A7.29,7.29,0,0,0,345,173l26.37-15.22c1.5-.87,2-2.08,1.3-3A3.69,3.69,0,0,1,371.32,155.88Z"/><path class="cls-2" d="M339.7,162.63,309.19,145c-.78-.46-.68-1.25.22-1.77l12.34-7.12a3.39,3.39,0,0,1,3.06-.13l30.51,17.69c.79.45.69,1.24-.22,1.76l-12.34,7.13A3.39,3.39,0,0,1,339.7,162.63Z"/><path class="cls-7" d="M323.23,145.74l-1.77-1c-.11-.06-.09-.17,0-.24l1.71-1a.48.48,0,0,1,.42,0l1.77,1c.11.07.1.18,0,.25l-1.71,1A.45.45,0,0,1,323.23,145.74Z"/><path class="cls-7" d="M329.14,149.14l-1.77-1c-.11-.07-.09-.18,0-.25l1.71-1a.45.45,0,0,1,.42,0l1.77,1c.11.06.09.17,0,.24l-1.71,1A.48.48,0,0,1,329.14,149.14Z"/><path class="cls-7" d="M335.05,152.53l-1.77-1c-.11-.06-.1-.17,0-.24l1.71-1a.45.45,0,0,1,.42,0l1.77,1c.11.06.09.17,0,.24l-1.71,1A.45.45,0,0,1,335.05,152.53Z"/><path class="cls-7" d="M341,155.93l-1.77-1c-.1-.06-.09-.17,0-.24l1.71-1a.5.5,0,0,1,.43,0l1.76,1c.11.07.1.17,0,.25l-1.7,1A.47.47,0,0,1,341,155.93Z"/><path class="cls-4" d="M309.19,145l0,0a1.18,1.18,0,0,1,.18-.13l12.34-7.12a3.39,3.39,0,0,1,3.06-.13l30.48,17.67c.72-.52.76-1.23,0-1.64l-30.51-17.69a3.39,3.39,0,0,0-3.06.13l-12.34,7.12C308.51,143.7,308.41,144.49,309.19,145Z"/><path class="cls-3" d="M350.1,193l17.35-9.94a4.23,4.23,0,0,0,1.76-3.37v-6.21c0-1.3-.79-1.9-1.76-1.34l-17.35,9.94a4.21,4.21,0,0,0-1.77,3.38v6.2C348.33,193,349.12,193.55,350.1,193Z"/><path class="cls-4" d="M368.3,172a1.68,1.68,0,0,1,.45,1.29v6.2a4.23,4.23,0,0,1-1.77,3.38l-17.35,9.93a1.3,1.3,0,0,1-.86.19,1.07,1.07,0,0,0,1.33.05l17.35-9.94a4.23,4.23,0,0,0,1.76-3.37v-6.21C369.21,172.59,368.84,172,368.3,172Z"/><path class="cls-1" d="M355.31,186.25l1.6-.92a1,1,0,0,0,.38-.74v-1.7c0-.28-.17-.41-.38-.29l-1.6.92a.92.92,0,0,0-.38.74V186C354.93,186.24,355.1,186.37,355.31,186.25Z"/><path class="cls-4" d="M360.64,183.17l1.59-.91a1,1,0,0,0,.38-.74v-1.7c0-.28-.17-.42-.38-.29l-1.59.92a.9.9,0,0,0-.39.73v1.7C360.25,183.17,360.42,183.3,360.64,183.17Z"/><path class="cls-3" d="M350.1,237.82l17.35-9.93a4.26,4.26,0,0,0,1.76-3.38V218.3c0-1.3-.79-1.9-1.76-1.33L350.1,226.9a4.23,4.23,0,0,0-1.77,3.38v6.2C348.33,237.78,349.12,238.38,350.1,237.82Z"/><path class="cls-4" d="M368.3,216.78a1.72,1.72,0,0,1,.45,1.29v6.2a4.21,4.21,0,0,1-1.77,3.38l-17.35,9.94a1.23,1.23,0,0,1-.86.18,1.07,1.07,0,0,0,1.33,0l17.35-9.93a4.26,4.26,0,0,0,1.76-3.38V218.3C369.21,217.42,368.84,216.87,368.3,216.78Z"/><path class="cls-1" d="M355.31,231.08l1.6-.92a.92.92,0,0,0,.38-.74v-1.7c0-.28-.17-.41-.38-.29l-1.6.92a.92.92,0,0,0-.38.74v1.7C354.93,231.07,355.1,231.2,355.31,231.08Z"/><path class="cls-4" d="M360.64,228l1.59-.92a.93.93,0,0,0,.38-.74v-1.7c0-.28-.17-.41-.38-.29l-1.59.92a.9.9,0,0,0-.39.74v1.7C360.25,228,360.42,228.13,360.64,228Z"/><path class="cls-3" d="M350.1,260.23l17.35-9.93a4.23,4.23,0,0,0,1.76-3.38v-6.2c0-1.3-.79-1.9-1.76-1.34l-17.35,9.94a4.21,4.21,0,0,0-1.77,3.37v6.21C348.33,260.2,349.12,260.8,350.1,260.23Z"/><path class="cls-4" d="M368.3,239.2a1.68,1.68,0,0,1,.45,1.29v6.2a4.23,4.23,0,0,1-1.77,3.38L349.63,260a1.3,1.3,0,0,1-.86.19,1.07,1.07,0,0,0,1.33,0l17.35-9.93a4.23,4.23,0,0,0,1.76-3.38v-6.2C369.21,239.84,368.84,239.29,368.3,239.2Z"/><path class="cls-1" d="M355.31,253.49l1.6-.91a1,1,0,0,0,.38-.74v-1.7c0-.28-.17-.41-.38-.29l-1.6.92a.92.92,0,0,0-.38.73v1.7C354.93,253.49,355.1,253.62,355.31,253.49Z"/><path class="cls-4" d="M360.64,250.42l1.59-.92a.92.92,0,0,0,.38-.73v-1.7c0-.29-.17-.42-.38-.29l-1.59.92a.9.9,0,0,0-.39.73v1.7C360.25,250.41,360.42,250.55,360.64,250.42Z"/><path class="cls-3" d="M350.1,215.4l17.35-9.93a4.25,4.25,0,0,0,1.76-3.38v-6.2c0-1.3-.79-1.9-1.76-1.34l-17.35,9.93a4.24,4.24,0,0,0-1.77,3.38v6.21C348.33,215.37,349.12,216,350.1,215.4Z"/><path class="cls-4" d="M368.3,194.36a1.72,1.72,0,0,1,.45,1.29v6.21a4.24,4.24,0,0,1-1.77,3.38l-17.35,9.93a1.3,1.3,0,0,1-.86.19,1.07,1.07,0,0,0,1.33,0l17.35-9.93a4.25,4.25,0,0,0,1.76-3.38v-6.2C369.21,195,368.84,194.46,368.3,194.36Z"/><path class="cls-1" d="M355.31,208.66l1.6-.92a.92.92,0,0,0,.38-.73v-1.7c0-.29-.17-.42-.38-.29l-1.6.92a.92.92,0,0,0-.38.73v1.7C354.93,208.65,355.1,208.79,355.31,208.66Z"/><path class="cls-4" d="M360.64,205.59l1.59-.92a.92.92,0,0,0,.38-.73v-1.7c0-.29-.17-.42-.38-.3l-1.59.92a.93.93,0,0,0-.39.74v1.7C360.25,205.58,360.42,205.71,360.64,205.59Z"/><path class="cls-1" d="M335.07,186.63l-40-23.1a3.91,3.91,0,0,1-1.62-3.1v-7.64c0-1.19.73-1.74,1.62-1.22l40,23.11a3.85,3.85,0,0,1,1.62,3.1v7.63C336.69,186.6,336,187.15,335.07,186.63Z"/><path class="cls-2" d="M333.92,184l-37.73-21.78a2,2,0,0,1-.82-1.58v-5.73c0-.61.37-.89.82-.63L333.92,176a1.94,1.94,0,0,1,.82,1.57v5.74C334.74,183.94,334.38,184.22,333.92,184Z"/><path class="cls-7" d="M304.06,163.82l-5.63-3.26a1.87,1.87,0,0,1-.8-1.52h0c0-.59.35-.86.8-.61l5.63,3.25a1.92,1.92,0,0,1,.79,1.53h0C304.85,163.8,304.5,164.07,304.06,163.82Z"/><path class="cls-8" d="M308.85,165.52c0,.59-.41.83-.92.53a2,2,0,0,1-.92-1.6c0-.58.41-.82.92-.53A2,2,0,0,1,308.85,165.52Z"/><path class="cls-8" d="M312.11,167.4c0,.59-.41.83-.92.53a2,2,0,0,1-.93-1.6c0-.58.42-.82.93-.53A2,2,0,0,1,312.11,167.4Z"/><path class="cls-7" d="M315.36,169.28c0,.59-.41.83-.92.53a2,2,0,0,1-.92-1.6c0-.58.41-.82.92-.53A2,2,0,0,1,315.36,169.28Z"/><path class="cls-8" d="M318.62,171.16c0,.59-.41.83-.92.53a2,2,0,0,1-.93-1.6c0-.59.42-.82.93-.53A2,2,0,0,1,318.62,171.16Z"/><path class="cls-8" d="M332.33,180.76l-1.89-1.09a1.21,1.21,0,0,1-.52-1v-2c0-.38.23-.55.52-.39l1.89,1.1a1.21,1.21,0,0,1,.52,1v2C332.85,180.75,332.62,180.93,332.33,180.76Z"/><path class="cls-1" d="M335.07,200.09,295,177a3.88,3.88,0,0,1-1.62-3.09v-7.64c0-1.19.73-1.74,1.62-1.22l40,23.11a3.85,3.85,0,0,1,1.62,3.1v7.63C336.69,200.06,336,200.61,335.07,200.09Z"/><path class="cls-2" d="M333.92,197.42l-37.73-21.78a2,2,0,0,1-.82-1.58v-5.73c0-.61.37-.89.82-.63l37.73,21.79a1.94,1.94,0,0,1,.82,1.57v5.74C334.74,197.4,334.38,197.68,333.92,197.42Z"/><path class="cls-7" d="M304.06,177.27,298.43,174a1.88,1.88,0,0,1-.8-1.52h0c0-.59.35-.86.8-.61l5.63,3.25a1.92,1.92,0,0,1,.79,1.53h0C304.85,177.26,304.5,177.53,304.06,177.27Z"/><path class="cls-4" d="M308.85,179c0,.59-.41.83-.92.53a2,2,0,0,1-.92-1.6c0-.59.41-.82.92-.53A2,2,0,0,1,308.85,179Z"/><path class="cls-8" d="M312.11,180.86c0,.59-.41.83-.92.53a2,2,0,0,1-.93-1.6c0-.59.42-.82.93-.53A2,2,0,0,1,312.11,180.86Z"/><path class="cls-7" d="M315.36,182.74c0,.59-.41.82-.92.53a2,2,0,0,1-.92-1.6c0-.59.41-.82.92-.53A2,2,0,0,1,315.36,182.74Z"/><path class="cls-8" d="M318.62,184.62c0,.59-.41.82-.92.53a2,2,0,0,1-.93-1.6c0-.59.42-.83.93-.53A2,2,0,0,1,318.62,184.62Z"/><path class="cls-8" d="M332.33,194.22l-1.89-1.09a1.22,1.22,0,0,1-.52-1v-2c0-.38.23-.55.52-.39l1.89,1.1a1.21,1.21,0,0,1,.52,1v2C332.85,194.21,332.62,194.39,332.33,194.22Z"/><path class="cls-1" d="M335.07,213.55l-40-23.11a3.88,3.88,0,0,1-1.62-3.1v-7.63c0-1.19.73-1.74,1.62-1.22l40,23.1a3.88,3.88,0,0,1,1.62,3.1v7.64C336.69,213.52,336,214.07,335.07,213.55Z"/><path class="cls-2" d="M333.92,210.88l-37.73-21.79a2,2,0,0,1-.82-1.57v-5.74c0-.6.37-.88.82-.62l37.73,21.78a2,2,0,0,1,.82,1.58v5.73C334.74,210.86,334.38,211.14,333.92,210.88Z"/><path class="cls-7" d="M304.06,190.73l-5.63-3.25a1.88,1.88,0,0,1-.8-1.52h0c0-.59.35-.86.8-.61l5.63,3.25a1.92,1.92,0,0,1,.79,1.53h0C304.85,190.72,304.5,191,304.06,190.73Z"/><path class="cls-4" d="M308.85,192.44c0,.59-.41.82-.92.53a2,2,0,0,1-.92-1.6c0-.59.41-.83.92-.53A2,2,0,0,1,308.85,192.44Z"/><path class="cls-8" d="M312.11,194.32c0,.59-.41.82-.92.53a2,2,0,0,1-.93-1.6c0-.59.42-.83.93-.53A2,2,0,0,1,312.11,194.32Z"/><path class="cls-7" d="M315.36,196.2c0,.59-.41.82-.92.53a2,2,0,0,1-.92-1.6c0-.59.41-.83.92-.53A2,2,0,0,1,315.36,196.2Z"/><path class="cls-8" d="M318.62,198.08c0,.58-.41.82-.92.53a2.06,2.06,0,0,1-.93-1.6c0-.59.42-.83.93-.53A2,2,0,0,1,318.62,198.08Z"/><path class="cls-8" d="M332.33,207.68l-1.89-1.09a1.24,1.24,0,0,1-.52-1v-2c0-.38.23-.55.52-.39l1.89,1.1a1.21,1.21,0,0,1,.52,1v2C332.85,207.67,332.62,207.84,332.33,207.68Z"/><path class="cls-1" d="M335.07,227,295,203.9a3.9,3.9,0,0,1-1.62-3.1v-7.63c0-1.19.73-1.74,1.62-1.23l40,23.11a3.88,3.88,0,0,1,1.62,3.1v7.63C336.69,227,336,227.53,335.07,227Z"/><path class="cls-2" d="M333.92,224.33l-37.73-21.78a2,2,0,0,1-.82-1.57v-5.74c0-.6.37-.88.82-.62l37.73,21.78a2,2,0,0,1,.82,1.58v5.73C334.74,224.32,334.38,224.6,333.92,224.33Z"/><path class="cls-7" d="M304.06,204.19l-5.63-3.25a1.89,1.89,0,0,1-.8-1.53h0c0-.58.35-.86.8-.6l5.63,3.25a1.92,1.92,0,0,1,.79,1.53h0C304.85,204.18,304.5,204.45,304.06,204.19Z"/><path class="cls-8" d="M308.85,205.9c0,.58-.41.82-.92.53a2,2,0,0,1-.92-1.6c0-.59.41-.83.92-.53A2,2,0,0,1,308.85,205.9Z"/><path class="cls-8" d="M312.11,207.78c0,.58-.41.82-.92.53a2.06,2.06,0,0,1-.93-1.6c0-.59.42-.83.93-.53A2,2,0,0,1,312.11,207.78Z"/><path class="cls-7" d="M315.36,209.66c0,.58-.41.82-.92.53a2,2,0,0,1-.92-1.6c0-.59.41-.83.92-.53A2,2,0,0,1,315.36,209.66Z"/><path class="cls-8" d="M318.62,211.53c0,.59-.41.83-.92.54a2.06,2.06,0,0,1-.93-1.6c0-.59.42-.83.93-.53A2,2,0,0,1,318.62,211.53Z"/><path class="cls-7" d="M332.33,221.14l-1.89-1.1a1.21,1.21,0,0,1-.52-1v-2c0-.38.23-.55.52-.39l1.89,1.1a1.21,1.21,0,0,1,.52,1v2C332.85,221.13,332.62,221.3,332.33,221.14Z"/><path class="cls-1" d="M335.07,240.47l-40-23.11a3.9,3.9,0,0,1-1.62-3.1v-7.63c0-1.2.73-1.74,1.62-1.23l40,23.11a3.88,3.88,0,0,1,1.62,3.1v7.63C336.69,240.44,336,241,335.07,240.47Z"/><path class="cls-2" d="M333.92,237.79,296.19,216a2,2,0,0,1-.82-1.57V208.7c0-.6.37-.88.82-.62l37.73,21.78a2,2,0,0,1,.82,1.57v5.74C334.74,237.78,334.38,238.06,333.92,237.79Z"/><path class="cls-7" d="M304.06,217.65l-5.63-3.25a1.9,1.9,0,0,1-.8-1.53h0c0-.59.35-.86.8-.6l5.63,3.25a1.91,1.91,0,0,1,.79,1.53h0C304.85,217.63,304.5,217.91,304.06,217.65Z"/><path class="cls-8" d="M308.85,219.35c0,.59-.41.83-.92.54a2,2,0,0,1-.92-1.6c0-.59.41-.83.92-.53A2,2,0,0,1,308.85,219.35Z"/><path class="cls-4" d="M312.11,221.23c0,.59-.41.83-.92.54a2.06,2.06,0,0,1-.93-1.6c0-.59.42-.83.93-.53A2,2,0,0,1,312.11,221.23Z"/><path class="cls-7" d="M315.36,223.11c0,.59-.41.83-.92.54a2,2,0,0,1-.92-1.6c0-.59.41-.83.92-.53A2,2,0,0,1,315.36,223.11Z"/><path class="cls-4" d="M318.62,225c0,.59-.41.83-.92.54a2.06,2.06,0,0,1-.93-1.6c0-.59.42-.83.93-.53A2,2,0,0,1,318.62,225Z"/><path class="cls-7" d="M332.33,234.6l-1.89-1.1a1.21,1.21,0,0,1-.52-1v-2c0-.38.23-.55.52-.39l1.89,1.09a1.24,1.24,0,0,1,.52,1v2C332.85,234.59,332.62,234.76,332.33,234.6Z"/><path class="cls-1" d="M335.07,253.93l-40-23.11a3.91,3.91,0,0,1-1.62-3.1v-7.63c0-1.2.73-1.75,1.62-1.23l40,23.11a3.88,3.88,0,0,1,1.62,3.1v7.63C336.69,253.9,336,254.45,335.07,253.93Z"/><path class="cls-2" d="M333.92,251.25l-37.73-21.78a2,2,0,0,1-.82-1.57v-5.74c0-.61.37-.88.82-.62l37.73,21.78a2,2,0,0,1,.82,1.57v5.74C334.74,251.24,334.38,251.51,333.92,251.25Z"/><path class="cls-7" d="M304.06,231.11l-5.63-3.25a1.9,1.9,0,0,1-.8-1.53h0c0-.59.35-.86.8-.6l5.63,3.25a1.9,1.9,0,0,1,.79,1.52h0C304.85,231.09,304.5,231.36,304.06,231.11Z"/><path class="cls-8" d="M308.85,232.81c0,.59-.41.83-.92.54a2,2,0,0,1-.92-1.6c0-.59.41-.83.92-.53A2,2,0,0,1,308.85,232.81Z"/><path class="cls-8" d="M312.11,234.69c0,.59-.41.83-.92.54a2.06,2.06,0,0,1-.93-1.6c0-.59.42-.83.93-.54A2,2,0,0,1,312.11,234.69Z"/><path class="cls-7" d="M315.36,236.57c0,.59-.41.83-.92.54a2,2,0,0,1-.92-1.6c0-.59.41-.83.92-.54A2,2,0,0,1,315.36,236.57Z"/><path class="cls-8" d="M318.62,238.45c0,.59-.41.83-.92.54a2.06,2.06,0,0,1-.93-1.6c0-.59.42-.83.93-.54A2,2,0,0,1,318.62,238.45Z"/><path class="cls-8" d="M332.33,248.06l-1.89-1.1a1.21,1.21,0,0,1-.52-1v-2c0-.38.23-.56.52-.39l1.89,1.09a1.24,1.24,0,0,1,.52,1v2C332.85,248.05,332.62,248.22,332.33,248.06Z"/><path class="cls-1" d="M335.07,267.39l-40-23.11a3.91,3.91,0,0,1-1.62-3.1v-7.63c0-1.2.73-1.75,1.62-1.23l40,23.11a3.87,3.87,0,0,1,1.62,3.1v7.63C336.69,267.36,336,267.9,335.07,267.39Z"/><path class="cls-2" d="M333.92,264.71l-37.73-21.78a2,2,0,0,1-.82-1.57v-5.74c0-.61.37-.89.82-.62l37.73,21.78a2,2,0,0,1,.82,1.57v5.74C334.74,264.69,334.38,265,333.92,264.71Z"/><path class="cls-7" d="M304.06,244.57l-5.63-3.25a1.9,1.9,0,0,1-.8-1.53h0c0-.59.35-.86.8-.6l5.63,3.25a1.9,1.9,0,0,1,.79,1.52h0C304.85,244.55,304.5,244.82,304.06,244.57Z"/><ellipse class="cls-4" cx="308.14" cy="245.99" rx="1.42" ry="2.47" transform="translate(-81.72 187.04) rotate(-30)"/><path class="cls-8" d="M316.63,251c0,.58-.42.82-.93.53a2,2,0,0,1-.92-1.6c0-.59.41-.83.92-.53A2,2,0,0,1,316.63,251Z"/><path class="cls-7" d="M319.88,252.83c0,.58-.41.82-.92.53a2,2,0,0,1-.92-1.6c0-.59.41-.83.92-.53A2,2,0,0,1,319.88,252.83Z"/><path class="cls-8" d="M323.14,254.71c0,.58-.42.82-.93.53a2,2,0,0,1-.92-1.6c0-.59.41-.83.92-.53A2,2,0,0,1,323.14,254.71Z"/><path class="cls-7" d="M332.33,261.52l-1.89-1.1a1.21,1.21,0,0,1-.52-1v-2c0-.37.23-.55.52-.38l1.89,1.09a1.22,1.22,0,0,1,.52,1v2C332.85,261.51,332.62,261.68,332.33,261.52Z"/><path class="cls-1" d="M268.49,256.44a.59.59,0,0,1-.29-1.09l7.9-4.57a2.91,2.91,0,0,0,1.45-2.51v-4.18a.58.58,0,1,1,1.16,0v4.18a4.07,4.07,0,0,1-2,3.52l-7.9,4.57A.6.6,0,0,1,268.49,256.44Z"/><rect class="cls-1" x="262.4" y="252.77" width="4.81" height="10.37" transform="translate(356.85 -100.08) rotate(60.17)"/><path class="cls-1" d="M271,256.36a3.77,3.77,0,0,0-1.69-3c-.94-.54-1.7-.11-1.7,1a3.75,3.75,0,0,0,1.69,2.95C270.24,257.88,271,257.44,271,256.36Z"/><rect class="cls-1" x="250.93" y="255.54" width="7.79" height="16.27" transform="translate(356.8 -88.55) rotate(60.17)"/><path class="cls-10" d="M260.59,257.6l3.05-1.75A6.27,6.27,0,0,1,266,260l-3,1.75A6.21,6.21,0,0,1,260.59,257.6Z"/><path class="cls-1" d="M264.63,261.23a6.09,6.09,0,0,0-2.74-4.78c-1.52-.88-2.75-.17-2.76,1.58a6.06,6.06,0,0,0,2.74,4.78C263.39,263.69,264.62,263,264.63,261.23Z"/><path class="cls-10" d="M268.16,255.25c.44-.26.44-.67,0-.92a1.77,1.77,0,0,0-1.6,0,.49.49,0,0,0,0,.92A1.75,1.75,0,0,0,268.16,255.25Z"/><path class="cls-8" d="M312.2,295.65l-13.58-1.79L211,243.26c-2.81-1.63-7.72-1.42-11,.45l-62.12,35.85-8.21-1.09v4.66h0a3.21,3.21,0,0,0,1.89,2.88l99.33,57.35c2.81,1.62,7.72,1.42,11-.45l67.64-39c1.82-1.06,2.73-2.41,2.68-3.69h0Z"/><path class="cls-1" d="M246.34,263.68l-6.23-3.6H171.65l-33.76,19.48-8.21-1.09v4.66h0a3.21,3.21,0,0,0,1.89,2.88l99.33,57.35a10.27,10.27,0,0,0,5.66,1.06Z"/><path class="cls-5" d="M133.33,279l-3.65-.48v4.66h0a3.21,3.21,0,0,0,1.89,2.88l1.75,1Z"/><path class="cls-11" d="M231.91,343.83a12.73,12.73,0,0,0,9.32-.58V332.86h-9.32Z"/><path class="cls-12" d="M230.91,338.71l-99.33-57.35c-2.81-1.63-2.46-4.46.78-6.33L200,236c3.24-1.88,8.15-2.08,11-.46l99.34,57.35c2.81,1.63,2.45,4.46-.79,6.33l-67.64,39C238.63,340.13,233.72,340.33,230.91,338.71Z"/><path class="cls-4" d="M309.52,297.51l-67.64,39c-3.25,1.88-8.16,2.08-11,.46l-99.33-57.36a3.68,3.68,0,0,1-1.75-1.91c-.44,1.33.12,2.68,1.75,3.62l99.33,57.35c2.81,1.62,7.72,1.42,11-.46l67.64-39c2.18-1.25,3.05-2.95,2.53-4.41A5.28,5.28,0,0,1,309.52,297.51Z"/><path class="cls-10" d="M173.83,262.37l-4.5-2.6c-.36-.2-.31-.57.1-.81l5.31-3.06a1.57,1.57,0,0,1,1.41-.06l4.49,2.59c.36.21.32.58-.1.82l-5.31,3.06A1.54,1.54,0,0,1,173.83,262.37Z"/><path class="cls-10" d="M180.77,266.38l-4.5-2.6c-.36-.21-.31-.57.1-.81l5.31-3.06a1.57,1.57,0,0,1,1.41-.06l4.49,2.59c.36.21.32.57-.1.82l-5.3,3.06A1.6,1.6,0,0,1,180.77,266.38Z"/><path class="cls-10" d="M187.71,270.38l-4.5-2.59c-.36-.21-.31-.57.1-.81l5.31-3.07a1.6,1.6,0,0,1,1.41-.06l4.49,2.6c.36.21.32.57-.1.81l-5.3,3.07A1.56,1.56,0,0,1,187.71,270.38Z"/><path class="cls-10" d="M197.31,267.07l-4.5-2.59c-.36-.21-.31-.57.1-.81l4.46-2.57a1.54,1.54,0,0,1,1.41-.06l4.49,2.59c.36.21.32.57-.1.81L198.72,267A1.56,1.56,0,0,1,197.31,267.07Z"/><path class="cls-10" d="M204.25,271.08l-4.5-2.59c-.36-.21-.31-.58.11-.82l4.45-2.57a1.6,1.6,0,0,1,1.41-.06l4.49,2.6c.36.21.32.57-.1.81L205.66,271A1.57,1.57,0,0,1,204.25,271.08Z"/><path class="cls-10" d="M211.19,275.09l-4.49-2.6c-.37-.2-.32-.57.1-.81l4.45-2.57a1.57,1.57,0,0,1,1.41-.06l4.49,2.6c.36.21.32.57-.1.81L212.6,275A1.57,1.57,0,0,1,211.19,275.09Z"/><path class="cls-10" d="M218.13,279.1l-4.49-2.6c-.36-.21-.32-.57.1-.81l4.45-2.57a1.57,1.57,0,0,1,1.41-.06l4.49,2.59c.36.21.32.58-.1.82L219.54,279A1.57,1.57,0,0,1,218.13,279.1Z"/><path class="cls-10" d="M225.07,283.1l-4.49-2.59c-.36-.21-.32-.57.1-.81l4.45-2.57a1.54,1.54,0,0,1,1.41-.06l4.49,2.59c.37.21.32.57-.1.81l-4.45,2.58A1.56,1.56,0,0,1,225.07,283.1Z"/><path class="cls-10" d="M232,287.11l-4.49-2.59c-.36-.21-.32-.58.1-.82l4.45-2.57a1.6,1.6,0,0,1,1.41-.06l4.5,2.6c.36.21.31.57-.11.81l-4.45,2.57A1.57,1.57,0,0,1,232,287.11Z"/><path class="cls-10" d="M239,291.12l-4.49-2.6c-.36-.2-.32-.57.1-.81l4.45-2.57a1.57,1.57,0,0,1,1.41-.06l4.5,2.6c.36.2.31.57-.1.81l-4.46,2.57A1.56,1.56,0,0,1,239,291.12Z"/><path class="cls-10" d="M245.9,295.13l-4.5-2.6c-.36-.21-.31-.57.1-.81l4.46-2.57a1.54,1.54,0,0,1,1.4-.06l4.5,2.59c.36.21.31.58-.1.82l-4.46,2.57A1.58,1.58,0,0,1,245.9,295.13Z"/><path class="cls-10" d="M252.84,299.13l-4.5-2.59c-.36-.21-.31-.57.1-.81l4.46-2.58a1.54,1.54,0,0,1,1.4,0l4.5,2.59c.36.21.31.57-.1.81l-4.46,2.58A1.54,1.54,0,0,1,252.84,299.13Z"/><path class="cls-10" d="M259.78,303.14l-4.5-2.59c-.36-.21-.31-.58.1-.82l4.46-2.57a1.6,1.6,0,0,1,1.41-.06l4.49,2.6c.36.21.32.57-.1.81l-4.45,2.57A1.57,1.57,0,0,1,259.78,303.14Z"/><path class="cls-10" d="M207.54,265.18l-4.5-2.6c-.36-.21-.31-.57.1-.81l4.46-2.57a1.54,1.54,0,0,1,1.4-.06l4.5,2.59c.36.21.31.58-.1.82l-4.46,2.57A1.54,1.54,0,0,1,207.54,265.18Z"/><path class="cls-10" d="M200.49,261.11,196,258.52c-.36-.21-.32-.58.1-.82l4.45-2.57a1.57,1.57,0,0,1,1.41-.06l4.49,2.6c.36.21.32.57-.1.81l-4.45,2.57A1.57,1.57,0,0,1,200.49,261.11Z"/><path class="cls-10" d="M193.43,257l-9.68-5.59c-.36-.21-.31-.57.11-.82l4.45-2.57a1.6,1.6,0,0,1,1.41-.06l9.68,5.59c.36.21.31.58-.1.82L194.84,257A1.6,1.6,0,0,1,193.43,257Z"/><path class="cls-10" d="M198.37,252.08l-7.86-4.53c-.36-.21-.31-.58.1-.82l4.46-2.57a1.58,1.58,0,0,1,1.4-.06l7.86,4.54c.36.21.31.57-.1.81L199.77,252A1.54,1.54,0,0,1,198.37,252.08Z"/><path class="cls-10" d="M214.48,269.18l-4.5-2.59c-.36-.21-.31-.57.1-.81l4.46-2.57a1.54,1.54,0,0,1,1.4-.06l4.5,2.59c.36.21.31.57-.1.82l-4.46,2.57A1.54,1.54,0,0,1,214.48,269.18Z"/><path class="cls-10" d="M221.42,273.19l-4.5-2.59c-.36-.21-.31-.58.1-.82l4.46-2.57a1.6,1.6,0,0,1,1.41-.06l4.49,2.6c.36.21.32.57-.1.81l-4.45,2.57A1.57,1.57,0,0,1,221.42,273.19Z"/><path class="cls-10" d="M228.36,277.2l-4.5-2.6c-.36-.2-.31-.57.1-.81l4.46-2.57a1.57,1.57,0,0,1,1.41-.06l4.49,2.6c.36.21.32.57-.1.81l-4.45,2.57A1.57,1.57,0,0,1,228.36,277.2Z"/><path class="cls-10" d="M235.3,281.21l-4.5-2.6c-.36-.21-.31-.57.11-.81l4.45-2.57a1.57,1.57,0,0,1,1.41-.06l4.49,2.59c.36.21.32.58-.1.82l-4.45,2.57A1.57,1.57,0,0,1,235.3,281.21Z"/><path class="cls-10" d="M242.24,285.21l-4.49-2.59c-.37-.21-.32-.57.1-.81l4.45-2.57a1.54,1.54,0,0,1,1.41-.06l4.49,2.59c.36.21.32.57-.1.81l-4.45,2.58A1.56,1.56,0,0,1,242.24,285.21Z"/><path class="cls-10" d="M249.18,289.22l-4.49-2.59c-.36-.21-.32-.58.1-.82l4.45-2.57a1.6,1.6,0,0,1,1.41-.06l4.49,2.6c.36.21.32.57-.1.81l-4.45,2.57A1.57,1.57,0,0,1,249.18,289.22Z"/><path class="cls-10" d="M256.12,293.23l-4.49-2.6c-.36-.2-.32-.57.1-.81l4.45-2.57a1.57,1.57,0,0,1,1.41-.06l4.49,2.6c.37.2.32.57-.1.81l-4.45,2.57A1.57,1.57,0,0,1,256.12,293.23Z"/><path class="cls-10" d="M263.06,297.24l-4.49-2.6c-.36-.21-.32-.57.1-.81l4.45-2.57a1.57,1.57,0,0,1,1.41-.06l4.5,2.59c.36.21.31.58-.11.82l-4.45,2.57A1.6,1.6,0,0,1,263.06,297.24Z"/><path class="cls-10" d="M270,301.24l-4.49-2.59c-.36-.21-.32-.57.1-.81l4.45-2.58a1.56,1.56,0,0,1,1.41-.05l4.5,2.59c.36.21.31.57-.1.81l-4.46,2.58A1.56,1.56,0,0,1,270,301.24Z"/><path class="cls-10" d="M282.34,308.37l-9.8-5.66c-.36-.21-.32-.58.1-.82l4.45-2.57a1.6,1.6,0,0,1,1.41-.06l9.81,5.67c.36.2.31.57-.1.81l-4.46,2.57A1.57,1.57,0,0,1,282.34,308.37Z"/><path class="cls-10" d="M295.86,300.57l-8.28-4.78c-.36-.21-.32-.58.1-.82l4.45-2.57a1.6,1.6,0,0,1,1.41-.06l8.28,4.78c.36.21.32.58-.1.82l-4.45,2.57A1.6,1.6,0,0,1,295.86,300.57Z"/><path class="cls-10" d="M226.63,268.4l-4.49-2.59c-.36-.21-.32-.58.1-.82l4.45-2.57a1.57,1.57,0,0,1,1.41-.06l4.49,2.6c.36.21.32.57-.1.81L228,268.34A1.57,1.57,0,0,1,226.63,268.4Z"/><path class="cls-10" d="M219.52,264.29,215,261.7c-.36-.21-.31-.57.1-.81l4.46-2.58a1.56,1.56,0,0,1,1.41-.05l4.49,2.59c.36.21.32.57-.1.81l-4.45,2.58A1.56,1.56,0,0,1,219.52,264.29Z"/><path class="cls-10" d="M212.4,260.19l-4.49-2.6c-.36-.21-.32-.57.1-.81l4.45-2.57a1.57,1.57,0,0,1,1.41-.06l4.5,2.59c.36.21.31.58-.1.82l-4.46,2.57A1.6,1.6,0,0,1,212.4,260.19Z"/><path class="cls-10" d="M205.29,256.08l-4.49-2.6c-.36-.2-.32-.57.1-.81l4.45-2.57a1.57,1.57,0,0,1,1.41-.06l4.49,2.6c.36.21.32.57-.1.81L206.7,256A1.57,1.57,0,0,1,205.29,256.08Z"/><path class="cls-10" d="M233.57,272.41l-4.49-2.6c-.36-.21-.32-.57.1-.81l4.45-2.57a1.57,1.57,0,0,1,1.41-.06l4.5,2.6c.36.2.31.57-.11.81L235,272.35A1.57,1.57,0,0,1,233.57,272.41Z"/><path class="cls-10" d="M240.51,276.42l-4.49-2.6c-.36-.21-.32-.57.1-.81l4.45-2.57a1.57,1.57,0,0,1,1.41-.06l4.5,2.59c.36.21.31.58-.11.82l-4.45,2.57A1.6,1.6,0,0,1,240.51,276.42Z"/><path class="cls-10" d="M247.45,280.42,243,277.83c-.36-.21-.32-.57.1-.82l4.45-2.57a1.56,1.56,0,0,1,1.41-.05l4.5,2.59c.36.21.31.57-.1.81l-4.46,2.57A1.56,1.56,0,0,1,247.45,280.42Z"/><path class="cls-10" d="M254.4,284.43l-4.5-2.59c-.36-.21-.31-.58.1-.82l4.46-2.57a1.54,1.54,0,0,1,1.4-.06l4.5,2.6c.36.21.31.57-.1.81l-4.46,2.57A1.54,1.54,0,0,1,254.4,284.43Z"/><path class="cls-10" d="M261.34,288.44l-4.5-2.6c-.36-.21-.31-.57.1-.81l4.46-2.57a1.54,1.54,0,0,1,1.4-.06l4.5,2.6c.36.2.31.57-.1.81l-4.46,2.57A1.54,1.54,0,0,1,261.34,288.44Z"/><path class="cls-10" d="M268.28,292.44l-4.5-2.59c-.36-.21-.31-.57.1-.81l4.46-2.57a1.56,1.56,0,0,1,1.41-.06l4.49,2.59c.36.21.32.57-.1.82l-4.45,2.57A1.56,1.56,0,0,1,268.28,292.44Z"/><path class="cls-10" d="M275.22,296.45l-4.5-2.59c-.36-.21-.31-.57.11-.82l4.45-2.57a1.6,1.6,0,0,1,1.41-.06l4.49,2.6c.36.21.32.57-.1.81l-4.45,2.57A1.57,1.57,0,0,1,275.22,296.45Z"/><path class="cls-10" d="M282.16,300.46l-4.49-2.6c-.37-.2-.32-.57.1-.81l4.45-2.57a1.57,1.57,0,0,1,1.41-.06l4.49,2.6c.36.21.32.57-.1.81l-4.45,2.57A1.57,1.57,0,0,1,282.16,300.46Z"/><path class="cls-10" d="M289.1,304.47l-4.49-2.6c-.36-.21-.32-.57.1-.81l4.45-2.57a1.57,1.57,0,0,1,1.41-.06l4.49,2.59c.36.21.32.58-.1.82l-4.45,2.57A1.57,1.57,0,0,1,289.1,304.47Z"/><path class="cls-10" d="M223,258.49l-4.5-2.6c-.36-.2-.31-.57.1-.81l4.46-2.57a1.54,1.54,0,0,1,1.4-.06l4.5,2.6c.36.2.31.57-.1.81l-4.46,2.57A1.54,1.54,0,0,1,223,258.49Z"/><path class="cls-10" d="M216.07,254.5l-4.49-2.59c-.37-.21-.32-.58.1-.82l4.45-2.57a1.6,1.6,0,0,1,1.41-.06l4.49,2.6c.36.21.32.57-.1.81l-4.45,2.57A1.57,1.57,0,0,1,216.07,254.5Z"/><path class="cls-10" d="M209.16,250.51l-4.49-2.59c-.36-.21-.32-.57.1-.81l4.45-2.58a1.56,1.56,0,0,1,1.41-.05l4.5,2.59c.36.21.31.57-.1.81l-4.46,2.58A1.56,1.56,0,0,1,209.16,250.51Z"/><path class="cls-10" d="M202.26,246.53l-4.5-2.6c-.36-.21-.31-.57.1-.81l4.46-2.57a1.56,1.56,0,0,1,1.41-.06l4.49,2.59c.36.21.32.58-.1.82l-4.45,2.57A1.6,1.6,0,0,1,202.26,246.53Z"/><path class="cls-10" d="M209.36,242.43l-4.5-2.6c-.36-.21-.31-.57.11-.81l1.47-.85a1.56,1.56,0,0,1,1.41-.06l4.49,2.59c.36.21.32.58-.1.82l-1.47.85A1.6,1.6,0,0,1,209.36,242.43Z"/><path class="cls-10" d="M218.37,247.63l-4.49-2.6c-.36-.2-.32-.57.1-.81l1.47-.85a1.57,1.57,0,0,1,1.41-.06l4.49,2.6c.36.21.32.57-.1.81l-1.47.85A1.57,1.57,0,0,1,218.37,247.63Z"/><path class="cls-10" d="M225.25,251.6,220.76,249c-.37-.21-.32-.58.1-.82l1.47-.85a1.6,1.6,0,0,1,1.41-.06l4.49,2.6c.36.21.32.57-.1.81l-1.47.85A1.57,1.57,0,0,1,225.25,251.6Z"/><path class="cls-10" d="M232.13,255.57l-4.5-2.59c-.36-.21-.31-.58.1-.82l1.48-.85a1.58,1.58,0,0,1,1.4-.06l4.5,2.6c.36.21.31.57-.1.81l-1.47.85A1.57,1.57,0,0,1,232.13,255.57Z"/><path class="cls-10" d="M239,259.54l-4.5-2.59c-.36-.21-.31-.58.1-.82l1.47-.85a1.56,1.56,0,0,1,1.41-.05l4.5,2.59c.36.21.31.57-.1.81l-1.48.85A1.54,1.54,0,0,1,239,259.54Z"/><path class="cls-10" d="M277.4,281.71l-4.49-2.59c-.36-.21-.32-.58.1-.82l1.47-.85a1.6,1.6,0,0,1,1.41-.06l4.49,2.6c.36.21.32.57-.1.81l-1.47.85A1.57,1.57,0,0,1,277.4,281.71Z"/><path class="cls-10" d="M284.28,285.68l-4.49-2.59c-.37-.21-.32-.58.1-.82l1.47-.85a1.56,1.56,0,0,1,1.41-.05l4.49,2.59c.36.21.32.57-.1.81l-1.47.85A1.57,1.57,0,0,1,284.28,285.68Z"/><path class="cls-10" d="M291.16,289.65l-4.5-2.59c-.36-.21-.31-.57.1-.82l1.48-.85a1.54,1.54,0,0,1,1.4-.05l4.5,2.59c.36.21.31.57-.1.81l-1.47.85A1.57,1.57,0,0,1,291.16,289.65Z"/><path class="cls-10" d="M298,293.62l-4.5-2.59c-.36-.21-.31-.57.1-.81l1.47-.85a1.54,1.54,0,0,1,1.41-.06l4.5,2.59c.36.21.31.57-.1.81l-1.48.85A1.51,1.51,0,0,1,298,293.62Z"/><path class="cls-10" d="M229.92,262.5l-4.5-2.6c-.36-.21-.31-.57.1-.81l4.46-2.57a1.56,1.56,0,0,1,1.41-.06l4.49,2.59c.36.21.32.58-.1.82l-4.45,2.57A1.6,1.6,0,0,1,229.92,262.5Z"/><path class="cls-10" d="M236.86,266.5l-4.5-2.59c-.36-.21-.31-.57.11-.81l4.45-2.58a1.56,1.56,0,0,1,1.41,0l4.49,2.59c.36.21.32.57-.1.81l-4.45,2.57A1.54,1.54,0,0,1,236.86,266.5Z"/><path class="cls-10" d="M243.8,270.51l-4.49-2.59c-.37-.21-.32-.58.1-.82l4.45-2.57a1.57,1.57,0,0,1,1.41-.06l4.49,2.6c.36.21.32.57-.1.81l-4.45,2.57A1.57,1.57,0,0,1,243.8,270.51Z"/><path class="cls-10" d="M250.74,274.52l-4.49-2.6c-.36-.21-.32-.57.1-.81l4.45-2.57a1.57,1.57,0,0,1,1.41-.06l4.49,2.6c.36.2.32.57-.1.81l-4.45,2.57A1.57,1.57,0,0,1,250.74,274.52Z"/><path class="cls-10" d="M257.68,278.53l-4.49-2.6c-.36-.21-.32-.57.1-.81l4.45-2.57a1.57,1.57,0,0,1,1.41-.06l4.49,2.59c.37.21.32.58-.1.82l-4.45,2.57A1.6,1.6,0,0,1,257.68,278.53Z"/><path class="cls-10" d="M264.62,282.53l-4.49-2.59c-.36-.21-.32-.57.1-.81l4.45-2.58a1.56,1.56,0,0,1,1.41-.05l4.5,2.59c.36.21.31.57-.11.81L266,282.47A1.54,1.54,0,0,1,264.62,282.53Z"/><path class="cls-10" d="M271.56,286.54,267.07,284c-.36-.21-.32-.58.1-.82l4.45-2.57a1.57,1.57,0,0,1,1.41-.06l4.5,2.6c.36.21.31.57-.1.81L273,286.48A1.57,1.57,0,0,1,271.56,286.54Z"/><path class="cls-10" d="M278.5,290.55,274,288c-.36-.21-.32-.57.1-.81l4.45-2.57a1.57,1.57,0,0,1,1.41-.06l4.5,2.6c.36.2.31.57-.1.81l-4.46,2.57A1.56,1.56,0,0,1,278.5,290.55Z"/><path class="cls-10" d="M285.45,294.56,281,292c-.36-.21-.31-.57.1-.81l4.46-2.57a1.54,1.54,0,0,1,1.4-.06l4.5,2.59c.36.21.31.57-.1.82l-4.46,2.57A1.58,1.58,0,0,1,285.45,294.56Z"/><path class="cls-10" d="M190.23,263,177,255.35c-.36-.21-.32-.57.1-.81l4.45-2.58a1.56,1.56,0,0,1,1.41-.05l13.24,7.64c.36.21.31.57-.1.81l-4.46,2.57A1.56,1.56,0,0,1,190.23,263Z"/><path class="cls-10" d="M275.51,312.22l-13.24-7.64c-.36-.21-.32-.57.1-.81l4.45-2.57a1.57,1.57,0,0,1,1.41-.06l13.24,7.64c.36.21.31.57-.1.81l-4.46,2.57A1.54,1.54,0,0,1,275.51,312.22Z"/><path class="cls-10" d="M247.75,305.05l-4.5-2.6c-.36-.21-.31-.57.11-.81l5.3-3.06a1.57,1.57,0,0,1,1.41-.06l4.49,2.59c.36.21.32.58-.1.82l-5.3,3.06A1.57,1.57,0,0,1,247.75,305.05Z"/><path class="cls-10" d="M197.34,276l-7.19-4.15c-.36-.21-.31-.58.11-.82l5.3-3.06a1.57,1.57,0,0,1,1.41-.06l7.19,4.15c.36.21.31.57-.1.82l-5.31,3.06A1.6,1.6,0,0,1,197.34,276Z"/><path class="cls-10" d="M241.06,301.19,233.87,297c-.36-.21-.31-.58.1-.82l5.31-3.06a1.57,1.57,0,0,1,1.41-.06l7.19,4.15c.36.21.31.58-.11.82l-5.3,3.06A1.57,1.57,0,0,1,241.06,301.19Z"/><path class="cls-10" d="M207.36,281.73l-7.19-4.15c-.36-.21-.32-.57.1-.81l5.31-3.07a1.58,1.58,0,0,1,1.4-.06l7.19,4.15c.36.21.32.58-.1.82l-5.3,3.06A1.57,1.57,0,0,1,207.36,281.73Z"/><path class="cls-10" d="M207,273.67l31.25,18.05c.39.22.39.58,0,.81l-5.41,3.12a1.57,1.57,0,0,1-1.4,0l-31.25-18Z"/><path class="cls-10" d="M267.15,312.31l5,2.89c.3.18.26.47-.08.67l-2.17,1.25a1.27,1.27,0,0,1-1.15.05l-5-2.89c-.3-.17-.26-.47.08-.67l2.17-1.25A1.29,1.29,0,0,1,267.15,312.31Z"/><path class="cls-10" d="M260.15,308.27l5,2.89c.29.17.25.47-.09.67l-2.17,1.25a1.27,1.27,0,0,1-1.15.05l-5-2.89c-.29-.17-.26-.47.08-.67l2.18-1.25A1.27,1.27,0,0,1,260.15,308.27Z"/><path class="cls-10" d="M253.21,304.27l5,2.89c.3.17.26.47-.08.66L256,309.08a1.3,1.3,0,0,1-1.15,0l-5-2.89c-.29-.17-.26-.47.08-.66l2.17-1.26A1.32,1.32,0,0,1,253.21,304.27Z"/><path class="cls-10" d="M264,306.06l5,2.89c.29.17.26.47-.08.67l-2.17,1.25a1.29,1.29,0,0,1-1.16.05l-5-2.89c-.3-.17-.26-.47.08-.67l2.17-1.25A1.27,1.27,0,0,1,264,306.06Z"/><path class="cls-1" d="M205.08,317.12a4.25,4.25,0,0,1-2.09-.49l-34.69-20a1.76,1.76,0,0,1-1-1.52,2.22,2.22,0,0,1,1.3-1.83l23-13.26a5.18,5.18,0,0,1,4.73-.17l34.69,20a1.75,1.75,0,0,1,1,1.51,2.22,2.22,0,0,1-1.3,1.84l-23,13.26A5.41,5.41,0,0,1,205.08,317.12Zm-10.87-36.71a4.25,4.25,0,0,0-2.1.52l-23,13.26c-.47.27-.75.61-.75.89s.28.49.45.59l34.69,20h0a4.12,4.12,0,0,0,3.64-.18l23-13.26c.47-.27.76-.61.76-.89s-.29-.49-.46-.58l-34.69-20A3.19,3.19,0,0,0,194.21,280.41Z"/><path class="cls-4" d="M197.07,295.3l3.4-1.9a1.38,1.38,0,0,1,1.23.06h0c.37.2.41.52.09.69l-3.4,1.91a1.38,1.38,0,0,1-1.23-.06h0C196.79,295.79,196.75,295.48,197.07,295.3Z"/><path class="cls-4" d="M189.85,299.35l5-2.81a1.38,1.38,0,0,1,1.23.06h0c.37.21.41.52.09.7l-5,2.8a1.37,1.37,0,0,1-1.23-.05h0C189.57,299.84,189.53,299.52,189.85,299.35Z"/><path class="cls-4" d="M208.32,301.55l6.49-3.64A1.41,1.41,0,0,1,216,298h0c.37.21.41.52.09.7l-6.49,3.64a1.41,1.41,0,0,1-1.23-.06h0C208.05,302,208,301.73,208.32,301.55Z"/><path class="cls-4" d="M207.15,295.93l2.12-1.19a1.4,1.4,0,0,1,1.24.06h0c.36.21.4.52.09.7l-2.13,1.19a1.41,1.41,0,0,1-1.23-.06h0C206.87,296.42,206.83,296.11,207.15,295.93Z"/><path class="cls-4" d="M202.37,292.33l1.37-.76a1.38,1.38,0,0,1,1.23.06h0c.36.2.4.52.09.69l-1.37.77a1.41,1.41,0,0,1-1.23-.06h0C202.1,292.82,202.06,292.51,202.37,292.33Z"/><path class="cls-4" d="M196.5,289.34l1.7-.95a1.41,1.41,0,0,1,1.23.06h0c.37.21.41.52.09.7l-1.69,1a1.4,1.4,0,0,1-1.24-.06h0C196.23,289.83,196.19,289.52,196.5,289.34Z"/><path class="cls-4" d="M189.92,293l4.46-2.5a1.41,1.41,0,0,1,1.23.06h0c.37.21.41.52.09.7l-4.46,2.5a1.38,1.38,0,0,1-1.23-.06h0C189.64,293.52,189.6,293.21,189.92,293Z"/><path class="cls-4" d="M192.22,288.61l3.21-1.8a1.38,1.38,0,0,1,1.23.06h0c.37.2.41.52.09.69l-3.21,1.8a1.38,1.38,0,0,1-1.23-.06h0C191.94,289.1,191.9,288.78,192.22,288.61Z"/><path class="cls-4" d="M199.25,300.36l5.67-3.18a1.38,1.38,0,0,1,1.23.06h0c.37.21.41.52.09.7l-5.67,3.17a1.41,1.41,0,0,1-1.23-.05h0C199,300.85,198.93,300.53,199.25,300.36Z"/><path class="cls-4" d="M202.15,301.87l9.89-5.54a1.4,1.4,0,0,1,1.24.06h0c.36.2.4.52.09.69l-9.89,5.54a1.43,1.43,0,0,1-1.24-.05h0C201.88,302.36,201.84,302,202.15,301.87Z"/><path class="cls-4" d="M200.83,296.33l5.68-3.18a1.41,1.41,0,0,1,1.23.06h0c.36.21.4.52.09.7l-5.68,3.18a1.38,1.38,0,0,1-1.23-.06h0C200.56,296.82,200.52,296.51,200.83,296.33Z"/><path class="cls-4" d="M194.94,302.77l2.07-1.16a1.41,1.41,0,0,1,1.23.06h0c.36.21.4.52.09.7l-2.06,1.16a1.43,1.43,0,0,1-1.24-.06h0C194.67,303.26,194.63,302.94,194.94,302.77Z"/><path class="cls-4" d="M194.15,293.8,201,290a1.38,1.38,0,0,1,1.23.06h0c.36.21.4.52.09.7l-6.82,3.82a1.38,1.38,0,0,1-1.23-.06h0C193.87,294.29,193.83,294,194.15,293.8Z"/><path class="cls-1" d="M295.4,253.9a4.43,4.43,0,0,1-2.2-.59l-30.61-17.72a3.08,3.08,0,0,1,0-5.31l8.47-5.13a.6.6,0,0,1,.8.2.58.58,0,0,1-.2.8l-8.47,5.13a1.92,1.92,0,0,0,0,3.3l30.6,17.72a3.22,3.22,0,0,0,3.31,0l10.54-6.44a.58.58,0,0,1,.8.19.57.57,0,0,1-.2.8l-10.53,6.44A4.43,4.43,0,0,1,295.4,253.9Z"/><path class="cls-1" d="M213.84,129.12l-20.08-11.59a1,1,0,0,0-1-.09h0l-1.95,1.13,1.37.5v14.62a3.85,3.85,0,0,0,1.61,3.08L213,147.84v1.72l2-1.13h0a1.44,1.44,0,0,0,.55-1.29V132.21A3.88,3.88,0,0,0,213.84,129.12Z"/><path class="cls-2" d="M211.86,149.5l-20.08-11.59a3.89,3.89,0,0,1-1.62-3.09V119.89c0-1.19.73-1.73,1.62-1.22l20.08,11.59a3.88,3.88,0,0,1,1.61,3.09v14.93C213.47,149.47,212.75,150,211.86,149.5Z"/><path class="cls-4" d="M198.53,132.76c0,.87-.6,1.22-1.35.78a3,3,0,0,1-1.36-2.34c0-.87.61-1.22,1.36-.78A3,3,0,0,1,198.53,132.76Z"/><path class="cls-4" d="M202.64,135.13c0,.87-.61,1.22-1.36.78a3,3,0,0,1-1.35-2.34c0-.87.6-1.22,1.35-.78A3,3,0,0,1,202.64,135.13Z"/><path class="cls-4" d="M206.74,137.5c0,.87-.61,1.22-1.36.78a3,3,0,0,1-1.35-2.34c0-.87.61-1.22,1.35-.78A3,3,0,0,1,206.74,137.5Z"/><path class="cls-1" d="M202.41,110.35,182.34,98.76a1,1,0,0,0-1-.09h0l-2,1.13,1.37.5v14.62a3.86,3.86,0,0,0,1.62,3.08l19.19,11.08v1.72l2-1.13h0a1.42,1.42,0,0,0,.55-1.29V113.44A3.85,3.85,0,0,0,202.41,110.35Z"/><path class="cls-2" d="M200.43,130.73l-20.08-11.59a3.88,3.88,0,0,1-1.61-3.09V101.12c0-1.19.72-1.73,1.61-1.22l20.08,11.59a3.89,3.89,0,0,1,1.62,3.09v14.93C202.05,130.7,201.32,131.24,200.43,130.73Z"/><path class="cls-4" d="M187.11,114c0,.87-.61,1.22-1.36.78a3,3,0,0,1-1.35-2.34c0-.87.6-1.22,1.35-.78A3,3,0,0,1,187.11,114Z"/><path class="cls-4" d="M191.21,116.36c0,.87-.61,1.22-1.35.78a3,3,0,0,1-1.36-2.34c0-.87.61-1.22,1.36-.78A3,3,0,0,1,191.21,116.36Z"/><path class="cls-4" d="M195.31,118.73c0,.86-.6,1.22-1.35.78a3,3,0,0,1-1.36-2.34c0-.87.61-1.22,1.36-.79A3,3,0,0,1,195.31,118.73Z"/><path class="cls-4" d="M219.48,173.34l-40.54-23.41a.86.86,0,0,0-.92,0h0l0,0L172,153.45a.31.31,0,0,0-.11.41l5.63,9.85a.42.42,0,0,1,0,.15v34.25a3.23,3.23,0,0,0,1.35,2.59l29.36,17,.11.11,5.6,9.81a.3.3,0,0,0,.42.11l6-3.53a1.25,1.25,0,0,0,.42-1.07V175.92A3.23,3.23,0,0,0,219.48,173.34Z"/><path class="cls-13" d="M214.27,228.49l-.27,0a1.07,1.07,0,0,1-.66-.5l-5.54-9.7-29.24-16.89a4,4,0,0,1-1.74-3.26V164l-5.57-9.74a1.07,1.07,0,0,1,.39-1.45l5.94-3.54a1.61,1.61,0,0,1,1.75,0l40.53,23.4a4,4,0,0,1,1.74,3.25v47.16a2,2,0,0,1-.75,1.7l-6,3.57A1.18,1.18,0,0,1,214.27,228.49Zm-41.45-74.61,5.39,9.45a1,1,0,0,1,.15.53v34.25a2.53,2.53,0,0,0,1,1.93l29.35,17a1,1,0,0,1,.4.39l5.36,9.4,5.58-3.3h0s0-.13,0-.4V175.92a2.51,2.51,0,0,0-1-1.92h0l-40.53-23.4a.32.32,0,0,0-.15-.06h0Z"/><path class="cls-13" d="M197.84,192.36c.16.83,2.24,11.29,4.29,21.7,0,0,0,.05.05.06l6.1,3.52.14.15,5.54,9.7a.41.41,0,0,0,.55.15l5.9-3.49a1.25,1.25,0,0,0,.42-1.07v-47a.08.08,0,0,0-.13-.08l-6.18,3.66h0l-16.64,12.6A.08.08,0,0,0,197.84,192.36Z"/><path class="cls-13" d="M214.31,228.46a1,1,0,0,1-.3,0,1.1,1.1,0,0,1-.71-.55l-5.5-9.61-6.32-3.65-.1-.42c-2.06-10.39-4.13-20.85-4.3-21.68L197,192l.4-.37L214.18,179l6.51-3.86.48.22a.87.87,0,0,1,.43.75v47a2,2,0,0,1-.75,1.7l-5.95,3.52A1.14,1.14,0,0,1,214.31,228.46Zm-11.48-14.85,6.26,3.79,5.35,9.38,5.58-3.3h0s0-.13,0-.4v-45.8l-5.14,3.05h0l-16.23,12.3C199.11,194.82,201,204.2,202.83,213.61Z"/><path class="cls-2" d="M213.16,227.86l-40.53-23.41a3.24,3.24,0,0,1-1.36-2.59V154.71c0-1,.61-1.46,1.36-1l40.53,23.4a3.27,3.27,0,0,1,1.36,2.59v47.16C214.52,227.83,213.91,228.29,213.16,227.86Z"/><path class="cls-13" d="M213.7,228.79a1.8,1.8,0,0,1-.92-.27l-40.54-23.4a4,4,0,0,1-1.74-3.26V154.71a2,2,0,0,1,.85-1.77A1.65,1.65,0,0,1,173,153l40.54,23.41a4,4,0,0,1,1.74,3.25v47.16a1.92,1.92,0,0,1-.86,1.76A1.43,1.43,0,0,1,213.7,228.79Zm-41.61-74.5h0a3,3,0,0,0-.05.42v47.15a2.53,2.53,0,0,0,1,1.93l40.54,23.4a.37.37,0,0,0,.15.06h0a3.39,3.39,0,0,0,.05-.42V179.67a2.51,2.51,0,0,0-1-1.92l-40.54-23.4A.37.37,0,0,0,172.09,154.29Z"/><rect class="cls-13" x="176.48" y="153.44" width="7.15" height="1.54" transform="translate(-54.31 118.51) rotate(-31.92)"/><rect class="cls-2" x="214.63" y="217.82" width="6.23" height="1.18" transform="translate(-81.46 143.62) rotate(-31.05)"/><path class="cls-4" d="M196.76,208.73l-6.25-3.62V201.8a24.42,24.42,0,0,1-5-6.19l-2.5.22-3-7.65,2.57-.23a16.58,16.58,0,0,1-.35-3.22,11.26,11.26,0,0,1,.42-3.08l-2.54-3.16,3.25-4.63,2.62,3.25a6.77,6.77,0,0,1,4.49-.46v-3.52l6.25,3.61v3.31a24.42,24.42,0,0,1,5,6.19l2.5-.22,3,7.65-2.58.23a16.66,16.66,0,0,1,.36,3.22,11.22,11.22,0,0,1-.43,3.08l2.54,3.16L203.87,208l-2.62-3.25a6.75,6.75,0,0,1-4.49.46Zm-5-4.36,3.68,2.13v-3l.83.25a5.57,5.57,0,0,0,4.75-.4l.49-.31,2.25,2.8,1.71-2.44-2.35-2.93.09-.32a10.13,10.13,0,0,0,.47-3,16.43,16.43,0,0,0-.48-3.66l-.16-.71,2.33-.21-2-5.15-2.36.21-.2-.37a23.49,23.49,0,0,0-5.15-6.4l-.22-.19v-3.16l-3.68-2.13v3l-.83-.25a5.58,5.58,0,0,0-4.76.4l-.48.31-2.25-2.8-1.72,2.44,2.36,2.93-.1.32a10.11,10.11,0,0,0-.46,3,17,17,0,0,0,.47,3.66l.16.71-2.32.21,2,5.15,2.35-.21.21.37a23.28,23.28,0,0,0,5.14,6.4l.23.19Zm3.83-7.07a3.75,3.75,0,0,1-1.07-.16h0c-3.6-1.08-6.71-6.46-5.85-10.12a3,3,0,0,1,4-2.31c3.59,1.08,6.7,6.47,5.84,10.12a3.17,3.17,0,0,1-1.46,2.09A2.85,2.85,0,0,1,195.63,197.3Zm-.71-1.39a2,2,0,0,0,1.54-.1,1.93,1.93,0,0,0,.85-1.28c.72-3-2-7.69-5-8.58a1.72,1.72,0,0,0-2.38,1.37c-.72,3,2,7.69,4.95,8.59Z"/><path class="cls-13" d="M202.73,198.11a16,16,0,0,0-.27-2.71,1,1,0,0,1,.89-1.18h0a1,1,0,0,0,.85-1.37l-1.73-4.45a1,1,0,0,0-1-.63l-1,.09a1,1,0,0,1-.95-.5,24.19,24.19,0,0,0-4.63-5.73,1,1,0,0,1-.34-.74v-2.21a1,1,0,0,0-.5-.87l-3-1.7a1,1,0,0,0-1.51.87v.23a1,1,0,0,1-1.19,1,6,6,0,0,0-3.42.38,1,1,0,0,1-1.2-.28L182.64,177a1,1,0,0,0-1.6.05l-1.28,1.82a1,1,0,0,0,0,1.21l1.65,2.06a1,1,0,0,1,.18.88,10.91,10.91,0,0,0-.35,2.74,15.1,15.1,0,0,0,.27,2.72,1,1,0,0,1-.9,1.17h0a1,1,0,0,0-.84,1.37l1.72,4.45a1,1,0,0,0,1,.64l1-.1a1,1,0,0,1,1,.5,24.19,24.19,0,0,0,4.63,5.73,1,1,0,0,1,.34.74v2.21a1,1,0,0,0,.5.87l3,1.71a1,1,0,0,0,1.51-.87v-.24a1,1,0,0,1,1.19-1,6,6,0,0,0,3.42-.39,1,1,0,0,1,1.2.29l1.06,1.33a1,1,0,0,0,1.61-.06l1.28-1.82a1,1,0,0,0,0-1.21l-1.66-2.06a1,1,0,0,1-.18-.87A10.53,10.53,0,0,0,202.73,198.11Zm-12.81-2.88a11,11,0,0,1-1.83-3.16c-3.57-9.81-.7-11.46,6-3.46a10.71,10.71,0,0,1,1.82,3.16C199.49,201.58,196.62,203.23,189.92,195.23Z"/></g></svg>