<svg xmlns="http://www.w3.org/2000/svg" xmlns:xlink="http://www.w3.org/1999/xlink" viewBox="0 0 440 350"><defs><style>.cls-1{opacity:0.9;}.cls-2{fill:#dda957;}.cls-3{fill:#ffb000;}.cls-4{fill:#f9cc7d;}.cls-5{fill:#fff;}.cls-6{fill:#838488;}.cls-7{fill:#ed135d;}.cls-8{fill:#85c441;}.cls-9{fill:#28b5db;}.cls-10{fill:#be1d2d;}.cls-11{fill:#e74039;}.cls-12{fill:#c65c5c;}.cls-13{fill:url(#linear-gradient);}.cls-14{fill:url(#linear-gradient-2);}.cls-15{fill:url(#linear-gradient-3);}.cls-16{opacity:0.8;}.cls-17{fill:#4bafbf;}.cls-18{fill:#86d0e2;}</style><linearGradient id="linear-gradient" x1="233.74" y1="138.6" x2="275.13" y2="126.21" gradientUnits="userSpaceOnUse"><stop offset="0.04" stop-color="#ffa98c"/><stop offset="0.32" stop-color="#ffb892"/><stop offset="0.86" stop-color="#fee1a3"/><stop offset="1" stop-color="#feeca8"/></linearGradient><linearGradient id="linear-gradient-2" x1="42.05" y1="143.55" x2="334.97" y2="77.89" xlink:href="#linear-gradient"/><linearGradient id="linear-gradient-3" x1="205.1" y1="62.39" x2="188.58" y2="93.87" xlink:href="#linear-gradient"/></defs><g id="Layer_7" data-name="Layer 7"><g class="cls-1"><polygon class="cls-2" points="355.12 259.03 355.12 308.53 365.75 302.4 365.75 252.69 355.12 259.03"/><polygon class="cls-3" points="355.15 259.03 355.15 308.53 219.78 230.52 219.78 180.81 355.15 259.03"/><polygon class="cls-4" points="219.78 180.81 355.15 259.03 365.75 252.69 230.32 174.54 219.78 180.81"/></g><path class="cls-5" d="M292.45,235.17a9.74,9.74,0,0,0-4.23-6.28c-2.05-1.19-3.76-.54-4.22,1.4l-54.17-31.36V202l54.37,31.47a9.72,9.72,0,0,0,4,5.42c1.82,1.05,3.37.67,4-.77L345,268.42v-3.07Z"/><path class="cls-5" d="M253.1,231.79c-1.95-1.12-3.59-.58-4.14,1.13l-19.13-11V225L249,236a9.71,9.71,0,0,0,4.11,5.78c1.92,1.11,3.53.61,4.11-1L345,291.38v-3.07L257.24,237.7A9.78,9.78,0,0,0,253.1,231.79Z"/><path class="cls-5" d="M316.21,256.85c-1.95-1.13-3.59-.59-4.14,1.12L229.83,210.4v3.08l82.27,47.58a9.68,9.68,0,0,0,4.11,5.78c1.92,1.11,3.53.61,4.11-1L345,279.9v-3.07l-24.61-14.08A9.69,9.69,0,0,0,316.21,256.85Z"/><path class="cls-6" d="M318.82,226.91l-47.4-28.2c-2.1-1.3-5.9-1.1-8.3.3h0c-2.4,1.4-2.7,3.6-.6,4.9l47.4,28.2c2.1,1.3,5.9,1.1,8.3-.3h0C320.72,230.31,320.92,228.11,318.82,226.91Z"/><path class="cls-7" d="M290.58,87.19a1.1,1.1,0,1,1,2.2,0v126.3a1.1,1.1,0,1,1-2.2,0Z"/><path class="cls-8" d="M308.58,95a1.1,1.1,0,1,1,2.2,0v128.8a1.1,1.1,0,1,1-2.2,0Z"/><path class="cls-9" d="M275.58,203.39a1.1,1.1,0,0,1-2.2,0V97.59a1.1,1.1,0,0,1,2.2,0Z"/><path class="cls-10" d="M294.12,119h0c-31.4-16.6-41.9-56.7-31.3-74.4l-1.7-.3,5.6-4.4h0c6.1-5.1,15.7-5.8,28.8,1.1h0c35,18.5,44,66,26.9,79.4h0l-5.1,4-.7-1.1C310.82,125,303.42,123.91,294.12,119Z"/><path class="cls-11" d="M288.92,123.11h0c-47.4-25.1-47.2-103.6,1.4-77.9h0C337.82,70.31,337.52,148.81,288.92,123.11Z"/><g class="cls-1"><polygon class="cls-12" points="43.79 78.44 43.79 104 54.41 97.87 54.41 72.1 43.79 78.44"/><polygon class="cls-10" points="43.82 78.44 43.82 104 20.41 90.48 20.41 64.72 43.82 78.44"/><polygon class="cls-11" points="20.41 64.72 43.82 78.44 54.41 72.1 30.95 58.45 20.41 64.72"/></g><g class="cls-1"><polygon class="cls-12" points="75.03 96.42 75.03 121.98 85.66 115.85 85.66 90.08 75.03 96.42"/><polygon class="cls-10" points="75.06 96.42 75.06 121.98 51.66 108.46 51.66 82.69 75.06 96.42"/><polygon class="cls-11" points="51.66 82.69 75.06 96.42 85.66 90.08 62.2 76.43 51.66 82.69"/></g><g class="cls-1"><polygon class="cls-12" points="107.57 113.11 107.57 138.68 118.19 132.54 118.19 106.78 107.57 113.11"/><polygon class="cls-10" points="107.6 113.11 107.6 138.68 84.19 125.15 84.19 99.39 107.6 113.11"/><polygon class="cls-11" points="84.19 99.39 107.6 113.11 118.19 106.78 94.74 93.12 84.19 99.39"/></g><path class="cls-5" d="M36.6,84.05,36.49,84V80.82a7,7,0,0,0-3.2-5.52L31.08,74c-1.77-1-3.21-.2-3.21,1.83V79L27.76,79c-.82-.47-1.49-.09-1.49.85v7.86a3.27,3.27,0,0,0,1.49,2.57l8.84,5.1c.82.48,1.49.1,1.49-.84V86.63A3.31,3.31,0,0,0,36.6,84.05ZM32.73,88.4v1.85l-1.1-.63V87.76A2.88,2.88,0,0,1,30.88,86c0-.82.59-1.15,1.3-.74a2.87,2.87,0,0,1,1.3,2.24C33.48,88.08,33.18,88.41,32.73,88.4Zm1.9-5.48-4.9-2.83V77.55c0-1.15.82-1.62,1.82-1l1.26.73a4,4,0,0,1,1.82,3.14Z"/><path class="cls-5" d="M68.19,107a11.17,11.17,0,0,1-2.35-2.82c-.39-.65-.38-1.35,0-1.57a3,3,0,0,0,1.2-1.34c.41.11.93,0,.93-.61a2.23,2.23,0,0,0-.6-1.52,7.48,7.48,0,0,0-3.79-6.65c-2.84-1.64-3.68-.07-3.78,2.28-.34-.08-.6.26-.6.83a2.78,2.78,0,0,0,.93,1.68,13.41,13.41,0,0,0,1.2,2.72c.38.66.39,1.38,0,1.58a3,3,0,0,1-2.35.1c-1.19-.36-2.08.36-2.08,1.83V106a1.72,1.72,0,0,0,.78,1.34l11.81,6.82c.43.25.78,0,.78-.44v-2.55A6.08,6.08,0,0,0,68.19,107Z"/><path class="cls-5" d="M103.65,118.22l-11.9-6.87-.7-2.68a1.21,1.21,0,0,0-.52-.71l-3.65-2.11c-.3-.17-.54,0-.54.31a1.22,1.22,0,0,0,.54.94L90.15,109l4,15.43a1.22,1.22,0,0,0,.51.71l1.17.67-.14,0c-.56.32-.56,1.36,0,2.32s1.47,1.49,2,1.17.56-1.36,0-2.33c0-.07-.09-.13-.13-.19l2.52,1.45-.13.05c-.56.32-.56,1.36,0,2.33s1.47,1.48,2,1.16.55-1.35,0-2.32l-.14-.19.54.3c.3.18.55,0,.55-.3a1.23,1.23,0,0,0-.55-.95l-7.37-4.25-.82-3.15,8.58,5c.78.46,1.47.22,1.63-.57l.8-3.84A3.52,3.52,0,0,0,103.65,118.22Z"/><g class="cls-1"><polygon class="cls-13" points="234.55 121.61 234.55 158.27 245.18 152.14 245.18 115.27 234.55 121.61"/><polygon class="cls-14" points="234.58 121.61 234.58 158.27 136.13 101.44 136.13 64.58 234.58 121.61"/><polygon class="cls-15" points="136.13 64.58 234.58 121.61 245.18 115.27 146.67 58.31 136.13 64.58"/></g><path class="cls-5" d="M174.17,92.6l-18-10.39c-1.1-.64-2-.13-2,1.14V95.54a4.4,4.4,0,0,0,2,3.45l11.25,6.5,5.63,9.7v-6.45l1.12.64c1.1.64,2,.13,2-1.14V96.05A4.44,4.44,0,0,0,174.17,92.6Zm-12.69,2.29c-.58.33-1.53-.22-2.12-1.23s-.59-2.1,0-2.43,1.54.21,2.12,1.22S162.07,94.55,161.48,94.89Zm4.88,2.81c-.59.33-1.54-.21-2.13-1.22s-.58-2.11,0-2.44,1.54.22,2.13,1.22S166.94,97.37,166.36,97.7Zm4.87,2.81c-.58.34-1.53-.21-2.12-1.22s-.59-2.1,0-2.44,1.54.22,2.12,1.23S171.82,100.18,171.23,100.51Zm-18.56-5.83v-9.9l-6.87-4c-1.11-.64-2-.13-2,1.14V94.14a4.38,4.38,0,0,0,2,3.45l1.12.65v6.46l5.63-3.21L163.8,108c1.1.64,2,.13,2-1.14v-.57l-9.62-5.56A7.71,7.71,0,0,1,152.67,94.68Z"/><polygon class="cls-5" points="180.27 98.73 180.27 101.78 227.3 128.94 227.3 125.89 180.27 98.73"/><polygon class="cls-5" points="212.43 129.97 180.27 111.39 180.27 114.43 212.43 133.01 212.43 129.97"/><polygon class="cls-5" points="180.27 108.1 227.3 135.26 227.3 132.22 180.27 105.06 180.27 108.1"/><g class="cls-16"><polygon class="cls-17" points="269.86 290.03 269.86 326.69 280.48 320.56 280.48 283.69 269.86 290.03"/><polygon class="cls-9" points="269.88 290.03 269.88 326.69 134.22 248.37 134.22 211.5 269.88 290.03"/><polygon class="cls-18" points="134.22 211.5 269.88 290.03 280.48 283.69 144.76 205.24 134.22 211.5"/></g><path class="cls-5" d="M262.52,311.76l-4.65-8a2.22,2.22,0,0,0-1.8-1.3l-1.37-2.36c2.05-1.92,1.85-6.46-.62-10.71-2.69-4.64-7.05-7.16-9.74-5.63s-2.69,6.54,0,11.19c2.46,4.24,6.32,6.7,9,5.92l1.36,2.35a2.21,2.21,0,0,0,.24,2.2l4.65,8c.59,1,1.53,1.55,2.11,1.22l.8-.46C263.1,313.85,263.1,312.76,262.52,311.76Zm-10.1-14.08c-1.77,1-4.65-.65-6.42-3.71s-1.77-6.36,0-7.37,4.65.65,6.42,3.71S254.19,296.66,252.42,297.68Z"/><polygon class="cls-5" points="236.93 298.16 144.38 244.56 144.38 226.96 236.93 280.57 236.93 298.16"/><g class="cls-1"><polygon class="cls-12" points="100.8 205.82 100.8 236.11 113.39 228.84 113.39 198.31 100.8 205.82"/><polygon class="cls-10" points="100.84 205.82 100.84 236.11 73.1 220.08 73.1 189.55 100.84 205.82"/><polygon class="cls-11" points="73.1 189.55 100.84 205.82 113.39 198.31 85.6 182.13 73.1 189.55"/></g><path class="cls-5" d="M77.37,217.88l4.89,2.82v-8.76l-4.89-2.82Zm7.74,4.47L90,225.17V209.1l-4.88-2.81Zm7.74-18.9v23.37l4.88,2.82V206.27Z"/><polygon class="cls-17" points="388.94 194.75 388.94 241.39 408.33 230.2 408.33 183.19 388.94 194.75"/><polygon class="cls-9" points="388.99 194.75 388.99 241.39 346.29 216.71 346.29 169.71 388.99 194.75"/><polygon class="cls-18" points="346.29 169.71 388.99 194.75 408.33 183.19 365.53 158.27 346.29 169.71"/><path class="cls-5" d="M379.68,212a17.21,17.21,0,0,0-.15-2.13l3.56-.45a32.48,32.48,0,0,0-1.62-5.39l-4-1.22a28.18,28.18,0,0,0-2.53-4.35l1-4.09a32.09,32.09,0,0,0-3.89-4.08l-2.18,2.82a16.23,16.23,0,0,0-1.77-1.2,13.82,13.82,0,0,0-1.79-.86l-2.18-5.34a10.62,10.62,0,0,0-3.88-.39l1,5.21a5.55,5.55,0,0,0-2.52,1.44l-4.05-3.46A10.63,10.63,0,0,0,353,192l3.56,4.55a12.09,12.09,0,0,0-.15,2,15.47,15.47,0,0,0,.15,2.13l-3.56.45a32,32,0,0,0,1.61,5.38l4.05,1.22a28.47,28.47,0,0,0,2.52,4.35l-1,4.09a32.86,32.86,0,0,0,3.88,4.09l2.18-2.82a18.63,18.63,0,0,0,1.79,1.2,12.92,12.92,0,0,0,1.77.85l2.18,5.35a10.92,10.92,0,0,0,3.89.38l-1-5.2a5.72,5.72,0,0,0,2.53-1.44l4,3.45a10.58,10.58,0,0,0,1.62-3.52l-3.56-4.55A13.45,13.45,0,0,0,379.68,212ZM368,210.61a10.29,10.29,0,0,1-4.69-8.07c0-3,2.1-4.16,4.69-2.66a10.28,10.28,0,0,1,4.67,8.06C372.71,210.91,370.62,212.1,368,210.61Z"/><path class="cls-5" d="M299,90.89a15.47,15.47,0,0,0-.15-2.13l3.56-.45a32,32,0,0,0-1.61-5.38l-4-1.23a28,28,0,0,0-2.52-4.34l1-4.09a32.14,32.14,0,0,0-3.88-4.09L289.18,72a16.82,16.82,0,0,0-1.78-1.2,15.15,15.15,0,0,0-1.78-.86l-2.18-5.33a10.66,10.66,0,0,0-3.88-.4l1,5.21A5.45,5.45,0,0,0,278,70.86L274,67.4a10.84,10.84,0,0,0-1.62,3.53l3.56,4.55a13.45,13.45,0,0,0-.15,2,17.21,17.21,0,0,0,.15,2.13l-3.56.45A33.06,33.06,0,0,0,274,85.4L278,86.63A27.79,27.79,0,0,0,280.53,91l-1,4.08a32.14,32.14,0,0,0,3.88,4.09l2.18-2.82a16.82,16.82,0,0,0,1.78,1.2,13.72,13.72,0,0,0,1.78.86l2.18,5.34a10.86,10.86,0,0,0,3.88.39l-1-5.21a5.5,5.5,0,0,0,2.52-1.44l4,3.45a10.57,10.57,0,0,0,1.61-3.52l-3.56-4.55A12.09,12.09,0,0,0,299,90.89ZM287.4,89.54a10.34,10.34,0,0,1-4.68-8.08c0-3,2.1-4.16,4.68-2.66a10.33,10.33,0,0,1,4.68,8.07C292.08,89.83,290,91,287.4,89.54Z"/></g></svg>