<svg xmlns="http://www.w3.org/2000/svg" viewBox="0 0 440 350"><defs><style>.cls-1{fill:#31b2dc;}.cls-1,.cls-5,.cls-6,.cls-7,.cls-8,.cls-9{fill-rule:evenodd;}.cls-2{fill:#ffb000;}.cls-3{fill:#1d1d1d;}.cls-4{fill:#fff;}.cls-5{fill:#b0b1b2;}.cls-6{fill:#f5f5f5;}.cls-7{fill:#be1d2d;}.cls-8{fill:#e74039;}.cls-9{fill:#f2f2f2;}.cls-10{fill:#c4c4c4;}.cls-11{fill:#150035;}</style></defs><g id="Layer_6" data-name="Layer 6"><path class="cls-1" d="M288.4,120.81a.83.83,0,0,1,1.13.3h0a.81.81,0,0,1-.3,1.11h0L165.14,193.67a.82.82,0,0,1-.9-1.38l.08,0L288.4,120.81ZM253.2,276.73h0a15,15,0,0,1-6-5.68,10.86,10.86,0,0,1-1.41-5.25,11.31,11.31,0,0,1,1.47-5.57c1.49-2.73,4.19-5.39,8.28-7.67l68.37-38.1.07,0c4.44-2.31,7.07-4.57,8.37-6.7a6,6,0,0,0,1-3.09,5.68,5.68,0,0,0-.68-2.8,12.6,12.6,0,0,0-4.69-4.55L277.15,168l-.06,0c-8-4.59-13.64-7.41-19.51-7.62s-12.13,2.18-21.46,8h0l-43.61,25.12h0a.81.81,0,0,1-1.11-.33.83.83,0,0,1,.29-1.1l43.59-25.11c9.63-6,16.16-8.45,22.39-8.23s12,3.11,20.27,7.82l.06,0,50.87,29.31h0a14.15,14.15,0,0,1,5.29,5.21h0a7.29,7.29,0,0,1,.87,3.6,7.88,7.88,0,0,1-1.24,3.91c-1.45,2.37-4.29,4.84-9,7.31h0L256.37,254c-3.81,2.12-6.29,4.55-7.65,7a9.75,9.75,0,0,0-1.27,4.76,9.24,9.24,0,0,0,1.21,4.46,13.29,13.29,0,0,0,5.33,5l0,0Z"/><path class="cls-2" d="M144.32,272.49l-99.9-57.41a1.41,1.41,0,0,1-.84-1.29h0v-.09l.11-11.6a.5.5,0,0,1,.5-.5l19-.16a.52.52,0,0,0,.25-.07l75.4-43.88a5.4,5.4,0,0,1,4.9-.22l81.12,46.64a.43.43,0,0,0,.25.07l18.94-.16a.51.51,0,0,1,.51.51L244.5,216a2.09,2.09,0,0,1-1.18,1.51l-94.1,54.77A5.46,5.46,0,0,1,144.32,272.49Z"/><path class="cls-3" d="M146.44,274.26a5.53,5.53,0,0,1-2.76-.66h0l-99.9-57.4a2.69,2.69,0,0,1-1.49-2.48l.11-11.63a1.8,1.8,0,0,1,1.78-1.78L63,200.15l75.21-43.78a6.67,6.67,0,0,1,6.19-.22l80.93,46.54,18.73-.16h0a1.81,1.81,0,0,1,1.8,1.81L245.79,216a3.3,3.3,0,0,1-1.82,2.61l-94.1,54.77A6.87,6.87,0,0,1,146.44,274.26ZM145,271.37a4.2,4.2,0,0,0,3.6-.22l94.1-54.77a1.16,1.16,0,0,0,.55-.5l.07-10.76-18.15.15a1.79,1.79,0,0,1-.91-.24l-81.11-46.65a4.26,4.26,0,0,0-3.61.22l-75.4,43.89a1.79,1.79,0,0,1-.88.24L45,202.88l-.1,10.83c0,.11.06.17.19.25Z"/><path class="cls-3" d="M121.86,206.68c1.32-.46,44-21.27,60.81-27.07a.19.19,0,0,1,.13,0l42,24.27.33.09,18.74-.16a.67.67,0,0,1,.67.67L244.5,216a2.09,2.09,0,0,1-1.18,1.51l-93.87,54.63a.15.15,0,0,1-.23-.13l.11-12v0L121.76,206.8A.14.14,0,0,1,121.86,206.68Z"/><path class="cls-3" d="M149.46,273.62l-.8-.37a1.45,1.45,0,0,1-.73-1.25l.1-11.75L120.43,207l.16-1.18.83-.39c.36-.14,2.88-1.33,6.08-2.84,12.44-5.89,41.58-19.68,54.75-24.23l.56-.19.63.3,41.89,24.19,18.57-.16a1.89,1.89,0,0,1,1.4.58,1.94,1.94,0,0,1,.57,1.39l-.08,11.5a3.3,3.3,0,0,1-1.82,2.61Zm1.16-13.46-.09,9.85,92.14-53.63a1.16,1.16,0,0,0,.55-.5l.06-10.76-18.27.15-.82-.26-41.58-24c-13.28,4.68-41.76,18.15-54,23.95-2.54,1.2-4.14,2-5.1,2.4l27.22,52.48Z"/><path class="cls-4" d="M243.77,202.35,143.87,145a5.46,5.46,0,0,0-4.9.22l-94.1,54.77c-1.45.84-1.6,2.11-.34,2.83l99.9,57.4a5.46,5.46,0,0,0,4.9-.22l94.1-54.77C244.87,204.34,245,203.07,243.77,202.35Z"/><path class="cls-3" d="M146.55,262a5.63,5.63,0,0,1-2.76-.66l-99.9-57.4a2.73,2.73,0,0,1-1.5-2.34,3.24,3.24,0,0,1,1.83-2.73l94.1-54.77a6.67,6.67,0,0,1,6.19-.22l99.9,57.41a2.71,2.71,0,0,1,1.5,2.33,3.27,3.27,0,0,1-1.84,2.73L150,261.07A7,7,0,0,1,146.55,262ZM45,201.53a1.87,1.87,0,0,1,.19.12l99.9,57.4a4.26,4.26,0,0,0,3.61-.21l94.1-54.77a1.36,1.36,0,0,0,.54-.48s-.08-.05-.19-.12h0l-99.9-57.4a4.2,4.2,0,0,0-3.6.22l-94.1,54.77a1.43,1.43,0,0,0-.55.48Z"/><rect class="cls-3" x="45.58" y="211.8" width="11.98" height="2.58" transform="translate(-162.97 258.23) rotate(-88.28)"/><rect class="cls-2" x="212.37" y="224.37" width="1.99" height="9"/><path class="cls-2" d="M145.46,242.84l-66-38.44a1.41,1.41,0,0,1-.84-1.29h0a.27.27,0,0,1,0-.09l.11-11.6a.5.5,0,0,1,.5-.5l39.59-12a.47.47,0,0,0,.25-.07l18.58-10.5a5.46,5.46,0,0,1,4.9-.22l47.19,27.68a.59.59,0,0,0,.26.07l18.94-.16a.51.51,0,0,1,.51.51l-.08,11.65a2.11,2.11,0,0,1-1.18,1.52l-57.86,33.2A5.46,5.46,0,0,1,145.46,242.84Z"/><path class="cls-3" d="M147.59,244.62a5.65,5.65,0,0,1-2.77-.66h0l-66-38.44A2.67,2.67,0,0,1,77.36,203v0h0l.1-11.6A1.8,1.8,0,0,1,79,189.65l39.61-12,18.43-10.41a6.63,6.63,0,0,1,6.17-.22l47,27.57,18.71-.15h0a1.81,1.81,0,0,1,1.8,1.81l-.08,11.65a3.31,3.31,0,0,1-1.83,2.62L151,243.74A6.93,6.93,0,0,1,147.59,244.62Zm-1.48-2.9a4.23,4.23,0,0,0,3.6-.21l57.86-33.21c.4-.24.53-.45.54-.5l.07-10.76-18.14.15h0a1.85,1.85,0,0,1-.89-.24l-47.2-27.69a4.28,4.28,0,0,0-3.6.22L119.73,180a1.94,1.94,0,0,1-.64.22L80,192l-.1,11c0,.09.07.15.19.22Z"/><path class="cls-3" d="M192.2,195.74s16.61,0,16.61,0a.67.67,0,0,1,.67.66l-.08,11.5a2.11,2.11,0,0,1-1.18,1.52l-57.63,33.07a.16.16,0,0,1-.23-.14l.11-12v0h0C149,226.48,192.2,195.74,192.2,195.74Z"/><path class="cls-3" d="M150.59,244l-.81-.38a1.46,1.46,0,0,1-.71-1.27l.11-11.86c-.4-1.37.37-4.17,20.83-19.91,10.51-8.08,21.33-15.79,21.44-15.87l.36-.18c.23-.07.23-.08,17-.06a1.85,1.85,0,0,1,1.39.57,2,2,0,0,1,.57,1.4l-.08,11.49a3.31,3.31,0,0,1-1.83,2.62Zm1.17-13.38-.09,9.78,55.9-32.08c.4-.24.53-.45.54-.5l.07-10.77H192.62c-19.41,13.83-39.74,29.76-40.86,33l.12.3Z"/><path class="cls-4" d="M208.66,194.27l-66-38.44a5.46,5.46,0,0,0-4.9.22L79.94,189.26c-1.45.84-1.6,2.11-.35,2.83l66,38.44a5.46,5.46,0,0,0,4.9-.22l57.85-33.21C209.77,196.26,209.92,195,208.66,194.27Z"/><path class="cls-3" d="M147.69,232.3a5.63,5.63,0,0,1-2.76-.65L79,193.2a2.71,2.71,0,0,1-1.5-2.33,3.26,3.26,0,0,1,1.84-2.72l57.86-33.22a6.71,6.71,0,0,1,6.18-.22l66,38.45a2.73,2.73,0,0,1,1.5,2.33,3.29,3.29,0,0,1-1.84,2.73l-57.86,33.21A6.93,6.93,0,0,1,147.69,232.3ZM80.05,190.86a2,2,0,0,1,.19.11l66,38.44a4.2,4.2,0,0,0,3.6-.22L207.68,196a1.36,1.36,0,0,0,.54-.48s-.08,0-.2-.11h0L142,157a4.2,4.2,0,0,0-3.6.22L80.58,190.38a1.36,1.36,0,0,0-.54.48Z"/><rect class="cls-3" x="80.64" y="201.12" width="11.98" height="2.58" transform="translate(-118.29 282.92) rotate(-88.28)"/><rect class="cls-2" x="193.61" y="207.89" width="10.46" height="1.99" transform="translate(-12.93 404.65) rotate(-89.16)"/><path class="cls-5" d="M146.43,195.62c2.61,0,4.73-1.22,4.73-2.72s-2.12-2.73-4.72-2.73-4.72,1.23-4.72,2.73,2.12,2.72,4.72,2.72Z"/><path class="cls-6" d="M170.42,184.18a14.67,14.67,0,0,1,3.18,4.66h2.72c2.46,0,4.48,1.23,4.48,2.72v2.95c0,1.5-2,2.72-4.48,2.72H173.6a14.67,14.67,0,0,1-3.18,4.66l1.92,1.17c1.74,1.06,1.74,2.79,0,3.85L168.9,209a6.72,6.72,0,0,1-6.34,0l-1.92-1.16a39.79,39.79,0,0,1-7.68,1.92v1.65c0,1.5-2,2.72-4.49,2.72h-4.85c-2.47,0-4.48-1.22-4.48-2.72v-1.65a40.63,40.63,0,0,1-7.69-1.92L129.53,209a6.72,6.72,0,0,1-6.34,0l-3.43-2.08c-1.75-1.06-1.75-2.79,0-3.85l1.92-1.16a14.45,14.45,0,0,1-3.18-4.66h-2.73c-2.46,0-4.48-1.23-4.48-2.73v-2.95c0-1.49,2-2.72,4.48-2.72h2.73a14.35,14.35,0,0,1,3.18-4.66L119.75,183c-1.74-1.06-1.74-2.79,0-3.85l3.44-2.09a6.72,6.72,0,0,1,6.34,0l1.92,1.17a40,40,0,0,1,7.68-1.93v-1.65c0-1.5,2-2.72,4.49-2.72h4.86c2.46,0,4.48,1.22,4.48,2.72v1.65a40.54,40.54,0,0,1,7.68,1.93l1.92-1.17a6.72,6.72,0,0,1,6.34,0l3.43,2.08c1.75,1.06,1.75,2.79,0,3.85l-1.92,1.17Zm-13.8,2.44c-5.84-3.54-15.31-3.54-21.14,0s-5.84,9.29,0,12.83,15.3,3.54,21.14,0,5.84-9.28,0-12.83Z"/><path class="cls-5" d="M146,166.72a.42.42,0,0,1,.45-.37.43.43,0,0,1,.38.37V193a.42.42,0,0,1-.46.37A.43.43,0,0,1,146,193Z"/><path class="cls-7" d="M174.2,135a16.7,16.7,0,0,1,3.67,5.38h1.24v-2.94h7.08v9.49c0,1.73-2.33,3.14-5.18,3.14h-3.14a14.71,14.71,0,0,1-.69,1.45h.75v7.41a2.67,2.67,0,0,1-1.51,2.32l-4,2.41a7.8,7.8,0,0,1-7.33,0l-2.22-1.35a46.45,46.45,0,0,1-8.87,2.23v1.91c0,1.73-2.33,3.14-5.18,3.14h-5.61c-2.85,0-5.18-1.41-5.18-3.14v-1.91a46.76,46.76,0,0,1-8.88-2.23L127,163.64a7.78,7.78,0,0,1-7.32,0l-4-2.41a2.66,2.66,0,0,1-1.51-2.32v-7.57h.67a12.64,12.64,0,0,1-.61-1.29h-3.15c-2.84,0-5.18-1.41-5.18-3.14v-9.56h10a18.09,18.09,0,0,1,2-2.37l-2.22-1.35a2.72,2.72,0,0,1-1.51-2.17v-7.57h11.41v2.28a6,6,0,0,1,1.39.6l2.22,1.35a46.1,46.1,0,0,1,8.87-2.23V124c0-1.73,2.33-3.14,5.18-3.14h5.62c2.85,0,5.18,1.41,5.18,3.14v1.91a46.45,46.45,0,0,1,8.87,2.23l2.22-1.35a6.94,6.94,0,0,1,3-.89V124h9.82v7.17a2.6,2.6,0,0,1-1.5,2.49L174.19,135Zm-15.94,2.81c-6.75-4.09-17.68-4.09-24.42,0s-6.75,10.73,0,14.83,17.67,4.09,24.42,0,6.74-10.73,0-14.83Z"/><path class="cls-8" d="M174.2,127.48a16.85,16.85,0,0,1,3.67,5.39H181c2.85,0,5.18,1.41,5.18,3.14v3.41c0,1.73-2.33,3.14-5.18,3.14h-3.14A17,17,0,0,1,174.2,148l2.22,1.34c2,1.23,2,3.23,0,4.45l-4,2.41a7.8,7.8,0,0,1-7.33,0l-2.22-1.35A45.89,45.89,0,0,1,154,157v1.91c0,1.73-2.33,3.15-5.18,3.15h-5.61c-2.85,0-5.18-1.42-5.18-3.15V157a46.08,46.08,0,0,1-8.87-2.22L127,156.14a7.72,7.72,0,0,1-7.32,0l-4-2.41c-2-1.22-2-3.22,0-4.44l2.22-1.35a16.81,16.81,0,0,1-3.67-5.38h-3.15c-2.85,0-5.18-1.42-5.18-3.15V136c0-1.73,2.33-3.14,5.18-3.14h3.15a16.81,16.81,0,0,1,3.67-5.38l-2.22-1.35c-2-1.22-2-3.23,0-4.45l4-2.4a7.72,7.72,0,0,1,7.32,0l2.22,1.34a46,46,0,0,1,8.88-2.22V116.5c0-1.73,2.32-3.15,5.17-3.15h5.62c2.85,0,5.18,1.42,5.18,3.15v1.9a46.45,46.45,0,0,1,8.87,2.23l2.22-1.35a7.8,7.8,0,0,1,7.33,0l4,2.41c2,1.23,2,3.23,0,4.45l-2.21,1.35Zm-15.94,2.82c-6.75-4.09-17.68-4.09-24.42,0s-6.75,10.73,0,14.83,17.67,4.09,24.42,0S165,134.4,158.26,130.3Z"/><path class="cls-5" d="M146,89.32a.42.42,0,0,1,.42-.42h0a.42.42,0,0,1,.41.42v59a.41.41,0,0,1-.42.41h0a.41.41,0,0,1-.41-.41Z"/><path class="cls-5" d="M137,82.45a9,9,0,0,0-3,2.78h-.88v4.26c0,2.06,1.29,4.12,3.9,5.69,5.2,3.11,13.71,3.11,18.91,0,2.6-1.56,3.9-3.61,3.9-5.66V85.24h-.88a8.94,8.94,0,0,0-3-2.79c-5.2-3.12-13.71-3.12-18.91,0Z"/><path class="cls-9" d="M137,79.5c-5.2,3.12-5.2,8.22,0,11.34s13.71,3.12,18.91,0,5.2-8.22,0-11.34-13.71-3.11-18.91,0Z"/><path class="cls-2" d="M263.78,310.49l-33.42-19.41a1.23,1.23,0,0,1-.74-1.14h0v-.08l.09-10.28a.45.45,0,0,1,.45-.44L247,279a.46.46,0,0,0,.22-.06l16.46-9.31a4.84,4.84,0,0,1,4.34-.19l16.77,9.87a.46.46,0,0,0,.23.06l16.77-.14a.45.45,0,0,1,.45.46L302.18,290a1.82,1.82,0,0,1-1,1.34l-33,18.94A4.82,4.82,0,0,1,263.78,310.49Z"/><path class="cls-3" d="M265.65,312.06a5,5,0,0,1-2.44-.58h0l-33.41-19.41a2.36,2.36,0,0,1-1.31-2.2l.09-10.3a1.59,1.59,0,0,1,1.58-1.57l16.67-.14,16.31-9.22a5.88,5.88,0,0,1,5.46-.19l16.62,9.78,16.58-.14h0a1.59,1.59,0,0,1,1.13.47,1.56,1.56,0,0,1,.47,1.13L303.33,290a3,3,0,0,1-1.62,2.32l-33,18.94A6.08,6.08,0,0,1,265.65,312.06Zm-1.3-2.56a3.71,3.71,0,0,0,3.19-.2l33-18.94a1.14,1.14,0,0,0,.48-.45l.06-9.53-16.07.14a1.78,1.78,0,0,1-.81-.21l-16.79-9.89a3.76,3.76,0,0,0-3.18.2l-16.47,9.31a1.53,1.53,0,0,1-.79.21l-16.15.14-.09,9.59c0,.09.05.15.17.22Z"/><path class="cls-3" d="M287,279.24s14.71,0,14.71,0a.57.57,0,0,1,.59.58L302.18,290a1.82,1.82,0,0,1-1,1.34l-32.82,18.82a.13.13,0,0,1-.2-.12l.09-10.66v0h0C266.93,296,287,279.24,287,279.24Z"/><path class="cls-3" d="M268.31,311.49l-.7-.33a1.27,1.27,0,0,1-.64-1.11l.1-10.63c-.51-3.94,11.68-14.81,19.15-21.06l.33-.19c.23-.09.23-.09,15.12-.08a1.82,1.82,0,0,1,1.22.51,1.74,1.74,0,0,1,.51,1.24L303.33,290a3,3,0,0,1-1.62,2.32Zm1-11.67-.08,8.49,31.3-17.95a1.14,1.14,0,0,0,.48-.44l.06-9.54H287.37C278.51,287.82,269.16,297,269.3,299l.23.59Z"/><path class="cls-4" d="M301.53,277.94l-33.41-19.41a4.81,4.81,0,0,0-4.34.2l-33,18.94c-1.28.75-1.42,1.87-.3,2.51l33.41,19.4a4.81,4.81,0,0,0,4.34-.2l33-18.94C302.51,279.69,302.65,278.57,301.53,277.94Z"/><path class="cls-3" d="M265.75,301.15a5,5,0,0,1-2.45-.58l-33.42-19.4a2.42,2.42,0,0,1-1.32-2.07,2.9,2.9,0,0,1,1.62-2.42l33-18.94a5.87,5.87,0,0,1,5.47-.2L302.11,277a2.39,2.39,0,0,1,1.32,2.07,2.9,2.9,0,0,1-1.62,2.41l-33,18.95A6.2,6.2,0,0,1,265.75,301.15Zm-34.89-22.06a1,1,0,0,1,.17.1l33.41,19.4a3.74,3.74,0,0,0,3.19-.19l33-18.95a1.21,1.21,0,0,0,.48-.42s-.07,0-.17-.1h0l-33.41-19.4a3.77,3.77,0,0,0-3.19.19l-33,19a1.2,1.2,0,0,0-.48.43Z"/><rect class="cls-3" x="231.38" y="288.17" width="10.61" height="2.28" transform="translate(-59.61 517.21) rotate(-88.28)"/><rect class="cls-2" x="288.2" y="290" width="9.26" height="1.76" transform="translate(-2.58 579.14) rotate(-89.11)"/><path class="cls-2" d="M264.83,287.6l-4.3-.67a.92.92,0,0,1-.7-1.3l.24-.51a10.87,10.87,0,0,1-1.52-.7,7.33,7.33,0,0,1-1.52-1.15l-2,.31a.91.91,0,0,1-1-.52l-1.14-2.45a.93.93,0,0,1,.69-1.31l1.72-.26a4.58,4.58,0,0,1,.91-2.14l-.81-.47a.92.92,0,0,1,0-1.6l3.13-1.8a.89.89,0,0,1,.92,0l1.45.83a16.23,16.23,0,0,1,4.75-.75l.41-.89a.92.92,0,0,1,1-.53l4.3.67a.92.92,0,0,1,.7,1.3l-.24.51a9.83,9.83,0,0,1,1.52.7h0a7.6,7.6,0,0,1,1.52,1.15l2-.32a.93.93,0,0,1,1,.53l1.13,2.45a.92.92,0,0,1-.69,1.3l-1.71.27a4.8,4.8,0,0,1-.92,2.14l.81.46a.92.92,0,0,1,0,1.6l-3.13,1.81a.89.89,0,0,1-.92,0l-1.45-.83a16.56,16.56,0,0,1-4.74.75l-.42.89A.92.92,0,0,1,264.83,287.6Zm-2.93-2.24,2.58.4.63-1.35h.57a14.53,14.53,0,0,0,5.09-.78l.39-.14,1.72,1,1.46-.85-1.52-.87.87-.81a3.21,3.21,0,0,0,1.17-2.44l0-.79,2.1-.33-.4-.87-2.31.35-.32-.33a5.65,5.65,0,0,0-1.45-1.16h0a10.35,10.35,0,0,0-2.11-.87l-.95-.3.6-1.29-2.59-.4-.63,1.34h-.57a14.31,14.31,0,0,0-5.09.78l-.38.14-1.73-1-1.46.84,1.52.88-.86.81a3.19,3.19,0,0,0-1.18,2.44l0,.79-2.1.32.41.88,2.3-.36.32.34a5.88,5.88,0,0,0,1.45,1.16,10.32,10.32,0,0,0,2.11.88l1,.3Zm4-2.5a6.05,6.05,0,0,1-4.1-1.38,2.41,2.41,0,0,1,0-3.67c2-1.85,6.24-1.85,8.2,0a2.42,2.42,0,0,1,0,3.67h0A6.09,6.09,0,0,1,265.94,282.86Zm0-4.67a4.39,4.39,0,0,0-2.9.9.68.68,0,0,0,0,1.11c1.27,1.2,4.51,1.2,5.79,0a.68.68,0,0,0,0-1.11A4.36,4.36,0,0,0,265.94,278.19Z"/><path class="cls-3" d="M273,273.61a11,11,0,0,0-2.28-.95l.67-1.44-4.06-.63a.46.46,0,0,0-.49.26l-.51,1.12a15.81,15.81,0,0,0-5.41.83l-1.58-.91a.47.47,0,0,0-.46,0l-2.29,1.32a.46.46,0,0,0,0,.8l1.12.65a4,4,0,0,0-1.45,3.12l-1.87.29a.46.46,0,0,0-.35.65l.77,1.66a.47.47,0,0,0,.49.27l2.16-.34a6.83,6.83,0,0,0,1.65,1.32,11.49,11.49,0,0,0,2.29,1l-.67,1.44,4,.63a.47.47,0,0,0,.49-.27l.52-1.11a15.52,15.52,0,0,0,5.4-.84l.89.52a1.85,1.85,0,0,0,1.85,0l1.6-.92a.48.48,0,0,0,0-.81l-1.12-.64a4,4,0,0,0,1.44-3.12l1.87-.29a.47.47,0,0,0,.35-.66l-.77-1.66a.46.46,0,0,0-.49-.26l-2.16.33A7.08,7.08,0,0,0,273,273.61Zm-3.45,5.21c-1.62,1.53-5.37,1.53-7,0a1.54,1.54,0,0,1,0-2.39c1.62-1.53,5.37-1.53,7,0A1.54,1.54,0,0,1,269.55,278.82Z"/><path class="cls-4" d="M345,300.65l-35.34-20.4c-1.59-.92-2.88.06-2.88,2.18v16.19a6.92,6.92,0,0,0,2.88,5.51l4.07,2.35c.37,1.77,1.74,6.56,6.24,9.15.24.13.4-.07.29-.37a9.78,9.78,0,0,1-.49-5.29L345,324.53c1.59.92,2.88,0,2.88-2.18V306.16A6.92,6.92,0,0,0,345,300.65Z"/><path class="cls-10" d="M346.1,325.76a3.18,3.18,0,0,1-1.58-.47l-24.1-13.91a10.51,10.51,0,0,0,.63,3.58,1.21,1.21,0,0,1-.31,1.35,1.08,1.08,0,0,1-1.25.08,14.51,14.51,0,0,1-6.57-9.34l-3.74-2.16a7.76,7.76,0,0,1-3.32-6.27V282.43a3.4,3.4,0,0,1,1.43-3.09,2.7,2.7,0,0,1,2.77.15l35.34,20.4a7.78,7.78,0,0,1,3.32,6.27v16.19a3.4,3.4,0,0,1-1.44,3.1A2.42,2.42,0,0,1,346.1,325.76Zm-26.94-17.14,26.24,15.15a1.07,1.07,0,0,0,1,.15,1.82,1.82,0,0,0,.56-1.57V306.16a6.06,6.06,0,0,0-2.44-4.75L309.18,281a1.14,1.14,0,0,0-1-.15,1.85,1.85,0,0,0-.55,1.57v16.19a6,6,0,0,0,2.44,4.75l4.41,2.55.08.38a13.4,13.4,0,0,0,4.37,7.56,9.43,9.43,0,0,1-.05-4.11Z"/><rect class="cls-10" x="326.41" y="286" width="1.76" height="27.84" transform="translate(-96.09 433.4) rotate(-60)"/><rect class="cls-10" x="326.41" y="291.52" width="1.76" height="27.84" transform="translate(-100.88 436.16) rotate(-60)"/><path class="cls-4" d="M315.31,257,294,244.89c-1.59-.92-2.88.06-2.88,2.18v7.05a6.92,6.92,0,0,0,2.88,5.52l5.07,2.92c.38,1.83,1.78,6.53,6.23,9.08.23.13.39-.07.28-.37a10,10,0,0,1-.5-5.24l10.25,5.69c1.59.92,2.88-.05,2.88-2.18v-7.05A6.9,6.9,0,0,0,315.31,257Z"/><path class="cls-10" d="M316.46,273a3.19,3.19,0,0,1-1.59-.47l-9.11-5.05a10.61,10.61,0,0,0,.63,3.55,1.19,1.19,0,0,1-.3,1.34,1.08,1.08,0,0,1-1.25.08,14.57,14.57,0,0,1-6.57-9.27l-4.73-2.73a7.8,7.8,0,0,1-3.32-6.28v-7.05a3.37,3.37,0,0,1,1.44-3.09,2.66,2.66,0,0,1,2.76.15l21.33,12.09a7.76,7.76,0,0,1,3.32,6.27v7.05a3.4,3.4,0,0,1-1.44,3.1A2.41,2.41,0,0,1,316.46,273Zm-12-8.25L315.74,271a1.05,1.05,0,0,0,1,.16,1.85,1.85,0,0,0,.55-1.57v-7.05a6,6,0,0,0-2.44-4.75l-21.32-12.08c-.24-.14-.69-.35-1-.16a1.82,1.82,0,0,0-.56,1.57v7.05a6,6,0,0,0,2.44,4.75l5.4,3.12.09.39a13.45,13.45,0,0,0,4.35,7.49,9.58,9.58,0,0,1-.06-4Z"/><path class="cls-2" d="M254.82,340.07l-11-6.45a1.26,1.26,0,0,1-.74-1.15h0v-.08l.1-10.27a.44.44,0,0,1,.44-.44l16.85-.14a.63.63,0,0,0,.22-.07l16.46-9.3a4.81,4.81,0,0,1,4.34-.19l-5.6-3.08a.43.43,0,0,0,.22.06l16.77-.14a.45.45,0,0,1,.46.45l-.07,10.32a1.85,1.85,0,0,1-1.05,1.34l-33,18.94A4.81,4.81,0,0,1,254.82,340.07Z"/><path class="cls-3" d="M256.7,341.64a5,5,0,0,1-2.45-.58h0l-11-6.45a2.38,2.38,0,0,1-1.31-2.2l.09-10.3a1.61,1.61,0,0,1,1.58-1.58l16.67-.14,16.31-9.21a4.77,4.77,0,0,1,.55-.29l-1.8-1v0l1.11-2a.66.66,0,0,0-.33-.09l16.76-.14h0a1.6,1.6,0,0,1,1.59,1.61l-.07,10.32a2.94,2.94,0,0,1-1.61,2.32l-33,18.94A6,6,0,0,1,256.7,341.64Zm-1.31-2.56a3.74,3.74,0,0,0,3.19-.19l33-18.95c.35-.21.47-.39.48-.44l.06-9.53-11.81.09,1.57.87.1.05-1.12,2-.06,0a3.81,3.81,0,0,0-3.15.22l-16.47,9.31a1.57,1.57,0,0,1-.78.21l-16.16.13-.09,9.6c0,.09,0,.15.17.22Z"/><path class="cls-3" d="M278,308.82h14.72a.59.59,0,0,1,.59.59l-.07,10.18a1.85,1.85,0,0,1-1.05,1.34l-32.82,18.83a.14.14,0,0,1-.2-.12l.09-10.66v0h0C258,325.57,278,308.82,278,308.82Z"/><path class="cls-3" d="M259.36,341.08l-.71-.34a1.29,1.29,0,0,1-.64-1.1l.1-10.64c-.48-4,11.69-14.81,19.15-21.06l.37-.2c.22-.08.22-.08,15.08-.06a1.68,1.68,0,0,1,1.22.5,1.73,1.73,0,0,1,.51,1.23l-.07,10.19a2.94,2.94,0,0,1-1.61,2.32Zm1-11.74-.08,8.55,31.3-17.95c.35-.21.47-.39.48-.44l.06-9.54H278.41c-8.86,7.45-18.21,16.61-18.06,18.65l.19.51Z"/><path class="cls-4" d="M292.58,307.52l-11-6.45a4.84,4.84,0,0,0-4.34.19l-33,18.95c-1.28.74-1.42,1.87-.3,2.5l11,6.45a4.84,4.84,0,0,0,4.34-.19l33-19C293.56,309.28,293.69,308.16,292.58,307.52Z"/><path class="cls-3" d="M256.79,330.74a5.06,5.06,0,0,1-2.44-.58l-11-6.46a2.41,2.41,0,0,1-1.32-2.07,2.88,2.88,0,0,1,1.63-2.41l33-19a5.9,5.9,0,0,1,5.47-.19l11,6.45a2.39,2.39,0,0,1,1.32,2.07,2.85,2.85,0,0,1-1.62,2.41l-33,18.95A6.21,6.21,0,0,1,256.79,330.74Zm-12.51-9.12s.07.05.17.1l11,6.46a3.76,3.76,0,0,0,3.18-.2l33-19a1.15,1.15,0,0,0,.47-.42h0s-.08-.05-.17-.1h0l-11-6.45a3.72,3.72,0,0,0-3.18.19l-33,18.95a1.21,1.21,0,0,0-.48.42Z"/><rect class="cls-3" x="244.81" y="330.71" width="10.61" height="2.28" transform="translate(-89.1 571.88) rotate(-88.28)"/><rect class="cls-2" x="279.25" y="319.58" width="9.26" height="1.76" transform="translate(-40.97 599.3) rotate(-89.11)"/><path class="cls-4" d="M107.44,40.67l30-17.33c1.36-.78,2.45.05,2.45,1.85V39a5.85,5.85,0,0,1-2.45,4.68l-3.45,2a11.78,11.78,0,0,1-5.31,7.77c-.2.11-.33-.06-.24-.31a8.38,8.38,0,0,0,.42-4.5L107.44,61c-1.35.78-2.45,0-2.45-1.86V45.36A5.9,5.9,0,0,1,107.44,40.67Z"/><path class="cls-10" d="M106.47,62a2,2,0,0,1-1-.27,2.9,2.9,0,0,1-1.22-2.63V45.36A6.57,6.57,0,0,1,107.07,40l30-17.34a2.3,2.3,0,0,1,2.35-.13,2.89,2.89,0,0,1,1.22,2.63V39a6.62,6.62,0,0,1-2.82,5.33l-3.17,1.83a12.36,12.36,0,0,1-5.59,7.94A1,1,0,0,1,128,54a1,1,0,0,1-.25-1.15,8.94,8.94,0,0,0,.53-3L107.81,61.61A2.62,2.62,0,0,1,106.47,62Zm32-38.22a1.29,1.29,0,0,0-.6.2l-30,17.33a5.15,5.15,0,0,0-2.07,4V59.11a1.57,1.57,0,0,0,.47,1.34.93.93,0,0,0,.86-.13l22.29-12.87.24,1a7.86,7.86,0,0,1,0,3.49,11.41,11.41,0,0,0,3.71-6.42l.07-.33L137.09,43a5.11,5.11,0,0,0,2.08-4V25.19a1.53,1.53,0,0,0-.48-1.33A.45.45,0,0,0,138.44,23.79Z"/><rect class="cls-10" x="110.63" y="39.31" width="23.66" height="1.49" transform="translate(-3.62 66.58) rotate(-29.99)"/><rect class="cls-10" x="110.63" y="44" width="23.66" height="1.49" transform="translate(-5.97 67.22) rotate(-30)"/><path class="cls-4" d="M91.79,23.81l18.12-10.27c1.36-.78,2.45.05,2.45,1.85v6a5.87,5.87,0,0,1-2.45,4.69l-4.3,2.48a11.79,11.79,0,0,1-5.29,7.72c-.2.11-.34-.06-.25-.32a8.36,8.36,0,0,0,.43-4.45l-8.71,4.84c-1.35.78-2.45-.05-2.45-1.86v-6A5.88,5.88,0,0,1,91.79,23.81Z"/><path class="cls-10" d="M90.82,37.38a2,2,0,0,1-1-.27,2.9,2.9,0,0,1-1.22-2.63v-6a6.59,6.59,0,0,1,2.83-5.33h0l18.13-10.27a2.26,2.26,0,0,1,2.34-.13,2.91,2.91,0,0,1,1.22,2.63v6a6.59,6.59,0,0,1-2.82,5.33l-4,2.32a12.35,12.35,0,0,1-5.58,7.88.9.9,0,0,1-1.06-.07,1,1,0,0,1-.26-1.14,9,9,0,0,0,.53-3L92.16,37A2.73,2.73,0,0,1,90.82,37.38Zm1.34-12.92a5.13,5.13,0,0,0-2.07,4v6a1.57,1.57,0,0,0,.47,1.34.93.93,0,0,0,.86-.13L101,30.37l.23,1a7.87,7.87,0,0,1,0,3.43,11.48,11.48,0,0,0,3.7-6.36l.07-.33,4.59-2.65a5.16,5.16,0,0,0,2.08-4v-6a1.55,1.55,0,0,0-.48-1.33.91.91,0,0,0-.85.13Z"/><path class="cls-4" d="M87.32,83.25l30-17.34c1.35-.78,2.45,0,2.45,1.85v25.6a5.9,5.9,0,0,1-2.45,4.69L98.72,108.8a5.66,5.66,0,0,0,.41,4.08c.09.15,0,.47-.25.59-3.88,2.25-5-.58-5.31-1.69l-6.25,3.6c-1.35.78-2.45,0-2.45-1.85V87.93A5.86,5.86,0,0,1,87.32,83.25Z"/><path class="cls-10" d="M86.35,116.42a2,2,0,0,1-1-.26,2.89,2.89,0,0,1-1.23-2.63V87.93A6.57,6.57,0,0,1,87,82.6l30-17.34a2.27,2.27,0,0,1,2.35-.12,2.86,2.86,0,0,1,1.22,2.62v25.6a6.59,6.59,0,0,1-2.82,5.33L99.39,109.27a4.82,4.82,0,0,0,.37,3.22,1,1,0,0,1,.11.8,1.37,1.37,0,0,1-.61.83c-1.64.95-3.07,1.19-4.23.7a3.64,3.64,0,0,1-1.87-1.95L87.69,116A2.7,2.7,0,0,1,86.35,116.42Zm1.34-32.53a5.15,5.15,0,0,0-2.07,4v25.6a1.56,1.56,0,0,0,.47,1.33.93.93,0,0,0,.86-.13L94,110.64l.25,1a2.68,2.68,0,0,0,1.32,1.85,3.22,3.22,0,0,0,2.7-.51,6.78,6.78,0,0,1-.32-4.28l.06-.33L117,97.4a5.13,5.13,0,0,0,2.08-4V67.76a1.56,1.56,0,0,0-.47-1.33.93.93,0,0,0-.86.13Z"/><rect class="cls-10" x="90.51" y="82.86" width="23.66" height="1.49" transform="translate(-28.09 62.35) rotate(-29.99)"/><rect class="cls-10" x="90.51" y="87.55" width="23.66" height="1.49" transform="translate(-30.44 62.98) rotate(-29.99)"/><rect class="cls-10" x="90.51" y="92.25" width="23.66" height="1.49" transform="translate(-32.78 63.6) rotate(-29.99)"/><rect class="cls-10" x="90.51" y="96.94" width="23.66" height="1.49" transform="translate(-35.13 64.23) rotate(-29.99)"/><path class="cls-2" d="M253,154.44l-75.18-43.19a1.07,1.07,0,0,1-.63-1h0a.16.16,0,0,1,0-.07l.08-8.73a.38.38,0,0,1,.38-.37L192,101a.41.41,0,0,0,.19,0l56.74-33a4.07,4.07,0,0,1,3.68-.16l61,35.1a.46.46,0,0,0,.2,0l14.25-.12a.38.38,0,0,1,.38.38l-.06,8.78a1.54,1.54,0,0,1-.89,1.13l-70.81,41.22A4.07,4.07,0,0,1,253,154.44Z"/><path class="cls-3" d="M254.63,155.78a4.16,4.16,0,0,1-2.08-.5h0l-75.18-43.19a2,2,0,0,1-1.11-1.87l.08-8.75a1.35,1.35,0,0,1,1.34-1.34l14.16-.12,56.6-32.95a5,5,0,0,1,4.66-.17l60.9,35,14.09-.12h0a1.35,1.35,0,0,1,1,.4,1.28,1.28,0,0,1,.39,1l-.06,8.77a2.47,2.47,0,0,1-1.37,2l-70.81,41.22A5.24,5.24,0,0,1,254.63,155.78Zm-1.11-2.18a3.15,3.15,0,0,0,2.71-.16L327,112.22c.31-.18.41-.33.42-.37l.05-8.1-13.65.11a1.37,1.37,0,0,1-.69-.18l-61-35.1a3.19,3.19,0,0,0-2.71.16l-56.74,33a1.4,1.4,0,0,1-.67.18l-13.74.11-.07,8.15c0,.08,0,.13.14.19Z"/><path class="cls-3" d="M236.13,104.92c1-.34,33.11-16,45.77-20.37a.1.1,0,0,1,.09,0l31.64,18.26.25.07,14.1-.12a.5.5,0,0,1,.5.5l-.06,8.66a1.54,1.54,0,0,1-.89,1.13L256.9,154.18a.13.13,0,0,1-.18-.1l.08-9.06v0l-20.74-40A.1.1,0,0,1,236.13,104.92Z"/><path class="cls-3" d="M256.9,155.3l-.6-.28a1.1,1.1,0,0,1-.55-1l.08-8.84-20.78-40,.12-.89.63-.3c.27-.1,2.17-1,4.58-2.14,9.36-4.43,31.29-14.81,41.2-18.23l.42-.14.48.23L314,101.92l14-.12a1.46,1.46,0,0,1,1,.43,1.44,1.44,0,0,1,.43,1l-.06,8.65a2.47,2.47,0,0,1-1.37,2Zm.87-10.13-.06,7.41L327,112.22c.31-.18.41-.33.42-.37l.05-8.1-13.75.11-.62-.2L281.85,85.6c-10,3.52-31.43,13.66-40.64,18l-3.84,1.81,20.48,39.49Z"/><path class="cls-4" d="M327.87,101.67l-75.18-43.2a4.1,4.1,0,0,0-3.68.16L178.2,99.85c-1.09.63-1.21,1.59-.26,2.13l75.18,43.2a4.11,4.11,0,0,0,3.68-.17l70.81-41.21C328.7,103.16,328.82,102.21,327.87,101.67Z"/><path class="cls-3" d="M254.71,146.51a4.26,4.26,0,0,1-2.08-.49l-75.18-43.2a2,2,0,0,1-1.12-1.76,2.43,2.43,0,0,1,1.38-2l70.81-41.22a5,5,0,0,1,4.66-.16l75.18,43.19a2.06,2.06,0,0,1,1.12,1.77,2.42,2.42,0,0,1-1.38,2l-70.81,41.22A5.19,5.19,0,0,1,254.71,146.51Zm-76.43-45.46s.06,0,.14.09l75.18,43.19a3.12,3.12,0,0,0,2.71-.16L327.12,103a.91.91,0,0,0,.41-.37s-.06,0-.14-.08h0l-75.18-43.2a3.19,3.19,0,0,0-2.71.16l-70.82,41.22a1.08,1.08,0,0,0-.41.36Z"/><rect class="cls-3" x="178.73" y="108.77" width="9.02" height="1.94" transform="translate(68.04 289.6) rotate(-88.28)"/><rect class="cls-2" x="304.24" y="118.23" width="1.49" height="6.77"/><path class="cls-2" d="M272.58,121,222.93,92.08a1.07,1.07,0,0,1-.63-1h0V91l.08-8.73a.39.39,0,0,1,.38-.38l29.79-9a.45.45,0,0,0,.19,0l14-7.91a4.12,4.12,0,0,1,3.69-.16l35.51,20.83a.46.46,0,0,0,.2.05l14.25-.12a.38.38,0,0,1,.38.38l-.06,8.78a1.56,1.56,0,0,1-.89,1.13l-43.54,25A4.07,4.07,0,0,1,272.58,121Z"/><path class="cls-3" d="M274.18,122.34a4.24,4.24,0,0,1-2.08-.49h0L222.44,92.92a2,2,0,0,1-1.11-1.87v0h0l.08-8.73A1.34,1.34,0,0,1,222.57,81l29.8-9,13.88-7.84a5,5,0,0,1,4.64-.16l35.38,20.75,14.09-.12h0a1.35,1.35,0,0,1,1,.4,1.36,1.36,0,0,1,.39,1l-.06,8.77a2.47,2.47,0,0,1-1.37,2l-43.54,25A5.18,5.18,0,0,1,274.18,122.34Zm-1.12-2.17a3.16,3.16,0,0,0,2.71-.17l43.55-25c.3-.17.39-.33.4-.37l.06-8.1-13.66.11h0a1.32,1.32,0,0,1-.67-.18L269.92,65.64a3.19,3.19,0,0,0-2.71.16l-14,7.92a1.36,1.36,0,0,1-.48.16l-29.39,8.89-.08,8.31c0,.07.06.11.14.16Z"/><path class="cls-3" d="M307.75,85.56s12.5,0,12.5,0a.5.5,0,0,1,.5.5l-.06,8.66a1.56,1.56,0,0,1-.89,1.13l-43.36,24.89a.11.11,0,0,1-.17-.1l.07-9.06,0,0h0C275.26,108.69,307.75,85.56,307.75,85.56Z"/><path class="cls-3" d="M276.43,121.86l-.6-.28a1.11,1.11,0,0,1-.54-1l.08-8.93c-.29-1,.28-3.13,15.68-15,7.91-6.09,16.05-11.89,16.14-12l.26-.13c.18-.06.18-.06,12.8,0a1.38,1.38,0,0,1,1,.43,1.48,1.48,0,0,1,.43,1l-.06,8.65a2.47,2.47,0,0,1-1.37,2Zm.88-10.06-.06,7.35L319.32,95c.3-.17.39-.33.4-.37l0-8.11H308.06c-14.6,10.41-29.9,22.4-30.74,24.84l.09.22Z"/><path class="cls-4" d="M320.14,84.46,270.49,55.53a4.07,4.07,0,0,0-3.68.17l-43.54,25c-1.09.63-1.21,1.58-.26,2.13l49.65,28.92a4.07,4.07,0,0,0,3.68-.17l43.54-25C321,86,321.09,85,320.14,84.46Z"/><path class="cls-3" d="M274.26,113.08a4.24,4.24,0,0,1-2.08-.5L222.52,83.65a2,2,0,0,1-1.12-1.75,2.45,2.45,0,0,1,1.38-2.05l43.54-25a5,5,0,0,1,4.65-.17l49.66,28.93a2,2,0,0,1,1.12,1.76,2.44,2.44,0,0,1-1.38,2l-43.54,25A5.28,5.28,0,0,1,274.26,113.08ZM223.35,81.89a.8.8,0,0,1,.14.08l49.66,28.93a3.19,3.19,0,0,0,2.71-.16l43.54-25a.94.94,0,0,0,.4-.36s-.06,0-.14-.08h0L270,56.37a3.16,3.16,0,0,0-2.71.17l-43.54,25a.94.94,0,0,0-.4.36Z"/><rect class="cls-3" x="223.8" y="89.61" width="9.02" height="1.94" transform="translate(130.91 316.06) rotate(-88.28)"/><rect class="cls-2" x="308.81" y="94.71" width="7.87" height="1.49" transform="translate(212.73 406.77) rotate(-89.16)"/><path class="cls-2" d="M356.58,90.38l-10.15-.93h-.05L328.24,79a8.72,8.72,0,0,0-7.88.13l-3.72,2.15-1.23-.71a8.72,8.72,0,0,0-7.88.13l-3.72,2.15-1.23-.71a8.6,8.6,0,0,0-6-.61,0,0,0,0,1,0,0l-13.29-3.93.32-1.5c2.81-1.69-1.2-2.36-1.74-2.5L269.06,70.1a.12.12,0,0,0-.15.12V80.83A2.56,2.56,0,0,0,270.42,83l6.92,4a.11.11,0,0,1,.05.14l-.83,2.68a.12.12,0,0,1-.1.09l-3.67.45a.1.1,0,0,0-.1.11c0,1.07,0,10.77,0,10.93v0c.22,1.33,1.86,2.43,4.23,2.68a67.69,67.69,0,0,1,9.62,1.72l7.24,1.87a126.83,126.83,0,0,0,21.81,3.56,44.87,44.87,0,0,1,18.71,5.29l.72.42,17.33-10c2.68-1.55,4.17-3.61,4.29-5.74V90.5A.11.11,0,0,0,356.58,90.38Z"/><path class="cls-3" d="M335.06,118.06l-1.21-.7a43.76,43.76,0,0,0-18.3-5.17,126.91,126.91,0,0,1-22-3.58l-7.24-1.87a67.54,67.54,0,0,0-9.49-1.69c-2.78-.3-4.77-1.67-5.08-3.49,0-.11,0-.29,0-11.11a1.07,1.07,0,0,1,.95-1.08L275.8,89l.46-1.51-6.33-3.65a3.53,3.53,0,0,1-2-3V69.74l.43-.39a1.08,1.08,0,0,1,.95-.18l12.95,3.5c1.05.23,3,.67,3.24,2a2.07,2.07,0,0,1-1.08,1.94l0,.22,12.2,3.61a9.62,9.62,0,0,1,6.48.77l.74.43,3.24-1.87a9.62,9.62,0,0,1,8.84-.13l.75.43,3.24-1.87a9.62,9.62,0,0,1,8.84-.13l18,10.38,10,.91a1.1,1.1,0,0,1,1,1.09l0,10.69c-.14,2.57-1.84,4.89-4.77,6.58Zm-61.4-26.85c0,3.5,0,9.72,0,10.11.12.69,1.32,1.58,3.36,1.8a66.88,66.88,0,0,1,9.76,1.74l7.25,1.87a125.71,125.71,0,0,0,21.63,3.53,45.42,45.42,0,0,1,19.12,5.42l.24.14,16.84-9.73c2.36-1.35,3.71-3.11,3.81-5V91.27l-9.58-.87-.22-.11L327.75,79.8a7.76,7.76,0,0,0-6.9.13l-4.21,2.43-1.72-1a7.76,7.76,0,0,0-6.9.13l-4.21,2.43-1.72-1a7.68,7.68,0,0,0-5.26-.51l-.25.06-.3-.06-14.16-4.2.58-2.79.37-.22a2.41,2.41,0,0,0,.31-.2,7.44,7.44,0,0,0-1.53-.46l-.27-.06-11.7-3.17v9.5c0,.46.37.93,1,1.31l6.91,4a1.08,1.08,0,0,1,.5,1.26l-1,3.29-.72.16Z"/><path class="cls-3" d="M335.08,116.28a.38.38,0,0,0,.57.33l16.75-9.68c2.69-1.55,4.17-3.61,4.3-5.74V90.5a.11.11,0,0,0-.11-.12l-.31,0H335.46a.38.38,0,0,0-.38.38Z"/><path class="cls-3" d="M335.46,117.63a1.32,1.32,0,0,1-.67-.18,1.35,1.35,0,0,1-.68-1.17V90.73a1.35,1.35,0,0,1,1.35-1.35l21.23,0a1.09,1.09,0,0,1,1,1.09v10.69c-.15,2.57-1.84,4.89-4.78,6.58l-16.75,9.68A1.38,1.38,0,0,1,335.46,117.63Zm.59-26.31v23.93l15.87-9.16c2.35-1.35,3.7-3.11,3.8-5l0-9.82Z"/><g id="icon"><path class="cls-4" d="M316.64,70.42l-1.23-.71a8.72,8.72,0,0,0-7.88.13L303.81,72l-1.23-.71a8.7,8.7,0,0,0-7.87.13L291,73.56l-11.49-6.63a8.7,8.7,0,0,0-7.87.12l-1,.57c-2.24,1.29-2.33,3.32-.22,4.54l28.17,16.26c.08.06,0,.15-.13.13l-5.12-.71q-5.54-.78-11.19-1.16l-2.81-.2c-3-.2-5.92,1.06-6.45,2.83l-.12.42c-.5,1.68,1.33,3.23,4.19,3.53h0A66.31,66.31,0,0,1,286.58,95l7.24,1.87a127.8,127.8,0,0,0,21.81,3.56h0a44.87,44.87,0,0,1,18.71,5.29l.72.42,17.33-10c3.71-2.14,5.17-5.26,3.83-8.19l-.23-.51a17.8,17.8,0,0,0-7.53-7.6h0L328.24,68.14a8.72,8.72,0,0,0-7.88.13Z"/><path class="cls-3" d="M335.06,107.24l-1.21-.7a43.62,43.62,0,0,0-18.3-5.17,127.87,127.87,0,0,1-22-3.58l-7.24-1.87a66.12,66.12,0,0,0-9.49-1.69,6.22,6.22,0,0,1-4.62-2.3,2.93,2.93,0,0,1-.39-2.48L272,89c.66-2.21,4-3.75,7.45-3.52l2.81.2c3.76.26,7.55.65,11.26,1.16l.63.09L269.93,73a3.51,3.51,0,0,1-2-3,3.86,3.86,0,0,1,2.22-3.23l1-.57a9.64,9.64,0,0,1,8.85-.12l11,6.35,3.24-1.87a9.64,9.64,0,0,1,8.85-.13l.74.43L307.05,69a9.65,9.65,0,0,1,8.84-.13l.75.43,3.24-1.87a9.62,9.62,0,0,1,8.84-.13L348.94,79a18.68,18.68,0,0,1,7.93,8l.23.51c1.56,3.41-.05,7-4.22,9.43ZM278.67,87.43c-2.51,0-4.53,1.08-4.85,2.15l-.12.42a.94.94,0,0,0,.15.85,4.33,4.33,0,0,0,3.21,1.44A68.25,68.25,0,0,1,286.82,94l7.25,1.87a125.71,125.71,0,0,0,21.63,3.53,45.42,45.42,0,0,1,19.12,5.42l.24.14,16.84-9.73c3.28-1.89,4.56-4.49,3.44-7l-.24-.51A16.74,16.74,0,0,0,348,80.66L327.75,69a7.76,7.76,0,0,0-6.9.13l-4.21,2.43-1.72-1a7.76,7.76,0,0,0-6.9.13l-4.21,2.43-1.72-1a7.73,7.73,0,0,0-6.9.13L291,74.68l-12-6.91a7.76,7.76,0,0,0-6.9.12l-1,.57c-.8.46-1.26,1-1.26,1.55s.37.93,1,1.31L299.76,88l-.22.82a1.11,1.11,0,0,1-1.22.71l-5.11-.71c-3.66-.51-7.4-.9-11.12-1.15l-2.82-.2Z"/><rect class="cls-11" x="294.6" y="70.91" width="1.94" height="10.61" transform="translate(81.79 294.08) rotate(-60)"/><rect class="cls-11" x="299.16" y="85.96" width="1.94" height="6.72" transform="translate(72.7 304.56) rotate(-59.99)"/><rect class="cls-11" x="306.36" y="69.96" width="1.94" height="8.13" transform="translate(89.56 303.17) rotate(-60)"/><rect class="cls-11" x="318.5" y="68.78" width="1.94" height="6.54" transform="translate(97.31 312.67) rotate(-59.99)"/></g><rect class="cls-3" x="273.22" y="74.34" width="1.94" height="10.82"/><rect class="cls-3" x="291.44" y="96.46" width="1.94" height="10.82"/><rect class="cls-3" x="325.57" y="102.62" width="1.94" height="10.82"/><rect class="cls-3" x="277.54" y="93.52" width="1.94" height="10.82"/><path class="cls-4" d="M221.8,100.94l-16-9.24a.55.55,0,0,0-.6,0l-6.74,4.19a.27.27,0,0,0-.08.37l6.49,7a.23.23,0,0,1,0,.14v2.25a2.12,2.12,0,0,0,.89,1.7l2.24-2.65a.2.2,0,0,1,.09.09l7.15,8.07a.29.29,0,0,0,.38.09l6.75-4.21a1.36,1.36,0,0,0,.29-.71v-5.32A2.16,2.16,0,0,0,221.8,100.94Z"/><path class="cls-3" d="M215.5,113.9a1.35,1.35,0,0,1-.29,0,1.24,1.24,0,0,1-.7-.46l-6.46-7.29-2,2.43-.7-.41a3.06,3.06,0,0,1-1.38-2.54v-2l-6.4-6.9a1.24,1.24,0,0,1,.41-1.68l6.73-4.2a1.53,1.53,0,0,1,1.61,0l16,9.24a3.07,3.07,0,0,1,1.38,2.55V108a2.19,2.19,0,0,1-.52,1.32l-.24.21-6.75,4.21A1.3,1.3,0,0,1,215.5,113.9Zm-6.64-9.8,6.78,7.64,6.07-3.78s0,0,0,0v-5.26a1.21,1.21,0,0,0-.4-.86l-15.84-9.15-5.78,3.6,6.13,6.7,0,.4v2.25a.28.28,0,0,0,0,.09l1.92-2.29.93.53Z"/><path class="cls-11" d="M210.56,108.22s0,.16-.05.44l4.72,4a.45.45,0,0,0,.62.15l6.6-4.11a1.36,1.36,0,0,0,.29-.71v-5a.19.19,0,0,0-.28-.16L215.8,107s-.05,0-.07.06Z"/><path class="cls-3" d="M215.61,113.83a1.86,1.86,0,0,1-.33,0,1.51,1.51,0,0,1-.77-.49l-5-4.23.17-1.64,5.63-1.28L222,102a1.14,1.14,0,0,1,1.17,0,1.16,1.16,0,0,1,.59,1v5a2.26,2.26,0,0,1-.51,1.32l-.24.21-6.59,4.11A1.46,1.46,0,0,1,215.61,113.83Zm-3.39-5,3.46,2.91,6.08-3.79,0,0V104.4l-5.29,3.29-.11.2Z"/><path class="cls-2" d="M214.82,113l-16-9.25a2.12,2.12,0,0,1-.89-1.7V96.73c0-.66.4-1,.89-.67l16,9.24a2.14,2.14,0,0,1,.89,1.7v5.32C215.71,113,215.31,113.28,214.82,113Z"/><path class="cls-3" d="M215.17,114.08a1.68,1.68,0,0,1-.84-.24l-16-9.25a3.07,3.07,0,0,1-1.37-2.54V96.73a1.73,1.73,0,0,1,.79-1.56,1.51,1.51,0,0,1,1.55,0l16,9.25a3.06,3.06,0,0,1,1.38,2.54v5.32a1.73,1.73,0,0,1-.79,1.56A1.42,1.42,0,0,1,215.17,114.08Zm.13-1.92-.48.84.49-.84ZM198.89,97.23v4.82a1.21,1.21,0,0,0,.4.86l15.44,8.92V107a1.23,1.23,0,0,0-.41-.86Z"/><rect class="cls-11" x="202.19" y="94.98" width="7.94" height="1.94" transform="translate(-19.56 123.52) rotate(-31.92)"/><rect class="cls-2" x="215.81" y="107.62" width="6.92" height="1.49" transform="translate(-24.47 128.64) rotate(-31.05)"/><path class="cls-5" d="M238.88,152.79a2.48,2.48,0,1,1-2.7-4.15,1.38,1.38,0,0,1,.24-.14l6.92-4a2.47,2.47,0,0,1,2.46,4.28l-6.92,4Z"/></g></svg>