<svg xmlns="http://www.w3.org/2000/svg" viewBox="0 0 440 350"><defs><style>.cls-1{fill:#150035;}.cls-2{fill:#fff;}.cls-3{fill:#ffb000;}.cls-4{fill:#fec;}.cls-5{fill:#ffbe2e;}.cls-6{fill:#16110d;}.cls-7{fill:#39a1ff;}</style></defs><g id="Layer_3" data-name="Layer 3"><path class="cls-1" d="M283.93,203.57l5.86-3.78a.12.12,0,0,0,0-.16l-7.45-9a.1.1,0,0,0-.18,0l-1.19,5.5h0l-.28,3.78a.1.1,0,0,0,0,.07l3.06,3.55A.09.09,0,0,0,283.93,203.57Z"/><path class="cls-1" d="M283.88,204.22a.73.73,0,0,1-.57-.26l-3.22-3.75v-.34l.28-3.76,1.28-6,.47-.17a.72.72,0,0,1,.74.24l7.63,9.26,0,.36a.72.72,0,0,1-.33.51l-5.86,3.79A.79.79,0,0,1,283.88,204.22Zm-2.51-4.47,2.61,3,5-3.21-6.37-7.73-1,4.42Z"/><path class="cls-2" d="M306.13,176.27l-28-16.15a2.06,2.06,0,0,0-1.83-.25h0l-5.47,3.27a.16.16,0,0,0,0,.24l6.54,6.91a.14.14,0,0,1,0,.1v11.42a6.36,6.36,0,0,0,2.87,5l4.17,2.4.29.42a15.39,15.39,0,0,0,6.49,9.74c.2.14.33-.06.2-.31-.67-1.28-1.94-4.06-1.55-6.25l.46-.2,8.63,5a.11.11,0,0,1,.06.07l3.6,9.62a.16.16,0,0,0,.22.08l5.41-3.26h0a2,2,0,0,0,.75-1.75V181.24A6.36,6.36,0,0,0,306.13,176.27Z"/><path class="cls-1" d="M302.91,208l-.41-.09a.74.74,0,0,1-.47-.46L298.49,198l-8.06-4.65a12.08,12.08,0,0,0,1.55,5.36.88.88,0,0,1-.14,1.09.78.78,0,0,1-1,0,16,16,0,0,1-6.73-10l-.13-.18L280,187.33a7,7,0,0,1-3.18-5.52V170.59l-6.41-6.78a.8.8,0,0,1,.18-1.22l5.46-3.27a2.71,2.71,0,0,1,2.47.25l28,16.16a7,7,0,0,1,3.18,5.51v21.09a2.6,2.6,0,0,1-1,2.27Zm-12.54-16.16,9.1,5.26.15.29,3.39,9.07,4.92-3a1.45,1.45,0,0,0,.43-1.21V181.24a5.74,5.74,0,0,0-2.55-4.42l-28-16.15a1.47,1.47,0,0,0-1.26-.22l-4.88,2.93L278,170l0,.35v11.42a5.71,5.71,0,0,0,2.55,4.42l4.36,2.59.41.67a14.81,14.81,0,0,0,4.72,8.17,9.54,9.54,0,0,1-.84-5l.06-.34Z"/><path class="cls-3" d="M300.64,179.66l-28.05-16.19c-1.54-.89-2.79-.17-2.79,1.61v21.18a6.16,6.16,0,0,0,2.79,4.83l4.31,2.49a.48.48,0,0,1,.22.33,15.39,15.39,0,0,0,6.49,9.79c.2.14.34-.06.21-.31-.7-1.33-2-4.26-1.51-6.48,0-.1.12-.14.23-.08l18.1,10.45c1.54.89,2.79.17,2.79-1.61V184.5A6.18,6.18,0,0,0,300.64,179.66Z"/><path class="cls-1" d="M301.89,208.3a3.08,3.08,0,0,1-1.57-.47l-17.49-10.09a11.73,11.73,0,0,0,1.55,5.35.89.89,0,0,1-.14,1.1.78.78,0,0,1-1,0,16.1,16.1,0,0,1-6.75-10.14l-4.24-2.44a6.79,6.79,0,0,1-3.11-5.38V165.08a2.32,2.32,0,0,1,3.75-2.16l28,16.19a6.8,6.8,0,0,1,3.1,5.39v21.17a2.56,2.56,0,0,1-1.13,2.36A2.1,2.1,0,0,1,301.89,208.3Zm-19.45-12.13a.84.84,0,0,1,.42.12L301,206.73a1.09,1.09,0,0,0,1.83-1.06V184.5a5.58,5.58,0,0,0-2.47-4.29L272.27,164a1.41,1.41,0,0,0-1.34-.2,1.44,1.44,0,0,0-.5,1.26v21.18a5.55,5.55,0,0,0,2.48,4.28l4.31,2.49a1.15,1.15,0,0,1,.53.78,14.71,14.71,0,0,0,4.72,8.2,9.17,9.17,0,0,1-.78-5.25l.07-.31.37-.22A.81.81,0,0,1,282.44,196.17Z"/><rect class="cls-1" x="301.49" y="177.86" width="5.72" height="1.27" transform="translate(-48.44 184.08) rotate(-31.3)"/><rect class="cls-1" x="275.33" y="162.85" width="5.72" height="1.27" transform="translate(-44.45 168.35) rotate(-31.31)"/><rect class="cls-1" x="302.94" y="183.39" width="6.37" height="1.27" transform="translate(-50.96 192.1) rotate(-32.31)"/><polygon class="cls-1" points="309 185.25 303.43 188.62 303.43 206.98 308.82 204.03 309 202.71 309 185.25"/><rect class="cls-1" x="275.69" y="150.89" width="6.13" height="1.27" transform="translate(104.87 416.91) rotate(-85.29)"/><rect class="cls-1" x="272.38" y="148.34" width="1.27" height="7.06" transform="translate(-38.01 122.4) rotate(-23.67)"/><rect class="cls-1" x="267.66" y="152.87" width="1.27" height="5.88" transform="translate(0.65 312.73) rotate(-60.53)"/><path class="cls-2" d="M288.6,195.66a2.52,2.52,0,0,1-1.22-.4,4.41,4.41,0,0,1-1.57-1.49,3.73,3.73,0,0,1-.57-2c0-.79.23-1.31.68-1.53s1-.12,1.78.32a4.3,4.3,0,0,1,1.56,1.49,3.88,3.88,0,0,1,.55,2c0,.79-.24,1.3-.71,1.51A1,1,0,0,1,288.6,195.66Zm-2.18-4.91a.48.48,0,0,0-.22,0c-.27.14-.33.61-.33,1a3.1,3.1,0,0,0,.48,1.68,3.84,3.84,0,0,0,1.35,1.27c.5.29.89.38,1.13.27s.34-.42.34-.94a3.16,3.16,0,0,0-.46-1.67,3.54,3.54,0,0,0-1.33-1.27A2.13,2.13,0,0,0,286.42,190.75Zm2.75-.34-3.53-2v-1.12a3,3,0,0,1,.44-1.77,2.21,2.21,0,0,1,1.55-.79,2.13,2.13,0,0,0,.95-.3c.05,0,.21-.16.21-.58a1.24,1.24,0,0,0-.3-.74,2.79,2.79,0,0,0-.83-.72,5.89,5.89,0,0,0-3.16-.71h-.23l-1.52-4.32.41,0a8.86,8.86,0,0,1,5.08,1.33,10.33,10.33,0,0,1,3.4,3.06,6.66,6.66,0,0,1,1.25,3.77,3.38,3.38,0,0,1-.61,2.17,2.93,2.93,0,0,1-1.89,1,2.69,2.69,0,0,0-1.09.3.51.51,0,0,0-.13.42Zm-2.89-2.4,2.25,1.3h0a1.13,1.13,0,0,1,.37-.92,3.17,3.17,0,0,1,1.38-.43,2.3,2.3,0,0,0,1.51-.73,2.76,2.76,0,0,0,.46-1.77,6,6,0,0,0-1.14-3.41,9.58,9.58,0,0,0-3.19-2.87,8.23,8.23,0,0,0-4.3-1.26l1.09,3.09h.05a6.34,6.34,0,0,1,3.21.8,3.32,3.32,0,0,1,1,.89,1.86,1.86,0,0,1,.42,1.12,1.25,1.25,0,0,1-.46,1.08,2.59,2.59,0,0,1-1.24.43,1.65,1.65,0,0,0-1.13.53,2.44,2.44,0,0,0-.31,1.4Z"/><path class="cls-1" d="M284.35,186.71v-.94a2.69,2.69,0,0,1,.37-1.58,2,2,0,0,1,1.34-.66,2.56,2.56,0,0,0,1.1-.36,1,1,0,0,0,.33-.83,1.52,1.52,0,0,0-.36-.93,3.06,3.06,0,0,0-.93-.81,6.11,6.11,0,0,0-3.32-.75l-1.31-3.72a8.46,8.46,0,0,1,4.89,1.29,9.94,9.94,0,0,1,3.3,3A6.26,6.26,0,0,1,291,184a3,3,0,0,1-.53,2,2.58,2.58,0,0,1-1.7.84,3,3,0,0,0-1.23.37.78.78,0,0,0-.25.66v.56Zm-.41,3.57c0-.67.17-1.09.5-1.25s.83-.07,1.49.31a3.9,3.9,0,0,1,1.44,1.38,3.46,3.46,0,0,1,.51,1.83c0,.66-.18,1.07-.53,1.23a1.59,1.59,0,0,1-1.42-.28,4.13,4.13,0,0,1-1.46-1.38A3.4,3.4,0,0,1,283.94,190.28Z"/><path class="cls-3" d="M312,225.6l-26.74,0a.55.55,0,0,0-.55.55v40h0a3.18,3.18,0,0,0,1.83,2.33l8,4.65c2.23,1.28,5.6,1.42,7.53.31l9.13-5.27a2.18,2.18,0,0,0,1.28-2h0v-40A.55.55,0,0,0,312,225.6Z"/><path class="cls-1" d="M298.84,275a9.52,9.52,0,0,1-4.66-1.18l-8.05-4.65a4.42,4.42,0,0,1-2.07-2.22h-.17v-40.8a1.38,1.38,0,0,1,1.37-1.37l26.75,0a1.37,1.37,0,0,1,1.37,1.37V267h-.09a3.29,3.29,0,0,1-1.61,1.91l-9.13,5.27A7.51,7.51,0,0,1,298.84,275Zm-13.31-9v.06a2.42,2.42,0,0,0,1.41,1.67l8.05,4.65c2,1.13,5,1.28,6.7.31l9.13-5.27a1.43,1.43,0,0,0,.88-1.24l-.07-.88h.07V226.43l-26.19,0Z"/><path class="cls-1" d="M312,225.63H299.68v48.55a6.17,6.17,0,0,0,2.44-.71l9.13-5.27a2.17,2.17,0,0,0,1.28-2h0v-40A.55.55,0,0,0,312,225.63Z"/><path class="cls-2" d="M311.25,227.66l-9.13,5.27c-1.93,1.12-5.3,1-7.53-.31l-8-4.65c-2.23-1.28-2.47-3.23-.54-4.34l9.13-5.28a8.37,8.37,0,0,1,7.53.32l8,4.64C312.93,224.6,313.18,226.55,311.25,227.66Z"/><path class="cls-1" d="M298.84,234.51a9.52,9.52,0,0,1-4.66-1.18l-8.05-4.64a3.89,3.89,0,0,1-2.26-3.18,3,3,0,0,1,1.72-2.6l9.13-5.27a9.16,9.16,0,0,1,8.35.31l8.05,4.65a3.89,3.89,0,0,1,2.25,3.17,3,3,0,0,1-1.71,2.6l-9.13,5.28A7.51,7.51,0,0,1,298.84,234.51Zm-.45-16.08a5.86,5.86,0,0,0-2.85.64l-9.13,5.27a1.52,1.52,0,0,0-.89,1.17c0,.58.54,1.23,1.43,1.75L295,231.9a7.58,7.58,0,0,0,6.7.32l9.13-5.27a1.51,1.51,0,0,0,.89-1.18c0-.57-.53-1.22-1.43-1.74l-8.05-4.65A7.9,7.9,0,0,0,298.39,218.43Z"/><rect class="cls-1" x="294.63" y="233.05" width="1.65" height="40.49"/><rect class="cls-3" x="308.77" y="230.83" width="1.27" height="36.03"/><path class="cls-3" d="M295.21,264.35l-26.74,0a.55.55,0,0,0-.55.55V277h0a3.16,3.16,0,0,0,1.82,2.33l8.05,4.64a8.37,8.37,0,0,0,7.53.32l9.13-5.27a2.18,2.18,0,0,0,1.28-2h0V264.9A.55.55,0,0,0,295.21,264.35Z"/><path class="cls-1" d="M282.06,285.87a9.52,9.52,0,0,1-4.66-1.18l-8-4.65a4.42,4.42,0,0,1-2.07-2.22h-.17V264.94a1.39,1.39,0,0,1,1.38-1.38l26.74,0h0a1.38,1.38,0,0,1,1.37,1.38v12.92h-.09a3.28,3.28,0,0,1-1.61,1.91L285.75,285A7.48,7.48,0,0,1,282.06,285.87Zm-13.31-9v.07a2.45,2.45,0,0,0,1.41,1.67l8.05,4.65a7.59,7.59,0,0,0,6.71.31l9.13-5.27a1.44,1.44,0,0,0,.87-1.24l-.06-.89h.07v-11l-26.2,0Z"/><path class="cls-1" d="M295.21,264.37l-12.31,0V285a6,6,0,0,0,2.44-.7l9.13-5.27a2.17,2.17,0,0,0,1.28-2h0v-12.1A.55.55,0,0,0,295.21,264.37Z"/><path class="cls-2" d="M294.47,266.41l-9.13,5.27c-1.93,1.11-5.3,1-7.53-.31l-8.05-4.65c-2.23-1.29-2.47-3.23-.54-4.35l9.13-5.27c1.93-1.11,5.3-1,7.53.31l8.05,4.65C296.16,263.35,296.4,265.29,294.47,266.41Z"/><path class="cls-1" d="M282.06,273.26a9.52,9.52,0,0,1-4.66-1.18l-8-4.65a3.87,3.87,0,0,1-2.26-3.17,3,3,0,0,1,1.72-2.6l9.13-5.27c2.19-1.27,5.86-1.13,8.35.31l8,4.65a3.88,3.88,0,0,1,2.25,3.17,3,3,0,0,1-1.71,2.6l-9.13,5.27A7.48,7.48,0,0,1,282.06,273.26Zm-.45-16.08a5.86,5.86,0,0,0-2.85.64l-9.13,5.27a1.52,1.52,0,0,0-.89,1.17c0,.58.54,1.23,1.43,1.75l8.05,4.64a7.56,7.56,0,0,0,6.71.31l9.13-5.27a1.52,1.52,0,0,0,.89-1.17c0-.58-.54-1.23-1.44-1.74l-8-4.65A8,8,0,0,0,281.61,257.18Z"/><rect class="cls-1" x="277.85" y="271.79" width="1.65" height="12.57"/><rect class="cls-3" x="292" y="269.57" width="1.27" height="8.11"/><path class="cls-1" d="M289.6,259.42l-15.53,0a.32.32,0,0,0-.32.32v3.59c0,.47.4.69,1.07,1.08l4.68,2.7a4.84,4.84,0,0,0,4.37.18l5.3-3.06c.54-.31.77-.55.74-1v-3.53A.32.32,0,0,0,289.6,259.42Z"/><path class="cls-1" d="M282,268.57a5.92,5.92,0,0,1-2.88-.72l-4.67-2.7c-.73-.42-1.42-.82-1.48-1.74v-3.65a1.15,1.15,0,0,1,1.15-1.14l15.53,0h0a1.13,1.13,0,0,1,.81.34,1.11,1.11,0,0,1,.34.81l0,3.58c.08.94-.75,1.41-1.15,1.64l-5.3,3.07A4.76,4.76,0,0,1,282,268.57Zm-7.39-8.3v3.09a6.31,6.31,0,0,1,.66.36l4.68,2.7a4.13,4.13,0,0,0,3.55.18l5.3-3.06a1.63,1.63,0,0,0,.35-.25v-3.05Z"/><path class="cls-2" d="M289.17,260.61l-5.3,3.07a4.87,4.87,0,0,1-4.37-.19l-4.68-2.69c-1.29-.75-1.44-1.88-.31-2.53l5.3-3.06a4.84,4.84,0,0,1,4.37.18l4.68,2.7C290.15,258.84,290.29,260,289.17,260.61Z"/><path class="cls-1" d="M282,264.94a5.93,5.93,0,0,1-2.88-.73l-4.67-2.7a2.58,2.58,0,0,1-1.49-2.14,2.13,2.13,0,0,1,1.17-1.81l5.31-3.07a5.67,5.67,0,0,1,5.2.19l4.67,2.69a2.61,2.61,0,0,1,1.48,2.15,2.11,2.11,0,0,1-1.17,1.81l-5.3,3.06A4.66,4.66,0,0,1,282,264.94Zm-.26-9.34a3,3,0,0,0-1.48.32l-5.3,3.06c-.22.13-.35.27-.35.39s.21.45.66.71l4.68,2.7a4.09,4.09,0,0,0,3.55.18l5.3-3.06c.22-.13.34-.27.34-.38s-.2-.45-.65-.72l-4.68-2.7A4.34,4.34,0,0,0,281.7,255.6Z"/><rect class="cls-3" x="281.21" y="264.53" width="1.27" height="2.67" transform="translate(-0.8 0.85) rotate(-0.17)"/><path class="cls-1" d="M300,228.92a3.18,3.18,0,0,1-2.85,0,.87.87,0,0,1,0-1.65,3.18,3.18,0,0,1,2.85,0A.87.87,0,0,1,300,228.92Zm-2.31-1.34c-.49.28-.49.74,0,1a2,2,0,0,0,1.77,0c.5-.29.5-.75,0-1A2,2,0,0,0,297.67,227.58Z"/><path class="cls-1" d="M305.16,225.93l-1.75,1a1.21,1.21,0,0,1-1.11,0l-1.75-1a.34.34,0,0,1,0-.64l1.75-1a1.27,1.27,0,0,1,1.11,0l1.75,1A.34.34,0,0,1,305.16,225.93Zm-4.07-.33,1.75,1,1.78-1s0,0,0,0l-1.75-1Z"/><polygon class="cls-1" points="295.79 226.19 295.25 226.5 292.94 225.16 293.47 224.85 295.79 226.19"/><polygon class="cls-1" points="295.79 225.16 293.47 226.5 292.94 226.19 295.25 224.85 295.79 225.16"/><path class="cls-1" d="M300.09,224a3.2,3.2,0,0,1-2.86,0,.87.87,0,0,1,0-1.65,3.14,3.14,0,0,1,2.86,0A.87.87,0,0,1,300.09,224Zm-2.32-1.34c-.49.28-.49.74,0,1a2,2,0,0,0,1.78,0c.49-.29.49-.75,0-1A1.93,1.93,0,0,0,297.77,222.68Z"/><path class="cls-1" d="M53.62,176.34l-5.86-3.78a.11.11,0,0,1,0-.16l7.44-9a.1.1,0,0,1,.18,0l1.19,5.5v0l.29,3.77a.09.09,0,0,1,0,.07l-3.05,3.55A.11.11,0,0,1,53.62,176.34Z"/><path class="cls-1" d="M53.28,176.88l-5.87-3.79a.76.76,0,0,1-.32-.51l0-.36L54.69,163a.74.74,0,0,1,.75-.25l.46.17,1.28,6,.29,3.79V173l-3.22,3.74a.73.73,0,0,1-1,.14Zm2.65-7.83-1-4.43-6.36,7.73,5,3.21,2.61-3Z"/><path class="cls-2" d="M31.42,149.05l28-16.15a2,2,0,0,1,1.82-.26h0l5.47,3.28a.14.14,0,0,1,0,.23l-6.54,6.91a.21.21,0,0,0,0,.11v11.42a6.36,6.36,0,0,1-2.86,5L53.11,162l-.29.41a15.4,15.4,0,0,1-6.48,9.75c-.2.13-.34-.07-.21-.32.68-1.28,1.95-4.06,1.56-6.25l-.46-.19-8.63,5a.14.14,0,0,0-.07.08L34.93,180a.16.16,0,0,1-.22.08l-5.41-3.26h0a2,2,0,0,1-.74-1.75V154A6.36,6.36,0,0,1,31.42,149.05Z"/><path class="cls-1" d="M34.39,180.65,29,177.38a2.64,2.64,0,0,1-1-2.28V154a6.93,6.93,0,0,1,3.19-5.51l28-16.15a2.66,2.66,0,0,1,2.47-.25L67,135.36a.79.79,0,0,1,.18,1.23l-6.4,6.77v11.23a6.93,6.93,0,0,1-3.19,5.51l-4.05,2.34-.13.18a15.93,15.93,0,0,1-6.73,10,.77.77,0,0,1-1,0,.88.88,0,0,1-.14-1.09,11.82,11.82,0,0,0,1.55-5.36l-8,4.65-3.55,9.45-.19.37-.27.1a.84.84,0,0,1-.27,0A.73.73,0,0,1,34.39,180.65Zm13.86-15.54.06.33a9.64,9.64,0,0,1-.83,5,14.81,14.81,0,0,0,4.72-8.17l.4-.67L57,159a5.74,5.74,0,0,0,2.55-4.41V143.17l0-.36,6.29-6.66L61,133.22a1.42,1.42,0,0,0-1.25.23l-28,16.15A5.72,5.72,0,0,0,29.19,154V175.1a1.45,1.45,0,0,0,.44,1.21l4.91,2.95,3.4-9.07.14-.29,8.83-5.09.31-.15Z"/><path class="cls-3" d="M36.92,152.44l28-16.2c1.55-.89,2.79-.17,2.79,1.61V159A6.14,6.14,0,0,1,65,163.86l-4.31,2.49a.5.5,0,0,0-.22.34,15.36,15.36,0,0,1-6.49,9.78c-.2.14-.33-.06-.2-.31.7-1.32,2-4.26,1.51-6.48,0-.1-.13-.13-.24-.07L36.92,180.06c-1.55.89-2.79.17-2.79-1.61V157.27A6.14,6.14,0,0,1,36.92,152.44Z"/><path class="cls-1" d="M34.63,180.8a2.54,2.54,0,0,1-1.14-2.35V157.27a6.78,6.78,0,0,1,3.11-5.38l28.05-16.2a2.32,2.32,0,0,1,3.74,2.16V159a6.78,6.78,0,0,1-3.11,5.38l-4.23,2.45A16.17,16.17,0,0,1,54.3,177a.8.8,0,0,1-1,0,.89.89,0,0,1-.13-1.1,11.74,11.74,0,0,0,1.54-5.35l-17.49,10.1a3.15,3.15,0,0,1-1.56.46A2,2,0,0,1,34.63,180.8ZM55.42,169l.37.23.07.31a9.19,9.19,0,0,1-.78,5.25,14.8,14.8,0,0,0,4.73-8.21,1.13,1.13,0,0,1,.52-.78l4.32-2.49A5.54,5.54,0,0,0,67.12,159V137.85a1.09,1.09,0,0,0-1.84-1.06L37.23,153a5.54,5.54,0,0,0-2.47,4.28v21.18a1.38,1.38,0,0,0,.5,1.25,1.37,1.37,0,0,0,1.34-.19l18.1-10.45a.81.81,0,0,1,.42-.12A.77.77,0,0,1,55.42,169Z"/><rect class="cls-1" x="32.57" y="148.41" width="1.27" height="5.72" transform="translate(-113.3 101.06) rotate(-58.7)"/><rect class="cls-1" x="58.73" y="133.4" width="1.27" height="5.72" transform="translate(-87.91 116.2) rotate(-58.7)"/><rect class="cls-1" x="30.8" y="153.61" width="1.27" height="6.37" transform="translate(-117.84 99.42) rotate(-57.64)"/><polygon class="cls-1" points="28.56 158.02 34.13 161.39 34.13 179.75 28.74 176.8 28.56 175.49 28.56 158.02"/><rect class="cls-1" x="58.16" y="121.23" width="1.27" height="6.13" transform="translate(-10 5.24) rotate(-4.71)"/><rect class="cls-1" x="61.01" y="124.01" width="7.06" height="1.27" transform="translate(-75.53 133.71) rotate(-66.33)"/><rect class="cls-1" x="66.32" y="127.95" width="5.88" height="1.27" transform="translate(-54.31 50.74) rotate(-29.48)"/><path class="cls-2" d="M51.34,166.73a1.48,1.48,0,0,1-.6-1.4,3.51,3.51,0,0,1,.48-1.82,3.72,3.72,0,0,1,1.35-1.32,1.62,1.62,0,0,1,1.57-.25q.6.31.6,1.44a3.47,3.47,0,0,1-.49,1.81,3.7,3.7,0,0,1-1.36,1.33,2.11,2.11,0,0,1-1,.34A1,1,0,0,1,51.34,166.73Zm1.55-4a3.12,3.12,0,0,0-1.13,1.09,2.94,2.94,0,0,0-.39,1.5c0,.31.05.72.28.85s.63,0,.92-.21a3.09,3.09,0,0,0,1.14-1.1,2.94,2.94,0,0,0,.4-1.49c0-.48-.1-.79-.27-.88a.31.31,0,0,0-.17,0A1.8,1.8,0,0,0,52.89,162.74Zm-2.16-12.26,4-2.3-.53,11.89-3,1.71ZM54,149.3l-2.66,1.54.46,9.86,1.74-1Z"/><path class="cls-1" d="M53,164.47a3.33,3.33,0,0,1-1.25,1.22c-.52.3-.93.37-1.23.2s-.44-.54-.44-1.13a3.14,3.14,0,0,1,.44-1.65,3.37,3.37,0,0,1,1.23-1.2c.55-.32,1-.4,1.26-.25s.44.54.44,1.16A3.15,3.15,0,0,1,53,164.47ZM50.1,150.1l3.33-1.92-.49,11.14-2.35,1.36Z"/><path class="cls-3" d="M32.82,194.67l26.74,0a.55.55,0,0,1,.55.55v8.25h0a3.18,3.18,0,0,1-1.83,2.33l-8.05,4.65c-2.23,1.29-5.6,1.43-7.53.31l-9.13-5.27a2.17,2.17,0,0,1-1.28-2h0v-8.29A.55.55,0,0,1,32.82,194.67Z"/><path class="cls-1" d="M42.28,211.52l-9.13-5.27a3.35,3.35,0,0,1-1.61-1.91h-.09v-9.12a1.37,1.37,0,0,1,1.37-1.37h0l26.75,0a1.37,1.37,0,0,1,1.37,1.37v9.08h-.17a4.5,4.5,0,0,1-2.07,2.22l-8,4.64A9.52,9.52,0,0,1,46,212.38,7.51,7.51,0,0,1,42.28,211.52Zm17-16-26.19,0v7.19h.07l-.07.88a1.45,1.45,0,0,0,.88,1.25l9.13,5.27a7.61,7.61,0,0,0,6.7-.31l8-4.65a2.45,2.45,0,0,0,1.41-1.68v-7.91Z"/><path class="cls-1" d="M32.82,194.7H45.13v16.82a6.33,6.33,0,0,1-2.44-.7l-9.13-5.27a2.18,2.18,0,0,1-1.28-2h0v-8.29A.54.54,0,0,1,32.82,194.7Z"/><path class="cls-2" d="M33.56,196.73,42.69,202c1.93,1.11,5.3,1,7.53-.31L58.27,197c2.23-1.29,2.47-3.23.54-4.35l-9.13-5.27a8.37,8.37,0,0,0-7.53.32l-8,4.64C31.88,193.67,31.63,195.62,33.56,196.73Z"/><path class="cls-1" d="M42.28,202.71l-9.13-5.27a3,3,0,0,1-1.71-2.6,3.89,3.89,0,0,1,2.25-3.17L41.74,187c2.49-1.44,6.16-1.58,8.35-.31L59.22,192a3,3,0,0,1,1.72,2.6,3.89,3.89,0,0,1-2.26,3.18l-8,4.64A9.52,9.52,0,0,1,46,203.58,7.51,7.51,0,0,1,42.28,202.71Zm.29-14.26-8,4.65c-.9.51-1.43,1.17-1.43,1.74A1.51,1.51,0,0,0,34,196l9.13,5.27a7.58,7.58,0,0,0,6.7-.32l8-4.64c.89-.52,1.43-1.17,1.43-1.75a1.52,1.52,0,0,0-.89-1.17l-9.13-5.27a5.86,5.86,0,0,0-2.85-.64A7.9,7.9,0,0,0,42.57,188.45Z"/><rect class="cls-1" x="48.53" y="202.12" width="1.65" height="8.76"/><rect class="cls-3" x="34.77" y="199.89" width="1.27" height="4.3"/><path class="cls-1" d="M47.62,197.88a3.12,3.12,0,0,1-2.85,0,.87.87,0,0,1,0-1.65,3.18,3.18,0,0,1,2.85,0A.87.87,0,0,1,47.62,197.88Zm-2.31-1.34c-.49.29-.49.75,0,1a1.93,1.93,0,0,0,1.78,0c.49-.28.49-.74,0-1A2,2,0,0,0,45.31,196.54Z"/><path class="cls-1" d="M52.8,194.9l-1.75,1a1.27,1.27,0,0,1-1.11,0l-1.75-1a.34.34,0,0,1,0-.64l1.75-1a1.21,1.21,0,0,1,1.11,0l1.75,1A.34.34,0,0,1,52.8,194.9Zm-4.07-.33,1.75,1,1.78-1s0,0,0,0l-1.75-1Z"/><polygon class="cls-1" points="43.43 195.15 42.89 195.46 40.58 194.12 41.12 193.81 43.43 195.15"/><polygon class="cls-1" points="43.43 194.12 41.12 195.46 40.58 195.15 42.89 193.81 43.43 194.12"/><path class="cls-1" d="M47.73,193a3.18,3.18,0,0,1-2.85,0,.87.87,0,0,1,0-1.65,3.18,3.18,0,0,1,2.85,0A.87.87,0,0,1,47.73,193Zm-2.32-1.34c-.49.29-.49.75,0,1a2,2,0,0,0,1.78,0c.49-.28.49-.74,0-1A2,2,0,0,0,45.41,191.64Z"/><g id="computer"><g id="_6" data-name="6"><g id="_4" data-name="4"><path class="cls-2" d="M95.46,199.65l139.81-79.73c1.75-1,3.33-1,4.46-.06l6.86,4.1-5.08,7.22v108.4c0,4.54-2.79,9.82-6.24,11.79L104.71,325.82,98,335.38l-6.47-3.88c-1.41-.7-2.31-2.49-2.31-5.07v-115C89.21,206.9,92,201.62,95.46,199.65Z"/><path class="cls-4" d="M128.54,193.9l116.19-65,1.86-4.26-5.16-3.09c-1.14-.88-2.72-.93-4.47.07L97.15,201.34A12.75,12.75,0,0,0,92.37,207l-.17.71,8.28,5Z"/><polygon class="cls-4" points="91.28 211.9 98.8 216.37 98.14 219.18 91.28 214.96 91.28 211.9"/><path class="cls-1" d="M247.54,123.76l-5.36,7.63V239.58c0,4.75-3,10.29-6.58,12.36L105.17,326.32l-7,9.95-7-4.2c-1.66-.83-2.63-2.89-2.63-5.64v-115c0-4.74,3-10.29,6.58-12.36l139.81-79.73c1.91-1.09,3.81-1.1,5.2,0Zm-1.9.41-6.25-3.74c-1-.8-2.35-.76-3.79.07L95.79,200.23c-3.27,1.86-5.92,6.89-5.92,11.21v115a2.38,2.38,0,0,0,1.17,2l5.11,3.15.26,2.06,1.4.84,6.58-9.26,130.55-74.45c3.26-1.86,5.91-6.89,5.91-11.21V131Z"/><g id="_18" data-name="18"><path class="cls-1" d="M201.34,297.61,173,281.52c-2.74-1.57-7.35-1.39-10.5.4l-17.24,9.84-8.2,3.66v3.75h.06a3.71,3.71,0,0,0,2,2.47L174,321.48a9.44,9.44,0,0,0,4.62,1.07,12.22,12.22,0,0,0,5.89-1.47l22.7-12.95a4.75,4.75,0,0,0,2.73-3.61,1.48,1.48,0,0,0,0-.3v-3Z"/><path class="cls-2" d="M139.41,298.18,174.34,318c2.53,1.44,6.93,1.26,9.85-.4l22.7-12.95c2.91-1.66,3.23-4.17.71-5.61l-34.93-19.85c-2.53-1.44-6.93-1.26-9.85.4l-22.7,12.95C137.21,294.23,136.89,296.75,139.41,298.18Z"/><path class="cls-4" d="M203.76,302l-9.48-5.62a10.06,10.06,0,0,0-10.08-.08l-23.78,13.6L174.79,318c2.53,1.44,6.93,1.26,9.85-.4l18.42-10C206,305.93,206.29,303.41,203.76,302Z"/><path class="cls-1" d="M184.52,318.2l22.7-12.94c1.74-1,2.74-2.36,2.74-3.75a3.53,3.53,0,0,0-2-3L173,278.64c-2.74-1.56-7.35-1.38-10.5.41L139.79,292c-1.74,1-2.74,2.37-2.74,3.76a3.52,3.52,0,0,0,2,3L174,318.61a9.55,9.55,0,0,0,4.62,1.06A12.11,12.11,0,0,0,184.52,318.2Zm-44.78-20.59a2.34,2.34,0,0,1-1.37-1.86c0-.9.76-1.85,2.08-2.6l22.7-12.95c2.73-1.56,6.85-1.74,9.19-.4l34.93,19.84a2.34,2.34,0,0,1,1.37,1.87c0,.9-.76,1.84-2.08,2.59l-22.7,12.95c-2.73,1.56-6.85,1.74-9.19.4l-34.93-19.84Z"/></g><path class="cls-1" d="M246.59,123.17a4.7,4.7,0,0,0-4.77.31L102,203.21c-3.63,2.07-6.58,7.62-6.58,12.37v115c0,2.57,1,3.71,1.91,4.22a3.92,3.92,0,0,0,2,.49,8.25,8.25,0,0,0,4-1.22l139.18-78c3.63-2.07,6.58-7.61,6.58-12.36v-115C249.06,126.1,248.16,124.08,246.59,123.17Z"/><path class="cls-2" d="M248.4,230.34v13.94a14.61,14.61,0,0,1-6.72,11.48L102.81,335c-3.71,2.12-6.72.4-6.72-3.82V317.2Z"/><path class="cls-1" d="M103.14,335.54,242,256.34a15.38,15.38,0,0,0,7.05-12.06V229.2L95.77,316.62l-.34.19v14.33c0,2.27.81,4,2.28,4.85a4.16,4.16,0,0,0,2.1.55A6.89,6.89,0,0,0,103.14,335.54ZM247.73,231.48v12.8a13.93,13.93,0,0,1-6.37,10.91l-138.88,79.2c-1.59.91-3,1.07-4.11.45s-1.61-1.92-1.61-3.7V317.58Z"/><path class="cls-2" d="M105.18,303.33l134.13-76.49a5.17,5.17,0,0,0,2.2-4.16V134.85c0-1.6-1-2.34-2.2-1.64L105.18,209.7a5.17,5.17,0,0,0-2.2,4.16v87.83C103,303.29,104,304,105.18,303.33Z"/><path class="cls-1" d="M105.51,303.91l134.13-76.49a5.87,5.87,0,0,0,2.54-4.74V134.85a2.57,2.57,0,0,0-1.09-2.33,2.07,2.07,0,0,0-2.11.11L104.85,209.12a5.86,5.86,0,0,0-2.53,4.74v87.83A2.56,2.56,0,0,0,103.4,304a1.78,1.78,0,0,0,.9.24A2.49,2.49,0,0,0,105.51,303.91ZM240.43,133.67a1.37,1.37,0,0,1,.42,1.18v87.83a4.56,4.56,0,0,1-1.87,3.59L104.85,302.76c-.18.1-.53.26-.78.11a1.35,1.35,0,0,1-.43-1.18V213.86a4.56,4.56,0,0,1,1.87-3.59l134.13-76.49a1.23,1.23,0,0,1,.54-.17A.54.54,0,0,1,240.43,133.67Z"/></g></g><path class="cls-5" d="M149.18,250.24l63-36.38c7.63-4.41,13.82-16.23,13.82-26.41h0c0-10.18-6.19-14.85-13.82-10.45l-63,36.38c-7.63,4.41-13.82,16.23-13.82,26.41h0C135.36,250,141.55,254.65,149.18,250.24Z"/><path class="cls-6" d="M136.41,250.88c-3.28-1.89-5.16-6.2-5.16-11.83,0-10.4,6.37-22.54,14.2-27.05l63-36.38c3.56-2.06,7-2.32,9.79-.73,3.27,1.89,5.15,6.2,5.15,11.83,0,10.4-6.37,22.53-14.19,27.05l-63,36.38a11.84,11.84,0,0,1-5.87,1.76A7.68,7.68,0,0,1,136.41,250.88Zm72.8-74-63,36.37c-7.42,4.28-13.45,15.84-13.45,25.76,0,5.08,1.61,8.92,4.41,10.53,2.26,1.31,5.21,1,8.29-.73l63-36.37c7.41-4.29,13.44-15.84,13.44-25.76,0-5.08-1.6-8.92-4.4-10.53a6.25,6.25,0,0,0-3.17-.83A10.3,10.3,0,0,0,209.21,176.92Z"/><path d="M151.25,230.69a4.64,4.64,0,0,1-2.64.18,1.43,1.43,0,0,1-.83-1.5,5,5,0,0,1,1-2.79,8,8,0,0,1,2.63-2.38,4.46,4.46,0,0,1,2-.69,1.59,1.59,0,0,1,1.34.47,2.07,2.07,0,0,1,.47,1.45l-1.42.82c0-.69-.2-1.11-.61-1.26a2.22,2.22,0,0,0-1.74.42,5.08,5.08,0,0,0-1.63,1.42,2.88,2.88,0,0,0-.58,1.69.76.76,0,0,0,.55.84,3.92,3.92,0,0,0,1.89-.22,6.74,6.74,0,0,1,2.08-.33,1.48,1.48,0,0,1,1.12.47,1.94,1.94,0,0,1,.36,1.28,4.8,4.8,0,0,1-1,2.78,8.66,8.66,0,0,1-2.71,2.39,5.39,5.39,0,0,1-2.05.74,1.8,1.8,0,0,1-1.48-.37,1.9,1.9,0,0,1-.51-1.46l1.41-.81c0,.68.24,1.08.72,1.19a2.74,2.74,0,0,0,1.91-.51A5.46,5.46,0,0,0,153.2,233a2.75,2.75,0,0,0,.6-1.65c0-.55-.19-.87-.55-1A4.78,4.78,0,0,0,151.25,230.69Z"/><path d="M164.54,216.77v7.66a6,6,0,0,1-.95,3.15A8.2,8.2,0,0,1,161,230.2l-.37.23a3.42,3.42,0,0,1-2.8.62c-.69-.27-1-1-1.05-2.14v-7.67l1.39-.81v7.63c0,.81.21,1.32.64,1.53s1,.08,1.82-.37a5,5,0,0,0,1.83-1.74,4.27,4.27,0,0,0,.64-2.26v-7.63Z"/><path d="M168.18,221.52v4.41l-1.41.82V215.48l3.94-2.27a3.45,3.45,0,0,1,2.75-.65c.66.25,1,.89,1,1.93a5.4,5.4,0,0,1-1,3.08,8.23,8.23,0,0,1-2.79,2.5Zm0-1.21,2.53-1.46a5.1,5.1,0,0,0,1.73-1.57,3.49,3.49,0,0,0,.6-2q0-1-.6-1.26a2,2,0,0,0-1.65.32l-2.61,1.51Z"/><path d="M177.66,216v4.41l-1.41.82V210l3.94-2.27a3.46,3.46,0,0,1,2.75-.65c.66.25,1,.89,1,1.93a5.41,5.41,0,0,1-1,3.08,8.19,8.19,0,0,1-2.78,2.5Zm0-1.21,2.53-1.46a5,5,0,0,0,1.73-1.57,3.42,3.42,0,0,0,.61-2c0-.67-.2-1.09-.61-1.26a2,2,0,0,0-1.65.33l-2.61,1.5Z"/><path d="M194,205.77a9.84,9.84,0,0,1-.52,3.2,9.51,9.51,0,0,1-1.5,2.75,8.22,8.22,0,0,1-2.26,1.95,3.84,3.84,0,0,1-2.24.64,1.91,1.91,0,0,1-1.52-1,4.93,4.93,0,0,1-.55-2.48V210a9.57,9.57,0,0,1,.54-3.18,9.17,9.17,0,0,1,1.51-2.79,7.94,7.94,0,0,1,2.24-1.95,3.91,3.91,0,0,1,2.27-.66,1.87,1.87,0,0,1,1.51,1,5.29,5.29,0,0,1,.52,2.58Zm-1.4.08a3.38,3.38,0,0,0-.76-2.63c-.51-.42-1.22-.37-2.14.16a5.38,5.38,0,0,0-2.1,2.29,7.77,7.77,0,0,0-.79,3.43v.83a3.35,3.35,0,0,0,.78,2.6q.77.66,2.13-.12a5.33,5.33,0,0,0,2.11-2.27,7.69,7.69,0,0,0,.77-3.45Z"/><path d="M200,203l-2.51,1.45V209l-1.42.82V198.56l3.54-2a3.74,3.74,0,0,1,2.78-.74c.65.2,1,.85,1,2a4.81,4.81,0,0,1-.54,2.14,7.55,7.55,0,0,1-1.5,2l2.51,3.33v.09l-1.51.87Zm-2.51.23,2.16-1.25a4.77,4.77,0,0,0,1.67-1.54,3.32,3.32,0,0,0,.62-1.89c0-.7-.19-1.12-.59-1.26a2.14,2.14,0,0,0-1.7.42L197.48,199Z"/><path d="M212.12,190.5l-3.43,2v10.05l-1.41.81V193.29l-3.42,2v-1.21l8.26-4.78Z"/><path class="cls-2" d="M86.93,306.77V287.31l27.54-16v19.46s-.39,9.78,3.75,12.1l4.14,2.32L94.82,321.18l-4.14-2.31C86.53,316.55,86.93,306.77,86.93,306.77Z"/><path class="cls-4" d="M83.45,312.75V293.3l27.54-16V296.8s-.39,9.78,3.75,12.09l4.14,2.32-27.54,16-4.14-2.32C83.06,322.53,83.45,312.75,83.45,312.75Z"/><path class="cls-1" d="M90.32,319.51c-4.44-2.49-4.15-12.16-4.12-12.75V286.89l29-16.81v20.76c-.1,2.6.3,9.71,3.38,11.43l5.26,2.94L94.83,322Zm27.54-16c-4.48-2.51-4.14-12.35-4.12-12.74V272.62L87.66,287.73V306.8c-.11,2.6.3,9.71,3.37,11.43l3.78,2.11,26.07-15.1Z"/><path class="cls-2" d="M108.68,294.26c.19-5.38-6.48-2.7-8.24,2.89-1.76-3.58-8.48.64-8.26,6.56.17,4.26,7.41,7.55,8.22,7.91,0,0,0,0,0,0s0-.06,0-.06C101.3,310.28,108.53,298.69,108.68,294.26Z"/><path class="cls-6" d="M100.78,307.74l-.12-.16c-1.73-.78-8.31-4-8.48-8.47-.16-4.16,2.89-7.76,5.84-8.5a3.3,3.3,0,0,1,2.92.48c1.56-3.38,4.74-5.44,6.9-5.07.72.12,2.4.73,2.3,3.63h0c-.15,4.52-7,15.52-8.25,17.57l-.32.51h-.25l-.16.06Zm7.9-18.14c0-.88-.13-2-1.09-2.14-1.53-.26-4.6,1.71-5.72,5.29l-.55,1.74-.8-1.64a1.68,1.68,0,0,0-2.15-.82,7.23,7.23,0,0,0-4.72,7c.11,2.91,4.38,5.67,7.24,7,3-4.78,7.68-13.16,7.79-16.48Z"/></g><path class="cls-4" d="M220,197.86V220c0,.88.9,1.86,1.46,1.59l2.9-1.38c.41-.19,1,.35,1.26,1.05l2.81,9.2c.28.92,1.05,1.7,1.69,1.71l2.4.06c.61,0,.88-.67.6-1.54l-3-9.44c-.22-.7.11-1.16.65-.9l3.9,1.86c.76.37,1.08-.53.52-1.45L221.28,198C220.78,197.14,220,197.08,220,197.86Z"/><path class="cls-6" d="M229.45,226.94h0l-2.41-.06a3,3,0,0,1-2.39-2.24l-2.8-9.2a1.1,1.1,0,0,0-.35-.53l-2.77,1.32a1.38,1.38,0,0,1-1.35-.14,2.69,2.69,0,0,1-1.19-2.13V191.85a1.21,1.21,0,0,1,.86-1.26,1.7,1.7,0,0,1,1.83.95l13.93,22.79a2,2,0,0,1,.05,2.29,1.27,1.27,0,0,1-1.53.23l-3.45-1.65,2.9,9.22a2.19,2.19,0,0,1-.19,2A1.33,1.33,0,0,1,229.45,226.94Zm-8-13.55a1.45,1.45,0,0,1,.56.12,2.46,2.46,0,0,1,1.24,1.49l2.8,9.2c.21.71.77,1.18,1,1.18l2.39.06c-.05,0,0-.22-.12-.57l-3-9.43a1.52,1.52,0,0,1,.33-1.67,1.2,1.2,0,0,1,1.36-.13l3.57,1.7c0-.07-.07-.14-.12-.23l-13.84-22.64V214a1.25,1.25,0,0,0,.49.87L221,213.5A1,1,0,0,1,221.46,213.39Z"/><path class="cls-1" d="M81.91,158.4l33.47-22.71a4.07,4.07,0,0,0,1.78-3l1.39-40.29c0-1-2.18-1.22-3.17-.59L80.69,114.14a4.08,4.08,0,0,0-1.78,3v40.17C78.91,158.33,80.93,159,81.91,158.4Z"/><path class="cls-1" d="M80.11,158.83c-.78-.2-1.57-.72-1.57-1.45V117.21a4.42,4.42,0,0,1,2-3.28L115.2,91.6a3.58,3.58,0,0,1,2.6-.34c.7.18,1.11.57,1.11,1.08l-1.38,40.28a4.39,4.39,0,0,1-2,3.27L82.1,158.6h0a2.34,2.34,0,0,1-.71.28A3.07,3.07,0,0,1,80.11,158.83Zm35.09-23.35a3.75,3.75,0,0,0,1.6-2.73l1.38-40.28c0-.41-.52-.59-.75-.65a2.67,2.67,0,0,0-1.86.2l-34.7,22.33a3.73,3.73,0,0,0-1.6,2.72v40.17c0,.43.49.85,1.2,1a1.66,1.66,0,0,0,1.25-.08Z"/><path class="cls-5" d="M82.11,158.28,116.81,136a4.1,4.1,0,0,0,1.78-3V92.78c0-1-.8-1.34-1.78-.71L82.11,114.4a4.08,4.08,0,0,0-1.78,3v40.17C80.33,158.6,81.13,158.91,82.11,158.28Z"/><path class="cls-1" d="M80.77,158.86a1.13,1.13,0,0,1-.8-1.22V117.47a4.41,4.41,0,0,1,2-3.28l34.7-22.33a2,2,0,0,1,1.53-.37,1.13,1.13,0,0,1,.79,1.22v40.17a4.41,4.41,0,0,1-2,3.28L82.3,158.49h0a2.91,2.91,0,0,1-.89.38A1.52,1.52,0,0,1,80.77,158.86Zm1.16-.79,34.7-22.33a3.75,3.75,0,0,0,1.59-2.72V92.85c0-.43-.16-.73-.43-.8a1.17,1.17,0,0,0-.8.23L82.3,114.61a3.73,3.73,0,0,0-1.6,2.72V157.5c0,.43.16.73.43.8a1.17,1.17,0,0,0,.8-.23Z"/><polygon class="cls-2" points="80.76 115.89 80.98 115.57 79.64 115.18 79.42 115.5 80.76 115.89"/><polygon class="cls-2" points="115.75 92.9 115.97 92.58 114.63 92.19 114.41 92.51 115.75 92.9"/><polygon class="cls-2" points="80.09 157.24 80.31 156.91 78.97 156.53 78.75 156.84 80.09 157.24"/><path class="cls-2" d="M93.29,138.71l-.46,1.14a.65.65,0,0,1-.23.29l-1,.81c-.25.19-.35.52-.17.56l.75.18c.07,0,.1.08.09.18l-.18,1c0,.25.21.25.43,0l.93-1a.56.56,0,0,1,.28-.18l.93-.16c.22,0,.48-.37.43-.56l-.17-.81a.41.41,0,0,1,.08-.3l.75-1.14c.18-.27.08-.48-.16-.35l-1,.53c-.1.05-.18.05-.23,0l-.46-.55C93.72,138.23,93.4,138.44,93.29,138.71Z"/><path class="cls-2" d="M92.1,143.21a.21.21,0,0,1-.18-.28l.18-1.05c0-.06,0-.08,0-.08l-.75-.18a.2.2,0,0,1-.16-.19.75.75,0,0,1,.31-.56l1-.8a.8.8,0,0,0,.18-.23l.46-1.14a.86.86,0,0,1,.51-.48.27.27,0,0,1,.28.06l.47.55h0l1-.53a.38.38,0,0,1,.37,0c.12.09.11.28,0,.49l-.75,1.14a.37.37,0,0,0-.07.22l.18.82a.63.63,0,0,1-.2.49.66.66,0,0,1-.38.22l-.92.16s-.1.05-.17.12l-.93,1a.72.72,0,0,1-.38.24Zm1.61-1.62.92-.16a.24.24,0,0,0,.16-.11.36.36,0,0,0,.13-.3l-.17-.81a.51.51,0,0,1,.1-.37l.75-1.14c.1-.15.08-.24.06-.25l0,0-1,.53c-.16.08-.32.08-.4,0l-.47-.55,0,0a.64.64,0,0,0-.23.27L93,139.86a.83.83,0,0,1-.27.35l-1,.81a.48.48,0,0,0-.2.34s0,0,0,0l.75.18a.22.22,0,0,1,.16.28l-.18,1c0,.06,0,.09,0,.09a.31.31,0,0,0,.18-.12l.93-1a.79.79,0,0,1,.38-.24Z"/><path class="cls-2" d="M87.38,142.51l-.46,1.14a.74.74,0,0,1-.23.3l-1,.8c-.25.19-.35.52-.17.57l.75.17c.07,0,.1.09.09.18l-.18,1.05c0,.24.21.25.43,0l.93-1a.5.5,0,0,1,.28-.18l.93-.16c.22,0,.48-.37.43-.57L89,144a.41.41,0,0,1,.08-.3l.75-1.14c.18-.27.08-.47-.16-.35l-1,.53c-.1,0-.18,0-.23,0l-.46-.55C87.81,142,87.49,142.24,87.38,142.51Z"/><path class="cls-2" d="M86.19,147a.21.21,0,0,1-.18-.28l.18-1c0-.06,0-.09,0-.09l-.75-.17a.21.21,0,0,1-.16-.19.77.77,0,0,1,.31-.56l1-.8a.72.72,0,0,0,.18-.24l.46-1.14a.82.82,0,0,1,.51-.47.25.25,0,0,1,.28.06l.47.54s0,0,0,0l1-.53a.38.38,0,0,1,.37,0c.12.09.11.29,0,.5l-.75,1.14a.34.34,0,0,0-.07.21l.18.82a.61.61,0,0,1-.2.49.74.74,0,0,1-.37.23h0l-.92.16a.27.27,0,0,0-.17.12l-.93,1a.72.72,0,0,1-.38.24A.24.24,0,0,1,86.19,147Zm1.61-1.61.92-.16a.44.44,0,0,0,.16-.11.43.43,0,0,0,.14-.3l-.18-.82a.52.52,0,0,1,.1-.37l.75-1.14c.1-.15.08-.24,0-.24h0l-1,.53a.32.32,0,0,1-.4,0l-.47-.55-.05,0a.6.6,0,0,0-.23.26l-.46,1.14a.93.93,0,0,1-.27.36l-1,.8a.48.48,0,0,0-.2.35s0,0,0,0l.75.17a.23.23,0,0,1,.16.28l-.18,1.05c0,.06,0,.08,0,.08a.31.31,0,0,0,.18-.12l.92-1a.72.72,0,0,1,.39-.24Z"/><path class="cls-2" d="M99.19,135.12l-.46,1.14a.73.73,0,0,1-.23.29l-1,.81c-.25.19-.35.52-.17.56l.75.18c.07,0,.1.08.09.18l-.18,1c0,.25.21.25.43,0l.93-1a.63.63,0,0,1,.28-.18l.93-.15a.63.63,0,0,0,.43-.57l-.17-.81a.41.41,0,0,1,.08-.3l.75-1.14c.18-.27.08-.48-.16-.35l-1,.53c-.1.05-.18.05-.23,0l-.46-.55C99.62,134.64,99.3,134.85,99.19,135.12Z"/><path class="cls-2" d="M98,139.62a.21.21,0,0,1-.18-.28l.18-1.05c0-.06,0-.08,0-.08l-.75-.18a.2.2,0,0,1-.16-.19.72.72,0,0,1,.31-.55l1-.81a.68.68,0,0,0,.18-.23l.46-1.14a.86.86,0,0,1,.51-.48.27.27,0,0,1,.28.06l.47.55h.05l1-.53a.38.38,0,0,1,.37,0c.12.09.11.28,0,.49l-.75,1.14a.39.39,0,0,0-.07.22l.18.82a.63.63,0,0,1-.2.49.66.66,0,0,1-.37.22h0l-.92.15a.35.35,0,0,0-.17.12l-.93,1a.72.72,0,0,1-.38.24ZM99.61,138l.92-.15h0a.3.3,0,0,0,.16-.12.39.39,0,0,0,.13-.29l-.17-.82a.51.51,0,0,1,.1-.37l.75-1.14c.1-.15.08-.24,0-.25l0,0-1,.53a.32.32,0,0,1-.4,0l-.47-.56,0,0a.57.57,0,0,0-.23.27l-.46,1.14a.83.83,0,0,1-.27.35l-1,.81a.48.48,0,0,0-.2.35.05.05,0,0,0,0,0l.75.17a.21.21,0,0,1,.15.28l-.17,1c0,.06,0,.09,0,.09a.38.38,0,0,0,.18-.12l.92-1a.78.78,0,0,1,.38-.23Z"/><path class="cls-2" d="M109.9,132.08c-.14,0-.2-.12-.18-.28l.18-1a.13.13,0,0,0,0-.09l-.75-.17a.21.21,0,0,1-.17-.19.75.75,0,0,1,.32-.56l1-.8a.53.53,0,0,0,.18-.24l.46-1.14a.84.84,0,0,1,.51-.47.26.26,0,0,1,.29.06l.46.54s0,0,0,0l1-.53a.36.36,0,0,1,.36,0c.12.09.11.29,0,.5l-.75,1.14a.29.29,0,0,0-.07.21l.17.82a.6.6,0,0,1-.19.49.7.7,0,0,1-.38.23l-.93.16s-.1,0-.17.12l-.93,1a.74.74,0,0,1-.37.24Zm1.61-1.61.93-.16a.37.37,0,0,0,.16-.11.45.45,0,0,0,.13-.3l-.18-.82a.58.58,0,0,1,.1-.37l.75-1.14c.1-.15.08-.24.06-.24h0l-1,.53a.34.34,0,0,1-.41,0l-.46-.55-.06,0a.58.58,0,0,0-.22.26l-.47,1.14a.93.93,0,0,1-.27.36l-1,.8a.48.48,0,0,0-.2.35s0,0,0,0l.75.17a.23.23,0,0,1,.16.28l-.18,1.05c0,.06,0,.08,0,.08s.08,0,.17-.12l.93-1a.67.67,0,0,1,.38-.24Z"/><path class="cls-2" d="M104,135.89c-.14,0-.2-.13-.18-.29l.18-1a.15.15,0,0,0,0-.09l-.75-.17a.2.2,0,0,1-.17-.19.75.75,0,0,1,.32-.56l1-.8a.56.56,0,0,0,.18-.23l.46-1.15a.84.84,0,0,1,.51-.47.29.29,0,0,1,.29.06l.46.55s0,0,0,0l1-.54a.36.36,0,0,1,.36,0c.12.08.11.28,0,.49l-.75,1.14a.31.31,0,0,0-.07.22l.17.81a.6.6,0,0,1-.19.49.69.69,0,0,1-.37.23h0l-.93.16a.44.44,0,0,0-.17.12l-.92,1a.73.73,0,0,1-.38.24Zm1.61-1.62.93-.16a.55.55,0,0,0,.16-.11.43.43,0,0,0,.13-.3l-.18-.81a.56.56,0,0,1,.1-.37l.75-1.14c.1-.15.08-.24.06-.25l0,0-1,.53c-.17.08-.32.08-.41,0l-.46-.55,0,0a.54.54,0,0,0-.23.26l-.47,1.15a.83.83,0,0,1-.27.35l-1,.8a.56.56,0,0,0-.2.35s0,0,0,0l.75.18a.22.22,0,0,1,.16.28l-.18,1c0,.06,0,.08,0,.09a.44.44,0,0,0,.17-.12l.93-1a.72.72,0,0,1,.38-.24Z"/><path class="cls-5" d="M92.94,147.38,106,139a2,2,0,0,0,.88-1.49h0c0-.5-.39-.66-.88-.34l-13,8.39a2,2,0,0,0-.88,1.48h0C92.06,147.54,92.45,147.69,92.94,147.38Z"/><path class="cls-2" d="M92.22,147.74a.61.61,0,0,1-.44-.65,2.29,2.29,0,0,1,1-1.7l13-8.4a1.15,1.15,0,0,1,.86-.2.61.61,0,0,1,.44.66,2.3,2.3,0,0,1-1,1.7l-13,8.39a1.37,1.37,0,0,1-.49.21A.92.92,0,0,1,92.22,147.74Zm13.9-10.42-13,8.39a1.75,1.75,0,0,0-.74,1.27c0,.21.08.31.16.33s.23-.05.3-.09l13-8.4a1.71,1.71,0,0,0,.74-1.26c0-.22-.08-.32-.16-.34h-.09A.82.82,0,0,0,106.12,137.32Z"/><path class="cls-5" d="M110.17,125,88.75,138.78c-1.77,1.14-3.21.57-3.21-1.27V119.14a7.35,7.35,0,0,1,3.21-5.41L110.17,100c1.77-1.14,3.21-.58,3.21,1.27v18.37A7.34,7.34,0,0,1,110.17,125Z"/><path class="cls-2" d="M86.51,139.53a1.81,1.81,0,0,1-1.25-2V119.19a7.65,7.65,0,0,1,3.35-5.62L110,99.79a3.13,3.13,0,0,1,2.38-.6,1.81,1.81,0,0,1,1.25,2v18.37a7.65,7.65,0,0,1-3.35,5.62L88.89,138.94a4,4,0,0,1-1.42.6A2.07,2.07,0,0,1,86.51,139.53Zm23.8-39.42L88.89,113.89a7.06,7.06,0,0,0-3.07,5.19v18.37c0,.89.35,1.49,1,1.65a2.42,2.42,0,0,0,1.82-.49L110,124.83a7.06,7.06,0,0,0,3.07-5.19V101.27c0-.89-.35-1.49-1-1.65a1.56,1.56,0,0,0-.68,0A3.25,3.25,0,0,0,110.31,100.11Z"/><path class="cls-2" d="M87.71,137.59a1.1,1.1,0,0,1-.77-1.19V118.19a4.44,4.44,0,0,1,2-3.3l20.82-13.4a1.93,1.93,0,0,1,1.48-.36,1.1,1.1,0,0,1,.77,1.19v18.21a4.47,4.47,0,0,1-2,3.31L89.2,137.23a2.52,2.52,0,0,1-.88.37A1.39,1.39,0,0,1,87.71,137.59Zm22-14.08a3.9,3.9,0,0,0,1.69-2.87V102.43c0-.47-.18-.79-.49-.87a1.27,1.27,0,0,0-.92.26L89.2,115.21a3.88,3.88,0,0,0-1.7,2.87v18.21c0,.47.18.79.49.87a1.25,1.25,0,0,0,.92-.25l20.82-13.4Z"/><path class="cls-5" d="M104,110.41l.89-1s-.48-1.29-4.13,1,.52,1.35.52,1.35Z"/><path class="cls-2" d="M99,112c-.14-.35.35-.86,1.61-1.67,1.67-1.07,3-1.56,3.79-1.45a.87.87,0,0,1,.75.45l0,.11-1,1.14L101.35,112l-.09,0-.44.1C100.12,112.26,99.13,112.38,99,112Zm4.82-1.71.73-.82a.68.68,0,0,0-.38-.15c-.46,0-1.41.14-3.28,1.33-1.37.88-1.35,1.12-1.35,1.12a3.54,3.54,0,0,0,1.67-.14Z"/><path class="cls-5" d="M97.91,126s-4.79,1.91-7.94,10.48l19.76-12.72s.71-6.25-6.74-1.35l-4.32,3.17Z"/><path class="cls-2" d="M89.7,136.47c3.08-8.38,7.7-10.49,8.12-10.66l.69-.38,4.34-3.18c2.41-1.59,4.27-2.21,5.53-1.84,1.92.57,1.64,3.21,1.63,3.32v.11L89.49,137Zm18.38-15.63c-1.06-.31-2.72.27-4.93,1.71l-4.36,3.21-.76.41,0,0s-4.48,1.9-7.54,9.73l19-12.24C109.49,123.2,109.51,121.26,108.08,120.84Z"/><path class="cls-5" d="M102.76,117.24c.61-3.27-6.48-2.72-6.48-2.72-2.12,3.1-3,6.36-2.32,8.38a4,4,0,0,0,2.16,2.44,7.69,7.69,0,0,0,2.23-1.43,5.85,5.85,0,0,1-.57,3.06s-.08,1.44,2.35.11a8.53,8.53,0,0,0,3.44-4.2A8.67,8.67,0,0,1,102.76,117.24Z"/><path class="cls-2" d="M98,127.81a.8.8,0,0,1-.54-.8l0-.08a5.8,5.8,0,0,0,.57-2.52,7.71,7.71,0,0,1-1.91,1.13l-.13,0-.11,0A4.13,4.13,0,0,1,93.69,123c-.75-2.06.15-5.34,2.35-8.56l.1-.14.18,0a18,18,0,0,1,3.54.14c2.35.38,3.45,1.34,3.18,2.79a8.52,8.52,0,0,0,.79,5.52l0,.07,0,.08a8.72,8.72,0,0,1-3.6,4.36,5,5,0,0,1-1.43.58A1.63,1.63,0,0,1,98,127.81Zm4.44-10.55c.51-2.72-5-2.58-6.06-2.53-2,3.06-2.89,6.14-2.19,8.06a3.82,3.82,0,0,0,2,2.3,7.73,7.73,0,0,0,2-1.31l.41-.36.05.41a6,6,0,0,1-.56,3.13.45.45,0,0,0,.3.43,2.59,2.59,0,0,0,1.65-.49,8.17,8.17,0,0,0,3.26-4A8.86,8.86,0,0,1,102.48,117.26Z"/><path class="cls-2" d="M95.31,123.81l.36-.15a2.9,2.9,0,0,0,1.26-1.1l-.51-.09a1.66,1.66,0,0,1-.55.59V121.8l-.56.1Z"/><path class="cls-2" d="M98.54,124a11.65,11.65,0,0,0,1.19-1.39l-.46-.16a13,13,0,0,1-1.12,1.32Z"/><path class="cls-5" d="M98.92,117.15a18.74,18.74,0,0,1-6.22,3.08,13.59,13.59,0,0,1,4.58-7.59c3.18-2.68,6.71-3.74,7.48-1a8,8,0,0,1-.71,4.29,8.73,8.73,0,0,0-.82,2.94,1.7,1.7,0,0,1-1.24.8,5.12,5.12,0,0,1,.13-2.66s.34-1.13-.77-.67-.84,2.34-.84,2.34l-.67.43s-.9-.44-.58-1.83C99.31,117.06,99.14,117,98.92,117.15Z"/><path class="cls-2" d="M102,119.89l-.21,0,0-.15a5.31,5.31,0,0,1,.14-2.75c.05-.18.07-.47,0-.54s-.27,0-.37.06c-.72.3-.7,1.63-.64,2.07l0,.14-1,.64-.15-.07a1.65,1.65,0,0,1-.7-1.93,18.91,18.91,0,0,1-6.26,3.07l-.31.06,0-.25a13.66,13.66,0,0,1,4.67-7.76c2.14-1.8,4.34-2.8,5.88-2.68a2.18,2.18,0,0,1,2,1.72,8.21,8.21,0,0,1-.71,4.41,8.07,8.07,0,0,0-.81,2.85v0l0,.06a2,2,0,0,1-1.36,1Zm1.83-4a7.8,7.8,0,0,0,.69-4.18,1.8,1.8,0,0,0-1.69-1.46c-1.35-.11-3.34.83-5.33,2.5A13.64,13.64,0,0,0,93,119.94,19.41,19.41,0,0,0,98.76,117h0a.7.7,0,0,1,.58-.14.31.31,0,0,1,.19.41,1.45,1.45,0,0,0,.37,1.55l.32-.2c0-.5-.09-2,1.06-2.48a1,1,0,0,1,.91-.06c.4.23.23.86.2.94a4.88,4.88,0,0,0-.16,2.38,1.33,1.33,0,0,0,.72-.53A8.57,8.57,0,0,1,103.79,115.91Z"/><path class="cls-2" d="M96.83,120.47c0,.27.24.33.54.14a1.16,1.16,0,0,0,.54-.83c0-.27-.24-.33-.54-.14A1.18,1.18,0,0,0,96.83,120.47Z"/><path class="cls-2" d="M94,122.29c0,.27.24.33.54.14a1.16,1.16,0,0,0,.54-.83c0-.27-.24-.33-.54-.14A1.16,1.16,0,0,0,94,122.29Z"/><path class="cls-2" d="M101.4,118.81a1.67,1.67,0,0,0,.83-1.2l-.56.11.28,0-.28,0s0,.4-.58.8Z"/><path class="cls-2" d="M101.12,117.64l.55-.2a.55.55,0,0,0-.44-.37,1.16,1.16,0,0,0-.79.19l.25.35a.53.53,0,0,1,.29-.1A.23.23,0,0,1,101.12,117.64Z"/><path class="cls-2" d="M94.83,119.63a8.81,8.81,0,0,1,2-3.9l-.41-.22a9.16,9.16,0,0,0-2.2,4.17Z"/><path class="cls-2" d="M103.71,114.14c.47-1.71-.35-2-.44-2l-.31.42s.58.23.2,1.62Z"/><path class="cls-2" d="M100.8,127.42l.5-.44.38.25-.52.46Zm.9-.81c.27-.26.53-.52.77-.77l.41.22c-.25.26-.51.52-.79.79Zm1.13-1.16c.25-.27.48-.54.69-.8l.45.17c-.22.27-.46.55-.71.83Zm1-1.22c.21-.27.41-.55.6-.83l.48.13-.62.87Zm.87-1.25c.18-.29.35-.58.5-.87l.51.09c-.16.29-.33.59-.52.89Zm.71-1.3a7.12,7.12,0,0,0,.36-.86h.54a5.2,5.2,0,0,1-.38.93Z"/><path class="cls-1" d="M128.53,139.37,162,116.66a4.08,4.08,0,0,0,1.79-3l1.38-40.28c0-1-2.18-1.23-3.17-.6L127.31,95.11a4.1,4.1,0,0,0-1.78,3v40.17C125.53,139.31,127.55,140,128.53,139.37Z"/><path class="cls-1" d="M126.73,139.8c-.78-.2-1.57-.72-1.57-1.44V98.18a4.42,4.42,0,0,1,2-3.28l34.69-22.33a3.58,3.58,0,0,1,2.6-.34c.71.18,1.11.58,1.11,1.08l-1.38,40.28a4.39,4.39,0,0,1-2,3.27l-33.48,22.71h0a2.11,2.11,0,0,1-.71.28A2.91,2.91,0,0,1,126.73,139.8Zm35.09-23.35a3.73,3.73,0,0,0,1.6-2.73l1.38-40.27c0-.42-.52-.6-.75-.65a2.67,2.67,0,0,0-1.86.19l-34.7,22.33a3.76,3.76,0,0,0-1.6,2.72v40.17c0,.43.5.85,1.2,1a1.65,1.65,0,0,0,1.25-.08Z"/><path class="cls-5" d="M128.74,139.25l34.69-22.33a4.08,4.08,0,0,0,1.78-3V73.75c0-1-.8-1.34-1.78-.71L128.74,95.37a4.08,4.08,0,0,0-1.79,3v40.18C127,139.57,127.75,139.88,128.74,139.25Z"/><path class="cls-1" d="M127.39,139.83a1.12,1.12,0,0,1-.8-1.21V98.44a4.41,4.41,0,0,1,2-3.28l34.7-22.33a2,2,0,0,1,1.53-.37,1.14,1.14,0,0,1,.79,1.22v40.17a4.41,4.41,0,0,1-2,3.28l-34.69,22.33a2.68,2.68,0,0,1-.89.38A1.52,1.52,0,0,1,127.39,139.83Zm36.22-66.58L128.92,95.58a3.75,3.75,0,0,0-1.6,2.72v40.18c0,.42.16.72.43.79a1.11,1.11,0,0,0,.8-.23l34.7-22.33a3.76,3.76,0,0,0,1.6-2.72V73.82c0-.43-.17-.72-.44-.79a.66.66,0,0,0-.28,0A1.87,1.87,0,0,0,163.61,73.25Z"/><polygon class="cls-2" points="127.38 96.86 127.6 96.54 126.26 96.15 126.04 96.47 127.38 96.86"/><polygon class="cls-2" points="162.37 73.87 162.59 73.55 161.25 73.16 161.03 73.48 162.37 73.87"/><polygon class="cls-2" points="126.71 138.21 126.93 137.89 125.59 137.5 125.37 137.82 126.71 138.21"/><path class="cls-2" d="M134.14,123.85l-.46,1.15a.78.78,0,0,1-.23.29l-1,.8c-.25.19-.35.53-.17.57l.75.17c.07,0,.1.09.09.19l-.18,1c0,.25.22.25.44,0l.92-1a.5.5,0,0,1,.28-.18l.93-.16c.22,0,.48-.37.43-.56l-.17-.82a.38.38,0,0,1,.08-.29l.75-1.14c.18-.27.08-.48-.16-.36l-1,.54a.19.19,0,0,1-.23,0l-.46-.54C134.57,123.38,134.25,123.58,134.14,123.85Z"/><path class="cls-2" d="M133,128.36a.22.22,0,0,1-.18-.29l.18-1c0-.06,0-.09,0-.09l-.75-.17a.2.2,0,0,1-.16-.19.77.77,0,0,1,.31-.56l1-.8a.8.8,0,0,0,.18-.23l.46-1.15a.82.82,0,0,1,.51-.47.27.27,0,0,1,.28.06l.47.55,0,0,1-.53a.35.35,0,0,1,.37,0c.12.08.11.28,0,.49l-.75,1.14a.35.35,0,0,0-.07.22l.18.81a.61.61,0,0,1-.2.49.65.65,0,0,1-.38.23l-.92.16a.32.32,0,0,0-.17.12l-.93,1a.67.67,0,0,1-.38.24Zm1.61-1.62.92-.16a.27.27,0,0,0,.16-.11.43.43,0,0,0,.14-.3l-.18-.81a.5.5,0,0,1,.1-.37l.75-1.15c.1-.15.08-.24.06-.24h0l-1,.54a.34.34,0,0,1-.4,0l-.47-.55-.05,0a.58.58,0,0,0-.22.26l-.47,1.15a.9.9,0,0,1-.27.35l-1,.8a.49.49,0,0,0-.2.35s0,0,0,0l.75.18a.21.21,0,0,1,.16.27l-.18,1.05c0,.06,0,.08,0,.08s.09,0,.18-.12l.93-1a.72.72,0,0,1,.38-.24Z"/><path class="cls-2" d="M151.72,112.36l-.46,1.14a.65.65,0,0,1-.23.29l-1,.8c-.25.19-.35.53-.17.57l.75.18c.07,0,.1.08.09.18l-.18,1c0,.25.21.25.43,0l.93-1a.56.56,0,0,1,.28-.18l.93-.16c.22,0,.48-.37.43-.56l-.17-.82a.4.4,0,0,1,.08-.29l.75-1.14c.18-.27.08-.48-.16-.35l-1,.53c-.1,0-.18,0-.23,0l-.46-.55C152.15,111.88,151.83,112.08,151.72,112.36Z"/><path class="cls-2" d="M150.53,116.86a.22.22,0,0,1-.18-.29l.18-1c0-.06,0-.08,0-.09l-.75-.17a.2.2,0,0,1-.16-.19.79.79,0,0,1,.31-.56l1-.8a.8.8,0,0,0,.18-.23l.46-1.14a.86.86,0,0,1,.51-.48.27.27,0,0,1,.28.06l.47.55s0,0,.05,0l1-.53a.36.36,0,0,1,.37,0c.12.08.11.28,0,.49l-.75,1.14a.3.3,0,0,0-.06.22l.17.81a.64.64,0,0,1-.2.5.66.66,0,0,1-.37.22h0l-.92.16a.44.44,0,0,0-.17.12l-.93,1a.65.65,0,0,1-.38.23Zm1.61-1.62.92-.16a.25.25,0,0,0,.16-.11.41.41,0,0,0,.14-.3l-.18-.81a.51.51,0,0,1,.1-.37l.75-1.14c.1-.15.08-.24.06-.25l-.05,0-1,.53c-.16.08-.32.08-.4,0l-.47-.55,0,0a.56.56,0,0,0-.22.27l-.47,1.14a.83.83,0,0,1-.27.35l-1,.81a.48.48,0,0,0-.2.34s0,0,0,0l.75.18a.22.22,0,0,1,.16.28l-.18,1a.13.13,0,0,0,0,.09.38.38,0,0,0,.18-.12l.93-1a.72.72,0,0,1,.38-.24Z"/><path class="cls-2" d="M145.81,116.16l-.46,1.14a.74.74,0,0,1-.23.3l-1,.8c-.25.19-.35.52-.17.57l.75.17c.07,0,.1.09.09.18l-.18,1.05c0,.24.22.25.44,0l.92-1a.53.53,0,0,1,.28-.17l.93-.16c.22,0,.48-.37.43-.57l-.17-.81a.41.41,0,0,1,.08-.3l.75-1.14c.18-.27.08-.48-.16-.35l-1,.53c-.1,0-.18,0-.23,0l-.46-.55C146.24,115.68,145.92,115.89,145.81,116.16Z"/><path class="cls-2" d="M144.62,120.66a.21.21,0,0,1-.18-.28l.18-1c0-.06,0-.09,0-.09l-.75-.18a.2.2,0,0,1-.16-.18.75.75,0,0,1,.31-.56l1-.81a.6.6,0,0,0,.18-.23l.46-1.14a.82.82,0,0,1,.51-.47.23.23,0,0,1,.28.06l.47.54s0,0,.05,0l1-.53a.38.38,0,0,1,.37,0c.12.09.11.29,0,.5l-.75,1.14a.27.27,0,0,0-.06.21l.17.82a.62.62,0,0,1-.2.49.74.74,0,0,1-.37.23h0l-.92.16a.35.35,0,0,0-.17.11l-.93,1a.72.72,0,0,1-.38.24A.24.24,0,0,1,144.62,120.66Zm1.61-1.61.92-.16a.35.35,0,0,0,.16-.11.43.43,0,0,0,.14-.3l-.18-.82a.52.52,0,0,1,.1-.37l.75-1.14c.1-.15.08-.24.06-.25l-.05,0-1,.53a.32.32,0,0,1-.4,0l-.47-.55h-.05a.62.62,0,0,0-.22.27l-.47,1.14a.93.93,0,0,1-.27.36l-1,.8a.48.48,0,0,0-.2.35.05.05,0,0,0,0,0l.75.17a.22.22,0,0,1,.16.28l-.18,1c0,.07,0,.09,0,.09a.31.31,0,0,0,.18-.12l.93-1a.67.67,0,0,1,.38-.24Z"/><path class="cls-2" d="M139.9,120l-.46,1.15a.78.78,0,0,1-.23.29l-1,.8c-.25.19-.35.53-.17.57l.75.17c.07,0,.1.09.09.19l-.18,1c0,.25.22.25.44,0l.92-1a.5.5,0,0,1,.28-.18l.93-.16c.22,0,.48-.37.43-.56l-.17-.82a.39.39,0,0,1,.08-.29l.75-1.14c.18-.27.08-.48-.16-.36l-1,.54a.19.19,0,0,1-.23,0l-.46-.54C140.33,119.49,140,119.69,139.9,120Z"/><path class="cls-2" d="M138.71,124.47a.22.22,0,0,1-.18-.29l.18-1c0-.06,0-.09,0-.09l-.75-.17a.2.2,0,0,1-.16-.19.77.77,0,0,1,.31-.56l1-.8a.8.8,0,0,0,.18-.23l.46-1.15a.82.82,0,0,1,.51-.47.27.27,0,0,1,.28.06l.47.55.05,0,1-.53a.35.35,0,0,1,.37,0c.12.08.11.28,0,.49l-.75,1.14a.37.37,0,0,0-.07.22l.18.81a.61.61,0,0,1-.2.49.64.64,0,0,1-.38.23l-.92.16a.44.44,0,0,0-.17.12l-.93,1a.67.67,0,0,1-.38.24Zm1.61-1.62.92-.16a.37.37,0,0,0,.16-.11.43.43,0,0,0,.14-.3l-.18-.81a.5.5,0,0,1,.1-.37l.75-1.14c.1-.15.08-.24.06-.25h-.05l-1,.54a.34.34,0,0,1-.4,0l-.47-.55-.05,0a.53.53,0,0,0-.22.26l-.47,1.15a.83.83,0,0,1-.27.35l-1,.8a.49.49,0,0,0-.2.35s0,0,0,0l.75.18a.21.21,0,0,1,.16.27l-.18,1c0,.06,0,.08,0,.08s.09,0,.18-.12l.93-1a.72.72,0,0,1,.38-.24Z"/><path class="cls-2" d="M156.56,113.09c-.14,0-.2-.13-.18-.29l.18-1c0-.06,0-.09,0-.09l-.75-.17a.2.2,0,0,1-.16-.19.77.77,0,0,1,.31-.56l1-.8a.66.66,0,0,0,.18-.23l.46-1.15a.82.82,0,0,1,.51-.47.27.27,0,0,1,.28.06l.47.55s0,0,.05,0l1-.54a.35.35,0,0,1,.37,0c.12.08.11.28,0,.49l-.75,1.14a.3.3,0,0,0-.06.22l.17.81a.61.61,0,0,1-.2.49.76.76,0,0,1-.36.23h0l-.92.16a.53.53,0,0,0-.17.12l-.93,1a.67.67,0,0,1-.38.24Zm1.61-1.62.92-.16a.32.32,0,0,0,.16-.11.43.43,0,0,0,.14-.3l-.18-.81a.55.55,0,0,1,.1-.37l.75-1.14c.1-.15.08-.24.06-.25l-.05,0-1,.53a.34.34,0,0,1-.4,0l-.47-.55,0,0a.58.58,0,0,0-.22.26l-.47,1.15a.83.83,0,0,1-.27.35l-1,.8a.51.51,0,0,0-.2.35s0,0,0,0l.75.18c.12,0,.18.13.16.28l-.18,1c0,.06,0,.08,0,.08s.09,0,.18-.12l.93-1a.72.72,0,0,1,.38-.24Z"/><path class="cls-5" d="M139.56,128.42l13-8.39a2,2,0,0,0,.88-1.48h0c0-.51-.39-.67-.88-.35l-13,8.39a2,2,0,0,0-.88,1.48h0C138.68,128.58,139.07,128.74,139.56,128.42Z"/><path class="cls-2" d="M138.84,128.79a.63.63,0,0,1-.44-.66,2.3,2.3,0,0,1,1-1.7l13-8.39a1.13,1.13,0,0,1,.86-.21.63.63,0,0,1,.44.66,2.26,2.26,0,0,1-1,1.7l-13,8.39a1.37,1.37,0,0,1-.49.21A.77.77,0,0,1,138.84,128.79Zm13.9-10.43-13,8.39A1.75,1.75,0,0,0,139,128c0,.22.08.31.16.33a.4.4,0,0,0,.3-.09l13-8.39a1.75,1.75,0,0,0,.74-1.27c0-.22-.08-.31-.16-.33H153A.67.67,0,0,0,152.74,118.36Z"/><path class="cls-5" d="M135.37,119.81,156.79,106a7.35,7.35,0,0,0,3.21-5.41V82.25c0-1.84-1.44-2.41-3.21-1.27L135.37,94.77a7.34,7.34,0,0,0-3.21,5.4v18.37C132.16,120.39,133.6,121,135.37,119.81Z"/><path class="cls-2" d="M133.13,120.57a1.82,1.82,0,0,1-1.25-2V100.23a7.65,7.65,0,0,1,3.35-5.62l21.42-13.79a3.16,3.16,0,0,1,2.38-.59,1.81,1.81,0,0,1,1.25,2v18.37a7.65,7.65,0,0,1-3.35,5.62L135.51,120a4.05,4.05,0,0,1-1.41.61A2.25,2.25,0,0,1,133.13,120.57Zm23.52-14.7a7.06,7.06,0,0,0,3.07-5.19V82.31c0-.89-.35-1.49-1-1.65a2.42,2.42,0,0,0-1.82.49L135.51,94.93a7.06,7.06,0,0,0-3.07,5.19v18.37c0,.89.35,1.49,1,1.65a2.46,2.46,0,0,0,1.82-.49Z"/><path class="cls-2" d="M134.34,118.63a1.1,1.1,0,0,1-.78-1.19V99.23a4.46,4.46,0,0,1,2-3.31l20.81-13.39a1.93,1.93,0,0,1,1.48-.36,1.1,1.1,0,0,1,.77,1.19v18.21a4.44,4.44,0,0,1-2,3.3l-20.81,13.4a2.77,2.77,0,0,1-.87.37A1.38,1.38,0,0,1,134.34,118.63Zm22.29-35.78-20.81,13.4a3.88,3.88,0,0,0-1.7,2.87v18.21c0,.47.18.79.5.87a1.28,1.28,0,0,0,.92-.26l20.81-13.39a3.9,3.9,0,0,0,1.69-2.87V83.47c0-.47-.18-.79-.49-.87a.62.62,0,0,0-.33,0A1.75,1.75,0,0,0,156.63,82.85Z"/><path class="cls-5" d="M150.92,93.89s1.89,1.18,1.11,9.46-7.43,1.47-7.43,1.47l3.81-9.8Z"/><path class="cls-2" d="M144.37,105l-.07-.07,3.89-10L151,93.63l.12.07c.08,0,2,1.32,1.19,9.61-.22,2.35-.92,3.72-2.14,4.2a3.31,3.31,0,0,1-.42.12C147.47,108.07,144.7,105.31,144.37,105Zm4.26-9.83-3.72,9.57c1,1,3.51,3,5.12,2.39.93-.36,1.52-1.65,1.72-3.73.65-6.9-.58-8.81-.94-9.21Z"/><path class="cls-5" d="M148.11,104.73s4.79-4.25,7.94.26l-19.76,12.72s-.7-5.34,6.74-10l4.32-2.39Z"/><path class="cls-2" d="M136,117.79c0-.06-.63-5.54,6.9-10.28l4.28-2.37.75-.55a8,8,0,0,1,4.4-1.9,4.49,4.49,0,0,1,4,2.16l.11.16-20.36,13.1Zm16.23-14.65a7.3,7.3,0,0,0-3.94,1.72l-.83.61-4.31,2.38c-6.11,3.85-6.6,8.2-6.6,9.44L155.69,105A4,4,0,0,0,152.24,103.14Z"/><path class="cls-5" d="M143.49,102.31c-.57-2.35,6.11-10.43,6.11-10.43,2,.35,2.88,2.29,2.18,5.09a18.24,18.24,0,0,1-2,4.91,7.87,7.87,0,0,1-2.1,1.36s-.19,1.66.54,2.19c0,0,.07,1.26-2.22,3s-3.24.22-3.24.22S144.06,104.65,143.49,102.31Z"/><path class="cls-2" d="M143.87,109.43a1.71,1.71,0,0,1-1.4-.69l0-.06,0-.08s1.31-3.93.75-6.2h0c-.58-2.41,5.89-10.28,6.17-10.61l.14-.17.2,0c2.16.38,3.05,2.41,2.34,5.3a19,19,0,0,1-2.06,5l-.06.07a8.68,8.68,0,0,1-2,1.34c0,.52,0,1.55.48,1.9l.06,0v.07c0,.06.05,1.4-2.34,3.17a4.39,4.39,0,0,1-1.74.84A2.35,2.35,0,0,1,143.87,109.43Zm3.5-6.16,0-.16.19-.07a7.54,7.54,0,0,0,1.95-1.25,18.53,18.53,0,0,0,2-4.81c.64-2.57-.06-4.41-1.83-4.84-1,1.18-6.41,8-5.91,10.08h0c.53,2.19-.55,5.69-.75,6.3a1.32,1.32,0,0,0,1,.46,3.1,3.1,0,0,0,1.79-.74c1.86-1.38,2.07-2.42,2.09-2.68C147.19,104.94,147.37,103.34,147.37,103.27Z"/><path class="cls-5" d="M140.92,101.7l.3-.47c-.36-1.59-.25-3.73,2.12-6.62,3.74-4.57,7-4.93,7.52-4,0,0,1.26-1,2.06-.61a1,1,0,0,1,.46.9,7.54,7.54,0,0,1-1.36,3.7s0-1.5-1.77-.78c0,0-.5,2.62-4,5.78,0,0-.73-.37-1.84.8a1.3,1.3,0,0,0,0,2s.5.89-.93,2.8l-.61,3.55s-3.33,3.34-4.85,2.82S140.92,101.7,140.92,101.7Z"/><path class="cls-2" d="M137.89,111.83c-1.62-.55,2-8.56,2.77-10.16l.27-.42c-.47-2.19.22-4.33,2.18-6.73,3.27-4,5.86-4.48,6.57-4.53a1.67,1.67,0,0,1,1.28.3c.47-.3,1.43-.82,2.14-.47a1.13,1.13,0,0,1,.56,1.05,7.74,7.74,0,0,1-1.4,3.81l-.52.86v-.86a.91.91,0,0,0-.45-.77,1.27,1.27,0,0,0-.8.06c-.16.62-1,3-4,5.78l-.19.17-.19-.1s-.53-.25-1.44.7a1.12,1.12,0,0,0,0,1.75l0,0s.53,1-.92,3l-.62,3.57-.06.06c-.3.31-2.65,2.61-4.37,3A1.69,1.69,0,0,1,137.89,111.83Zm5.35-6.61,0,0c1.2-1.6,1-2.43.91-2.57a1.47,1.47,0,0,1,.05-2.29,2.36,2.36,0,0,1,2-1c3.22-3,3.73-5.48,3.73-5.5l0-.15.17-.07a2,2,0,0,1,1.46-.14,1,1,0,0,1,.5.44,6.5,6.5,0,0,0,1-3,.82.82,0,0,0-.37-.76c-.61-.3-1.69.54-1.7.55l-.3.23-.13-.25c-.13-.24-.49-.36-1-.32-1.32.1-3.59,1.28-6,4.27s-2.36,5.13-2.06,6.44l0,.08-.34.53c-2.12,4.53-3.8,9.37-3,9.66,1,.35,3.54-1.79,4.42-2.66Z"/><path class="cls-2" d="M150.52,93.82c.09-.41,0-.67-.26-.76-.44-.15-1.12.3-1.26.39l.3.31a1.29,1.29,0,0,1,.65-.27s.08.09,0,.36Z"/><path class="cls-2" d="M141.18,101.74a1.1,1.1,0,0,1,.87-.67l.11-.45a1.89,1.89,0,0,0-1.49,1Z"/><path class="cls-2" d="M144.93,102.81a3.26,3.26,0,0,0,1.07-.53l-.34-.29a1.87,1.87,0,0,1-.8.39.21.21,0,0,1-.17-.08l-.49.3a.65.65,0,0,0,.54.23Z"/><path class="cls-2" d="M149.68,100a1.83,1.83,0,0,0,.73-.34l.12-.09V97.89L150,98v1.4c-.13.08-.31.16-.39.12l-.4.38A.66.66,0,0,0,149.68,100Z"/><path class="cls-2" d="M142.89,111l.16-.44a3.39,3.39,0,0,0,1-.14l.06.42-.41.1A3.26,3.26,0,0,1,142.89,111Zm1.66-.76a7,7,0,0,0,1-.5l.26.33a7,7,0,0,1-1.09.56Zm-2.92.32.45-.35a1.35,1.35,0,0,0,.53.28l-.3.43A1.93,1.93,0,0,1,141.63,110.54Zm4.36-1.13a8.63,8.63,0,0,0,.84-.68l.38.25a8.93,8.93,0,0,1-.91.74Zm1.23-1a8.3,8.3,0,0,0,.69-.76l0,0,.43.2c-.23.28-.48.55-.73.81Zm1-1.18a7.29,7.29,0,0,0,.54-.83l.5.09a8.4,8.4,0,0,1-.58.89Zm.76-1.26a4.5,4.5,0,0,0,.29-.85l.55,0a4.75,4.75,0,0,1-.32.94Zm.35-1.27v-.15a1.45,1.45,0,0,0-.1-.6l.26-.13-.26.13.52-.26a1.73,1.73,0,0,1,.14.75v.17Z"/><path class="cls-2" d="M148.19,98.8A2.57,2.57,0,0,1,149.6,98l.09-.44a3.2,3.2,0,0,0-1.91,1Z"/><path class="cls-2" d="M151.06,97.43c.24-.24.37-.3.42-.29a.11.11,0,0,1,.08,0l.45-.35a.61.61,0,0,0-.49-.1,1.57,1.57,0,0,0-.87.51Z"/><path class="cls-2" d="M147.39,103.52l.3-.07-.07-.42a3.37,3.37,0,0,1-1,.11l-.18.44A3.63,3.63,0,0,0,147.39,103.52Z"/><path class="cls-5" d="M143.9,96.71l0,0c.08.16.34.13.59-.08l1.64-1.37a1.08,1.08,0,0,0,.41-.71h0c0-.29-.29-.32-.6-.07l-1.66,1.33C144,96.1,143.8,96.51,143.9,96.71Z"/><path class="cls-2" d="M144,97.08a.42.42,0,0,1-.37-.21v0c-.14-.29.08-.8.49-1.13l1.65-1.33a1,1,0,0,1,.74-.25.38.38,0,0,1,.32.4,1.36,1.36,0,0,1-.51.91l-1.64,1.36a1.13,1.13,0,0,1-.51.26Zm2.11-2.42L144.47,96c-.23.18-.36.49-.3.6v0a.38.38,0,0,0,.16-.1L146,95.17a.83.83,0,0,0,.31-.53.35.35,0,0,0,0-.07A.56.56,0,0,0,146.13,94.66Z"/><path class="cls-1" d="M196.94,88.33l33.47-22.71a4.07,4.07,0,0,0,1.79-3l1.38-40.28c0-1-2.18-1.23-3.17-.6L195.72,44.07a4.1,4.1,0,0,0-1.78,3V87.24C193.94,88.27,196,89,196.94,88.33Z"/><path class="cls-1" d="M195.14,88.76c-.78-.19-1.56-.72-1.56-1.44V47.14a4.41,4.41,0,0,1,2-3.28l34.69-22.33a3.58,3.58,0,0,1,2.6-.34c.71.19,1.11.58,1.11,1.08l-1.38,40.28a4.39,4.39,0,0,1-1.95,3.27L197.13,88.53h0a2.11,2.11,0,0,1-.71.28A2.91,2.91,0,0,1,195.14,88.76Zm35.09-23.35a3.73,3.73,0,0,0,1.6-2.73l1.38-40.27c0-.42-.52-.6-.75-.65a2.67,2.67,0,0,0-1.86.19L195.9,44.28A3.76,3.76,0,0,0,194.3,47V87.17c0,.43.5.85,1.2,1a1.68,1.68,0,0,0,1.26-.08Z"/><path class="cls-5" d="M197.15,88.21l34.69-22.33a4.07,4.07,0,0,0,1.78-3V22.71c0-1-.8-1.34-1.78-.71L197.15,44.33a4.08,4.08,0,0,0-1.79,3V87.51C195.36,88.53,196.16,88.84,197.15,88.21Z"/><path class="cls-1" d="M195.8,88.79a1.12,1.12,0,0,1-.8-1.21V47.4a4.41,4.41,0,0,1,2-3.28l34.7-22.33a2,2,0,0,1,1.53-.37,1.14,1.14,0,0,1,.79,1.22V62.81a4.41,4.41,0,0,1-2,3.28L197.33,88.42a2.68,2.68,0,0,1-.89.38A1.52,1.52,0,0,1,195.8,88.79ZM232,22.22,197.33,44.54a3.75,3.75,0,0,0-1.6,2.72V87.44c0,.42.16.72.43.79A1.11,1.11,0,0,0,197,88l34.7-22.33a3.76,3.76,0,0,0,1.6-2.72V22.78c0-.43-.17-.72-.44-.79a.66.66,0,0,0-.28,0A1.64,1.64,0,0,0,232,22.22Z"/><polygon class="cls-2" points="195.79 45.82 196.01 45.5 194.67 45.11 194.45 45.43 195.79 45.82"/><polygon class="cls-2" points="230.78 22.83 231 22.51 229.66 22.12 229.44 22.44 230.78 22.83"/><polygon class="cls-7" points="195.12 87.17 195.34 86.85 194 86.46 193.78 86.78 195.12 87.17"/><path class="cls-5" d="M203.78,68.71,225.2,54.92a7.31,7.31,0,0,0,3.21-5.4V31.15c0-1.84-1.43-2.41-3.21-1.27L203.78,43.66a7.38,7.38,0,0,0-3.21,5.41V67.44C200.57,69.28,202,69.85,203.78,68.71Z"/><path class="cls-2" d="M201.54,69.46a1.82,1.82,0,0,1-1.25-2V49.13a7.66,7.66,0,0,1,3.35-5.63l21.42-13.78a3.13,3.13,0,0,1,2.38-.6,1.83,1.83,0,0,1,1.25,2V49.46a7.66,7.66,0,0,1-3.35,5.63L203.92,68.87a4.16,4.16,0,0,1-1.41.61A2.24,2.24,0,0,1,201.54,69.46ZM225.34,30,203.92,43.83A7.06,7.06,0,0,0,200.85,49V67.39c0,.88.35,1.48,1,1.64a2.41,2.41,0,0,0,1.82-.48l21.42-13.79a7,7,0,0,0,3.07-5.19V31.2c0-.88-.35-1.49-1-1.64a1.41,1.41,0,0,0-.68,0A3.53,3.53,0,0,0,225.34,30Z"/><path class="cls-2" d="M202.75,67.53a1.11,1.11,0,0,1-.78-1.2V48.12a4.42,4.42,0,0,1,2-3.3l20.81-13.39a1.91,1.91,0,0,1,1.48-.37,1.11,1.11,0,0,1,.77,1.2V50.47a4.41,4.41,0,0,1-2,3.3L204.23,67.16a2.37,2.37,0,0,1-.87.37A1.39,1.39,0,0,1,202.75,67.53Zm22-14.08a3.92,3.92,0,0,0,1.69-2.88V32.37c0-.48-.18-.79-.49-.87a1.27,1.27,0,0,0-.92.25L204.23,45.14a3.9,3.9,0,0,0-1.7,2.87V66.22c0,.48.18.79.5.87a1.27,1.27,0,0,0,.92-.25Z"/><path class="cls-5" d="M216,53.94s4.79-4.26,8,.25L204.22,66.91s-.7-5.34,6.74-10l4.32-2.39Z"/><path class="cls-2" d="M203.94,67s-.63-5.54,6.9-10.28l4.28-2.36.75-.55a8,8,0,0,1,4.41-1.9,4.46,4.46,0,0,1,4,2.15l.11.16L204,67.32Zm16.23-14.64a7.41,7.41,0,0,0-3.94,1.71l-.83.61-4.3,2.38c-6.12,3.85-6.61,8.2-6.61,9.44l19.13-12.31A4,4,0,0,0,220.17,52.35Z"/><path class="cls-5" d="M211.42,51.51c-.57-2.34,6.11-10.43,6.11-10.43,2,.36,2.88,2.3,2.18,5.1a18.5,18.5,0,0,1-2,4.91,8,8,0,0,1-2.1,1.35s-.19,1.67.54,2.2c0,0,.07,1.26-2.22,3s-3.24.22-3.24.22S212,53.86,211.42,51.51Z"/><path class="cls-2" d="M211.8,58.63a1.72,1.72,0,0,1-1.4-.68l0-.07,0-.08s1.31-3.92.76-6.19S217,41.33,217.31,41l.14-.17.2,0c2.16.39,3,2.42,2.34,5.31a18.91,18.91,0,0,1-2.06,5l-.06.07a8.24,8.24,0,0,1-2,1.35c0,.52,0,1.55.48,1.9l.06,0v.07c0,.06,0,1.4-2.34,3.17a4.43,4.43,0,0,1-1.74.85A2.32,2.32,0,0,1,211.8,58.63Zm3.5-6.15,0-.16.19-.08a7.4,7.4,0,0,0,2-1.24,18.47,18.47,0,0,0,2-4.81c.64-2.58-.06-4.41-1.83-4.85-1,1.18-6.41,8-5.91,10.08h0c.53,2.2-.54,5.69-.74,6.31a1.31,1.31,0,0,0,1,.45,3.05,3.05,0,0,0,1.79-.73c1.86-1.38,2.07-2.42,2.1-2.68C215.12,54.14,215.3,52.55,215.3,52.48Z"/><path class="cls-5" d="M208.86,50.9h0c-.37-1.59,0-4.19,2.41-7.08,3.74-4.58,7-4.94,7.52-4,0,0,1.26-1,2.06-.6a1,1,0,0,1,.46.9,7.61,7.61,0,0,1-1.36,3.7s0-1.51-1.77-.79c0,0-.5,2.62-4,5.79,0,0-.73-.37-1.83.79a1.29,1.29,0,0,0,0,2s.5.89-.94,2.81l-.26.79s0-.8-1.49-1.32S208.86,50.9,208.86,50.9Z"/><path class="cls-2" d="M210.9,55.31s0-.71-1.37-1.17c-1.55-.53-1.05-2.82-1-3.19-.18-.83-.47-3.62,2.47-7.22,3.27-4,5.86-4.49,6.57-4.54a1.71,1.71,0,0,1,1.28.31c.47-.31,1.43-.83,2.15-.47a1.09,1.09,0,0,1,.55,1,7.69,7.69,0,0,1-1.39,3.81l-.52.87v-.87s0-.59-.45-.76a1.2,1.2,0,0,0-.8.05c-.16.62-.95,3-4,5.78l-.19.17L214,49s-.53-.26-1.44.7a1.12,1.12,0,0,0,0,1.75l0,0s.53,1-.94,3L210.9,57Zm1.27-5.79a2.3,2.3,0,0,1,2-1c3.22-3,3.73-5.48,3.73-5.51l0-.14.18-.07a1.91,1.91,0,0,1,1.45-.14,1,1,0,0,1,.5.44,6.49,6.49,0,0,0,1-3,.81.81,0,0,0-.37-.75c-.61-.31-1.69.53-1.7.54l-.3.24-.13-.25c-.13-.25-.49-.36-1-.32-1.31.1-3.59,1.28-6,4.26-2.86,3.5-2.53,6.18-2.36,6.91v.09s-.63,2.36.72,2.82a2.78,2.78,0,0,1,1.3.79l.06-.13c1.2-1.6,1-2.43.91-2.57A1.48,1.48,0,0,1,212.17,49.52Z"/><path class="cls-2" d="M218.46,43c0-.56-.14-.91-.49-1a1.41,1.41,0,0,0-1,0l.16.39a.76.76,0,0,1,.47,0c.2.08.29.33.27.73Z"/><path class="cls-2" d="M209.11,50.94a1.14,1.14,0,0,1,.87-.66l.11-.45a1.85,1.85,0,0,0-1.49,1Z"/><path class="cls-2" d="M212.86,52a3,3,0,0,0,1.07-.53l-.34-.28a1.86,1.86,0,0,1-.8.38.19.19,0,0,1-.17-.07l-.49.29a.6.6,0,0,0,.54.23Z"/><path class="cls-2" d="M217.61,49.17a2.12,2.12,0,0,0,.74-.35l.11-.08V47.1l-.56.11v1.4c-.13.07-.31.16-.39.11l-.4.39A.77.77,0,0,0,217.61,49.17Z"/><path class="cls-2" d="M210.82,60.19l.16-.45a3.39,3.39,0,0,0,1-.14L212,60l-.41.1A3.25,3.25,0,0,1,210.82,60.19Zm1.66-.77a6.05,6.05,0,0,0,1-.5l.27.34a8.79,8.79,0,0,1-1.1.56Zm-2.89.34a1.54,1.54,0,0,1-.22-.16l.46-.34a1.38,1.38,0,0,0,.18.13,1.35,1.35,0,0,0,.53.28l-.3.43A1.55,1.55,0,0,1,209.59,59.76Zm4.33-1.14a10.54,10.54,0,0,0,.85-.68l.37.25a10.39,10.39,0,0,1-.91.73Zm-5.17-.23.56-.13a1.45,1.45,0,0,0,.25.71l-.5.28A1.61,1.61,0,0,1,208.75,58.39Zm6.4-.82a8.53,8.53,0,0,0,.7-.77l.23.08-.22-.09.43.2c-.23.28-.48.55-.73.8Zm1-1.19a7.29,7.29,0,0,0,.54-.83l.5.09a6.5,6.5,0,0,1-.58.9Zm.76-1.25a4.84,4.84,0,0,0,.29-.86l.55,0a4.18,4.18,0,0,1-.32.94Zm.35-1.27V53.7a1.51,1.51,0,0,0-.1-.6l.26-.13-.26.13.52-.26a1.55,1.55,0,0,1,.15.75c0,.06,0,.12,0,.18Z"/><path class="cls-2" d="M216.12,48a2.45,2.45,0,0,1,1.41-.82l.09-.45a3.15,3.15,0,0,0-1.9,1Z"/><path class="cls-2" d="M219,46.64c.24-.25.38-.3.42-.3h.07l.45-.35a.64.64,0,0,0-.49-.1,1.57,1.57,0,0,0-.86.52Z"/><path class="cls-2" d="M215.32,52.72a2.77,2.77,0,0,0,.3-.07l-.07-.42a3.31,3.31,0,0,1-1,.11l-.18.45A3.58,3.58,0,0,0,215.32,52.72Z"/><path class="cls-2" d="M226,57.44l-.46,1.15a.78.78,0,0,1-.23.29l-1,.8c-.25.19-.35.53-.17.57l.75.17c.07,0,.1.09.09.19l-.18,1c0,.25.22.25.44,0l.92-1a.5.5,0,0,1,.28-.18l.93-.16c.22,0,.48-.37.43-.56l-.17-.82a.38.38,0,0,1,.08-.29l.75-1.14c.18-.27.08-.48-.16-.36l-1,.54a.19.19,0,0,1-.23,0l-.46-.54C226.47,57,226.15,57.17,226,57.44Z"/><path class="cls-2" d="M224.85,62a.22.22,0,0,1-.18-.29l.18-1c0-.06,0-.09,0-.09l-.75-.17a.2.2,0,0,1-.16-.19.77.77,0,0,1,.31-.56l1-.8a.66.66,0,0,0,.18-.23l.46-1.15a.82.82,0,0,1,.51-.47.25.25,0,0,1,.28.06l.47.55s0,0,.05,0l1-.53a.35.35,0,0,1,.37,0c.12.08.11.28,0,.49l-.75,1.14a.3.3,0,0,0-.06.22l.17.81a.61.61,0,0,1-.2.49.65.65,0,0,1-.38.23l-.92.16a.35.35,0,0,0-.17.12l-.93,1a.67.67,0,0,1-.38.24Zm1.61-1.62.92-.16a.37.37,0,0,0,.16-.11.43.43,0,0,0,.14-.3L227.5,59a.5.5,0,0,1,.1-.37l.75-1.15c.1-.14.08-.23.06-.24h0l-1,.54a.34.34,0,0,1-.4,0l-.47-.55,0,0a.58.58,0,0,0-.22.26l-.47,1.15a.9.9,0,0,1-.27.35l-1,.8a.49.49,0,0,0-.2.35s0,0,0,0l.75.17a.23.23,0,0,1,.16.28l-.18,1c0,.06,0,.08,0,.08s.09,0,.18-.12l.93-1a.72.72,0,0,1,.38-.24Z"/><path class="cls-2" d="M220.13,61.25l-.46,1.14a.65.65,0,0,1-.23.29l-1,.81c-.25.19-.35.52-.17.56l.75.18c.07,0,.1.08.09.18l-.18,1c0,.25.22.25.44,0l.92-1a.56.56,0,0,1,.28-.18l.93-.16c.22,0,.48-.37.43-.56l-.17-.81a.41.41,0,0,1,.08-.3l.75-1.14c.18-.27.08-.48-.16-.35l-1,.53c-.1,0-.18,0-.23,0l-.46-.55C220.56,60.77,220.24,61,220.13,61.25Z"/><path class="cls-2" d="M218.94,65.75c-.14,0-.2-.13-.18-.28l.18-1c0-.06,0-.08,0-.08l-.75-.18A.2.2,0,0,1,218,64a.79.79,0,0,1,.31-.56l1-.8a.66.66,0,0,0,.18-.23l.46-1.14a.86.86,0,0,1,.51-.48.27.27,0,0,1,.28.06l.47.55s0,0,.05,0l1-.53a.36.36,0,0,1,.37,0c.12.09.11.28,0,.49l-.75,1.14a.3.3,0,0,0-.06.22l.17.82a.63.63,0,0,1-.2.49.72.72,0,0,1-.38.22l-.92.16a.53.53,0,0,0-.17.12l-.93,1a.72.72,0,0,1-.38.24A.48.48,0,0,1,218.94,65.75Zm1.61-1.62.92-.16a.23.23,0,0,0,.16-.11.41.41,0,0,0,.14-.3l-.18-.81a.51.51,0,0,1,.1-.37l.75-1.14c.1-.15.08-.24.06-.25l-.05,0-1,.53c-.16.08-.32.08-.4,0l-.47-.55,0,0a.56.56,0,0,0-.22.27l-.47,1.14a.83.83,0,0,1-.27.35l-1,.81a.48.48,0,0,0-.2.34s0,0,0,0l.75.18a.22.22,0,0,1,.16.28l-.18,1a.13.13,0,0,0,0,.09.31.31,0,0,0,.18-.12l.93-1a.79.79,0,0,1,.38-.24Z"/><path class="cls-2" d="M214.22,65.05l-.46,1.14a.74.74,0,0,1-.23.3l-1,.8c-.25.19-.35.52-.17.57l.75.17c.07,0,.1.09.09.18L213,69.26c0,.24.22.25.44,0l.92-1a.5.5,0,0,1,.28-.18l.93-.16c.22,0,.48-.37.43-.57l-.17-.81a.41.41,0,0,1,.08-.3l.75-1.14c.18-.27.08-.47-.16-.35l-1,.53c-.1,0-.18,0-.23,0l-.46-.55C214.65,64.57,214.33,64.78,214.22,65.05Z"/><path class="cls-2" d="M213,69.55c-.14,0-.2-.12-.18-.28l.18-1c0-.06,0-.09,0-.09l-.75-.18a.19.19,0,0,1-.16-.18.77.77,0,0,1,.31-.56l1-.8a.61.61,0,0,0,.18-.24l.46-1.14a.82.82,0,0,1,.51-.47.25.25,0,0,1,.28.06l.47.54s0,0,.05,0l1-.53a.38.38,0,0,1,.37,0c.12.09.11.29,0,.5L216,66.25a.27.27,0,0,0-.06.21l.17.82a.61.61,0,0,1-.2.49.69.69,0,0,1-.37.23l-.93.16a.35.35,0,0,0-.17.12l-.93,1a.72.72,0,0,1-.38.24A.24.24,0,0,1,213,69.55Zm1.61-1.61.92-.16a.32.32,0,0,0,.16-.11.43.43,0,0,0,.14-.3l-.18-.82a.52.52,0,0,1,.1-.37l.75-1.14c.1-.15.08-.24.06-.24h-.05l-1,.53a.32.32,0,0,1-.4,0l-.47-.55,0,0a.58.58,0,0,0-.22.26l-.47,1.14a.86.86,0,0,1-.27.36l-1,.8a.48.48,0,0,0-.2.35s0,0,0,0l.75.17a.23.23,0,0,1,.16.28l-.18,1c0,.06,0,.08,0,.08a.31.31,0,0,0,.18-.12l.93-1a.67.67,0,0,1,.38-.24Z"/><path class="cls-5" d="M208.31,68.85,207.85,70a.71.71,0,0,1-.23.29l-1,.8c-.25.19-.35.53-.17.57l.75.18c.07,0,.1.08.09.18l-.18,1c0,.25.22.25.44,0l.92-1a.56.56,0,0,1,.28-.18l.93-.16c.22,0,.48-.37.43-.56l-.17-.82A.4.4,0,0,1,210,70l.75-1.14c.18-.27.08-.48-.16-.35l-1,.53c-.1,0-.18,0-.23,0l-.46-.54C208.74,68.38,208.42,68.58,208.31,68.85Z"/><path class="cls-2" d="M207.06,73.47a.31.31,0,0,1-.26-.38l.18-1-.69-.16a.29.29,0,0,1-.24-.26.85.85,0,0,1,.37-.67l1-.8a.41.41,0,0,0,.12-.17l.47-1.15a1,1,0,0,1,.62-.57.41.41,0,0,1,.42.09l.42.49,1-.5a.54.54,0,0,1,.52,0c.17.12.17.36,0,.62l-.76,1.14a.37.37,0,0,0,0,.14l.18.82a.77.77,0,0,1-.23.59,1,1,0,0,1-.49.28l-.91.15-.07.07-.93,1a.89.89,0,0,1-.49.3A.55.55,0,0,1,207.06,73.47Zm1.67-1.84.91-.15a.41.41,0,0,0,.17-.26l-.18-.82a.61.61,0,0,1,.12-.44l.75-1.15,0,0-.87.45a.5.5,0,0,1-.58,0l-.4-.47a.43.43,0,0,0-.09.13L208.11,70a1,1,0,0,1-.32.41l-1,.81a.39.39,0,0,0-.14.22l.7.16a.3.3,0,0,1,.23.37l-.15.88.84-.94a1,1,0,0,1,.49-.3Z"/><path class="cls-5" d="M202.4,72.66l-.46,1.14a.65.65,0,0,1-.23.29l-1,.81c-.25.19-.35.52-.17.56l.75.18q.11,0,.09.18l-.18,1c0,.25.22.25.44,0l.92-1a.63.63,0,0,1,.28-.18l.93-.15c.22,0,.48-.38.43-.57l-.17-.81a.41.41,0,0,1,.08-.3l.75-1.14c.18-.27.08-.48-.16-.35l-1,.53c-.1,0-.18,0-.23,0l-.46-.55C202.83,72.18,202.51,72.39,202.4,72.66Z"/><path class="cls-2" d="M201.15,77.27a.3.3,0,0,1-.26-.38l.18-1-.69-.16a.29.29,0,0,1-.24-.26.86.86,0,0,1,.37-.67l1-.8a.55.55,0,0,0,.13-.17l.46-1.14a1,1,0,0,1,.62-.57.38.38,0,0,1,.42.09l.42.48,1-.49a.51.51,0,0,1,.52,0c.17.11.17.36,0,.62l-.75,1.14a.24.24,0,0,0-.06.14l.18.81a.75.75,0,0,1-.23.59,1,1,0,0,1-.49.29l-.91.15a.15.15,0,0,0-.07.06l-.93,1a1,1,0,0,1-.49.3A.54.54,0,0,1,201.15,77.27Zm1.67-1.84.91-.15a.41.41,0,0,0,.17-.26l-.18-.81a.63.63,0,0,1,.12-.45l.75-1.14,0,0-.87.44a.47.47,0,0,1-.58,0l-.4-.47a.38.38,0,0,0-.09.14l-.47,1.14a1.07,1.07,0,0,1-.32.42l-1,.8a.47.47,0,0,0-.14.22l.7.16a.3.3,0,0,1,.22.38l-.14.87.84-.94a.93.93,0,0,1,.49-.29Z"/><path class="cls-5" d="M208,77.31l13-8.39a2,2,0,0,0,.88-1.48h0c0-.51-.39-.66-.88-.35l-13,8.39a2,2,0,0,0-.88,1.49h0C207.09,77.47,207.48,77.63,208,77.31Z"/><path class="cls-2" d="M207.25,77.68a.61.61,0,0,1-.44-.66,2.3,2.3,0,0,1,1-1.7l13-8.39a1.13,1.13,0,0,1,.86-.21.63.63,0,0,1,.44.66,2.26,2.26,0,0,1-1,1.7l-13,8.4a1.54,1.54,0,0,1-.49.2A.77.77,0,0,1,207.25,77.68Zm13.62-8.92a1.72,1.72,0,0,0,.74-1.27c0-.21-.08-.31-.16-.33s-.23,0-.3.09l-13,8.4a1.71,1.71,0,0,0-.74,1.26c0,.22.08.32.16.34a.45.45,0,0,0,.3-.1Z"/><path class="cls-1" d="M174.85,129.13l33.48-22.71a4.1,4.1,0,0,0,1.78-3l1.38-40.29c0-1-2.18-1.22-3.16-.59l-34.7,22.33a4.07,4.07,0,0,0-1.78,3V128C171.85,129.06,173.87,129.76,174.85,129.13Z"/><path class="cls-1" d="M173.05,129.56c-.78-.2-1.56-.72-1.56-1.45V87.94a4.41,4.41,0,0,1,2-3.28l34.7-22.33a3.55,3.55,0,0,1,2.59-.34c.71.18,1.11.57,1.11,1.08l-1.38,40.28a4.39,4.39,0,0,1-1.95,3.27l-33.47,22.71h0a2.4,2.4,0,0,1-.72.28A3.07,3.07,0,0,1,173.05,129.56Zm35.1-23.35a3.82,3.82,0,0,0,1.6-2.73l1.38-40.28c0-.41-.53-.59-.75-.65a2.69,2.69,0,0,0-1.87.2L173.82,85.08a3.73,3.73,0,0,0-1.6,2.72V128c0,.43.49.85,1.19,1a1.68,1.68,0,0,0,1.26-.08Z"/><path class="cls-5" d="M175.06,129l34.69-22.33a4.07,4.07,0,0,0,1.78-3V63.51c0-1-.79-1.34-1.78-.71L175.06,85.13a4.05,4.05,0,0,0-1.78,3V128.3C173.28,129.33,174.07,129.64,175.06,129Z"/><path class="cls-1" d="M173.71,129.59a1.13,1.13,0,0,1-.8-1.22V88.2a4.42,4.42,0,0,1,2-3.28l34.69-22.33a2,2,0,0,1,1.53-.37,1.12,1.12,0,0,1,.8,1.21v40.18a4.42,4.42,0,0,1-2,3.28l-34.69,22.33a2.81,2.81,0,0,1-.89.38A1.53,1.53,0,0,1,173.71,129.59ZM209.93,63,175.24,85.34a3.73,3.73,0,0,0-1.6,2.72v40.17c0,.43.16.73.43.8a1.19,1.19,0,0,0,.81-.23l34.69-22.33a3.73,3.73,0,0,0,1.6-2.72V63.58c0-.43-.16-.73-.43-.8a.66.66,0,0,0-.28,0A1.81,1.81,0,0,0,209.93,63Z"/><polygon class="cls-2" points="173.7 86.62 173.93 86.3 172.59 85.91 172.36 86.23 173.7 86.62"/><polygon class="cls-2" points="208.69 63.63 208.91 63.31 207.57 62.92 207.35 63.24 208.69 63.63"/><polygon class="cls-2" points="173.03 127.97 173.26 127.64 171.92 127.25 171.69 127.58 173.03 127.97"/><path class="cls-2" d="M204,98.24l-.47,1.14a.81.81,0,0,1-.22.3l-1,.8c-.25.19-.34.52-.17.57l.75.17c.07,0,.11.08.09.18l-.18,1c0,.24.22.25.44,0l.93-1a.51.51,0,0,1,.27-.17l.93-.16a.63.63,0,0,0,.44-.57l-.18-.81a.43.43,0,0,1,.09-.3l.75-1.14c.17-.27.08-.48-.17-.35l-1,.53c-.09,0-.18,0-.22,0l-.47-.55C204.38,97.76,204.07,98,204,98.24Z"/><path class="cls-2" d="M202.76,102.74c-.14,0-.2-.13-.18-.28l.18-1a.13.13,0,0,0,0-.09l-.75-.18a.2.2,0,0,1-.17-.18.73.73,0,0,1,.32-.56l1-.81a.46.46,0,0,0,.18-.23l.46-1.14a.84.84,0,0,1,.51-.47.25.25,0,0,1,.29.06l.46.54s0,0,0,0l1-.53a.36.36,0,0,1,.36,0c.12.09.11.29,0,.49l-.75,1.15a.29.29,0,0,0-.07.21l.18.82a.66.66,0,0,1-.2.49.77.77,0,0,1-.38.23l-.93.16a.31.31,0,0,0-.17.11l-.92,1a.81.81,0,0,1-.38.24A.28.28,0,0,1,202.76,102.74Zm1.61-1.61.93-.16a.44.44,0,0,0,.16-.11.45.45,0,0,0,.13-.3l-.18-.82a.58.58,0,0,1,.1-.37l.76-1.14c.09-.15.07-.24,0-.25l0,0-1,.53c-.17.09-.33.08-.4,0l-.47-.55h-.06a.62.62,0,0,0-.22.27l-.47,1.14a.93.93,0,0,1-.27.36l-1,.8a.51.51,0,0,0-.2.35s0,0,0,0l.75.17a.22.22,0,0,1,.16.28l-.18,1c0,.07,0,.09,0,.09a.34.34,0,0,0,.17-.12l.93-1a.67.67,0,0,1,.38-.24Z"/><path class="cls-2" d="M198.05,102l-.47,1.15a.86.86,0,0,1-.22.29l-1,.8c-.25.19-.34.53-.17.57l.75.17a.15.15,0,0,1,.09.19l-.18,1c0,.25.22.25.44,0l.93-1a.48.48,0,0,1,.27-.18l.93-.16a.62.62,0,0,0,.44-.56l-.18-.82a.39.39,0,0,1,.09-.29l.75-1.14c.17-.27.08-.48-.17-.36l-1,.54a.17.17,0,0,1-.22,0l-.47-.54C198.47,101.57,198.16,101.77,198.05,102Z"/><path class="cls-2" d="M196.85,106.55c-.14,0-.2-.13-.18-.29l.18-1a.13.13,0,0,0,0-.09l-.75-.17a.2.2,0,0,1-.17-.19.75.75,0,0,1,.32-.56l1-.8a.56.56,0,0,0,.18-.23l.46-1.15a.84.84,0,0,1,.51-.47.28.28,0,0,1,.29.06l.46.55.05,0,1-.53a.33.33,0,0,1,.36,0c.12.08.11.28,0,.49l-.75,1.14a.31.31,0,0,0-.07.22l.18.81a.64.64,0,0,1-.2.49.84.84,0,0,1-.37.23h0l-.93.16a.35.35,0,0,0-.17.12l-.92,1a.73.73,0,0,1-.38.24Zm1.61-1.62.93-.16a.55.55,0,0,0,.16-.11.45.45,0,0,0,.13-.3l-.18-.81a.55.55,0,0,1,.1-.37l.76-1.14c.09-.15.07-.24,0-.25h0l-1,.54a.33.33,0,0,1-.4,0l-.47-.55-.06,0a.58.58,0,0,0-.22.26l-.47,1.15a.83.83,0,0,1-.27.35l-1,.8a.53.53,0,0,0-.2.35s0,0,0,0l.75.17a.23.23,0,0,1,.16.28l-.18,1c0,.06,0,.08,0,.08s.09,0,.17-.12l.93-1a.72.72,0,0,1,.38-.24Z"/><path class="cls-2" d="M192.14,105.85l-.47,1.14a.7.7,0,0,1-.22.29l-1,.81c-.25.19-.34.52-.17.56l.75.18c.07,0,.11.08.09.18l-.18,1c0,.25.22.25.44,0l.93-1a.61.61,0,0,1,.27-.18l.93-.16a.61.61,0,0,0,.44-.56l-.18-.81a.43.43,0,0,1,.09-.3l.75-1.14c.17-.27.08-.48-.17-.35l-1,.53c-.09,0-.18,0-.22,0l-.47-.55C192.56,105.37,192.25,105.58,192.14,105.85Z"/><path class="cls-2" d="M190.94,110.35c-.14,0-.2-.13-.18-.28l.18-1c0-.06,0-.08,0-.08l-.75-.18a.2.2,0,0,1-.17-.19.77.77,0,0,1,.32-.56l1-.8a.5.5,0,0,0,.18-.23l.46-1.14a.89.89,0,0,1,.51-.48.28.28,0,0,1,.29.06l.46.55s0,0,.05,0l1-.53a.36.36,0,0,1,.36,0c.12.09.11.28,0,.49l-.75,1.14a.31.31,0,0,0-.07.22l.18.82a.67.67,0,0,1-.2.49.68.68,0,0,1-.38.22l-.93.16a.53.53,0,0,0-.17.12l-.92,1a.81.81,0,0,1-.38.24A.56.56,0,0,1,190.94,110.35Zm1.61-1.62.93-.16a.3.3,0,0,0,.16-.11.43.43,0,0,0,.13-.3l-.18-.81a.52.52,0,0,1,.11-.37l.74-1.14c.1-.15.08-.24.06-.25l-.05,0-1,.53c-.17.08-.32.08-.4,0l-.47-.55-.06,0a.56.56,0,0,0-.22.27L191.8,107a.83.83,0,0,1-.27.35l-1,.81a.52.52,0,0,0-.2.34s0,0,0,0l.75.18a.22.22,0,0,1,.16.28l-.18,1c0,.06,0,.09,0,.09a.44.44,0,0,0,.17-.12l.93-1a.7.7,0,0,1,.38-.23Z"/><path class="cls-2" d="M186.23,109.65l-.47,1.14a.81.81,0,0,1-.22.3l-1,.8c-.25.19-.34.53-.17.57l.75.17a.14.14,0,0,1,.09.18l-.18,1c0,.24.22.25.44,0l.93-1a.48.48,0,0,1,.27-.18l.93-.16a.63.63,0,0,0,.44-.57l-.18-.81a.39.39,0,0,1,.09-.29l.75-1.15c.17-.27.08-.47-.17-.35l-1,.53c-.09.05-.18.05-.22,0l-.47-.55C186.65,109.17,186.34,109.38,186.23,109.65Z"/><path class="cls-2" d="M185,114.15c-.14,0-.2-.12-.18-.28l.18-1a.13.13,0,0,0,0-.09l-.75-.17a.21.21,0,0,1-.17-.19.75.75,0,0,1,.32-.56l1-.8a.53.53,0,0,0,.18-.24l.46-1.14a.84.84,0,0,1,.51-.47.28.28,0,0,1,.29.06l.46.54s0,0,.05,0l1-.53a.36.36,0,0,1,.36,0c.12.09.11.29,0,.5l-.75,1.14a.29.29,0,0,0-.07.21l.18.82a.64.64,0,0,1-.2.49.71.71,0,0,1-.38.23l-.93.16a.4.4,0,0,0-.17.12l-.92,1a.81.81,0,0,1-.38.24Zm1.61-1.61.93-.16a.44.44,0,0,0,.16-.11.45.45,0,0,0,.13-.3l-.18-.82a.54.54,0,0,1,.11-.37l.75-1.14c.09-.15.07-.24.05-.24h-.05l-1,.53c-.17.09-.33.08-.4,0l-.47-.55,0,0a.54.54,0,0,0-.23.26l-.46,1.14a1,1,0,0,1-.28.36l-1,.8a.51.51,0,0,0-.2.35s0,0,0,0l.75.17a.23.23,0,0,1,.16.28l-.18,1c0,.06,0,.08,0,.08s.08,0,.17-.12l.93-1a.67.67,0,0,1,.38-.24Z"/><path class="cls-2" d="M180.32,113.45l-.47,1.15a.7.7,0,0,1-.22.29l-1,.8c-.25.19-.34.53-.17.57l.75.18c.07,0,.11.08.09.18l-.18,1c0,.25.22.25.44,0l.93-1a.53.53,0,0,1,.27-.18l.93-.16a.62.62,0,0,0,.44-.56l-.18-.82a.42.42,0,0,1,.09-.29l.75-1.14c.17-.27.08-.48-.17-.35l-1,.53c-.09,0-.18,0-.22,0l-.47-.54C180.74,113,180.43,113.18,180.32,113.45Z"/><path class="cls-2" d="M179.12,118c-.14,0-.2-.13-.18-.29l.18-1a.15.15,0,0,0,0-.09l-.75-.17a.2.2,0,0,1-.17-.19.75.75,0,0,1,.32-.56l1-.8a.56.56,0,0,0,.18-.23l.46-1.14a.83.83,0,0,1,.51-.48.28.28,0,0,1,.29.06l.46.55s0,0,.05,0l1-.54a.36.36,0,0,1,.36,0c.12.08.11.28,0,.49l-.75,1.14a.31.31,0,0,0-.07.22l.18.81a.78.78,0,0,1-.58.72l-.93.16a.53.53,0,0,0-.17.12l-.92,1a.73.73,0,0,1-.38.24Zm1.61-1.62.93-.16a.39.39,0,0,0,.16-.11.43.43,0,0,0,.13-.3l-.18-.81a.52.52,0,0,1,.11-.37l.75-1.14c.09-.15.07-.24.05-.25l-.05,0-1,.53c-.17.08-.32.08-.4,0l-.47-.55-.06,0a.58.58,0,0,0-.22.26l-.47,1.15a.83.83,0,0,1-.27.35l-1,.8a.56.56,0,0,0-.2.35.11.11,0,0,0,0,0l.75.18c.13,0,.18.13.16.28l-.18,1c0,.06,0,.08,0,.09a.44.44,0,0,0,.17-.12l.93-1a.72.72,0,0,1,.38-.24Z"/><path class="cls-5" d="M185.88,118.11l13.05-8.39a2.05,2.05,0,0,0,.88-1.49h0c0-.5-.4-.66-.88-.34l-13.05,8.39a2,2,0,0,0-.88,1.48h0C185,118.27,185.4,118.42,185.88,118.11Z"/><path class="cls-2" d="M185.17,118.47a.6.6,0,0,1-.45-.65,2.29,2.29,0,0,1,1-1.7l13-8.4a1.13,1.13,0,0,1,.85-.2.61.61,0,0,1,.45.66,2.3,2.3,0,0,1-1,1.7l-13,8.39h0a1.3,1.3,0,0,1-.49.21A.86.86,0,0,1,185.17,118.47Zm.57-.52,13-8.4a1.71,1.71,0,0,0,.74-1.26c0-.22-.09-.32-.17-.34a.45.45,0,0,0-.29.1l-13,8.39a1.75,1.75,0,0,0-.74,1.27c0,.21.09.31.17.33a.5.5,0,0,0,.29-.09Z"/><path class="cls-5" d="M203.11,95.72,181.7,109.5c-1.78,1.14-3.22.57-3.22-1.27V89.86a7.33,7.33,0,0,1,3.22-5.4l21.41-13.79c1.78-1.14,3.22-.57,3.22,1.27V90.31A7.36,7.36,0,0,1,203.11,95.72Z"/><path class="cls-2" d="M179.45,110.26a1.83,1.83,0,0,1-1.25-2V89.92a7.68,7.68,0,0,1,3.36-5.63L203,70.51a3.09,3.09,0,0,1,2.39-.59,1.82,1.82,0,0,1,1.25,2V90.26a7.66,7.66,0,0,1-3.36,5.62l-21.41,13.78a4.09,4.09,0,0,1-1.42.61A2.42,2.42,0,0,1,179.45,110.26Zm23.8-39.43L181.84,84.62a7,7,0,0,0-3.08,5.19v18.37c0,.89.36,1.49,1,1.64a2.43,2.43,0,0,0,1.83-.48L203,95.55a7,7,0,0,0,3.08-5.19V72c0-.89-.36-1.49-1-1.65a1.59,1.59,0,0,0-.69,0A3.53,3.53,0,0,0,203.25,70.83Z"/><path class="cls-2" d="M180.66,108.32a1.12,1.12,0,0,1-.78-1.2V88.91a4.44,4.44,0,0,1,2-3.3l20.81-13.39a2,2,0,0,1,1.48-.37,1.12,1.12,0,0,1,.78,1.2V91.26a4.42,4.42,0,0,1-2,3.3L182.14,108a2.3,2.3,0,0,1-.87.37A1.26,1.26,0,0,1,180.66,108.32ZM203,72.54l-20.81,13.4a3.87,3.87,0,0,0-1.7,2.87V107c0,.48.18.79.5.88a1.33,1.33,0,0,0,.92-.26l20.81-13.39a3.88,3.88,0,0,0,1.7-2.87V73.16c0-.48-.18-.79-.5-.87a.74.74,0,0,0-.33,0A1.76,1.76,0,0,0,203,72.54Z"/><path class="cls-5" d="M190.86,96.72s-4.8,1.92-8,10.49l19.76-12.72s.71-6.26-6.73-1.36l-4.33,3.17Z"/><path class="cls-2" d="M182.64,107.19c3.08-8.37,7.7-10.48,8.12-10.66l.69-.37L195.79,93c2.42-1.59,4.28-2.21,5.54-1.83,1.91.56,1.64,3.2,1.62,3.31v.12l-20.51,13.2ZM201,91.56c-1.07-.31-2.73.27-4.93,1.72l-4.37,3.2-.76.42,0,0c-.05,0-4.48,1.89-7.53,9.72l19-12.23C202.43,93.92,202.45,92,201,91.56Z"/><path class="cls-5" d="M195.7,88c.31-1.65-1.34-2.33-3-2.6-2.13-.33-5.56,3-5.93,5.78a5.26,5.26,0,0,0,.19,2.48,4,4,0,0,0,2.15,2.44,7.89,7.89,0,0,0,2.23-1.44,5.85,5.85,0,0,1-.57,3.06s-.08,1.44,2.35.11a8.53,8.53,0,0,0,3.44-4.2A8.72,8.72,0,0,1,195.7,88Z"/><path class="cls-2" d="M191,98.53a.8.8,0,0,1-.54-.79l0-.08a5.72,5.72,0,0,0,.57-2.53,7.76,7.76,0,0,1-1.91,1.14l-.13,0-.1,0a4.1,4.1,0,0,1-2.25-2.54,5.37,5.37,0,0,1-.2-2.55,8.48,8.48,0,0,1,3.72-5.27,3.9,3.9,0,0,1,2.6-.76c2.38.37,3.49,1.34,3.22,2.79a8.64,8.64,0,0,0,.79,5.53l0,.06,0,.08A8.78,8.78,0,0,1,193.19,98a5.45,5.45,0,0,1-1.44.57A1.51,1.51,0,0,1,191,98.53ZM195.43,88h0c.23-1.26-.74-2.06-2.89-2.4a3.35,3.35,0,0,0-2.1.64A8,8,0,0,0,187,91.12a5.13,5.13,0,0,0,.18,2.4,3.79,3.79,0,0,0,1.95,2.29,7.9,7.9,0,0,0,2-1.3l.41-.37.06.42a6,6,0,0,1-.57,3.12.48.48,0,0,0,.3.43,2.57,2.57,0,0,0,1.66-.48,8.21,8.21,0,0,0,3.26-4A8.73,8.73,0,0,1,195.43,88Z"/><path class="cls-2" d="M188.25,94.54l.36-.16a2.77,2.77,0,0,0,1.26-1.1l-.51-.08a1.62,1.62,0,0,1-.55.58V92.52l-.56.11Z"/><path class="cls-2" d="M191.49,94.75a15,15,0,0,0,1.19-1.4l-.47-.15a14.56,14.56,0,0,1-1.12,1.32Z"/><path class="cls-2" d="M189.89,91.13c0,.36.19.52.43.37a1.2,1.2,0,0,0,.43-.93c0-.36-.19-.52-.43-.37A1.2,1.2,0,0,0,189.89,91.13Z"/><path class="cls-2" d="M186.94,93c0,.36.19.53.43.38a1.21,1.21,0,0,0,.43-.93c0-.36-.19-.53-.43-.37A1.18,1.18,0,0,0,186.94,93Z"/><path class="cls-2" d="M193.74,98.15l.5-.44.38.24-.52.46Zm.9-.82c.28-.26.53-.51.77-.76l.41.21c-.24.26-.51.52-.79.79Zm1.13-1.16c.25-.27.48-.54.69-.8l.45.17c-.22.27-.45.55-.71.83Zm1-1.21c.21-.27.41-.56.6-.84l.48.13c-.19.29-.4.59-.62.87Zm.88-1.26c.17-.29.34-.58.49-.86l.51.08c-.16.29-.33.6-.51.89Zm.71-1.3a7.9,7.9,0,0,0,.35-.86h.55s-.11.35-.38.93Z"/><path class="cls-5" d="M186.75,91s-1.91,1-2.07-1,1.85-4.52,1.85-4.52.42,2.09,3-.47,6.72-4.24,7.57-2.28c.65,1.49,0,3.43-.32,4.28a1.39,1.39,0,0,0-.11.77h0a2.9,2.9,0,0,1-1.07,2.3h0l-.3-.63a3.54,3.54,0,0,1-.26-1.87c0-.44,0-.89-.4-.9-.78,0-1.66,1.66-1.66,1.66S190,87.6,186.75,91Z"/><path class="cls-2" d="M195,89.52a3.57,3.57,0,0,1-.28-2c0-.44,0-.71-.2-.72-.36,0-1,.85-1.33,1.48l-.12.24-.27-.06S190,87.9,187,91.05l-.1.08a2.49,2.49,0,0,1-1.58.22A1.33,1.33,0,0,1,184.4,90c-.17-2,1.82-4.56,1.9-4.67l.4-.51.1.51c0,.18.23.64.66.66s1.07-.39,1.85-1.16c1.86-1.86,4.49-3.23,6.25-3.25a1.76,1.76,0,0,1,1.79,1c.68,1.56,0,3.6-.32,4.41a1.11,1.11,0,0,0-.1.66,3.13,3.13,0,0,1-1.16,2.51l-.32.3Zm-5.31-4.44a3.63,3.63,0,0,1-2.43,1.38,1,1,0,0,1-.84-.5c-.55.8-1.6,2.54-1.48,3.92,0,.58.26.93.62,1a1.59,1.59,0,0,0,1-.13C189.33,88,192,88,192.82,88c.31-.53,1.05-1.65,1.88-1.63.47,0,.67.39.59,1.1a3.34,3.34,0,0,0,.26,1.78l.14.3a2.33,2.33,0,0,0,.68-1.76,1.54,1.54,0,0,1,.13-.88c.3-.76.95-2.69.32-4.14a1.35,1.35,0,0,0-1.39-.75,4.13,4.13,0,0,0-.67.07A11,11,0,0,0,189.71,85.08Z"/><path class="cls-2" d="M189.52,95a2.7,2.7,0,0,0,.91-.84l-.49-.11a2,2,0,0,1-.65.6Z"/><path class="cls-2" d="M194,89.79a2.84,2.84,0,0,0,1.23-2l-.55.05a2.28,2.28,0,0,1-.92,1.57Z"/><path class="cls-2" d="M194.71,88.18l.56-.11c0-.34-.14-.54-.4-.59a1.78,1.78,0,0,0-1.12.43l.34.28a1.15,1.15,0,0,1,.54-.27S194.71,88,194.71,88.18Z"/><path class="cls-2" d="M185.81,89.15a3.63,3.63,0,0,0,1-.36c2.47-1.29,7-5.53,7.17-5.71l-.39-.24s-4.63,4.35-7,5.59c-.51.26-.87.36-1,.27-.31-.17-.05-1,.12-1.42l-.52-.06c-.07.15-.65,1.5,0,1.87A.92.92,0,0,0,185.81,89.15Z"/><path class="cls-2" d="M196.94,87.27c.2-1.76-.08-2.78-.82-3a1.72,1.72,0,0,0-1.26.2l.26.34-.13-.17.13.17a1,1,0,0,1,.69-.11c.32.1.81.59.57,2.67Z"/><path class="cls-2" d="M190.39,100.18l.12-.45a5.11,5.11,0,0,0,.53,0l0,.44A4.42,4.42,0,0,1,190.39,100.18Zm-1.6-.35.39-.39a2.24,2.24,0,0,0,.84.27l-.21.44A2.6,2.6,0,0,1,188.79,99.83Zm-.94-1,.54-.22a1.56,1.56,0,0,0,.45.62l-.45.34A1.79,1.79,0,0,1,187.85,98.81Z"/><g id="arm"><path class="cls-2" d="M214,120.73l4.19-4.41a.57.57,0,0,0,.24-.41v-1c0-.14-.11-.19-.24-.1l-5.85,3.76a.57.57,0,0,0-.24.41v1A5.36,5.36,0,0,0,214,120.73Z"/><path class="cls-1" d="M213.61,120.92s-1.82-.55-1.82-.89v-1a.81.81,0,0,1,.38-.62l5.85-3.76a.54.54,0,0,1,.43-.1.29.29,0,0,1,.23.3v1a.82.82,0,0,1-.34.6l-4.16,4.39-.07,0a.34.34,0,0,1-.15.07A.84.84,0,0,1,213.61,120.92Zm-1.16-2.23a.32.32,0,0,0-.1.2v1a8.35,8.35,0,0,0,1.54.62l4.06-4.28.07-.06a.31.31,0,0,0,.1-.19v-.91Z"/><path class="cls-2" d="M212.13,110.51,213,110v-.25a1.93,1.93,0,0,1,.89-1.34l.83-.53v-.25a1.92,1.92,0,0,1,.9-1.34l.83-.53v-2.3a1.92,1.92,0,0,1,.9-1.34l.21-.14a1.62,1.62,0,0,1,.65-.18l2,.63s0,0,0,0c-.06.22-.48,1.49-.46,1.55a5.55,5.55,0,0,0,1.08-.33,1.29,1.29,0,0,1,.62-.26h.1c.1,0,2,.64,2,.64L218,113.23a5.41,5.41,0,0,0-.25,1.52v.14l-1.24.8-1.91,3.17-2-.64-.75-.66a2.17,2.17,0,0,1-.62-1.67v-4A1.92,1.92,0,0,1,212.13,110.51Z"/><path class="cls-1" d="M212.44,118.44l-.81-.71A2.3,2.3,0,0,1,211,116v-4a2.2,2.2,0,0,1,1-1.56l.69-.44v-.12a2.19,2.19,0,0,1,1-1.56l.69-.44v-.12a2.2,2.2,0,0,1,1-1.56l.69-.44V103.5a2.17,2.17,0,0,1,1-1.56l.21-.14a1.82,1.82,0,0,1,.85-.24l2.1.64a.2.2,0,0,1,.15.26c-.2.58-.33,1-.4,1.24l.63-.21a1.4,1.4,0,0,1,.8-.3h.09a14.27,14.27,0,0,1,2.12.65l.21.06-5.65,9.35a5.48,5.48,0,0,0-.23,1.44V115l-1.31.85-2,3.34Zm5.05-3.64a5.7,5.7,0,0,1,.26-1.57l5.44-9-1.72-.55h-.09a.86.86,0,0,0-.41.18l-.1.06c-1,.36-1.32.46-1.4.22,0-.06,0-.11.42-1.52l-1.82-.57a1.19,1.19,0,0,0-.41.11l-.21.14a1.67,1.67,0,0,0-.76,1.13v2.42l-1,.62a1.67,1.67,0,0,0-.76,1.13v.37l-1,.62a1.65,1.65,0,0,0-.75,1.13v.37l-1,.62a1.67,1.67,0,0,0-.76,1.13v4a2,2,0,0,0,.57,1.54l.71.64,1.72.54,1.81-3,1.17-.76Z"/><path class="cls-2" d="M214.15,111.14a1.94,1.94,0,0,0-.9,1.35v4h0a2.16,2.16,0,0,0,.63,1.67l.74.67,5.18-3.34v-.14a7.56,7.56,0,0,1,1.06-3.47h0a24,24,0,0,0,1.73-3.91l.45-1.33a11.89,11.89,0,0,1,.73-1.73h0c.26-.51.17-.9-.21-.89h-.09a1.79,1.79,0,0,0-1.26,1l-.28.49c-.37.66-.71,1.32-1,2l-.43.92s0,0,0,0v-5.63c0-.42-.4-.5-.9-.18l-.21.13a1.94,1.94,0,0,0-.9,1.35v2.29l-.83.53a2,2,0,0,0-.9,1.35v.24l-.82.53a1.92,1.92,0,0,0-.9,1.35v.24Z"/><path class="cls-1" d="M213.65,118.36a2.32,2.32,0,0,1-.68-1.78v-4a2.22,2.22,0,0,1,1-1.56l.69-.44v-.12a2.19,2.19,0,0,1,1-1.56l.68-.44v-.12a2.22,2.22,0,0,1,1-1.56l.69-.44v-2.17a2.22,2.22,0,0,1,1-1.56l.21-.14a1.27,1.27,0,0,1,.94-.23.49.49,0,0,1,.38.53v4.57c.29-.61.62-1.23,1-1.84L222,105a2.14,2.14,0,0,1,1.58-1.15h.1a.58.58,0,0,1,.47.21.92.92,0,0,1-.07,1,11.07,11.07,0,0,0-.72,1.7l-.45,1.33a24.91,24.91,0,0,1-1.75,3.95,7.22,7.22,0,0,0-1,3.37v.27l-5.54,3.56Zm5.87-2.93a7.69,7.69,0,0,1,1.08-3.56,24.35,24.35,0,0,0,1.72-3.87l.45-1.33a12,12,0,0,1,.75-1.77c.15-.3.14-.5.08-.58a.12.12,0,0,0-.1,0h-.1a1.52,1.52,0,0,0-.94.79l-.28.49c-.36.65-.7,1.31-1,2l-.43.92-.12.21h-.46v-5.8c0-.12,0-.19-.1-.21a.6.6,0,0,0-.38.13l-.21.14a1.65,1.65,0,0,0-.76,1.12v2.42l-1,.63a1.65,1.65,0,0,0-.76,1.12v.37l-1,.63a1.62,1.62,0,0,0-.76,1.12v.37l-1,.63a1.65,1.65,0,0,0-.76,1.12v4a2,2,0,0,0,.57,1.55l.6.53,4.82-3.1Z"/><path class="cls-2" d="M214.21,120.66l5.85-3.76a.55.55,0,0,0,.24-.41v-1c0-.14-.11-.18-.24-.09l-5.85,3.76a.55.55,0,0,0-.24.41v1C214,120.71,214.08,120.75,214.21,120.66Z"/><path class="cls-1" d="M213.91,120.92a.29.29,0,0,1-.22-.3v-1a.84.84,0,0,1,.38-.63l5.85-3.75a.56.56,0,0,1,.44-.1.29.29,0,0,1,.22.3v1a.81.81,0,0,1-.38.62l-5.85,3.76h0a.52.52,0,0,1-.23.1A.5.5,0,0,1,213.91,120.92Zm.44-1.64a.31.31,0,0,0-.1.19v.92l5.66-3.65a.28.28,0,0,0,.11-.19v-.92Z"/><polygon class="cls-1" points="218.15 108.83 218.71 108.72 218.71 106.32 218.15 106.43 218.15 108.83"/><polygon class="cls-1" points="220.16 109.92 220.72 109.81 220.72 108.08 220.16 108.19 220.16 109.92"/><polygon class="cls-1" points="216.42 110.52 216.98 110.41 216.98 108.32 214.84 107.65 214.53 108.07 216.42 108.67 216.42 110.52"/><polygon class="cls-1" points="214.7 112.36 215.26 112.26 215.26 110.44 213.11 109.77 212.8 110.19 214.7 110.78 214.7 112.36"/></g><polygon class="cls-1" points="213.25 112.49 211.23 111.85 211.23 115.63 211.45 117 212.02 117.7 212.73 118.26 214.14 118.43 213.25 117.45 213.16 116.67 213.25 112.49"/><polygon class="cls-1" points="218.43 103.98 216.42 103.4 216.41 105.72 218.43 106.37 218.43 103.98"/><path class="cls-1" d="M214,119.79s-1.56-.46-1.9-.59v1l1.67.54Z"/><polygon class="cls-1" points="218.28 106.58 218.58 106.16 216.56 105.51 216.25 105.93 218.28 106.58"/><polygon class="cls-2" points="212.91 116.64 213.13 116.32 211.68 115.87 211.45 116.19 212.91 116.64"/><polygon class="cls-1" points="219.39 100.47 221.82 98.04 221.41 97.82 218.99 100.25 219.39 100.47"/><polygon class="cls-1" points="217.63 100.17 218.19 100.07 218.19 97.31 217.63 97.42 217.63 100.17"/><path class="cls-2" d="M209.14,88.09c0,2.07,1.87,2.54,4.16,1.06s4.16-4.35,4.16-6.42-1.86-2.54-4.16-1.06S209.14,86,209.14,88.09Z"/><path class="cls-5" d="M208.13,87.91c0,2.07,1.86,2.55,4.16,1.07s4.16-4.36,4.16-6.42-1.86-2.55-4.16-1.07S208.13,85.85,208.13,87.91Z"/><path class="cls-1" d="M210.22,90.17a1.87,1.87,0,0,1-1.36-2c0-2.13,1.93-5.11,4.3-6.63a4.33,4.33,0,0,1,3.23-.86,1.88,1.88,0,0,1,1.36,2c0,2.13-1.93,5.11-4.31,6.64a5.84,5.84,0,0,1-2,.86A2.94,2.94,0,0,1,210.22,90.17Zm3.22-8.34c-2.21,1.43-4,4.21-4,6.21a1.55,1.55,0,0,0,1.08,1.7,3.64,3.64,0,0,0,2.66-.75c2.22-1.42,4-4.21,4-6.2,0-.92-.38-1.53-1.07-1.7a2.32,2.32,0,0,0-1,0A5.2,5.2,0,0,0,213.44,81.83Z"/><path class="cls-1" d="M212.84,87.36l1.83-2.28a1.68,1.68,0,0,0,.29-.54c.11-.34,0-.56-.27-.55l-1.85.06a1,1,0,0,0-.68.56h0c-.15.3-.09.53.13.53l1.52-.06L212.29,87c-.22.28-.28.59-.12.69h0C212.32,87.79,212.62,87.64,212.84,87.36Z"/><path class="cls-1" d="M215.14,89.43a10.2,10.2,0,0,0,3.06-3.22l-.49-.12a9.7,9.7,0,0,1-2.85,3Z"/><ellipse class="cls-2" cx="171.81" cy="112.14" rx="5.53" ry="2.82" transform="translate(-24.62 171.4) rotate(-49.92)"/><path class="cls-5" d="M175.08,109.31c0,2.06-1.86,4.94-4.16,6.42s-4.16,1-4.16-1.07,1.86-4.94,4.16-6.42S175.08,107.24,175.08,109.31Z"/><path class="cls-1" d="M168.72,116.9a1.86,1.86,0,0,1-1.36-2c0-2.14,1.93-5.11,4.31-6.64a4.28,4.28,0,0,1,3.22-.85,1.86,1.86,0,0,1,1.36,2c0,2.13-1.93,5.11-4.3,6.64a5.84,5.84,0,0,1-2,.86A2.82,2.82,0,0,1,168.72,116.9Zm3.23-8.34c-2.22,1.43-4,4.21-4,6.21a1.55,1.55,0,0,0,1.08,1.7,3.63,3.63,0,0,0,2.67-.75c2.21-1.42,4-4.21,4-6.2a1.55,1.55,0,0,0-1.08-1.7,2.32,2.32,0,0,0-1,0A5.29,5.29,0,0,0,172,108.56Z"/><path class="cls-1" d="M172.26,113.5l-1.82.06a.29.29,0,0,1-.29-.15,1,1,0,0,1,.27-.9l1.85-2.32c.22-.28.53-.43.68-.32h0c.15.1.09.41-.13.69l-1.52,1.91,1.51,0c.23,0,.29.23.13.53h0A.94.94,0,0,1,172.26,113.5Z"/><path class="cls-1" d="M167.55,111.72a11.57,11.57,0,0,1,2.74-3.52l-.36-.26a11.71,11.71,0,0,0-2.91,3.74Z"/></g></svg>