<svg xmlns="http://www.w3.org/2000/svg" viewBox="0 0 940 1827.4"><defs><style>.cls-1{isolation:isolate;}.cls-2,.cls-23{fill:#1d1d1d;}.cls-24,.cls-3{fill:#b0b1b2;}.cls-4{opacity:0.9;}.cls-5{fill:#dda957;}.cls-6{fill:#ffb000;}.cls-7{fill:#f9cc7d;}.cls-8{fill:#fff;}.cls-9{fill:#838488;}.cls-10,.cls-17,.cls-22{fill:#e74039;}.cls-11,.cls-16{fill:#be1d2d;}.cls-12{fill:#00a8d9;}.cls-13{fill:#d3d2d1;}.cls-14{fill:#c8c8cc;}.cls-15{fill:#58595b;}.cls-16,.cls-17,.cls-23,.cls-24,.cls-25,.cls-26{fill-rule:evenodd;}.cls-18{fill:#e6e7e8;}.cls-19{fill:#afb1b7;}.cls-20{fill:#eaedee;}.cls-21{fill:#f8ae44;}.cls-22{mix-blend-mode:multiply;}.cls-25{fill:#f5f5f5;}.cls-26{fill:#f2f2f2;}.cls-27{fill:#c4c4c4;}.cls-28{fill:#150035;}.cls-29{fill:#c65c5c;}.cls-30{opacity:0.8;}.cls-31{fill:#5f6060;}.cls-32{fill:#434444;}.cls-33{fill:#9b9d9e;}</style></defs><g class="cls-1"><g id="Layer_1" data-name="Layer 1"><path class="cls-2" d="M864.8,1153.9c-6.3,10.7-17.2,19.2-35.8,30.5L561.6,1347.1a1,1,0,0,1-1.5-.4c-.3-.5-.5-.9,0-1.2l267.8-163.1c18.3-11.1,29-19.4,35-29.7"/><path class="cls-3" d="M723,1103.35h1.72v83.45c0,17.2-2.4,27.7-7.5,35.6s-12.9,13-23.6,19.4L546,1331a1.1,1.1,0,0,1-1.1-1.9L692.5,1240c10.4-6.3,18-11.2,22.8-18.7s7.2-17.7,7.2-34.4Z"/><g class="cls-4"><polygon class="cls-5" points="358.1 1738.02 358.1 1787.52 368.73 1781.38 368.73 1731.68 358.1 1738.02"/><polygon class="cls-6" points="358.13 1738.02 358.13 1787.52 222.75 1709.5 222.75 1659.8 358.13 1738.02"/><polygon class="cls-7" points="222.75 1659.8 358.13 1738.02 368.73 1731.68 233.3 1653.53 222.75 1659.8"/></g><path class="cls-8" d="M295.43,1714.15a9.72,9.72,0,0,0-4.23-6.27c-2.05-1.19-3.77-.54-4.23,1.39l-54.16-31.36V1681l54.37,31.48a9.71,9.71,0,0,0,4,5.42c1.82,1,3.37.66,4-.77l52.72,30.3v-3.07Z"/><path class="cls-8" d="M256.08,1710.78c-2-1.13-3.59-.58-4.14,1.13l-19.13-11v3.07L252,1715a9.7,9.7,0,0,0,4.11,5.79c1.91,1.11,3.52.6,4.1-1l87.76,50.63v-3.08l-87.72-50.6A9.78,9.78,0,0,0,256.08,1710.78Z"/><path class="cls-8" d="M319.19,1735.83c-1.95-1.12-3.59-.58-4.14,1.13l-82.24-47.57v3.07l82.27,47.59a9.71,9.71,0,0,0,4.11,5.78c1.92,1.11,3.53.6,4.11-1l24.64,14.1v-3.07l-24.61-14.08A9.74,9.74,0,0,0,319.19,1735.83Z"/><path class="cls-9" d="M321.8,1705.9l-47.4-28.2c-2.1-1.3-5.9-1.1-8.3.3h0c-2.4,1.4-2.7,3.6-.6,4.9l47.4,28.2c2.1,1.3,5.9,1.1,8.3-.3h0C323.7,1709.3,323.9,1707.1,321.8,1705.9Z"/><path class="cls-3" d="M292.4,1568.1a1.1,1.1,0,0,1,2.2,0v126.3a1.1,1.1,0,0,1-2.2,0Z"/><path class="cls-2" d="M310.4,1575.9a1.1,1.1,0,1,1,2.2,0v128.8a1.1,1.1,0,0,1-2.2,0Z"/><path class="cls-10" d="M277.4,1684.3a1.1,1.1,0,0,1-2.2,0V1578.5a1.1,1.1,0,1,1,2.2,0Z"/><path class="cls-11" d="M297.1,1598h0c-31.4-16.6-41.9-56.7-31.3-74.4l-1.7-.3,5.6-4.4h0c6.1-5.1,15.7-5.8,28.8,1.1h0c35,18.5,44,66,26.9,79.4h0l-5.1,4-.7-1.1C313.8,1604,306.4,1602.9,297.1,1598Z"/><path class="cls-10" d="M291.9,1602.1h0c-47.4-25.1-47.2-103.6,1.4-77.9h0C340.8,1549.3,340.5,1627.8,291.9,1602.1Z"/><path class="cls-10" d="M598,1052.6c0-17.9-3-32.1-9.4-43.8s-16.1-21-29.6-29L329.8,844.7c-15.9-9.4-24.5-17.3-29.1-27.4s-5.3-22.6-5.3-40.9V589.8a1.1,1.1,0,0,0-2.2,0V776.4c0,18.6.7,31.3,5.5,41.8s13.7,18.8,30,28.4L557.9,981.7c13.2,7.8,22.6,16.7,28.8,28.1s9.1,25.2,9.1,42.7h0l-.3,172.8c0,22.9-.5,35.8-5.3,45.5s-14.2,16.4-32.2,27L324.1,1436.4c-13.3,7.9-25,17.1-33.2,29.6s-13.1,28.4-12.7,49.5a1.1,1.1,0,1,0,2.2,0c-.4-20.7,4.3-36.1,12.3-48.2s19.4-21.1,32.5-28.9l234-138.4c18.4-10.9,28-17.8,33.1-28s5.5-23.2,5.5-46.5l.2-172.9Z"/><path class="cls-3" d="M545.3,1328.8a1.1,1.1,0,1,1,1.1,1.9L336.9,1457.1c-16.6,10-26.3,18.8-32,28.9s-7.3,21.7-7.7,37.2a1.1,1.1,0,1,1-2.2,0c.4-15.9,2.1-27.7,8-38.2s15.9-19.5,32.8-29.7Z"/><path class="cls-2" d="M560.9,1345a1.13,1.13,0,0,1,1.5.4c.3.5,1.9.1,1.4.4L359.5,1469.1c-15.5,9.4-27,16.6-34.5,26.2s-11.1,21.7-11.2,40.9a1.1,1.1,0,0,1-2.2,0c.1-19.8,3.9-32.3,11.6-42.3s19.3-17.3,35.1-26.8Z"/><path class="cls-12" d="M312,1771.7l-.8.5,1.7-1A3.6,3.6,0,0,1,312,1771.7Z"/><path class="cls-8" d="M73.46,351.35a.31.31,0,0,1,.11-.46L84,345.07a1.93,1.93,0,0,1,2.21,0L403,528a7.41,7.41,0,0,1,3.1,5.91V776.23a2.93,2.93,0,0,1-.91,2.4l-11,6.12-11-13.25,4.32-1.9L86.25,595.72a7.43,7.43,0,0,1-3.1-5.92V364.48Z"/><path class="cls-2" d="M381.29,771.07l3.65-1.6L85.69,596.69A8.52,8.52,0,0,1,82,589.8V364.85L72.56,352a1.43,1.43,0,0,1,.46-2.11l10.33-5.72a3,3,0,0,1,3.46-.05L403.52,527a8.53,8.53,0,0,1,3.66,6.88V776.23a4,4,0,0,1-1.48,3.38l-11.86,6.57Zm-296.7-425-9.67,5.37,9.36,12.69V589.8a6.28,6.28,0,0,0,2.53,4.94l303.11,175-5,2.19,9.46,11.39,10.09-5.59a1.9,1.9,0,0,0,.46-1.5V533.88a6.31,6.31,0,0,0-2.53-4.94L85.69,346.09a1.3,1.3,0,0,0-.62-.2A.8.8,0,0,0,84.59,346.06Z"/><path class="cls-2" d="M75.18,601.86,391.89,784.72c1.71,1,3.1-.07,3.1-2.35V540a7.43,7.43,0,0,0-3.1-5.92L75.18,351.26c-1.71-1-3.1.06-3.1,2.34V596A7.43,7.43,0,0,0,75.18,601.86Z"/><path class="cls-2" d="M391.33,785.69,74.62,602.83A8.53,8.53,0,0,1,71,596V353.6a3.82,3.82,0,0,1,1.63-3.48,3.09,3.09,0,0,1,3.15.16L392.45,533.14a8.51,8.51,0,0,1,3.66,6.89V782.38a3.8,3.8,0,0,1-1.63,3.47,2.71,2.71,0,0,1-1.36.36A3.61,3.61,0,0,1,391.33,785.69ZM73.72,352.07c-.24.13-.51.61-.51,1.53V596a6.31,6.31,0,0,0,2.53,4.94L392.45,783.74c.18.11.63.33.91.16s.5-.61.5-1.52V540a6.28,6.28,0,0,0-2.53-4.94L74.62,352.23A1.51,1.51,0,0,0,74,352,.44.44,0,0,0,73.72,352.07Z"/><path class="cls-8" d="M75.64,597.34,391.43,779.66c.5.29.91,0,.91-.69V538.84a2.18,2.18,0,0,0-.91-1.73L75.64,354.78c-.5-.29-.91,0-.91.69V595.6A2.19,2.19,0,0,0,75.64,597.34Z"/><path class="cls-2" d="M390.87,780.63,75.08,598.31h0a3.26,3.26,0,0,1-1.46-2.71V355.47a1.9,1.9,0,0,1,.87-1.71,1.69,1.69,0,0,1,1.72.05L392,536.13a3.26,3.26,0,0,1,1.48,2.71V779a1.89,1.89,0,0,1-.88,1.71,1.62,1.62,0,0,1-.8.21A1.79,1.79,0,0,1,390.87,780.63Zm-315-185a1.11,1.11,0,0,0,.35.76l315,181.88V538.84a1.13,1.13,0,0,0-.35-.76l-315-181.87Z"/><path class="cls-2" d="M72.08,596.23V582.37L395,768.8v13.86c0,2.12-1.49,3-3.33,1.92L75.41,602A7.35,7.35,0,0,1,72.08,596.23Z"/><path class="cls-2" d="M391.1,785.55,74.85,603A8.49,8.49,0,0,1,71,596.23V580.42L395.55,767.83l.56.32v14.51a3.46,3.46,0,0,1-1.53,3.13,2.93,2.93,0,0,1-1.43.37A4.06,4.06,0,0,1,391.1,785.55ZM73.21,584.32v11.91A6.22,6.22,0,0,0,76,601L392.22,783.61a1.38,1.38,0,0,0,1.23.23c.26-.15.41-.59.41-1.18V769.45Z"/><rect class="cls-6" x="232.67" y="660.83" width="1.73" height="47.22" transform="translate(-475.92 544.21) rotate(-59.98)"/><rect class="cls-2" x="394.3" y="532.47" width="12.66" height="2.25" transform="translate(-217.5 282.32) rotate(-30.98)"/><rect class="cls-2" x="92.21" y="357.25" width="12.65" height="2.25" transform="matrix(0.86, -0.51, 0.51, 0.86, -170.41, 101.84)"/><rect class="cls-2" x="394.31" y="762.09" width="12.66" height="2.25" transform="translate(-335.67 315.04) rotate(-30.98)"/><polygon class="cls-6" points="297.18 732.27 298.05 730.77 291.19 726.78 290.32 728.28 297.18 732.27"/><rect class="cls-2" x="394.91" y="753.74" width="12.65" height="2.25" transform="translate(-331.33 314.22) rotate(-30.98)"/><rect class="cls-2" x="99.2" y="361.2" width="12.65" height="2.25" transform="translate(-171.46 106.02) rotate(-30.98)"/><rect class="cls-2" x="394.87" y="544" width="12.65" height="2.25" transform="translate(-223.36 284.26) rotate(-30.98)"/><path class="cls-8" d="M346.26,710.06,120.45,579.69a4.88,4.88,0,0,1-2-3.88V414.35c0-1.5.91-2.18,2-1.54L346.26,543.18a4.88,4.88,0,0,1,2,3.88V708.52C348.29,710,347.38,710.7,346.26,710.06Z"/><path class="cls-13" d="M347.07,711.18a2.55,2.55,0,0,1-1.26-.36L120,580.45a5.75,5.75,0,0,1-2.48-4.64V414.35a2.65,2.65,0,0,1,1.15-2.41,2.18,2.18,0,0,1,2.21.11L346.7,542.42a5.74,5.74,0,0,1,2.47,4.64V708.52a2.64,2.64,0,0,1-1.14,2.41A1.91,1.91,0,0,1,347.07,711.18ZM119.64,413.46a.11.11,0,0,0-.08,0c-.1.06-.25.34-.25.87V575.81a4,4,0,0,0,1.58,3.11L346.7,709.29a.55.55,0,0,0,.44.1c.11-.06.26-.34.26-.87V547.06a4,4,0,0,0-1.59-3.11L120,413.58A.83.83,0,0,0,119.64,413.46Z"/><path class="cls-8" d="M109.38,573.29,101.91,569a4.84,4.84,0,0,1-2-3.87V403.65c0-1.5.91-2.18,2-1.54l7.47,4.31a4.88,4.88,0,0,1,2,3.88V571.76C111.41,573.26,110.5,573.94,109.38,573.29Z"/><path class="cls-13" d="M110.19,574.42a2.49,2.49,0,0,1-1.25-.36l-7.47-4.31A5.74,5.74,0,0,1,99,565.11V403.65a2.64,2.64,0,0,1,1.14-2.41,2.22,2.22,0,0,1,2.22.1l7.46,4.32a5.75,5.75,0,0,1,2.48,4.64V571.76a2.65,2.65,0,0,1-1.15,2.41A1.89,1.89,0,0,1,110.19,574.42Zm-.37-1.89a.57.57,0,0,0,.45.1c.08,0,.25-.3.25-.87V410.3a4,4,0,0,0-1.58-3.11l-7.47-4.31a.58.58,0,0,0-.44-.11c-.09.06-.26.3-.26.88V565.11a4,4,0,0,0,1.59,3.11Z"/><path class="cls-8" d="M372.62,725.28l-15.06-8.7a4.85,4.85,0,0,1-2-3.88V551.25c0-1.5.91-2.19,2-1.54l15.06,8.7a4.84,4.84,0,0,1,2,3.87V723.74C374.65,725.24,373.74,725.92,372.62,725.28Z"/><path class="cls-13" d="M373.43,726.41a2.5,2.5,0,0,1-1.25-.37l-15.06-8.69a5.75,5.75,0,0,1-2.48-4.65V551.25a2.65,2.65,0,0,1,1.15-2.41,2.18,2.18,0,0,1,2.21.1l15.07,8.7a5.77,5.77,0,0,1,2.47,4.64V723.74a2.65,2.65,0,0,1-1.15,2.41A1.89,1.89,0,0,1,373.43,726.41ZM356.76,550.35l-.08,0c-.11.06-.26.34-.26.88V712.7a4,4,0,0,0,1.58,3.12l15.07,8.69a.57.57,0,0,0,.44.11c.1-.06.25-.35.25-.88V562.28a4,4,0,0,0-1.58-3.11l-15.06-8.69A.83.83,0,0,0,356.76,550.35Z"/><path class="cls-8" d="M346.26,557.2,120.45,426.83a4.86,4.86,0,0,1-2-3.88v-8.6c0-1.5.91-2.18,2-1.54L346.26,543.18a4.88,4.88,0,0,1,2,3.88v8.6C348.29,557.16,347.38,557.85,346.26,557.2Z"/><path class="cls-13" d="M347.07,558.33a2.55,2.55,0,0,1-1.26-.36L120,427.6a5.75,5.75,0,0,1-2.48-4.65v-8.6a2.65,2.65,0,0,1,1.15-2.41,2.18,2.18,0,0,1,2.21.11L346.7,542.42a5.74,5.74,0,0,1,2.47,4.64v8.6a2.63,2.63,0,0,1-1.14,2.41A1.92,1.92,0,0,1,347.07,558.33ZM119.64,413.46a.11.11,0,0,0-.08,0c-.1.06-.25.34-.25.87V423a4,4,0,0,0,1.58,3.11L346.7,556.43a.57.57,0,0,0,.44.11c.11-.06.26-.34.26-.88v-8.6a4,4,0,0,0-1.59-3.11L120,413.58A.83.83,0,0,0,119.64,413.46Z"/><path class="cls-13" d="M325.79,538.38c0,1.53-1.08,2.15-2.41,1.39a5.32,5.32,0,0,1-2.4-4.17c0-1.54,1.07-2.16,2.4-1.39A5.3,5.3,0,0,1,325.79,538.38Z"/><path class="cls-13" d="M333.74,543c0,1.53-1.07,2.16-2.4,1.39a5.34,5.34,0,0,1-2.41-4.17c0-1.54,1.08-2.16,2.41-1.39A5.29,5.29,0,0,1,333.74,543Z"/><path class="cls-13" d="M129.09,424.81c0,1.54-1.08,2.16-2.41,1.39a5.34,5.34,0,0,1-2.4-4.17c0-1.53,1.08-2.16,2.4-1.39A5.34,5.34,0,0,1,129.09,424.81Z"/><path class="cls-13" d="M137,429.4c0,1.54-1.07,2.16-2.4,1.39a5.3,5.3,0,0,1-2.41-4.17c0-1.53,1.08-2.16,2.41-1.39A5.32,5.32,0,0,1,137,429.4Z"/><path class="cls-13" d="M341.7,547.56c0,1.53-1.08,2.16-2.41,1.39a5.34,5.34,0,0,1-2.41-4.17c0-1.54,1.08-2.16,2.41-1.39A5.32,5.32,0,0,1,341.7,547.56Z"/><path class="cls-8" d="M167.55,510.56l-36.43-21a4.86,4.86,0,0,1-2-3.88v-39c0-1.5.91-2.18,2-1.54l36.43,21a4.84,4.84,0,0,1,2,3.87v39C169.58,510.52,168.67,511.21,167.55,510.56Z"/><path class="cls-13" d="M168.36,511.69a2.49,2.49,0,0,1-1.25-.36l-36.43-21a5.74,5.74,0,0,1-2.47-4.65v-39a2.64,2.64,0,0,1,1.14-2.41,2.22,2.22,0,0,1,2.22.1l36.43,21a5.77,5.77,0,0,1,2.47,4.64v39a2.65,2.65,0,0,1-1.15,2.41A1.89,1.89,0,0,1,168.36,511.69ZM168,509.8c.19.11.36.15.44.1s.26-.3.26-.87V470a4,4,0,0,0-1.59-3.11l-36.43-21a.58.58,0,0,0-.44-.11c-.11.06-.26.35-.26.88v39a4,4,0,0,0,1.59,3.11Z"/><path class="cls-8" d="M336.21,637.42l-22-12.7a4.86,4.86,0,0,1-2-3.88V552.32c0-1.5.91-2.18,2-1.54l22,12.7a4.86,4.86,0,0,1,2,3.88v68.52C338.24,637.38,337.33,638.06,336.21,637.42Z"/><path class="cls-13" d="M337,638.55a2.4,2.4,0,0,1-1.25-.37l-22-12.69a5.75,5.75,0,0,1-2.48-4.65V552.32a2.65,2.65,0,0,1,1.15-2.41,2.18,2.18,0,0,1,2.21.11l22,12.69a5.75,5.75,0,0,1,2.48,4.65v68.52a2.65,2.65,0,0,1-1.15,2.41A1.89,1.89,0,0,1,337,638.55Zm-23.6-87.12s-.06,0-.08,0-.26.34-.26.87v68.52a4,4,0,0,0,1.58,3.11l22,12.7a.6.6,0,0,0,.45.11c.1-.06.25-.35.25-.88V567.36a4,4,0,0,0-1.58-3.11l-22-12.7A.79.79,0,0,0,313.42,551.43Z"/><path class="cls-8" d="M336.21,652.4l-22-12.7a4.86,4.86,0,0,1-2-3.88v-2.07c0-1.5.91-2.19,2-1.54l22,12.7a4.86,4.86,0,0,1,2,3.88v2.07C338.24,652.36,337.33,653.05,336.21,652.4Z"/><path class="cls-13" d="M335.85,653.21l-.21-.13-10.05-5.79.88-1.54,10.18,5.88Zm1.47-4.87a3.89,3.89,0,0,0-1.55-2.66L329,641.79l.89-1.54,6.73,3.89a5.67,5.67,0,0,1,2.43,4Zm-16.82-4-6.72-3.88a5.66,5.66,0,0,1-2.43-4l1.76-.23a4,4,0,0,0,1.55,2.67l6.73,3.88Zm3.44-5.5-10.23-5.91.49-.74.23-.85.23.09,10.17,5.87Z"/><path class="cls-8" d="M336.21,692.35l-22-12.7a4.86,4.86,0,0,1-2-3.88v-2.08c0-1.49.91-2.18,2-1.53l22,12.7a4.84,4.84,0,0,1,2,3.87v2.08C338.24,692.31,337.33,693,336.21,692.35Z"/><path class="cls-8" d="M337,693.48a2.5,2.5,0,0,1-1.25-.37l-22-12.69a5.75,5.75,0,0,1-2.48-4.65v-2.08a2.62,2.62,0,0,1,1.15-2.4,2.15,2.15,0,0,1,2.21.1l22,12.7a5.75,5.75,0,0,1,2.48,4.65v2.07a2.65,2.65,0,0,1-1.15,2.41A1.89,1.89,0,0,1,337,693.48Zm-23.6-20.68-.08,0c-.11.06-.26.34-.26.87v2.08a4,4,0,0,0,1.58,3.11l22,12.7a.6.6,0,0,0,.45.11c.1-.06.25-.35.25-.88v-2.07a4,4,0,0,0-1.58-3.12l-22-12.69A.83.83,0,0,0,313.42,672.8Z"/><path class="cls-8" d="M336.21,678l-22-12.7a4.84,4.84,0,0,1-2-3.87V648.77c0-1.5.91-2.18,2-1.54l22,12.7a4.86,4.86,0,0,1,2,3.88v12.67C338.24,678,337.33,678.66,336.21,678Z"/><path class="cls-13" d="M335.85,678.82l-.21-.13-8.7-5,.89-1.53,8.82,5.09Zm3.28-4.21h-1.78V664.42h1.78Zm-16.6-3.47-8.75-5.06.81-1.58,8.83,5.1Zm-9.45-10.33H311.3V650.62h1.78Zm22.68-.12L327,655.63l.88-1.53,8.77,5.06-.38.8Zm-13.17-7.61L313.71,648l.49-.74.23-.85.23.09,8.81,5.09Z"/><path class="cls-8" d="M167.55,595l-36.43-21a4.86,4.86,0,0,1-2-3.88V499.44c0-1.49.91-2.18,2-1.53l36.43,21a4.86,4.86,0,0,1,2,3.88v70.62C169.58,594.93,168.67,595.62,167.55,595Z"/><path class="cls-13" d="M167.14,595.76l-9.31-5.37.89-1.54L168,594.2Zm3.33-4.45H168.7V580.6h1.77Zm-17.27-3.6-9.28-5.36.89-1.53,9.27,5.35Zm-13.92-8-8.6-5a3.78,3.78,0,0,1-.79-.62l1.25-1.25a2.06,2.06,0,0,0,.43.33l8.6,5Zm31.19-4.43H168.7V564.54h1.77ZM130,568.48h-1.77V557.77H130Zm40.49-9.3H168.7v-10.7h1.77ZM130,552.42h-1.77V541.71H130Zm40.49-9.3H168.7V532.41h1.77ZM130,536.35h-1.77v-10.7H130Zm40.49-9.29H168.7v-4.24a4,4,0,0,0-1.59-3.11l-1.67-1,.89-1.54,1.67,1a5.77,5.77,0,0,1,2.47,4.65ZM130,520.29h-1.77V509.58H130Zm30.83-4.22-9.28-5.35.89-1.54,9.27,5.35Zm-13.92-8-9.27-5.36.89-1.53,9.27,5.35ZM130,504.23h-1.77v-4.79c0-2.56,1.89-3.15,3.36-2.3l2.3,1.33L133,500l-2.3-1.33a.79.79,0,0,0-.36-.13c-.2,0-.34.38-.34.89Z"/><path class="cls-8" d="M302.94,673.14l-36.43-21a4.88,4.88,0,0,1-2-3.88V524.77c0-1.49.91-2.18,2-1.53l36.43,21a4.88,4.88,0,0,1,2,3.88V671.6C305,673.1,304.06,673.79,302.94,673.14Z"/><path class="cls-13" d="M303.75,674.27a2.49,2.49,0,0,1-1.25-.36h0l-36.43-21a5.75,5.75,0,0,1-2.48-4.64V524.77a2.65,2.65,0,0,1,1.15-2.41,2.18,2.18,0,0,1,2.21.11l36.43,21a5.77,5.77,0,0,1,2.48,4.65V671.6a2.65,2.65,0,0,1-1.15,2.41A1.89,1.89,0,0,1,303.75,674.27Zm-.37-1.9a.59.59,0,0,0,.45.11c.08-.05.25-.3.25-.88V548.15A4,4,0,0,0,302.5,545l-36.43-21c-.19-.11-.37-.16-.45-.11s-.25.3-.25.87V648.23a4,4,0,0,0,1.58,3.11l36.43,21Z"/><path class="cls-8" d="M255.44,633.31l-4.83-2.79a4.86,4.86,0,0,1-2-3.88v-111c0-1.49.91-2.18,2-1.53l4.83,2.79a4.84,4.84,0,0,1,2,3.87V631.78C257.47,633.27,256.56,634,255.44,633.31Z"/><path class="cls-13" d="M256.25,634.44a2.49,2.49,0,0,1-1.25-.36l-4.84-2.79a5.77,5.77,0,0,1-2.47-4.65v-111a2.65,2.65,0,0,1,1.15-2.41,2.18,2.18,0,0,1,2.21.11l4.83,2.79a5.75,5.75,0,0,1,2.48,4.64V631.78a2.62,2.62,0,0,1-1.15,2.4A1.89,1.89,0,0,1,256.25,634.44ZM249.8,514.7l-.08,0c-.1.06-.26.34-.26.87v111a4,4,0,0,0,1.59,3.11l4.83,2.79a.58.58,0,0,0,.44.11c.11-.06.26-.34.26-.87V520.72a4,4,0,0,0-1.58-3.11l-4.84-2.78A.72.72,0,0,0,249.8,514.7Z"/><path class="cls-8" d="M255.58,645.79l-5.11-2.95a4.51,4.51,0,0,1-1.89-3.61h0c0-1.39.84-2,1.89-1.42l5.11,3a4.53,4.53,0,0,1,1.89,3.61h0C257.47,645.76,256.62,646.4,255.58,645.79Z"/><path class="cls-13" d="M256.33,646.91a2.36,2.36,0,0,1-1.19-.35L250,643.61a5.46,5.46,0,0,1-2.33-4.38,2.51,2.51,0,0,1,1.1-2.29,2.08,2.08,0,0,1,2.12.1l5.11,3a5.42,5.42,0,0,1,2.34,4.38,2.51,2.51,0,0,1-1.1,2.29A1.78,1.78,0,0,1,256.33,646.91ZM256,645c.19.11.32.12.35.1s.21-.24.21-.76a3.69,3.69,0,0,0-1.44-2.85L250,638.57c-.19-.11-.31-.12-.35-.1s-.21.24-.21.76a3.7,3.7,0,0,0,1.45,2.85Z"/><path class="cls-8" d="M239.26,583.54l-60.71-35a4.88,4.88,0,0,1-2-3.88V474c0-1.49.91-2.18,2-1.53l60.71,35a4.88,4.88,0,0,1,2,3.88V582C241.29,583.5,240.38,584.18,239.26,583.54Z"/><path class="cls-13" d="M238.84,584.32l-9.05-5.23.89-1.53,9,5.21Zm3.33-4.3H240.4V569.6h1.77Zm-16.89-3.53-9-5.21.89-1.54,9,5.21Zm-13.54-7.82-9-5.21.89-1.54,9,5.22Zm30.43-4.28H240.4V554h1.77Zm-44-3.54-9-5.21.89-1.53,9,5.21ZM184.66,553l-6.55-3.78a5.19,5.19,0,0,1-2.09-2.69l1.66-.62a3.52,3.52,0,0,0,1.32,1.77l6.55,3.78Zm57.51-4.29H240.4V538.33h1.77Zm-64.76-7.66h-1.77V530.67h1.77Zm64.76-8H240.4V522.7h1.77Zm-64.76-7.66h-1.77V515h1.77Zm64.76-8H240.4v-6.11a4.11,4.11,0,0,0-1.46-3l1-1.45a5.81,5.81,0,0,1,2.2,4.48Zm-64.76-7.66h-1.77V499.4h1.77Zm57.09-4.05-9-5.21.88-1.53,9,5.21ZM221,498l-9-5.21.89-1.54,9,5.21Zm-43.55-3.78h-1.77V483.77h1.77Zm30-4-9-5.21.89-1.54,9,5.21Zm-13.54-7.82-9-5.21.89-1.53,9,5.21Zm-16.48-3.77h-1.77V474c0-2.56,1.88-3.15,3.36-2.3l2.24,1.29-.89,1.54-2.24-1.29a.79.79,0,0,0-.36-.13c-.19,0-.34.39-.34.89Z"/><path class="cls-8" d="M239.26,607.7l-60.71-35.05a4.86,4.86,0,0,1-2-3.88V558.4c0-1.5.91-2.18,2-1.54l60.71,35a4.88,4.88,0,0,1,2,3.88v10.37C241.29,607.66,240.38,608.34,239.26,607.7Z"/><path class="cls-8" d="M240.07,608.83a2.55,2.55,0,0,1-1.26-.36l-60.7-35.05a5.74,5.74,0,0,1-2.47-4.65V558.4a2.66,2.66,0,0,1,1.14-2.41,2.2,2.2,0,0,1,2.22.11l60.7,35a5.76,5.76,0,0,1,2.47,4.65v10.37a2.64,2.64,0,0,1-1.14,2.41A1.92,1.92,0,0,1,240.07,608.83Zm-.37-1.9a.57.57,0,0,0,.44.11c.09,0,.26-.3.26-.88V595.79a4,4,0,0,0-1.59-3.11l-60.7-35a.57.57,0,0,0-.44-.11,1.15,1.15,0,0,0-.26.88v10.37a4,4,0,0,0,1.59,3.11Z"/><path class="cls-8" d="M239.26,636.37l-60.71-35a4.84,4.84,0,0,1-2-3.87V581.92c0-1.5.91-2.18,2-1.54l60.71,35a4.86,4.86,0,0,1,2,3.88v15.53C241.29,636.33,240.38,637,239.26,636.37Z"/><path class="cls-13" d="M240.07,637.5a2.55,2.55,0,0,1-1.26-.36l-60.7-35a5.74,5.74,0,0,1-2.47-4.64V581.92a2.66,2.66,0,0,1,1.14-2.41,2.19,2.19,0,0,1,2.22.1l60.7,35a5.74,5.74,0,0,1,2.47,4.65v15.53a2.61,2.61,0,0,1-1.14,2.4A1.92,1.92,0,0,1,240.07,637.5ZM177.75,581h-.08c-.1.06-.26.35-.26.88v15.53a4,4,0,0,0,1.59,3.11l60.7,35a.57.57,0,0,0,.44.11c.11-.06.26-.34.26-.87V619.31a4,4,0,0,0-1.59-3.11l-60.7-35.05A.79.79,0,0,0,177.75,581Z"/><path class="cls-13" d="M366,714.26H364.2v-9.57H366Zm0-14.89H364.2V688.73H366Zm0-16H364.2V672.77H366Zm0-15.95H364.2V656.82H366Zm0-16H364.2V640.86H366Zm0-16H364.2V624.9H366Zm0-16H364.2V608.94H366Zm0-16H364.2V593H366Zm0-16H364.2V577H366Zm0-16H364.2V561.07H366Z"/><path class="cls-13" d="M93.46,563.59H91.69v-7.28h1.77Zm0-12.6H91.69V540.35h1.77Zm0-16H91.69V524.39h1.77Zm0-16H91.69V508.43h1.77Zm0-16H91.69V492.47h1.77Zm0-16H91.69V476.52h1.77Zm0-15.95H91.69V460.56h1.77Zm0-16H91.69V444.6h1.77Zm0-16H91.69V428.64h1.77Zm0-16H91.69V412.68h1.77Zm0-16H91.69V396.72h1.77Z"/><path class="cls-8" d="M186.78,598.58c0,1.54-1.08,2.16-2.41,1.39A5.32,5.32,0,0,1,182,595.8c0-1.53,1.08-2.16,2.41-1.39A5.34,5.34,0,0,1,186.78,598.58Z"/><path class="cls-8" d="M321.78,620.71c0,1.54-1.08,2.16-2.41,1.39a5.34,5.34,0,0,1-2.41-4.17c0-1.54,1.08-2.16,2.41-1.39A5.32,5.32,0,0,1,321.78,620.71Z"/><path class="cls-8" d="M137,455.9c0,1.54-1.07,2.16-2.4,1.39a5.32,5.32,0,0,1-2.41-4.17c0-1.53,1.08-2.16,2.41-1.39A5.32,5.32,0,0,1,137,455.9Z"/><path class="cls-8" d="M273.89,534.91c0,1.54-1.08,2.16-2.41,1.39a5.34,5.34,0,0,1-2.41-4.17c0-1.54,1.08-2.16,2.41-1.39A5.32,5.32,0,0,1,273.89,534.91Z"/><path class="cls-8" d="M407.56,678.88l-36.43-21a1.27,1.27,0,0,0-1.3-.1h0a.75.75,0,0,0-.15.09l-9.37,5.55a.08.08,0,0,0,0,.11l8.81,14.76a.06.06,0,0,1,0,0v-4.71a4.86,4.86,0,0,0,2,3.88l18.77,10.84s0,0,0,0l9.44,15.82a.08.08,0,0,0,.11,0l9.49-5.64a1.87,1.87,0,0,0,.62-1.58V682.76A4.88,4.88,0,0,0,407.56,678.88Z"/><path class="cls-2" d="M399.66,705.42l-1-.22-.29-.46-9.3-15.57-18.53-10.7a2.61,2.61,0,0,1-.3-.2v0H369.1l-1,.63-9-15.71.55-.82,9.56-5.66a2.46,2.46,0,0,1,2.44.11l36.43,21a6,6,0,0,1,2.6,4.87V697a2.94,2.94,0,0,1-1.11,2.52ZM368,673.59h2.3a3.75,3.75,0,0,0,1.46,2.88l19,11,.18.29,8.88,14.89,8.57-5.09c-.05,0,.06-.17.06-.59V682.76a3.76,3.76,0,0,0-1.46-2.88l-36.43-21a.43.43,0,0,0-.2-.08h0l-8.52,5.06L368,674.1Z"/><path class="cls-2" d="M388.19,683.11a.14.14,0,0,0,0,.06l.26,4.29,1.47.85s0,0,0,0l9.39,15.73.25.06,9.4-5.58a1.87,1.87,0,0,0,.62-1.58v-14a.1.1,0,0,0-.15-.09l-9.29,5.51,0,0Z"/><path class="cls-2" d="M399.75,705.37l-1.18-.3-9.49-15.91-1.76-1-.32-5.27.72-1.23L400,687.1l9.39-5.58,1.27.66.05.76v14a2.94,2.94,0,0,1-1.11,2.52Zm-10.21-18.6,1.21.69.18.3,8.88,14.89,8.57-5.09c-.05,0,.06-.17.06-.59V684.79L401,689.23l-.39.63-11.14-4.93Z"/><path class="cls-6" d="M398.1,704.12l-36.43-21a4.88,4.88,0,0,1-2-3.88V665c0-1.49.91-2.18,2-1.53l36.43,21a4.86,4.86,0,0,1,2,3.88v14.2C400.13,704.08,399.22,704.77,398.1,704.12Z"/><path class="cls-2" d="M398.91,705.51a2.78,2.78,0,0,1-1.38-.39l-36.43-21a5.93,5.93,0,0,1-2.61-4.87V665a2.91,2.91,0,0,1,1.28-2.64,2.44,2.44,0,0,1,2.48.11l36.43,21a6,6,0,0,1,2.61,4.88v14.2a2.93,2.93,0,0,1-1.28,2.65A2.22,2.22,0,0,1,398.91,705.51Zm-38-41.14h0s-.07.21-.07.63v14.21a3.76,3.76,0,0,0,1.45,2.88l36.43,21a.69.69,0,0,0,.23.09h0a6.09,6.09,0,0,0,.07-.63v-14.2a3.77,3.77,0,0,0-1.45-2.88l-36.43-21A.69.69,0,0,0,360.87,664.37Z"/><rect class="cls-2" x="366.28" y="663.04" width="10.7" height="2.31" transform="matrix(0.85, -0.53, 0.53, 0.85, -295.01, 296.96)"/><rect class="cls-6" x="400.3" y="693.34" width="9.34" height="1.77" transform="translate(-299.87 308.02) rotate(-31.02)"/><path class="cls-8" d="M139.43,476.5,117.84,464a.76.76,0,0,0-.82,0l-9.08,5.66a.36.36,0,0,0-.12.49l8.76,9.4a.29.29,0,0,1,0,.18v3a2.86,2.86,0,0,0,1.21,2.29l3-3.58a.4.4,0,0,1,.13.13l9.64,10.88a.38.38,0,0,0,.51.12l9.11-5.68a1.81,1.81,0,0,0,.39-.95V478.8A2.9,2.9,0,0,0,139.43,476.5Z"/><path class="cls-2" d="M130.93,493.81a1.47,1.47,0,0,1-.36,0,1.53,1.53,0,0,1-.86-.57l-8.83-10-2.78,3.31-.84-.48a4,4,0,0,1-1.78-3.29v-2.71l-8.65-9.31a1.53,1.53,0,0,1,.5-2.07l9.08-5.66a1.88,1.88,0,0,1,2,0L140,475.5a4.06,4.06,0,0,1,1.78,3.3V486a2.92,2.92,0,0,1-.66,1.69l-.28.25-9.11,5.68A1.54,1.54,0,0,1,130.93,493.81Zm-9-12.91,9.2,10.37,8.33-5.19a.48.48,0,0,0,.06-.14V478.8a1.79,1.79,0,0,0-.63-1.3l-21.44-12.38-8,5,8.2,8.83a1.5,1.5,0,0,1,.22.77v3a1.33,1.33,0,0,0,.08.47l2.72-3.24.84.48A1.54,1.54,0,0,1,121.89,480.9Z"/><path class="cls-2" d="M124.26,486.31l-.06.6,6.36,5.36a.6.6,0,0,0,.84.2l8.9-5.54a1.79,1.79,0,0,0,.4-.95v-6.74a.25.25,0,0,0-.38-.21l-9,5.61a.2.2,0,0,0-.09.09Z"/><path class="cls-2" d="M131.08,493.72a2,2,0,0,1-.41-.05,1.72,1.72,0,0,1-1-.61L123,487.4l.22-2,7.51-1.71,9-5.6a1.4,1.4,0,0,1,2.14,1.18V486a3,3,0,0,1-.66,1.69l-.28.25-8.9,5.54A1.71,1.71,0,0,1,131.08,493.72Zm-4.91-6.66,5,4.21,8.32-5.19a.39.39,0,0,0,.06-.14v-5.06l-7.4,4.61-.13.24Z"/><path class="cls-6" d="M130,492.76l-21.59-12.47a2.86,2.86,0,0,1-1.21-2.3v-7.17c0-.89.54-1.3,1.21-.91L130,482.37a2.91,2.91,0,0,1,1.2,2.3v7.18C131.21,492.73,130.67,493.14,130,492.76Z"/><path class="cls-2" d="M130.49,494.05a2.14,2.14,0,0,1-1.06-.3l-21.59-12.46a4,4,0,0,1-1.78-3.3v-7.17a2.17,2.17,0,0,1,1-2,1.88,1.88,0,0,1,1.94.06l21.6,12.46a4.06,4.06,0,0,1,1.78,3.3v7.18a2.18,2.18,0,0,1-1,2A1.7,1.7,0,0,1,130.49,494.05Zm.09-2.29-.57,1,.59-1Zm-22.2-20.54V478a1.77,1.77,0,0,0,.62,1.3l21.06,12.16v-6.78a1.81,1.81,0,0,0-.63-1.3Z"/><rect class="cls-2" x="112.98" y="468.61" width="10.7" height="2.31" transform="translate(-230.5 133.62) rotate(-31.92)"/><path class="cls-8" d="M139.63,513.55l-7.48-4.38a.75.75,0,0,0-.81,0l-9.09,5.66a.35.35,0,0,0-.11.49l8.76,9.4a.37.37,0,0,1,0,.18v3c0,.89,3.55-1.67,4.22-1.28h0a.4.4,0,0,1,.13.13l-4.48,2.78a.36.36,0,0,0,.5.13l9.11-5.68a1.84,1.84,0,0,0,.4-1v-7.17A2.88,2.88,0,0,0,139.63,513.55Z"/><path class="cls-2" d="M131.14,530.86a1.47,1.47,0,0,1-.36,0,1.55,1.55,0,0,1-.95-.69l-.58-1,.68-.43-.06,0-.07-.8v-2.7l-8.66-9.32a1.53,1.53,0,0,1,.5-2.06l9.09-5.66a1.88,1.88,0,0,1,2,0l7.48,4.37a4.05,4.05,0,0,1,1.77,3.3V523a2.92,2.92,0,0,1-.66,1.69L141,525l-9.11,5.67A1.4,1.4,0,0,1,131.14,530.86Zm-7.45-15.6,8.19,8.81a1.6,1.6,0,0,1,.22.8v1.64l.36-.17c1.38-.69,2.39-1.19,3.22-.76l3.94-2.45a1.14,1.14,0,0,0,.06-.14v-7.14a1.77,1.77,0,0,0-.63-1.3h0l-7.32-4.28Z"/><path class="cls-2" d="M124.46,523.36s0,.22-.06.6l6.36,5.36a.6.6,0,0,0,.84.2l8.9-5.54a1.86,1.86,0,0,0,.39-1v-6.73a.24.24,0,0,0-.37-.21l-9,5.61a.24.24,0,0,0-.09.08Z"/><path class="cls-2" d="M131.28,530.77a2,2,0,0,1-.41,0,1.78,1.78,0,0,1-1-.61l-6.71-5.66.21-2,7.51-1.71,9-5.61a1.4,1.4,0,0,1,2.14,1.19V523a2.92,2.92,0,0,1-.66,1.69l-.28.25-8.9,5.54A1.71,1.71,0,0,1,131.28,530.77Zm-4.91-6.66,5,4.21,8.32-5.19a.48.48,0,0,0,.06-.14v-5.07l-7.4,4.62-.13.24Z"/><path class="cls-6" d="M130.21,529.81l-7.48-4.38a2.9,2.9,0,0,1-1.2-2.3V516c0-.88.54-1.29,1.2-.91l7.48,4.38a2.9,2.9,0,0,1,1.2,2.3v7.18C131.41,529.78,130.87,530.19,130.21,529.81Z"/><path class="cls-2" d="M130.69,531.1a2.14,2.14,0,0,1-1.06-.3h0l-7.47-4.38a4,4,0,0,1-1.77-3.29V516a2.19,2.19,0,0,1,1-2,1.91,1.91,0,0,1,1.94.07l7.48,4.38a4,4,0,0,1,1.77,3.29v7.18a2.19,2.19,0,0,1-1,2A1.81,1.81,0,0,1,130.69,531.1Zm.1-2.29-.58,1,.59-1Zm-8.09-12.45,0,6.77a1.81,1.81,0,0,0,.63,1.3l6.93,4.06,0-6.77a1.81,1.81,0,0,0-.63-1.3Z"/><path class="cls-8" d="M367.6,586.12l-7.47-4.38a.76.76,0,0,0-.82,0l-9.08,5.66a.36.36,0,0,0-.12.49l8.76,9.4a.29.29,0,0,1,.05.18v3c0,.89,3.56-1.66,4.22-1.28h0a.4.4,0,0,1,.13.13l-4.47,2.79a.37.37,0,0,0,.5.12l9.11-5.68a1.81,1.81,0,0,0,.39-.95v-7.18A2.9,2.9,0,0,0,367.6,586.12Z"/><path class="cls-2" d="M359.11,603.44a1.49,1.49,0,0,1-.36-.05,1.5,1.5,0,0,1-.94-.69l-.58-1,.67-.42,0,0-.08-.8v-2.7l-8.65-9.32a1.5,1.5,0,0,1,.5-2.06l9.08-5.66a1.88,1.88,0,0,1,2,0l7.48,4.38a4,4,0,0,1,1.78,3.29v7.18a2.88,2.88,0,0,1-.66,1.68l-.28.25-9.11,5.68A1.54,1.54,0,0,1,359.11,603.44Zm-7.45-15.6,8.19,8.81a1.48,1.48,0,0,1,.23.79v1.64l.35-.17c1.38-.68,2.38-1.18,3.22-.75l3.94-2.46a.39.39,0,0,0,.06-.14v-7.14a1.77,1.77,0,0,0-.63-1.3h0l-7.32-4.29Z"/><path class="cls-2" d="M352.43,595.93s0,.22-.06.6l6.36,5.36a.62.62,0,0,0,.85.2l8.89-5.54a1.79,1.79,0,0,0,.4-.95v-6.74a.24.24,0,0,0-.38-.2l-9,5.6a.24.24,0,0,0-.08.09Z"/><path class="cls-2" d="M359.26,603.34a2,2,0,0,1-.42-.05,1.76,1.76,0,0,1-1-.61L351.16,597l.22-2,7.51-1.71,9-5.6a1.39,1.39,0,0,1,1.42,0,1.42,1.42,0,0,1,.72,1.22v6.74a2.88,2.88,0,0,1-.66,1.68l-.28.25-8.9,5.54A1.7,1.7,0,0,1,359.26,603.34Zm-4.92-6.66,5,4.21,8.33-5.19a.73.73,0,0,0,.06-.14V590.5l-7.4,4.61-.14.24Z"/><path class="cls-6" d="M358.18,602.38,350.71,598a2.86,2.86,0,0,1-1.21-2.3v-7.17c0-.89.54-1.3,1.21-.91l7.47,4.37a2.91,2.91,0,0,1,1.2,2.3v7.18C359.38,602.35,358.84,602.76,358.18,602.38Z"/><path class="cls-2" d="M358.66,603.68a2.24,2.24,0,0,1-1.06-.3h0L350.12,599a4,4,0,0,1-1.77-3.29v-7.17a2.18,2.18,0,0,1,1-2,1.89,1.89,0,0,1,1.93.07l7.48,4.38a4,4,0,0,1,1.78,3.29v7.18a2.16,2.16,0,0,1-1,2A1.71,1.71,0,0,1,358.66,603.68Zm.1-2.3-.58,1,.59-1Zm-8.09-12.45v6.77a1.77,1.77,0,0,0,.62,1.3l6.94,4.06v-6.77a1.77,1.77,0,0,0-.63-1.3Z"/><path class="cls-8" d="M140.51,444.19l-21.59-12.47a.75.75,0,0,0-.81,0L109,437.35a.37.37,0,0,0-.12.49l8.77,14.72a.41.41,0,0,1,0,.18v3a2.91,2.91,0,0,0,1.2,2.3l3,1.74a.3.3,0,0,1,.13.12l9.65,16.2a.35.35,0,0,0,.5.12l9.11-5.67a1.84,1.84,0,0,0,.4-1V446.49A2.86,2.86,0,0,0,140.51,444.19Z"/><path class="cls-2" d="M132,477.47a1.34,1.34,0,0,1-.35,0,1.5,1.5,0,0,1-.95-.7l-9.54-16-2.84-1.64a4,4,0,0,1-1.78-3.29V453l-8.65-14.53a1.52,1.52,0,0,1,.5-2.06l9.09-5.66a1.88,1.88,0,0,1,2,0l21.59,12.46a4.06,4.06,0,0,1,1.78,3.3v23.14a3,3,0,0,1-.66,1.69l-.28.25-9.11,5.67A1.52,1.52,0,0,1,132,477.47Zm-21.73-39.55L118.66,452a1.51,1.51,0,0,1,.21.77v3a1.81,1.81,0,0,0,.63,1.3l3,1.74a1.44,1.44,0,0,1,.53.51l9.25,15.53,8.22-5.12.06-.14V446.49a1.77,1.77,0,0,0-.62-1.3l-21.45-12.38Z"/><path class="cls-2" d="M125.35,464.65s0,.22-.07.6l6.36,10.68a.62.62,0,0,0,.85.2l8.89-5.54a1.84,1.84,0,0,0,.4-1v-22.7a.25.25,0,0,0-.38-.21l-9,5.61a.24.24,0,0,0-.08.09Z"/><path class="cls-2" d="M132.17,477.38a2,2,0,0,1-.42-.05,1.79,1.79,0,0,1-1.1-.82l-6.55-11,.13-1.21,7.24-12.7.33-.24,9-5.6a1.39,1.39,0,0,1,1.42,0,1.37,1.37,0,0,1,.72,1.22v22.7a3,3,0,0,1-.65,1.69l-.29.24-8.89,5.55A1.73,1.73,0,0,1,132.17,477.38ZM126.48,465l5.87,9.87,8.22-5.12.06-.14v-21l-7.41,4.62Z"/><path class="cls-6" d="M131.09,476.41,109.5,464a2.9,2.9,0,0,1-1.2-2.3V438.51c0-.89.54-1.3,1.2-.91l21.59,12.46a2.89,2.89,0,0,1,1.21,2.3v23.15C132.3,476.39,131.76,476.8,131.09,476.41Z"/><path class="cls-2" d="M131.57,477.71a2.07,2.07,0,0,1-1-.3L108.92,465a4.06,4.06,0,0,1-1.78-3.3V438.51a2.2,2.2,0,0,1,1-2,1.91,1.91,0,0,1,1.94.07l21.59,12.46a4.06,4.06,0,0,1,1.78,3.3V475.5a2.19,2.19,0,0,1-1,2A1.87,1.87,0,0,1,131.57,477.71Zm.1-2.29-.58,1,.59-1Zm-22.2-36.51,0,22.74a1.81,1.81,0,0,0,.63,1.3l21,12.15V452.36a1.8,1.8,0,0,0-.62-1.3Z"/><rect class="cls-2" x="114.06" y="436.3" width="10.7" height="2.31" transform="translate(-213.26 129.31) rotate(-31.92)"/><rect class="cls-6" x="132.43" y="465.73" width="9.34" height="1.77" transform="translate(-221.02 137.56) rotate(-31.05)"/><path class="cls-8" d="M229.48,515.46l-60.71-35.05a1.25,1.25,0,0,0-1.37-.06h0l-.07,0-8.91,5.29a.45.45,0,0,0-.16.61l8.42,14.76a.4.4,0,0,1,.06.22v51.3a4.84,4.84,0,0,0,2,3.87l44,25.38a.46.46,0,0,1,.17.17l8.39,14.69a.44.44,0,0,0,.62.16l9-5.29a1.86,1.86,0,0,0,.64-1.59V519.34A4.86,4.86,0,0,0,229.48,515.46Z"/><path class="cls-2" d="M221.68,598.06a2,2,0,0,1-.41,0,1.56,1.56,0,0,1-1-.76L212,582.73,168.2,557.44a6,6,0,0,1-2.61-4.87V501.45l-8.33-14.59a1.6,1.6,0,0,1,.58-2.17l8.9-5.3a2.44,2.44,0,0,1,2.61,0l60.7,35.05a6,6,0,0,1,2.61,4.88V590a3,3,0,0,1-1.13,2.54l-9,5.34A1.68,1.68,0,0,1,221.68,598.06ZM159.6,486.32l8.08,14.15a1.58,1.58,0,0,1,.22.8v51.3a3.77,3.77,0,0,0,1.45,2.88l44,25.38a1.59,1.59,0,0,1,.59.59l8,14.07,8.34-4.93h0a5.53,5.53,0,0,0,.07-.6V519.34a3.74,3.74,0,0,0-1.45-2.88h0l-60.7-35.05a.55.55,0,0,0-.22-.08h0Z"/><path class="cls-2" d="M197.07,544c.25,1.23,3.36,16.91,6.43,32.49a.13.13,0,0,0,.07.09l9.13,5.28.22.21,8.3,14.54a.59.59,0,0,0,.81.21l8.84-5.22a1.86,1.86,0,0,0,.64-1.59V519.58a.14.14,0,0,0-.21-.12L222.06,525h0l-24.92,18.86A.14.14,0,0,0,197.07,544Z"/><path class="cls-2" d="M221.73,598a1.74,1.74,0,0,1-.45-.06,1.71,1.71,0,0,1-1.06-.82L212,582.73l-9.46-5.47-.16-.61c-3.07-15.57-6.18-31.24-6.43-32.47l-.12-.72.6-.55,25.12-19,9.75-5.79.72.33a1.27,1.27,0,0,1,.65,1.12V590a3,3,0,0,1-1.13,2.54l-8.91,5.27A1.78,1.78,0,0,1,221.73,598Zm-17.19-22.25,9.38,5.69,8,14,8.34-4.93h0a5.53,5.53,0,0,0,.07-.6v-68.6l-7.71,4.58h0l-24.31,18.42C199,547.63,201.76,561.67,204.54,575.76Z"/><path class="cls-6" d="M220,597.11l-60.7-35.05a4.85,4.85,0,0,1-2-3.88V487.56c0-1.49.9-2.18,2-1.53l60.7,35a4.88,4.88,0,0,1,2,3.88v70.62C222.05,597.07,221.14,597.75,220,597.11Z"/><path class="cls-2" d="M220.83,598.5a2.73,2.73,0,0,1-1.39-.4l-60.7-35a6,6,0,0,1-2.61-4.88V487.56a2.91,2.91,0,0,1,1.28-2.64,2.44,2.44,0,0,1,2.48.11l60.71,35.05a6,6,0,0,1,2.6,4.87v70.62a2.91,2.91,0,0,1-1.28,2.64A2.17,2.17,0,0,1,220.83,598.5ZM158.51,486.94h0a5.59,5.59,0,0,0-.07.62v70.62a3.79,3.79,0,0,0,1.45,2.88l60.71,35.05a.61.61,0,0,0,.22.09h0a4.7,4.7,0,0,0,.08-.63V525a3.76,3.76,0,0,0-1.46-2.88l-60.7-35A.51.51,0,0,0,158.51,486.94Z"/><rect class="cls-2" x="165.09" y="485.67" width="10.7" height="2.31" transform="translate(-231.62 163.72) rotate(-31.92)"/><rect class="cls-6" x="222.21" y="582.07" width="9.34" height="1.77" transform="translate(-268.19 200.58) rotate(-31.05)"/><path class="cls-8" d="M195.46,568.46l-9.36-5.41v-5a36.75,36.75,0,0,1-7.49-9.28l-3.74.34-4.44-11.46,3.86-.34a24.9,24.9,0,0,1-.53-4.82,17.09,17.09,0,0,1,.63-4.62l-3.8-4.73,4.87-6.94,3.92,4.88a10,10,0,0,1,6.72-.7v-5.27l9.36,5.4v5a36.93,36.93,0,0,1,7.49,9.28l3.74-.34,4.44,11.46-3.86.34a24.9,24.9,0,0,1,.53,4.82,17,17,0,0,1-.63,4.62l3.8,4.74-4.87,6.93-3.92-4.88a10,10,0,0,1-6.72.7ZM188,561.94l5.51,3.18v-4.47l1.25.37a8.41,8.41,0,0,0,7.12-.59l.73-.47,3.37,4.19,2.56-3.65L205,556.11l.14-.48a15.18,15.18,0,0,0,.7-4.56,24.85,24.85,0,0,0-.72-5.47l-.23-1.07,3.48-.31-3-7.72-3.53.32-.3-.55a35.11,35.11,0,0,0-7.71-9.58l-.34-.29v-4.74L188,518.48V523l-1.24-.38a8.37,8.37,0,0,0-7.12.59l-.73.47-3.37-4.19L173,523.1l3.52,4.39-.14.48a15.18,15.18,0,0,0-.7,4.56,24.85,24.85,0,0,0,.72,5.47l.23,1.07-3.48.31,3,7.72,3.53-.32.3.55a34.92,34.92,0,0,0,7.71,9.58l.33.29Zm5.75-10.59a5.89,5.89,0,0,1-1.62-.24h0c-5.38-1.61-10-9.68-8.74-15.15a4.49,4.49,0,0,1,6-3.46c5.38,1.61,10,9.68,8.74,15.14a4.74,4.74,0,0,1-2.19,3.14A4.34,4.34,0,0,1,193.77,551.35Zm-1.06-2.09a2.87,2.87,0,0,0,2.29-.15,2.91,2.91,0,0,0,1.28-1.91c1.07-4.55-2.95-11.52-7.43-12.86a2.6,2.6,0,0,0-3.57,2.06c-1.08,4.55,2.95,11.52,7.43,12.86Z"/><path class="cls-2" d="M204.4,552.56a23,23,0,0,0-.41-4.07,1.5,1.5,0,0,1,1.34-1.76h0a1.5,1.5,0,0,0,1.27-2L204,538a1.5,1.5,0,0,0-1.53-.95l-1.55.14a1.51,1.51,0,0,1-1.43-.75,36.41,36.41,0,0,0-6.94-8.58,1.47,1.47,0,0,1-.51-1.11v-3.3a1.5,1.5,0,0,0-.75-1.31l-4.43-2.55a1.5,1.5,0,0,0-2.25,1.3v.35a1.53,1.53,0,0,1-1.79,1.48,8.92,8.92,0,0,0-5.12.57,1.51,1.51,0,0,1-1.79-.42l-1.6-2a1.5,1.5,0,0,0-2.41.07L170,523.7a1.5,1.5,0,0,0,.05,1.81l2.49,3.09a1.5,1.5,0,0,1,.26,1.31,16.12,16.12,0,0,0-.53,4.11,23,23,0,0,0,.41,4.07,1.49,1.49,0,0,1-1.34,1.76h0a1.5,1.5,0,0,0-1.27,2l2.59,6.67a1.49,1.49,0,0,0,1.53,1l1.55-.14a1.51,1.51,0,0,1,1.43.75,36.41,36.41,0,0,0,6.94,8.58,1.47,1.47,0,0,1,.51,1.11v3.3a1.5,1.5,0,0,0,.75,1.31L189.8,567a1.5,1.5,0,0,0,2.25-1.3v-.35a1.52,1.52,0,0,1,1.79-1.47,9,9,0,0,0,5.12-.58,1.5,1.5,0,0,1,1.79.43l1.6,2a1.51,1.51,0,0,0,2.41-.08l1.91-2.73a1.5,1.5,0,0,0-.06-1.81L204.13,558a1.52,1.52,0,0,1-.27-1.31A16,16,0,0,0,204.4,552.56Zm-19.18-4.31a16,16,0,0,1-2.74-4.74c-5.36-14.68-1.06-17.16,9-5.18a16.16,16.16,0,0,1,2.74,4.74C199.55,557.75,195.25,560.23,185.22,548.25Z"/><path class="cls-8" d="M407.25,627.66l-36.43-21a1.28,1.28,0,0,0-1.31-.1h0l-.15.09L360,612.16a.08.08,0,0,0,0,.11L368.78,627s0,0,0,0V647.2a4.86,4.86,0,0,0,2,3.88l18.77,10.84s0,0,0,0l9.44,15.82a.08.08,0,0,0,.11,0l9.49-5.64a1.87,1.87,0,0,0,.62-1.58V631.53A4.84,4.84,0,0,0,407.25,627.66Z"/><path class="cls-2" d="M398.78,679.37l-.71-1-9.3-15.59-18.53-10.7a6,6,0,0,1-2.61-4.88V627.36l-8.89-14.9.22-1,.45-.3,9.53-5.65a2.43,2.43,0,0,1,2.45.11l36.44,21a6,6,0,0,1,2.6,4.87v39.05a3,3,0,0,1-1.1,2.52ZM361.51,612.6l8.42,14.11V647.2a3.77,3.77,0,0,0,1.45,2.88l19,11,.19.3,8.88,14.88,8.57-5.09s.05-.17.05-.59V631.53a3.77,3.77,0,0,0-1.45-2.88l-36.43-21a.48.48,0,0,0-.21-.08h0Z"/><path class="cls-2" d="M387.87,656.72a.13.13,0,0,0,0,.06l.26,4.29,1.47.85s0,0,0,0L399,677.68l.25.07,9.4-5.59a1.87,1.87,0,0,0,.62-1.58V631.71a.1.1,0,0,0-.15-.09l-9.29,5.52,0,0Z"/><path class="cls-2" d="M399.44,679l-1.18-.3-9.49-15.9-1.77-1-.31-5.31.2-.33L399,636.34l.26-.18,9.89-5.87,1.26.66.05.76v38.87a3,3,0,0,1-1.1,2.52Zm-10.21-18.6,1.2.7.19.3,8.88,14.88,8.57-5.09s.05-.17.05-.59v-37L400.66,638,389,657Z"/><path class="cls-6" d="M397.79,677.73l-36.43-21a4.88,4.88,0,0,1-2-3.88V613.77c0-1.49.91-2.18,2-1.53l36.43,21a4.86,4.86,0,0,1,2,3.88V676.2C399.82,677.69,398.91,678.38,397.79,677.73Z"/><path class="cls-2" d="M398.6,679.12a2.85,2.85,0,0,1-1.39-.39l-36.43-21a6,6,0,0,1-2.6-4.87V613.77a2.91,2.91,0,0,1,1.28-2.64,2.44,2.44,0,0,1,2.48.11l36.43,21a6,6,0,0,1,2.6,4.88v39a2.89,2.89,0,0,1-1.27,2.64A2.13,2.13,0,0,1,398.6,679.12Zm-.23-2.39a.62.62,0,0,0,.23.09h0s.07-.2.07-.63v-39a3.75,3.75,0,0,0-1.46-2.88l-36.43-21a.45.45,0,0,0-.22-.09h0a4.06,4.06,0,0,0-.08.62v39.05a3.76,3.76,0,0,0,1.46,2.88Z"/><rect class="cls-2" x="365.97" y="611.81" width="10.7" height="2.31" transform="translate(-267.99 289.09) rotate(-31.93)"/><rect class="cls-6" x="399.99" y="666.95" width="9.34" height="1.77" transform="translate(-286.31 304.07) rotate(-31.02)"/><path class="cls-8" d="M381.92,659.76l-4.45-2.57v-2.91a22,22,0,0,1-4.35-5.39l-2.2.2-2.28-5.88a.79.79,0,0,1,.67-1.08l1.23-.11a14.55,14.55,0,0,1-.3-2.75,10.31,10.31,0,0,1,.36-2.69l-2.24-2.79,2.34-3.33a.8.8,0,0,1,1.27,0l1.66,2.06a6,6,0,0,1,3.84-.41v-2.48a.38.38,0,0,1,.56-.32l4.9,2.82a.39.39,0,0,1,.18.33v2.7a21.64,21.64,0,0,1,4.36,5.39l1.54-.14a.87.87,0,0,1,.89.55l2.2,5.67a.48.48,0,0,1-.4.64l-1.65.15a14.55,14.55,0,0,1,.3,2.75,9.92,9.92,0,0,1-.37,2.69l1.87,2.32a.81.81,0,0,1,0,1l-2,2.84a.8.8,0,0,1-1.27,0L387,656.92a5.94,5.94,0,0,1-3.84.4v1.75A.79.79,0,0,1,381.92,659.76Zm-3.17-3.31,3.08,1.78v-2.59l.83.25a4.88,4.88,0,0,0,4.1-.34l.49-.32,1.95,2.44,1.42-2-2.06-2.56.1-.32a9.07,9.07,0,0,0,.4-2.65,14.27,14.27,0,0,0-.42-3.19l-.16-.71,2-.18-1.69-4.37-2.07.18-.2-.37a20.72,20.72,0,0,0-4.49-5.59l-.23-.19v-2.77l-3.08-1.77v2.59l-.82-.25a4.86,4.86,0,0,0-4.11.34l-.49.31-1.95-2.43-1.41,2L372,636.3l-.1.32a8.74,8.74,0,0,0-.4,2.65,14.79,14.79,0,0,0,.41,3.19l.16.71-2,.18,1.7,4.37,2.06-.19.2.37a20.59,20.59,0,0,0,4.5,5.59l.22.2Zm3.29-6.08a3.28,3.28,0,0,1-1-.14h0c-3.26-1-6-5.67-5.18-9a2.85,2.85,0,0,1,1.31-1.89,2.88,2.88,0,0,1,2.3-.2c3.19,1,5.95,5.73,5.18,9a2.87,2.87,0,0,1-1.32,1.89A2.63,2.63,0,0,1,382,650.37Zm-.6-1.37a1.45,1.45,0,0,0,2-1.16c.62-2.63-1.71-6.66-4.3-7.44a1.68,1.68,0,0,0-1.28.08,1.6,1.6,0,0,0-.71,1.07c-.63,2.64,1.7,6.67,4.29,7.45Z"/><path class="cls-2" d="M388.27,651a13.17,13.17,0,0,0-.24-2.39.87.87,0,0,1,.79-1h0a.88.88,0,0,0,.74-1.2l-1.51-3.9a.88.88,0,0,0-.9-.56l-.92.08a.87.87,0,0,1-.83-.44,21,21,0,0,0-4.07-5,.87.87,0,0,1-.29-.64V634a.89.89,0,0,0-.44-.77L378,631.7a.88.88,0,0,0-1.32.76v.21a.88.88,0,0,1-1,.86,5.23,5.23,0,0,0-3,.35.86.86,0,0,1-1-.26l-.94-1.17a.89.89,0,0,0-1.41,0l-1.13,1.6a.88.88,0,0,0,0,1.06L369.6,637a.88.88,0,0,1,.16.78,9.25,9.25,0,0,0-.31,2.4,13.37,13.37,0,0,0,.24,2.4.88.88,0,0,1-.79,1h0a.88.88,0,0,0-.74,1.19l1.51,3.91a.9.9,0,0,0,.9.56l.92-.08a.88.88,0,0,1,.83.43,21,21,0,0,0,4.07,5,.89.89,0,0,1,.29.65v1.94a.89.89,0,0,0,.44.76l2.6,1.5a.88.88,0,0,0,1.32-.76v-.22a.88.88,0,0,1,1-.86,5.31,5.31,0,0,0,3.05-.34.84.84,0,0,1,1,.26l.94,1.16a.88.88,0,0,0,1.41,0l1.13-1.6a.89.89,0,0,0,0-1.06l-1.45-1.8a.89.89,0,0,1-.16-.79A9.25,9.25,0,0,0,388.27,651Zm-10.93-2.17a9.47,9.47,0,0,1-2.06-3.57c-1.9-6.26.63-7.72,5.1-2.94a9.51,9.51,0,0,1,2.06,3.56C384.34,652.14,381.81,653.6,377.34,648.83Z"/><path class="cls-13" d="M94,377.1c2.3.8,4.2,4,4.2,7s-1.9,4.8-4.2,4-4.2-4-4.2-7,1.9-4.8,4.2-4Zm22,12.6c2.3.8,4.2,4,4.2,7s-1.9,4.8-4.2,4-4.2-4-4.2-7,1.9-4.8,4.2-4Zm-10.9-6.2c2.3.8,4.2,4,4.2,7s-1.9,4.8-4.2,4-4.2-4-4.2-7S102.8,382.6,105.1,383.5Z"/><path class="cls-14" d="M277.5,127.8c9.6,5.4,17.8,8.8,25.3,10.3a40,40,0,0,0,21.2-1.2l.6,1.8a42.63,42.63,0,0,1-22.2,1.3c-7.8-1.5-16.2-5.1-25.9-10.5Z"/><path class="cls-14" d="M519.3,78.8a.94.94,0,0,1-1,1.6L423.6,26h0c-15.3-9.5-25.5-13.4-35.1-13.1s-18.8,4.9-31.9,12.4h0L249.7,87.1a21.9,21.9,0,0,0-7.8,7.6v.1a8.8,8.8,0,0,0-1.1,4.7,10,10,0,0,0,1.7,5.2c2.2,3.5,6.5,7.2,13.8,11h.1l21.1,12c12.6,7.2,19,14.9,21.6,23.1s1.5,16.8-.9,25.8a.92.92,0,0,1-1.8-.4c2.4-8.7,3.5-17,.9-24.8s-8.7-15.1-20.8-22l-21.1-12h0c-7.6-4-12.2-7.9-14.5-11.7a12.9,12.9,0,0,1-2-6.2,11,11,0,0,1,1.3-5.6v-.1a23.06,23.06,0,0,1,8.4-8.3h0L355.4,23.7h0c13.3-7.6,22.7-12.3,32.8-12.7s20.6,3.6,36.2,13.3h0l94.9,54.5ZM248.8,85.5Z"/><path class="cls-11" d="M511.2,39.7l39.2,23.6h6.4v6.5c.2,2.3-1.4,4.7-4.5,6.6l-39.9,24c-5.5,3.3-14,3.6-18.8.7L451.3,75.7c-2.4-1.5-3.5-3.5-3.3-5.5V63.3h6.3l38.1-22.9C497.9,37.1,506.3,36.8,511.2,39.7Z"/><path class="cls-10" d="M511.2,32.8l42.3,25.4c4.8,2.9,4.3,8-1.2,11.3l-39.9,24c-5.5,3.3-13.9,3.6-18.8.7L451.3,68.8c-4.8-2.9-4.3-8,1.2-11.3l39.9-24C497.9,30.2,506.3,29.9,511.2,32.8Z"/><path class="cls-15" d="M291.1,470c.8-1.1,3.1-1,5,.1s2.8,2.9,1.9,3.9-3.1,1-5-.1S290.3,471.1,291.1,470Z"/><path class="cls-10" d="M519.4,267.8a1.1,1.1,0,0,1-1.1-1.9L634.6,199c8.8-5,16.8-11.4,20.8-18.3a17.15,17.15,0,0,0,2.6-8.2,16,16,0,0,0-2.1-8.5c-2.4-4.1-6.8-8.3-13.9-12.4L531.1,87.2a1.1,1.1,0,1,1,1.1-1.9l110.9,64.3c7.4,4.3,12.1,8.8,14.7,13.2a16.69,16.69,0,0,1,2.4,9.7,20.68,20.68,0,0,1-2.9,9.2c-4.2,7.3-12.6,13.9-21.7,19.2Z"/><path class="cls-16" d="M527.18,269.42a16.18,16.18,0,0,1,3.5,5.13h1.18v-2.8h6.75v9.05c0,1.64-2.22,3-4.94,3h-3a13.36,13.36,0,0,1-.66,1.38h.71v7.06a2.55,2.55,0,0,1-1.43,2.22l-3.79,2.29a7.38,7.38,0,0,1-7,0l-2.12-1.28a43.84,43.84,0,0,1-8.46,2.12v1.82c0,1.65-2.22,3-4.94,3h-5.35c-2.71,0-4.93-1.35-4.93-3v-1.82a44.59,44.59,0,0,1-8.46-2.12l-2.12,1.28a7.38,7.38,0,0,1-7,0l-3.78-2.29a2.53,2.53,0,0,1-1.44-2.21V285h.63q-.31-.6-.57-1.23h-3c-2.72,0-4.94-1.35-4.94-3v-9.12h9.53a17.79,17.79,0,0,1,1.9-2.26l-2.11-1.28a2.6,2.6,0,0,1-1.44-2.07v-7.21h10.87V261a5.5,5.5,0,0,1,1.33.57l2.12,1.28a44.68,44.68,0,0,1,8.45-2.12v-1.82c0-1.65,2.23-3,4.94-3H503c2.72,0,4.94,1.34,4.94,3v1.82a45.35,45.35,0,0,1,8.46,2.12l2.11-1.28a6.7,6.7,0,0,1,2.84-.85v-1.82h9.35v6.84a2.46,2.46,0,0,1-1.42,2.37l-2.12,1.28ZM512,272.1c-6.43-3.9-16.85-3.9-23.27,0s-6.43,10.23,0,14.14,16.84,3.9,23.27,0,6.43-10.23,0-14.13Z"/><path class="cls-17" d="M527.18,262.28a16.18,16.18,0,0,1,3.5,5.13h3c2.72,0,4.94,1.35,4.94,3v3.25c0,1.65-2.22,3-4.94,3h-3a16,16,0,0,1-3.5,5.13l2.11,1.29c1.92,1.16,1.92,3.07,0,4.24l-3.78,2.29a7.44,7.44,0,0,1-7,0l-2.12-1.28a44.59,44.59,0,0,1-8.46,2.12v1.82c0,1.65-2.22,3-4.93,3h-5.35c-2.72,0-4.94-1.34-4.94-3v-1.82a44.68,44.68,0,0,1-8.45-2.12l-2.12,1.28a7.44,7.44,0,0,1-7,0l-3.78-2.3c-1.92-1.16-1.92-3.07,0-4.24l2.11-1.28a16.18,16.18,0,0,1-3.5-5.13h-3c-2.71,0-4.93-1.35-4.93-3v-3.24c0-1.65,2.22-3,4.93-3h3a16.18,16.18,0,0,1,3.5-5.13L471.39,261c-1.91-1.17-1.91-3.08,0-4.24l3.79-2.3a7.44,7.44,0,0,1,7,0l2.12,1.29a44,44,0,0,1,8.45-2.13V251.8c0-1.64,2.23-3,4.94-3H503c2.72,0,4.94,1.35,4.94,3v1.82a44.59,44.59,0,0,1,8.46,2.13l2.11-1.29a7.46,7.46,0,0,1,7,0l3.78,2.3c1.92,1.17,1.92,3.07,0,4.24l-2.11,1.28ZM512,265c-6.43-3.9-16.85-3.9-23.27,0s-6.43,10.22,0,14.13,16.84,3.9,23.27,0S518.41,268.87,512,265Z"/><path class="cls-10" d="M295.7,471.7a1.1,1.1,0,0,1-2.2,0V437.5c0-19.1,1.9-30.9,7.2-40.1s14.1-15.4,27.8-23.3h0l143.8-82.4a1.1,1.1,0,1,1,1.1,1.9L329.6,376h0c-13.4,7.7-21.9,13.8-27,22.5s-6.9,20.3-6.9,38.9v34.3Z"/><path class="cls-18" d="M428.8,139.6v6.1c.2,2.3-1.3,4.7-4.4,6.5L385,175.9c-5.4,3.2-13.7,3.6-18.5.7l-41.6-25c-2.4-1.4-3.5-3.4-3.2-5.5v-5.7c-.3-2.3,1.2-4.8,4.4-6.7l39.3-23.6c5.4-3.2,13.7-3.6,18.5-.7l41.6,25C427.8,135.8,428.9,137.7,428.8,139.6Z"/><path class="cls-19" d="M430.6,139.6v6.1h0a7,7,0,0,1-1.4,4.5,12.93,12.93,0,0,1-4,3.6L386,177.5a21.62,21.62,0,0,1-10.4,2.9,19,19,0,0,1-10-2.2l-41.6-25a8.68,8.68,0,0,1-3.2-3.1,6.39,6.39,0,0,1-.9-4v-5.6a7.49,7.49,0,0,1,1.3-4.7,12,12,0,0,1,4-3.7l39.3-23.6a21.62,21.62,0,0,1,10.4-2.9,19,19,0,0,1,10,2.2l41.6,25a8.15,8.15,0,0,1,3.1,3h0a5.91,5.91,0,0,1,1,3.8Zm-3.7,6.2v-6.2a3.09,3.09,0,0,0-.5-1.8h0a5.35,5.35,0,0,0-1.9-1.7l-41.6-25a15.51,15.51,0,0,0-8-1.7,17.57,17.57,0,0,0-8.6,2.4L327,135.3a8.89,8.89,0,0,0-2.8,2.6,4.42,4.42,0,0,0-.7,2.4v6.1a3.28,3.28,0,0,0,.4,1.9,4.74,4.74,0,0,0,1.9,1.8l41.6,25a15.51,15.51,0,0,0,8,1.7,17.57,17.57,0,0,0,8.6-2.4l39.3-23.6a8.72,8.72,0,0,0,2.8-2.5,3.61,3.61,0,0,0,.7-2.3Z"/><path class="cls-20" d="M383.9,116.2l38.6,23.2h6.3v6.4c.2,2.3-1.3,4.7-4.4,6.5L385,175.9c-5.4,3.2-13.7,3.6-18.5.7l-41.6-25c-2.4-1.4-3.5-3.4-3.2-5.5v-6.8h6.2l37.5-22.5C370.8,113.6,379.1,113.3,383.9,116.2Z"/><path class="cls-19" d="M384.1,115.8l38.5,23.1h6.6v6.8a5.91,5.91,0,0,1-1.1,3.7,10.78,10.78,0,0,1-3.5,3.1l-39.3,23.6a20.17,20.17,0,0,1-9.7,2.7,16.93,16.93,0,0,1-9.2-2l-41.6-25a7.51,7.51,0,0,1-2.7-2.6,5.2,5.2,0,0,1-.7-3.2v-7h6.5l37.4-22.5a20.17,20.17,0,0,1,9.7-2.7,18,18,0,0,1,9.1,2Zm38.2,23.9-38.6-23.2a16.38,16.38,0,0,0-8.8-1.9,19.33,19.33,0,0,0-9.3,2.6l-37.5,22.5-.2.1H322v6.4h0a4.61,4.61,0,0,0,.6,2.8,5.93,5.93,0,0,0,2.4,2.3l41.6,25a16.38,16.38,0,0,0,8.8,1.9,19.33,19.33,0,0,0,9.3-2.6L424,152a12,12,0,0,0,3.3-2.9,6,6,0,0,0,1-3.2h0v-6h-5.9Z"/><path class="cls-8" d="M383.9,109.4l41.6,25c4.8,2.9,4.3,7.9-1.2,11.1L385,169.1c-5.4,3.2-13.7,3.6-18.5.7l-41.6-25c-4.8-2.9-4.3-7.9,1.2-11.1l39.3-23.6C370.8,106.8,379.1,106.5,383.9,109.4Z"/><path class="cls-19" d="M384.1,109.1l41.6,25a7.51,7.51,0,0,1,2.7,2.6,5.66,5.66,0,0,1,.8,2.8,5.46,5.46,0,0,1-.9,2.9,10.45,10.45,0,0,1-3.7,3.5l-39.3,23.6a20.17,20.17,0,0,1-9.7,2.7,16.93,16.93,0,0,1-9.2-2l-41.6-25a7.51,7.51,0,0,1-2.7-2.6,5.66,5.66,0,0,1-.8-2.8,5.46,5.46,0,0,1,.9-2.9,10.45,10.45,0,0,1,3.7-3.5l39.3-23.6a20.17,20.17,0,0,1,9.7-2.7,16.27,16.27,0,0,1,9.2,2Zm41.2,25.6-41.6-25a16.38,16.38,0,0,0-8.8-1.9,19.33,19.33,0,0,0-9.3,2.6L326.3,134a11,11,0,0,0-3.5,3.2,4.9,4.9,0,0,0-.8,2.5,4.42,4.42,0,0,0,.7,2.4,7.6,7.6,0,0,0,2.4,2.3l41.6,25a16.38,16.38,0,0,0,8.8,1.9,19.33,19.33,0,0,0,9.3-2.6l39.3-23.6a11,11,0,0,0,3.5-3.2,4.9,4.9,0,0,0,.8-2.5,4.42,4.42,0,0,0-.7-2.4A6.66,6.66,0,0,0,425.3,134.7Z"/><path class="cls-18" d="M347,189v6.1c.2,2.3-1.3,4.7-4.4,6.5l-39.3,23.6c-5.4,3.2-13.7,3.6-18.5.7l-41.6-25c-2.4-1.4-3.5-3.4-3.2-5.5v-5.7c-.3-2.3,1.2-4.8,4.4-6.7l39.3-23.6c5.4-3.2,13.7-3.6,18.5-.7l41.6,25C346.1,185.2,347.2,187.1,347,189Z"/><path class="cls-19" d="M348.9,189v6.1h0a7,7,0,0,1-1.4,4.5,12.93,12.93,0,0,1-4,3.6l-39.3,23.6a21.62,21.62,0,0,1-10.4,2.9,19,19,0,0,1-10-2.2l-41.6-25a8.68,8.68,0,0,1-3.2-3.1,6.39,6.39,0,0,1-.9-4v-5.6a7.49,7.49,0,0,1,1.3-4.7,12,12,0,0,1,4-3.7l39.3-23.6a21.62,21.62,0,0,1,10.4-2.9,19,19,0,0,1,10,2.2l41.6,25a8.15,8.15,0,0,1,3.1,3h0a6.47,6.47,0,0,1,1.1,3.9Zm-3.7,6.2v-6.3a3.09,3.09,0,0,0-.5-1.8h0a5.35,5.35,0,0,0-1.9-1.7l-41.6-25a15.51,15.51,0,0,0-8-1.7,17.57,17.57,0,0,0-8.6,2.4l-39.3,23.6a8.89,8.89,0,0,0-2.8,2.6,4.42,4.42,0,0,0-.7,2.4v6.1a2.83,2.83,0,0,0,.4,1.8,4.74,4.74,0,0,0,1.9,1.8l41.6,25a15.51,15.51,0,0,0,8,1.7,17.57,17.57,0,0,0,8.6-2.4l39.3-23.6a8.72,8.72,0,0,0,2.8-2.5,3.61,3.61,0,0,0,.7-2.3Z"/><path class="cls-20" d="M302.1,165.6l38.6,23.2H347v6.4c.2,2.3-1.3,4.7-4.4,6.5l-39.3,23.6c-5.4,3.2-13.7,3.6-18.5.7l-41.6-25c-2.4-1.4-3.5-3.4-3.2-5.5v-6.8h6.2l37.5-22.5C289,163,297.4,162.7,302.1,165.6Z"/><path class="cls-19" d="M302.3,165.2l38.5,23.1h6.6v6.8a5.91,5.91,0,0,1-1.1,3.7,10.78,10.78,0,0,1-3.5,3.1l-39.3,23.6a20.17,20.17,0,0,1-9.7,2.7,16.93,16.93,0,0,1-9.2-2l-41.6-25a7.51,7.51,0,0,1-2.7-2.6,5.2,5.2,0,0,1-.7-3.2v-7.1h6.5l37.4-22.5a20.17,20.17,0,0,1,9.7-2.7,18.82,18.82,0,0,1,9.1,2.1Zm38.3,23.9L302,165.9a16.38,16.38,0,0,0-8.8-1.9,19.33,19.33,0,0,0-9.3,2.6l-37.5,22.5-.2.1h-5.9v6.4h0a4.61,4.61,0,0,0,.6,2.8,5.93,5.93,0,0,0,2.4,2.3l41.6,25a16.38,16.38,0,0,0,8.8,1.9A19.33,19.33,0,0,0,303,225l39.3-23.6a12,12,0,0,0,3.3-2.9,6,6,0,0,0,1-3.2h0v-6h-5.9Z"/><path class="cls-8" d="M302.1,158.8l41.6,25c4.8,2.9,4.3,7.9-1.2,11.1l-39.3,23.6c-5.4,3.2-13.7,3.6-18.5.7l-41.6-25c-4.8-2.9-4.3-7.9,1.2-11.1l39.3-23.6C289,156.2,297.4,155.9,302.1,158.8Z"/><path class="cls-19" d="M302.3,158.5l41.6,25a7.51,7.51,0,0,1,2.7,2.6,5.66,5.66,0,0,1,.8,2.8,5.46,5.46,0,0,1-.9,2.9,10.45,10.45,0,0,1-3.7,3.5l-39.3,23.6a20.17,20.17,0,0,1-9.7,2.7,16.93,16.93,0,0,1-9.2-2l-41.6-25a7.51,7.51,0,0,1-2.7-2.6,5.66,5.66,0,0,1-.8-2.8,5.46,5.46,0,0,1,.9-2.9,10.45,10.45,0,0,1,3.7-3.5l39.3-23.6a20.17,20.17,0,0,1,9.7-2.7,16.08,16.08,0,0,1,9.2,2Zm41.3,25.6-41.6-25a16.38,16.38,0,0,0-8.8-1.9,19.33,19.33,0,0,0-9.3,2.6l-39.3,23.6a11,11,0,0,0-3.5,3.2,4.9,4.9,0,0,0-.8,2.5,4.42,4.42,0,0,0,.7,2.4,7.6,7.6,0,0,0,2.4,2.3l41.6,25a16.38,16.38,0,0,0,8.8,1.9,19.33,19.33,0,0,0,9.3-2.6l39.3-23.6a11,11,0,0,0,3.5-3.2,4.9,4.9,0,0,0,.8-2.5,4.42,4.42,0,0,0-.7-2.4A7.6,7.6,0,0,0,343.6,184.1Z"/><path class="cls-2" d="M380.73,141.8c-.24-.52-1.16-1.05-2.91-.82a9.82,9.82,0,0,0-2.5.77,6.47,6.47,0,0,1-1-.77,2.61,2.61,0,0,0,1.74-.51c.62-.52.46-1.5-.46-2a3.53,3.53,0,0,0-3.13,0,1.09,1.09,0,0,0-.5,1.17,9.37,9.37,0,0,1-1.31-.51,3.67,3.67,0,0,0,.78-1.66c.08-1.1-.82-1.55-1.61-1.61a2.22,2.22,0,0,0-1.83.65,1.48,1.48,0,0,0-.27,1.59,3.43,3.43,0,0,0,1.35,1.36,51.62,51.62,0,0,1-6.31,5.88.34.34,0,0,0,0,.6.87.87,0,0,0,.89-.1A54.11,54.11,0,0,0,370,140a10.49,10.49,0,0,0,2,.68,4.52,4.52,0,0,0,.53.11,2.43,2.43,0,0,0,.24.32,6.93,6.93,0,0,0,1.38,1.19,67.58,67.58,0,0,0-8.11,5c-.26.19-.28.46,0,.61a.88.88,0,0,0,.91-.06,65.26,65.26,0,0,1,8.17-5,7.06,7.06,0,0,0,2.41.7,5.06,5.06,0,0,0,2.56-.41C380.68,142.82,381,142.29,380.73,141.8Zm-11.8-4a.84.84,0,0,1,.14-.94.53.53,0,0,1,.38-.09.73.73,0,0,1,.69.88,2.35,2.35,0,0,1-.43,1A2.47,2.47,0,0,1,368.93,137.78Zm4.64,2.21c-.43-.51-.4-.84-.27-.93a2.17,2.17,0,0,1,1.34.12c.38.21.55.72.41.83A2.31,2.31,0,0,1,373.57,140Zm4.29,2.68a5.4,5.4,0,0,1-1.52-.39,6.39,6.39,0,0,1,1.53-.44c1-.13,1.45.1,1.56.33a.19.19,0,0,1-.07.26A2.82,2.82,0,0,1,377.86,142.67Z"/><path class="cls-21" d="M356.82,142.68a.71.71,0,0,1-.38-.6c0-3.12,1.89-6.37,5.25-9,6.76-5.19,18-6.74,25.24-3.22,7.69,3.72,8,11.54.37,17.18a26.61,26.61,0,0,1-14,4.86c-.87.05-1.55-.38-1.52-1s.76-1.1,1.63-1.16a22,22,0,0,0,11.53-4c6.25-4.64,6.05-11.08-.23-14.18-6-3-15.35-1.73-21,2.61-2.83,2.16-4.42,4.88-4.38,7.49,0,.53-.64,1.05-1.43,1.16A1.69,1.69,0,0,1,356.82,142.68Z"/><path class="cls-2" d="M368.85,151.75a2.1,2.1,0,0,1-2.15.18L357,146c-.53-.32-.5-.94.07-1.37h0a1.92,1.92,0,0,1,2-.2l9.81,5.85c.59.35.58,1,0,1.45Z"/><path class="cls-2" d="M366,153.85a2,2,0,0,1-2.12.17l-9.59-6c-.53-.32-.5-.94.07-1.37h0a1.9,1.9,0,0,1,2-.19l9.69,5.92c.58.35.56,1,0,1.45Z"/><path class="cls-2" d="M363.25,155.94a2,2,0,0,1-2.11.15l-9.46-6c-.52-.34-.49-.95.08-1.38h0a1.87,1.87,0,0,1,2-.18l9.56,6c.57.36.55,1,0,1.46Z"/><path class="cls-2" d="M352.17,151.24l-.6.45c-1.46,1.11-1.56,2.73-.2,3.63l2,1.35a5,5,0,0,0,5.29-.39l.61-.46Z"/><path class="cls-21" d="M393,153.43h0l-4.89-2.73c-.58-.32-.59-.92,0-1.34a2.12,2.12,0,0,1,2.09-.18h0l4.93,2.71a.75.75,0,0,1,0,1.38A2.18,2.18,0,0,1,393,153.43Z"/><path class="cls-21" d="M356.82,133.3h0L353,131.17c-.44-.25-.41-.75.07-1.13a1.71,1.71,0,0,1,1.68-.23h0l3.85,2.12c.47.25.44.77-.05,1.15A1.72,1.72,0,0,1,356.82,133.3Z"/><path class="cls-21" d="M388.92,128.39h0c-.56-.26-.57-.81,0-1.22l4.22-3.18a2.22,2.22,0,0,1,2-.28h0c.58.26.6.81.05,1.22l-4.26,3.2A2.15,2.15,0,0,1,388.92,128.39Z"/><path class="cls-21" d="M396.57,138.66a.74.74,0,0,1-.47-.61c0-.51.63-1,1.46-1.08l6.09-.66c.85-.09,1.57.25,1.6.77s-.64,1-1.49,1.1l-6.12.64A2,2,0,0,1,396.57,138.66Z"/><path class="cls-21" d="M370.62,127.23a.57.57,0,0,1-.37-.53l.05-3.24c0-.44.58-.89,1.29-1s1.28.17,1.27.62l0,3.26c0,.45-.6.9-1.31,1A1.54,1.54,0,0,1,370.62,127.23Z"/><path class="cls-2" d="M280.41,201.08a9.23,9.23,0,0,1-1.24-.83,5.22,5.22,0,0,1-2.2-3.71,3.67,3.67,0,0,1,1.16-2.87,8.31,8.31,0,0,1-3-1.37,4.66,4.66,0,0,1-2.06-3.54,6.94,6.94,0,0,1-1.84-.94,4.41,4.41,0,0,1-1.92-3.25,4.29,4.29,0,0,1,1.56-3.41,8.05,8.05,0,0,1,6.27-1.77,5.21,5.21,0,0,1,.53-.52,10.31,10.31,0,0,1,9.32-1.65,8.42,8.42,0,0,1,1.44.61l.45.27a12.74,12.74,0,0,1,5.44.39,10.71,10.71,0,0,1,1.63.67,5.77,5.77,0,0,1,2.84,2.93,13.9,13.9,0,0,1,5.47,1.43c3.65,1.92,4.55,5.07,2.24,7.54,3.6,2.64,3.42,6.27-.54,8.3a12,12,0,0,1-4.32,1.18,4.33,4.33,0,0,1-2.73,3.72c-3.06,1.53-7.76,1.21-11.13-.62h0a10,10,0,0,1-1.41-.9c-.13-.1-.26-.2-.38-.31A11.21,11.21,0,0,1,280.41,201.08Zm0-8.33a.88.88,0,0,1,.4.36.52.52,0,0,1-.26.72c-.17.09-.31.18-.45.27a2.92,2.92,0,0,0-1.39,2.57,3.94,3.94,0,0,0,1.68,2.79,7.58,7.58,0,0,0,.94.61,8.42,8.42,0,0,0,4.7.93,1.49,1.49,0,0,1,1.14.38,6.76,6.76,0,0,0,.64.54,8.85,8.85,0,0,0,1.07.68,9.61,9.61,0,0,0,8.22.37,3.08,3.08,0,0,0,1.92-3.22c-.07-.39.36-.7,1-.73a9.22,9.22,0,0,0,3.93-1c3-1.6,2.94-4.49-.16-6.43-.46-.29-.53-.71-.18-1,2.13-1.85,1.6-4.37-1.21-5.89a10.28,10.28,0,0,0-4.75-1.13c-.61,0-1.1-.28-1.17-.65a4,4,0,0,0-2.16-2.6,6.63,6.63,0,0,0-1.19-.5,9.34,9.34,0,0,0-4.47-.27,1.37,1.37,0,0,1-1-.19A4.06,4.06,0,0,0,287,179a5.55,5.55,0,0,0-1.05-.46,7.65,7.65,0,0,0-6.93,1.16,4.82,4.82,0,0,0-.7.73,1.08,1.08,0,0,1-1.07.34,6.09,6.09,0,0,0-5.19,1.19,3.19,3.19,0,0,0-1.19,2.56,3.27,3.27,0,0,0,1.46,2.44,5.45,5.45,0,0,0,1.83.82.67.67,0,0,1,.59.66,3.38,3.38,0,0,0,1.56,3,6.25,6.25,0,0,0,.87.52,7,7,0,0,0,2.75.67A1.26,1.26,0,0,1,280.43,192.75Z"/><path class="cls-2" d="M285.77,175.47a.63.63,0,0,1-.5-.55l-.1-4.06c0-.39.44-.77,1-.86s1.06.16,1.07.55l.1,4.14c0,.39-.45.76-1,.82A1.62,1.62,0,0,1,285.77,175.47Z"/><path class="cls-2" d="M301,179.29l-.19-.07a.61.61,0,0,1-.14-1.12l5.24-4a2.29,2.29,0,0,1,2.05-.28c.62.25.69.77.15,1.17l-5.4,4A2.09,2.09,0,0,1,301,179.29Z"/><path class="cls-2" d="M315.16,186.2l-3.11.49a2.59,2.59,0,0,1-1.22-.09,1.13,1.13,0,0,1-.68-.49c-.23-.45.23-.92,1.05-1.06l9.29-1.59a2.29,2.29,0,0,1,2.2.59c.28.49-.28,1-1.24,1.16l-6.29,1"/><path class="cls-2" d="M311.86,197.06c-.67-.27-.94-.76-.6-1.14a2.2,2.2,0,0,1,2.08-.27l8.68,2.78c.9.29,1.28.87.85,1.29a2.6,2.6,0,0,1-2.37.22L312,197.11Z"/><path class="cls-2" d="M272.38,178.13a.56.56,0,0,1-.26-.17l-2.19-2.38a.57.57,0,0,1,.21-.87.91.91,0,0,1,1.08,0l2.25,2.4a.57.57,0,0,1-.23.89A1,1,0,0,1,272.38,178.13Z"/><path class="cls-2" d="M263.27,186.53A.53.53,0,0,1,263,186a.65.65,0,0,1,.73-.49l3.47.35a.63.63,0,0,1,.63.65.69.69,0,0,1-.8.5l-3.46-.38A.73.73,0,0,1,263.27,186.53Z"/><path class="cls-10" d="M301.85,195.64a2.74,2.74,0,0,0,.45-1.79l1.27-.12-.68-1.62-1.27.14a5.61,5.61,0,0,0-1.82-1.53l.64-.64-1.14-.43-1.12-.43-.62.62a10.83,10.83,0,0,0-2.81-.32l-.29-.71-2.31.32.28.7a6.32,6.32,0,0,0-2.1.95l-.92-.39-1.12,1.21.9.39a2.7,2.7,0,0,0-.36,1.62l-1,.1.55,1.44,1-.1a5.29,5.29,0,0,0,1.54,1.46l-.55.55,1,.47,1,.47.57-.56a10.45,10.45,0,0,0,2.72.5l.29.73,2.45-.14-.31-.75a7.3,7.3,0,0,0,2.39-.87l1.09.48,1.41-1.28Zm-8.84.25h0c-2-.89-2.61-2.55-1.47-3.74s3.81-1.54,5.93-.69h0c2.2.89,2.93,2.67,1.61,3.93S295,196.82,293,195.89Z"/><path class="cls-10" d="M302.7,187.83a1,1,0,0,0,.16-.66l.47-.07-.25-.58-.47.07a2,2,0,0,0-.68-.54l.25-.24-.43-.15-.43-.14-.23.24a4.09,4.09,0,0,0-1.1-.09l-.11-.27-.93.15.11.27a2.82,2.82,0,0,0-.86.39l-.38-.13-.47.49.37.14a1,1,0,0,0-.15.64l-.42.06.23.55.42-.06a1.91,1.91,0,0,0,.64.53l-.23.23.41.15.4.16.23-.23a4.39,4.39,0,0,0,1.09.11l.11.27.95-.13-.12-.27a2.72,2.72,0,0,0,.9-.38l.41.15.52-.51Zm-3.53.43h0c-.91-.34-1.2-1.06-.67-1.6a2.75,2.75,0,0,1,2.67-.41h0c.95.33,1.27,1.07.7,1.63A2.83,2.83,0,0,1,299.17,188.26Z"/><path class="cls-10" d="M278.81,188.34a1.32,1.32,0,0,0,.35-.48l.32,0,.06-.48-.32,0a1.08,1.08,0,0,0-.22-.52l.24-.15-.21-.19-.22-.18-.24.14a2.1,2.1,0,0,0-.66-.25l0-.23-.65,0,0,.22a2.38,2.38,0,0,0-.7.16l-.19-.17-.48.29.19.18a1.22,1.22,0,0,0-.34.46l-.29,0-.06.46.3,0a1.07,1.07,0,0,0,.21.51l-.23.13.2.19.2.18.23-.13a2,2,0,0,0,.64.26l0,.22.64.06,0-.22a2.49,2.49,0,0,0,.71-.14l.2.18.51-.29Zm-2.38-.27h0a.79.79,0,0,1,.16-1.34,1.68,1.68,0,0,1,1.85.14h0a.8.8,0,0,1-.17,1.36A1.66,1.66,0,0,1,276.43,188.07Z"/><path class="cls-17" d="M287.52,190.3l.78,0a2.36,2.36,0,0,0-.39-1.26l-.72.18a2.92,2.92,0,0,0-.89-.9l.54-.36a5.6,5.6,0,0,0-1.56-.71l-.27.47a5.86,5.86,0,0,0-1.22-.2h-.27V187a6.31,6.31,0,0,0-1.71.23l.27.46a3.82,3.82,0,0,0-1.19.55l-.49-.35a3.22,3.22,0,0,0-.91,1l.63.2a2,2,0,0,0-.26,1l-.67,0a2.39,2.39,0,0,0,.34,1.17l.62-.16a2.83,2.83,0,0,0,.8.87l-.48.32a5,5,0,0,0,1.42.74l.26-.44a5.42,5.42,0,0,0,1.18.26l.27,0v.5a6.83,6.83,0,0,0,1.76-.14l-.29-.49a4.05,4.05,0,0,0,1.28-.52l.55.39a3.32,3.32,0,0,0,1-1l-.72-.23A1.84,1.84,0,0,0,287.52,190.3Zm-2.22.44a2,2,0,0,1-1.86.72,2.75,2.75,0,0,1-.57-.12c-.93-.31-1.38-1.06-1-1.69a2,2,0,0,1,1.81-.74,2.37,2.37,0,0,1,.58.11C285.22,189.31,285.7,190.08,285.3,190.74Z"/><path class="cls-17" d="M288.47,198.63l.75.32a2.34,2.34,0,0,0,.54-1.24l-.84-.12a2.07,2.07,0,0,0-.21-1.13l.79-.11a3.85,3.85,0,0,0-1-1.24l-.62.3a4.9,4.9,0,0,0-1.05-.66l-.26-.12.35-.45a7,7,0,0,0-1.87-.47l0,.52a5.88,5.88,0,0,0-1.57,0l-.24-.51a5.34,5.34,0,0,0-1.58.52l.49.43a2.6,2.6,0,0,0-.92.75l-.65-.28a2.35,2.35,0,0,0-.45,1.16l.71.1a2.1,2.1,0,0,0,.19,1.06l-.68.09a3.87,3.87,0,0,0,.88,1.17l.55-.27a4.7,4.7,0,0,0,1,.67l.25.12-.33.42a7.09,7.09,0,0,0,1.78.55l.05-.51a5.67,5.67,0,0,0,1.59.05l.25.53a5.45,5.45,0,0,0,1.72-.44l-.54-.47A2.77,2.77,0,0,0,288.47,198.63Zm-2.46-.49a2.73,2.73,0,0,1-2.3-.1,2,2,0,0,1-.48-.33,1.05,1.05,0,0,1,.18-1.85,2.73,2.73,0,0,1,2.3,0,2.41,2.41,0,0,1,.5.33A1.06,1.06,0,0,1,286,198.14Z"/><path class="cls-17" d="M296.2,201.68l.63.22a1.55,1.55,0,0,0,.23-1l-.67,0A1.81,1.81,0,0,0,296,200l.6-.12a3.67,3.67,0,0,0-1-.91l-.43.26a5.12,5.12,0,0,0-.94-.46l-.22-.08.21-.36a6.51,6.51,0,0,0-1.55-.29l0,.41a4.6,4.6,0,0,0-1.24.08l-.27-.38a3.48,3.48,0,0,0-1.19.46l.45.31a1.75,1.75,0,0,0-.62.62l-.57-.19a1.57,1.57,0,0,0-.19.92l.59.05a1.85,1.85,0,0,0,.31.82l-.53.1a3.54,3.54,0,0,0,.89.88l.4-.24a5.28,5.28,0,0,0,.88.47l.22.08-.21.35a6.65,6.65,0,0,0,1.53.34l0-.4a5,5,0,0,0,1.28,0l.28.4a3.94,3.94,0,0,0,1.28-.43l-.49-.33A1.89,1.89,0,0,0,296.2,201.68Zm-2-.26a2.26,2.26,0,0,1-1.86,0,1.78,1.78,0,0,1-.43-.23c-.65-.45-.71-1.09-.13-1.44a2.18,2.18,0,0,1,1.83-.06,1.91,1.91,0,0,1,.45.23C294.72,200.4,294.79,201.07,294.18,201.42Z"/><path class="cls-17" d="M277.06,184.56l.44.15a1.91,1.91,0,0,0,.31-.86l-.49,0a1.46,1.46,0,0,0-.13-.73l.46-.13a2.19,2.19,0,0,0-.6-.75l-.37.25a2.3,2.3,0,0,0-.63-.36l-.16-.06.22-.33a3.86,3.86,0,0,0-1.13-.17l0,.35a3.35,3.35,0,0,0-.95.13l-.15-.32a3.33,3.33,0,0,0-1,.46l.3.25a2,2,0,0,0-.56.58l-.4-.14a1.83,1.83,0,0,0-.28.82l.44,0a1.44,1.44,0,0,0,.12.7l-.42.11a2.07,2.07,0,0,0,.55.72L273,185a2.22,2.22,0,0,0,.59.36l.15.06-.2.32a3.91,3.91,0,0,0,1.09.22l0-.35a3.45,3.45,0,0,0,1-.1l.16.33a3.19,3.19,0,0,0,1-.44l-.32-.26A2.3,2.3,0,0,0,277.06,184.56Zm-1.55-.2a1.28,1.28,0,0,1-1.52-.05.69.69,0,0,1,.1-1.14,1.38,1.38,0,0,1,1.25-.12,1.07,1.07,0,0,1,.27.16A.69.69,0,0,1,275.51,184.36Z"/><path class="cls-17" d="M296,186.52l.74.18a2.07,2.07,0,0,0,.36-1.19h-.8a1.78,1.78,0,0,0-.33-1l.73-.21a3.41,3.41,0,0,0-1.1-1l-.55.36a4.65,4.65,0,0,0-1.07-.45l-.26-.06.28-.46a7.35,7.35,0,0,0-1.82-.16v.48a6,6,0,0,0-1.48.24l-.28-.43a5.48,5.48,0,0,0-1.44.69l.5.32a2.75,2.75,0,0,0-.79.81l-.64-.16a2,2,0,0,0-.31,1.11h.69a1.8,1.8,0,0,0,.3.93l-.64.18a3.36,3.36,0,0,0,1,.94l.5-.32a4.29,4.29,0,0,0,1,.46l.25.08-.27.43a7.32,7.32,0,0,0,1.76.24v-.48a5.5,5.5,0,0,0,1.52-.18l.3.45a5.49,5.49,0,0,0,1.57-.66l-.56-.34A2.85,2.85,0,0,0,296,186.52Zm-2.38-.09a2.72,2.72,0,0,1-2.2.24,2,2,0,0,1-.49-.22.94.94,0,0,1,0-1.71,2.69,2.69,0,0,1,2.18-.27,1.92,1.92,0,0,1,.51.22A1,1,0,0,1,293.65,186.43Z"/><path class="cls-17" d="M292.06,181.57l.27.08a1,1,0,0,0,.2-.48h-.31a.62.62,0,0,0-.08-.4l.3-.08a1.22,1.22,0,0,0-.38-.41l-.23.15a1.36,1.36,0,0,0-.4-.2l-.1,0,.14-.18a2.84,2.84,0,0,0-.72-.09l0,.2a2.15,2.15,0,0,0-.62.08L290,180a2.22,2.22,0,0,0-.63.27l.19.13a1.36,1.36,0,0,0-.37.34l-.26-.08a1,1,0,0,0-.19.47h.29a.67.67,0,0,0,.08.39l-.28.08a1.1,1.1,0,0,0,.36.39l.22-.13a1.52,1.52,0,0,0,.38.2l.1,0-.13.18a3.19,3.19,0,0,0,.7.1l0-.2a2.54,2.54,0,0,0,.61-.07l.1.18a2.46,2.46,0,0,0,.65-.26l-.2-.14A1.64,1.64,0,0,0,292.06,181.57Zm-.94,0a1.07,1.07,0,0,1-.89.09.56.56,0,0,1-.19-.09c-.28-.2-.24-.52.07-.71a1.14,1.14,0,0,1,.9-.1l.19.1C291.48,181,291.45,181.33,291.12,181.52Z"/><path class="cls-22" d="M287.11,183.89a2.28,2.28,0,0,0,.26-1.33l.81-.18-.47-1.12-.81.18a3.43,3.43,0,0,0-1.2-1l.4-.5-.74-.24-.73-.25-.4.5a6.38,6.38,0,0,0-1.85-.06l-.2-.5-1.52.38.19.5a4.82,4.82,0,0,0-1.39.84l-.62-.22-.74,1,.62.23a2.16,2.16,0,0,0-.21,1.23l-.68.15.39,1,.69-.15a3.23,3.23,0,0,0,1.06,1l-.36.46.67.27.68.27.36-.46a5.8,5.8,0,0,0,1.81.16l.21.52,1.6-.3-.21-.52a4.83,4.83,0,0,0,1.52-.82l.72.27.87-1ZM281.16,185h0c-1.5-.59-2-1.93-1.18-3a4.16,4.16,0,0,1,4.42-1.05h0c1.65.57,2.23,2,1.28,3.15A4.22,4.22,0,0,1,281.16,185Z"/><path class="cls-22" d="M281.68,184.31h0c-1-.39-1.38-1.3-.8-2a2.8,2.8,0,0,1,3-.69h0c1.09.38,1.47,1.33.84,2.1A2.82,2.82,0,0,1,281.68,184.31Z"/><path class="cls-8" d="M483.7,64.62a1.31,1.31,0,0,1-.73-1l-.39-9a1.7,1.7,0,0,1,1-1.43,4.75,4.75,0,0,1,2.41-.58l15.25.26c1.61,0,2.72.83,2.46,1.8s-1.76,1.72-3.38,1.69l-11.73-.2.3,6.91c0,1-1.25,1.85-2.89,2a3.91,3.91,0,0,1-2.31-.42Zm0,0"/><path class="cls-8" d="M499.34,73.87a1.22,1.22,0,0,1-.7-1.36c.25-1,1.77-1.72,3.39-1.69l11.73.2-.3-6.91c0-1,1.25-1.85,2.89-2s3,.51,3,1.46l.39,9a1.72,1.72,0,0,1-1,1.43,4.75,4.75,0,0,1-2.41.58l-15.25-.26a3.64,3.64,0,0,1-1.77-.44Zm0,0"/><path class="cls-8" d="M486,69.45a1.87,1.87,0,0,1-.46-.37c-.69-.81-.06-1.89,1.42-2.41l26-9.12c1.47-.52,3.23-.3,3.94.53s.07,1.89-1.41,2.41l-26,9.12a4.46,4.46,0,0,1-3.49-.16Zm0,0"/><path class="cls-23" d="M865.33,1005a.83.83,0,0,1,1.13.3h0a.82.82,0,0,1-.3,1.12h0l-124.08,71.44a.83.83,0,0,1-.9-1.39l.08,0,124.08-71.44Zm-35.2,155.92h0a15,15,0,0,1-6-5.68,10.79,10.79,0,0,1-1.41-5.26,11.26,11.26,0,0,1,1.46-5.56c1.5-2.74,4.2-5.39,8.29-7.68l68.36-38.09.08,0c4.44-2.32,7.07-4.58,8.37-6.7a6.26,6.26,0,0,0,1-3.09,5.68,5.68,0,0,0-.68-2.8,12.55,12.55,0,0,0-4.69-4.56l-50.85-29.29-.05,0c-8-4.6-13.64-7.41-19.51-7.62s-12.13,2.18-21.46,8h0l-43.61,25.12h0a.82.82,0,0,1-.82-1.43L812.18,1051c9.63-6,16.16-8.45,22.39-8.24s12,3.12,20.27,7.83l.06,0L905.77,1080h0a14.2,14.2,0,0,1,5.29,5.2h0a7.43,7.43,0,0,1,.87,3.61,7.91,7.91,0,0,1-1.24,3.91c-1.45,2.36-4.3,4.84-9,7.3h0l-68.35,38.1c-3.81,2.12-6.29,4.55-7.65,7a9.81,9.81,0,0,0-1.27,4.77,9.24,9.24,0,0,0,1.21,4.46,13.29,13.29,0,0,0,5.33,5l0,0Z"/><path class="cls-6" d="M721.25,1156.62l-99.9-57.4a1.41,1.41,0,0,1-.84-1.3h0v-.08l.11-11.6a.52.52,0,0,1,.5-.51l19-.15a.66.66,0,0,0,.25-.07l75.4-43.89a5.46,5.46,0,0,1,4.9-.22l81.12,46.65a.52.52,0,0,0,.25.07L821,1088a.51.51,0,0,1,.51.51l-.08,11.65a2.05,2.05,0,0,1-1.18,1.51l-94.1,54.77A5.43,5.43,0,0,1,721.25,1156.62Z"/><path class="cls-2" d="M723.37,1158.4a5.63,5.63,0,0,1-2.76-.66h0l-99.9-57.4a2.7,2.7,0,0,1-1.49-2.49l.11-11.63a1.81,1.81,0,0,1,1.78-1.78l18.81-.15,75.22-43.78a6.67,6.67,0,0,1,6.19-.23l80.93,46.54,18.73-.15h0a1.79,1.79,0,0,1,1.8,1.81l-.08,11.65a3.34,3.34,0,0,1-1.82,2.62l-94.1,54.77A7,7,0,0,1,723.37,1158.4Zm-1.47-2.9a4.2,4.2,0,0,0,3.6-.21l94.1-54.77c.41-.24.53-.45.54-.5l.07-10.76-18.14.15a1.9,1.9,0,0,1-.91-.24l-81.11-46.65a4.23,4.23,0,0,0-3.61.22L641,1086.62a1.8,1.8,0,0,1-.88.25l-18.26.15-.1,10.83c0,.11.06.17.19.25Z"/><path class="cls-2" d="M698.78,1090.81c1.33-.45,44-21.26,60.82-27.06a.15.15,0,0,1,.13,0l42,24.27.33.09,18.74-.16a.67.67,0,0,1,.67.66l-.08,11.5a2.05,2.05,0,0,1-1.18,1.51l-93.87,54.64a.16.16,0,0,1-.23-.14l.11-12v0l-27.57-53.14A.16.16,0,0,1,698.78,1090.81Z"/><path class="cls-2" d="M726.39,1157.76l-.8-.37a1.46,1.46,0,0,1-.73-1.26l.1-11.74-27.6-53.22.15-1.18.84-.39c.36-.14,2.88-1.33,6.08-2.85,12.44-5.89,41.58-19.68,54.75-24.22l.56-.19.63.3,41.89,24.18,18.57-.15a1.92,1.92,0,0,1,1.4.57,2,2,0,0,1,.57,1.4l-.08,11.49a3.34,3.34,0,0,1-1.82,2.62Zm1.16-13.46-.09,9.85,92.14-53.63c.41-.24.53-.45.54-.5l.07-10.76-18.27.15-.82-.26-41.58-24c-13.29,4.67-41.76,18.15-54,23.95-2.54,1.2-4.14,2-5.1,2.4L727.65,1144Z"/><path class="cls-8" d="M820.7,1086.49l-99.9-57.4a5.46,5.46,0,0,0-4.9.22l-94.1,54.77c-1.45.84-1.6,2.1-.34,2.82l99.9,57.41a5.46,5.46,0,0,0,4.9-.22l94.1-54.77C821.8,1088.48,822,1087.21,820.7,1086.49Z"/><path class="cls-2" d="M723.48,1146.08a5.63,5.63,0,0,1-2.76-.65L620.81,1088a2.72,2.72,0,0,1-1.49-2.34,3.23,3.23,0,0,1,1.83-2.72l94.1-54.77a6.67,6.67,0,0,1,6.19-.22l99.9,57.4a2.73,2.73,0,0,1,1.5,2.34,3.29,3.29,0,0,1-1.84,2.73l-94.09,54.76A6.9,6.9,0,0,1,723.48,1146.08Zm-101.57-60.41a1.2,1.2,0,0,1,.19.11l99.9,57.41a4.23,4.23,0,0,0,3.61-.22l94.09-54.77a1.34,1.34,0,0,0,.55-.48s-.08,0-.19-.11h0l-99.9-57.4a4.23,4.23,0,0,0-3.6.21l-94.1,54.77a1.43,1.43,0,0,0-.55.48Z"/><rect class="cls-2" x="622.5" y="1095.93" width="11.98" height="2.58" transform="translate(-487.12 1692.47) rotate(-88.28)"/><rect class="cls-6" x="789.3" y="1108.51" width="1.99" height="9"/><path class="cls-6" d="M722.39,1127l-66-38.44a1.41,1.41,0,0,1-.84-1.29h0a.27.27,0,0,1,0-.09l.1-11.6a.51.51,0,0,1,.51-.5l39.59-12a.47.47,0,0,0,.25-.07l18.58-10.5a5.43,5.43,0,0,1,4.9-.22L766.7,1080a.58.58,0,0,0,.26.06l18.94-.15a.5.5,0,0,1,.51.51l-.08,11.65a2.07,2.07,0,0,1-1.19,1.51l-57.85,33.21A5.46,5.46,0,0,1,722.39,1127Z"/><path class="cls-2" d="M724.51,1128.76a5.63,5.63,0,0,1-2.76-.66h0l-66-38.43a2.67,2.67,0,0,1-1.48-2.49v0h0l.1-11.6a1.81,1.81,0,0,1,1.55-1.77l39.6-12L714,1051.38a6.65,6.65,0,0,1,6.17-.21l47,27.57,18.72-.15h0a1.78,1.78,0,0,1,1.27.52,1.81,1.81,0,0,1,.53,1.28l-.08,11.66a3.33,3.33,0,0,1-1.83,2.62l-57.86,33.21A6.94,6.94,0,0,1,724.51,1128.76Zm-1.47-2.9a4.2,4.2,0,0,0,3.6-.22l57.86-33.21c.4-.23.53-.44.54-.5l.07-10.76-18.14.15h0a1.75,1.75,0,0,1-.89-.24l-47.2-27.68a4.2,4.2,0,0,0-3.6.22l-18.6,10.52a1.73,1.73,0,0,1-.64.21l-39,11.82-.1,11c0,.1.07.16.19.22Z"/><path class="cls-2" d="M769.13,1079.88s16.61,0,16.61,0a.66.66,0,0,1,.67.66l-.08,11.5a2.07,2.07,0,0,1-1.19,1.51l-57.62,33.07a.15.15,0,0,1-.23-.13l.11-12v0h0C726,1110.61,769.13,1079.88,769.13,1079.88Z"/><path class="cls-2" d="M727.51,1128.12l-.8-.38a1.47,1.47,0,0,1-.71-1.27l.11-11.87c-.4-1.36.37-4.17,20.83-19.9,10.51-8.08,21.33-15.8,21.44-15.87l.36-.18c.23-.08.23-.08,17-.06a1.78,1.78,0,0,1,1.39.57,2,2,0,0,1,.57,1.4l-.08,11.49a3.33,3.33,0,0,1-1.83,2.62Zm1.18-13.38-.09,9.78,55.9-32.09c.4-.23.53-.44.54-.5l.07-10.76H769.55c-19.41,13.84-39.74,29.77-40.86,33l.12.29Z"/><path class="cls-8" d="M785.59,1078.41l-66-38.44a5.46,5.46,0,0,0-4.9.22l-57.85,33.21c-1.45.84-1.6,2.11-.35,2.83l66,38.43a5.43,5.43,0,0,0,4.9-.22l57.85-33.2C786.7,1080.4,786.85,1079.13,785.59,1078.41Z"/><path class="cls-2" d="M724.62,1116.44a5.74,5.74,0,0,1-2.76-.65l-66-38.45a2.74,2.74,0,0,1-1.49-2.33,3.27,3.27,0,0,1,1.84-2.73l57.86-33.21a6.71,6.71,0,0,1,6.18-.22l66,38.44a2.72,2.72,0,0,1,1.49,2.34,3.23,3.23,0,0,1-1.83,2.72L728,1115.56A6.94,6.94,0,0,1,724.62,1116.44ZM657,1075s.09.06.2.12l66,38.44a4.24,4.24,0,0,0,3.6-.22l57.86-33.21a1.36,1.36,0,0,0,.54-.48s-.09-.05-.2-.11h0l-66-38.43a4.2,4.2,0,0,0-3.6.22l-57.86,33.21a1.3,1.3,0,0,0-.54.47Z"/><rect class="cls-2" x="657.57" y="1085.26" width="11.98" height="2.58" transform="translate(-442.43 1717.16) rotate(-88.28)"/><rect class="cls-6" x="770.54" y="1092.03" width="10.46" height="1.99" transform="translate(-328.48 1852.72) rotate(-89.16)"/><path class="cls-24" d="M723.36,1079.76c2.61,0,4.73-1.22,4.73-2.73s-2.12-2.72-4.72-2.72-4.72,1.23-4.72,2.72,2.12,2.73,4.72,2.73Z"/><path class="cls-25" d="M747.35,1068.32a14.47,14.47,0,0,1,3.17,4.66h2.72c2.47,0,4.49,1.22,4.49,2.72v3c0,1.49-2,2.72-4.49,2.72h-2.72a14.47,14.47,0,0,1-3.17,4.66l1.92,1.17c1.74,1.06,1.74,2.79,0,3.84l-3.44,2.09a6.72,6.72,0,0,1-6.34,0l-1.92-1.17a40,40,0,0,1-7.68,1.93v1.65c0,1.5-2,2.72-4.49,2.72h-4.85c-2.47,0-4.49-1.22-4.49-2.72v-1.65a40,40,0,0,1-7.68-1.93l-1.92,1.17a6.72,6.72,0,0,1-6.34,0l-3.44-2.08c-1.74-1.06-1.74-2.79,0-3.85l1.92-1.17a14.47,14.47,0,0,1-3.17-4.66H692.7c-2.46,0-4.48-1.22-4.48-2.72v-3c0-1.5,2-2.72,4.48-2.72h2.73a14.47,14.47,0,0,1,3.17-4.66l-1.92-1.17c-1.74-1.05-1.74-2.79,0-3.85l3.44-2.08a6.72,6.72,0,0,1,6.34,0l1.92,1.16a40,40,0,0,1,7.68-1.92v-1.66c0-1.49,2-2.72,4.49-2.72h4.85c2.47,0,4.49,1.23,4.49,2.72v1.66a39.26,39.26,0,0,1,7.68,1.93l1.92-1.17a6.72,6.72,0,0,1,6.34,0l3.43,2.08c1.75,1.06,1.75,2.79,0,3.85l-1.92,1.16Zm-13.8,2.44c-5.84-3.54-15.31-3.54-21.14,0s-5.84,9.29,0,12.83,15.3,3.54,21.14,0,5.83-9.29,0-12.84Z"/><path class="cls-24" d="M723,1050.86a.42.42,0,0,1,.83,0v26.28a.42.42,0,0,1-.83,0Z"/><path class="cls-16" d="M751.13,1019.11a17,17,0,0,1,3.67,5.38H756v-2.93h7.08v9.49c0,1.72-2.33,3.14-5.18,3.14H754.8a14.56,14.56,0,0,1-.69,1.44h.75V1043a2.67,2.67,0,0,1-1.51,2.33l-4,2.41a7.8,7.8,0,0,1-7.33,0l-2.22-1.35a46.45,46.45,0,0,1-8.87,2.23v1.91c0,1.72-2.33,3.14-5.18,3.14h-5.62c-2.84,0-5.17-1.42-5.17-3.14v-1.91a46.76,46.76,0,0,1-8.88-2.23l-2.22,1.35a7.78,7.78,0,0,1-7.32,0l-4-2.41a2.66,2.66,0,0,1-1.51-2.32v-7.57h.66q-.33-.63-.6-1.29H688c-2.84,0-5.18-1.42-5.18-3.14v-9.56h10a18.16,18.16,0,0,1,2-2.38l-2.22-1.34a2.72,2.72,0,0,1-1.51-2.17V1008H702.5v2.28a5.41,5.41,0,0,1,1.39.6l2.22,1.35A45.38,45.38,0,0,1,715,1010v-1.91c0-1.73,2.33-3.14,5.18-3.14h5.62c2.85,0,5.18,1.41,5.18,3.14V1010a46.45,46.45,0,0,1,8.87,2.23l2.22-1.35a6.8,6.8,0,0,1,3-.89v-1.92h9.81v7.18a2.57,2.57,0,0,1-1.49,2.49l-2.22,1.35Zm-15.94,2.82c-6.75-4.09-17.68-4.09-24.42,0s-6.75,10.73,0,14.82,17.67,4.1,24.42,0,6.74-10.72,0-14.82Z"/><path class="cls-17" d="M751.13,1011.62a17,17,0,0,1,3.67,5.38h3.14c2.85,0,5.18,1.42,5.18,3.15v3.4c0,1.74-2.33,3.15-5.18,3.15H754.8a16.86,16.86,0,0,1-3.67,5.38l2.22,1.35c2,1.22,2,3.22,0,4.45l-4,2.4a7.8,7.8,0,0,1-7.33,0l-2.22-1.35a46.1,46.1,0,0,1-8.87,2.23v1.91c0,1.73-2.33,3.14-5.18,3.14h-5.61c-2.85,0-5.18-1.41-5.18-3.14v-1.91a46.1,46.1,0,0,1-8.87-2.23l-2.22,1.35a7.78,7.78,0,0,1-7.32,0l-4-2.41c-2-1.22-2-3.22,0-4.45l2.22-1.34a16.92,16.92,0,0,1-3.67-5.38H688c-2.85,0-5.18-1.42-5.18-3.15v-3.4c0-1.73,2.33-3.14,5.18-3.14h3.15a16.85,16.85,0,0,1,3.67-5.39l-2.22-1.34c-2-1.23-2-3.23,0-4.45l4-2.41a7.8,7.8,0,0,1,7.33,0l2.22,1.35a46.85,46.85,0,0,1,8.87-2.23v-1.91c0-1.73,2.33-3.14,5.18-3.14h5.62c2.85,0,5.18,1.41,5.18,3.14v1.91a46.45,46.45,0,0,1,8.87,2.23l2.22-1.35a7.8,7.8,0,0,1,7.33,0l4,2.41c2,1.23,2,3.23,0,4.45l-2.21,1.34Zm-15.94,2.82c-6.75-4.09-17.68-4.09-24.42,0s-6.75,10.73,0,14.82,17.67,4.1,24.42,0S741.93,1018.54,735.19,1014.44Z"/><path class="cls-24" d="M723,973.46a.42.42,0,0,1,.42-.42h0a.42.42,0,0,1,.41.42v59a.41.41,0,0,1-.42.41h0a.42.42,0,0,1-.41-.41Z"/><path class="cls-24" d="M713.91,966.58a9,9,0,0,0-3,2.79H710v4.26c0,2,1.29,4.12,3.9,5.69,5.2,3.11,13.71,3.11,18.91,0,2.6-1.56,3.9-3.62,3.9-5.67v-4.28h-.88a9,9,0,0,0-3-2.78c-5.2-3.12-13.71-3.12-18.91,0Z"/><path class="cls-26" d="M713.91,963.64c-5.2,3.12-5.2,8.22,0,11.34s13.71,3.11,18.91,0,5.2-8.22,0-11.34-13.71-3.11-18.91,0Z"/><path class="cls-6" d="M840.71,1194.62l-33.42-19.4a1.24,1.24,0,0,1-.74-1.15h0s0,0,0-.07l.09-10.28a.45.45,0,0,1,.45-.44l16.84-.14a.46.46,0,0,0,.23-.06l16.46-9.31a4.82,4.82,0,0,1,4.33-.19l16.78,9.87a.46.46,0,0,0,.23.06l16.77-.14a.44.44,0,0,1,.45.45l-.07,10.33a1.81,1.81,0,0,1-1,1.33l-33,19A4.82,4.82,0,0,1,840.71,1194.62Z"/><path class="cls-2" d="M842.58,1196.2a5.06,5.06,0,0,1-2.44-.58h0l-33.41-19.4a2.35,2.35,0,0,1-1.31-2.21l.09-10.29a1.61,1.61,0,0,1,1.58-1.58l16.67-.14,16.3-9.21a5.93,5.93,0,0,1,5.47-.2l16.62,9.79,16.58-.14h0a1.58,1.58,0,0,1,1.13.46,1.63,1.63,0,0,1,.47,1.14l-.07,10.32a3,3,0,0,1-1.62,2.32l-33,19A6.18,6.18,0,0,1,842.58,1196.2Zm-1.3-2.57a3.74,3.74,0,0,0,3.19-.19l33-19a1.09,1.09,0,0,0,.48-.44l.06-9.53-16.07.13a1.66,1.66,0,0,1-.81-.21l-16.79-9.88a3.76,3.76,0,0,0-3.18.2l-16.47,9.31a1.56,1.56,0,0,1-.79.21l-16.15.13-.09,9.6c0,.09,0,.15.17.22Z"/><path class="cls-2" d="M863.88,1163.37h14.71a.58.58,0,0,1,.59.59l-.07,10.19a1.81,1.81,0,0,1-1,1.33l-32.82,18.83a.14.14,0,0,1-.21-.12l.1-10.66v0h0C843.86,1180.13,863.88,1163.37,863.88,1163.37Z"/><path class="cls-2" d="M845.24,1195.63l-.7-.33a1.28,1.28,0,0,1-.64-1.11l.09-10.63c-.5-3.94,11.69-14.81,19.16-21.06l.32-.19c.24-.09.23-.09,15.13-.08a1.82,1.82,0,0,1,1.22.51,1.73,1.73,0,0,1,.51,1.23l-.07,10.18a2.94,2.94,0,0,1-1.62,2.32Zm1-11.68-.08,8.49,31.3-18a1.09,1.09,0,0,0,.48-.44l.06-9.53c-3.86,0-11.88,0-13.74,0-8.86,7.45-18.21,16.62-18.07,18.65l.23.59Z"/><path class="cls-8" d="M878.46,1162.07l-33.41-19.4a4.84,4.84,0,0,0-4.34.19l-33,19c-1.28.74-1.42,1.87-.3,2.5l33.41,19.41a4.84,4.84,0,0,0,4.34-.2l33-18.94C879.44,1163.83,879.58,1162.71,878.46,1162.07Z"/><path class="cls-2" d="M842.68,1185.29a5,5,0,0,1-2.45-.58l-33.42-19.41a2.41,2.41,0,0,1-1.32-2.07,2.89,2.89,0,0,1,1.62-2.41l33-19a5.92,5.92,0,0,1,5.48-.19l33.42,19.4a2.4,2.4,0,0,1,1.32,2.07,2.89,2.89,0,0,1-1.62,2.41l-33,19A6.11,6.11,0,0,1,842.68,1185.29Zm-34.9-22.07s.08,0,.17.1l33.42,19.41a3.74,3.74,0,0,0,3.19-.2l33-18.94a1.2,1.2,0,0,0,.48-.43s-.07,0-.17-.1h0l-33.41-19.4a3.74,3.74,0,0,0-3.19.19l-33,19a1.13,1.13,0,0,0-.48.42Z"/><rect class="cls-2" x="808.31" y="1172.31" width="10.61" height="2.28" transform="translate(-383.75 1951.45) rotate(-88.28)"/><rect class="cls-6" x="865.13" y="1174.13" width="9.26" height="1.76" transform="translate(-318.67 2026.35) rotate(-89.11)"/><path class="cls-6" d="M841.76,1171.73l-4.3-.66a.93.93,0,0,1-.7-1.3l.24-.51a9.82,9.82,0,0,1-1.52-.71,7.65,7.65,0,0,1-1.52-1.14l-2,.31a.94.94,0,0,1-1-.52l-1.13-2.46a.93.93,0,0,1,.69-1.3l1.72-.26a4.58,4.58,0,0,1,.91-2.14l-.81-.47a.92.92,0,0,1,0-1.6l3.13-1.81a.94.94,0,0,1,.92,0l1.45.84a16.56,16.56,0,0,1,4.74-.76l.42-.89a.93.93,0,0,1,1-.52l4.3.66a.93.93,0,0,1,.7,1.31l-.24.5a9.82,9.82,0,0,1,1.52.71h0a7.94,7.94,0,0,1,1.52,1.14l2-.31a.94.94,0,0,1,1,.52l1.13,2.46a.92.92,0,0,1-.69,1.3l-1.72.26a4.58,4.58,0,0,1-.91,2.14l.81.47a.92.92,0,0,1,0,1.6l-3.13,1.81a.94.94,0,0,1-.92,0l-1.45-.84a16.56,16.56,0,0,1-4.74.76l-.42.89A.91.91,0,0,1,841.76,1171.73Zm-2.93-2.23,2.58.4.63-1.35h.57a14.31,14.31,0,0,0,5.09-.79l.38-.13,1.73,1,1.46-.84-1.52-.88.86-.81a3.17,3.17,0,0,0,1.18-2.43l0-.79,2.1-.33-.4-.88-2.31.36-.32-.34a6.12,6.12,0,0,0-1.45-1.16h0a10.32,10.32,0,0,0-2.11-.88l-1-.3.6-1.29-2.59-.4-.63,1.35h-.57a14.53,14.53,0,0,0-5.09.79l-.38.13-1.73-1-1.46.84,1.52.88-.86.81a3.19,3.19,0,0,0-1.18,2.44l0,.79-2.1.32.4.88,2.31-.36.32.34a6.12,6.12,0,0,0,1.45,1.16,10.32,10.32,0,0,0,2.11.88l.95.3Zm4-2.5a6,6,0,0,1-4.1-1.39,2.39,2.39,0,0,1,0-3.66c2-1.85,6.24-1.85,8.2,0a2.41,2.41,0,0,1,0,3.66h0A6,6,0,0,1,842.87,1167Zm0-4.67a4.34,4.34,0,0,0-2.9.9.8.8,0,0,0-.29.55.85.85,0,0,0,.29.56,5.12,5.12,0,0,0,5.79,0,.85.85,0,0,0,.29-.56.8.8,0,0,0-.29-.55A4.33,4.33,0,0,0,842.87,1162.33Z"/><path class="cls-2" d="M849.93,1157.75a10.91,10.91,0,0,0-2.29-1l.67-1.45-4-.62a.45.45,0,0,0-.49.26l-.51,1.11a15.54,15.54,0,0,0-5.41.84l-1.58-.91a.43.43,0,0,0-.46,0l-2.29,1.32a.46.46,0,0,0,0,.8l1.11.65a4,4,0,0,0-1.44,3.12l-1.87.29a.46.46,0,0,0-.35.65l.77,1.66a.45.45,0,0,0,.49.26l2.16-.33a7.08,7.08,0,0,0,1.65,1.32,10.91,10.91,0,0,0,2.29,1l-.67,1.45,4.05.62a.45.45,0,0,0,.49-.26l.51-1.11a15.54,15.54,0,0,0,5.41-.84l.89.51a1.81,1.81,0,0,0,1.85,0l1.59-.92a.46.46,0,0,0,0-.8l-1.11-.65a4,4,0,0,0,1.44-3.12l1.87-.28a.47.47,0,0,0,.35-.66l-.77-1.66a.45.45,0,0,0-.49-.26l-2.16.33A7.08,7.08,0,0,0,849.93,1157.75Zm-3.45,5.2c-1.62,1.54-5.37,1.54-7,0a1.53,1.53,0,0,1,0-2.38c1.62-1.54,5.37-1.54,7,0A1.53,1.53,0,0,1,846.48,1163Z"/><path class="cls-8" d="M921.89,1184.79l-35.34-20.4c-1.59-.92-2.88.06-2.88,2.18v16.19a6.92,6.92,0,0,0,2.88,5.51l4.07,2.35c.36,1.77,1.74,6.56,6.24,9.14.24.14.4-.06.29-.36a9.8,9.8,0,0,1-.49-5.3l25.23,14.57c1.59.92,2.88-.06,2.88-2.18V1190.3A6.92,6.92,0,0,0,921.89,1184.79Z"/><path class="cls-27" d="M923,1209.9a3.16,3.16,0,0,1-1.58-.47l-24.1-13.91a10.27,10.27,0,0,0,.63,3.58,1.19,1.19,0,0,1-.31,1.34,1.08,1.08,0,0,1-1.25.08,14.56,14.56,0,0,1-6.58-9.33l-3.73-2.16a7.76,7.76,0,0,1-3.32-6.27v-16.19a3.39,3.39,0,0,1,1.43-3.09,2.68,2.68,0,0,1,2.77.15l35.34,20.4a7.76,7.76,0,0,1,3.32,6.27v16.19a3.37,3.37,0,0,1-1.44,3.09A2.32,2.32,0,0,1,923,1209.9Zm-26.94-17.14,26.24,15.15a1.12,1.12,0,0,0,1,.15,1.82,1.82,0,0,0,.56-1.57V1190.3a6.06,6.06,0,0,0-2.44-4.75l-35.34-20.4a1.08,1.08,0,0,0-1-.15,1.85,1.85,0,0,0-.55,1.57v16.19a6.06,6.06,0,0,0,2.44,4.75l4.41,2.54.08.39a13.46,13.46,0,0,0,4.36,7.56,9.6,9.6,0,0,1,0-4.11Z"/><rect class="cls-27" x="903.34" y="1170.14" width="1.76" height="27.84" transform="translate(-573.32 1375.11) rotate(-60)"/><rect class="cls-27" x="903.34" y="1175.66" width="1.76" height="27.84" transform="translate(-578.1 1377.87) rotate(-60)"/><path class="cls-8" d="M892.24,1141.11,870.91,1129c-1.59-.92-2.88,0-2.88,2.18v7a6.9,6.9,0,0,0,2.88,5.51l5.07,2.93c.38,1.82,1.78,6.52,6.23,9.08.23.13.39-.07.28-.37a9.87,9.87,0,0,1-.5-5.24l10.25,5.69c1.59.92,2.88-.06,2.88-2.18v-7.06A6.92,6.92,0,0,0,892.24,1141.11Z"/><path class="cls-27" d="M893.39,1157.09a3.19,3.19,0,0,1-1.59-.47l-9.11-5a10.54,10.54,0,0,0,.63,3.54,1.22,1.22,0,0,1-.3,1.35,1.1,1.1,0,0,1-1.25.08,14.6,14.6,0,0,1-6.57-9.27l-4.73-2.74a7.76,7.76,0,0,1-3.32-6.27v-7a3.4,3.4,0,0,1,1.44-3.1,2.68,2.68,0,0,1,2.76.16l21.33,12.08a7.78,7.78,0,0,1,3.32,6.27v7.06a3.37,3.37,0,0,1-1.44,3.09A2.31,2.31,0,0,1,893.39,1157.09Zm-12-8.25,11.27,6.25c.24.14.69.35,1,.16a1.82,1.82,0,0,0,.56-1.57v-7.06a6,6,0,0,0-2.44-4.74l-21.32-12.09a1.11,1.11,0,0,0-1-.15,1.85,1.85,0,0,0-.55,1.57v7a6,6,0,0,0,2.44,4.75l5.4,3.12.09.38a13.44,13.44,0,0,0,4.35,7.5,9.31,9.31,0,0,1-.06-4Z"/><path class="cls-6" d="M831.75,1224.21l-11-6.45a1.25,1.25,0,0,1-.74-1.15h0v-.08l.09-10.27a.45.45,0,0,1,.45-.45l16.85-.14a.46.46,0,0,0,.22-.06l16.46-9.3a4.81,4.81,0,0,1,4.34-.2l-5.6-3.08a.4.4,0,0,0,.22.06l16.77-.14a.47.47,0,0,1,.46.46l-.07,10.32a1.87,1.87,0,0,1-1,1.34l-33,18.94A4.82,4.82,0,0,1,831.75,1224.21Z"/><path class="cls-2" d="M833.63,1225.78a5,5,0,0,1-2.45-.58h0l-11-6.45a2.37,2.37,0,0,1-1.3-2.19l.09-10.3a1.6,1.6,0,0,1,1.58-1.58l16.67-.14,16.31-9.22a4.73,4.73,0,0,1,.55-.28l-1.8-1h0l1.12-2a.76.76,0,0,0-.33-.08l16.76-.14h0a1.58,1.58,0,0,1,1.12.47,1.56,1.56,0,0,1,.47,1.13l-.07,10.33a3,3,0,0,1-1.61,2.32l-33,18.94A6,6,0,0,1,833.63,1225.78Zm-1.31-2.56a3.74,3.74,0,0,0,3.19-.2l33-18.94a1.14,1.14,0,0,0,.48-.44l.06-9.54-11.81.1,1.57.86.1.06-1.12,2-.06,0a3.84,3.84,0,0,0-3.15.21l-16.47,9.32a1.57,1.57,0,0,1-.78.21l-16.16.13-.09,9.59c0,.1,0,.16.17.23Z"/><path class="cls-2" d="M854.92,1193s14.72,0,14.72,0a.58.58,0,0,1,.59.58l-.07,10.19a1.87,1.87,0,0,1-1,1.34l-32.82,18.82a.13.13,0,0,1-.2-.12l.09-10.66v0h0C834.9,1209.71,854.92,1193,854.92,1193Z"/><path class="cls-2" d="M836.29,1225.21l-.71-.33a1.29,1.29,0,0,1-.64-1.11l.1-10.64c-.49-4,11.68-14.8,19.15-21.05l.37-.21c.22-.07.22-.07,15.08-.06a1.74,1.74,0,0,1,1.22.51,1.72,1.72,0,0,1,.51,1.23l-.07,10.19a3,3,0,0,1-1.61,2.32Zm1-11.73-.08,8.55,31.3-18a1.14,1.14,0,0,0,.48-.44l.06-9.54H855.34c-8.86,7.44-18.21,16.61-18.06,18.64l.19.52Z"/><path class="cls-8" d="M869.51,1191.66l-11-6.45a4.84,4.84,0,0,0-4.34.19l-33,18.94c-1.28.75-1.42,1.87-.3,2.51l11,6.45a4.81,4.81,0,0,0,4.34-.2l33-18.94C870.48,1193.42,870.62,1192.29,869.51,1191.66Z"/><path class="cls-2" d="M833.72,1214.87a5,5,0,0,1-2.44-.58l-11-6.45a2.42,2.42,0,0,1-1.32-2.07,2.88,2.88,0,0,1,1.63-2.41l33-18.95a5.87,5.87,0,0,1,5.47-.19l11,6.45a2.39,2.39,0,0,1,1.32,2.07,2.88,2.88,0,0,1-1.62,2.41l-33,18.95A6.2,6.2,0,0,1,833.72,1214.87Zm-12.51-9.11a1,1,0,0,1,.17.1l11,6.45a3.72,3.72,0,0,0,3.18-.19l33-18.95a1.15,1.15,0,0,0,.47-.42h0s-.08,0-.17-.1h0l-11-6.45a3.76,3.76,0,0,0-3.18.2l-33,18.95a1.21,1.21,0,0,0-.48.42Z"/><rect class="cls-2" x="821.73" y="1214.85" width="10.61" height="2.28" transform="translate(-413.25 2006.12) rotate(-88.28)"/><rect class="cls-6" x="856.17" y="1203.72" width="9.26" height="1.76" transform="translate(-357.07 2046.51) rotate(-89.11)"/><path class="cls-8" d="M684.37,924.81l30-17.33c1.36-.78,2.45,0,2.45,1.85v13.76a5.85,5.85,0,0,1-2.45,4.68l-3.45,2a11.77,11.77,0,0,1-5.31,7.78c-.2.11-.33-.06-.24-.32a8.34,8.34,0,0,0,.42-4.49L684.37,945.1c-1.35.78-2.45-.05-2.45-1.85V929.49A5.88,5.88,0,0,1,684.37,924.81Z"/><path class="cls-27" d="M683.4,946.15a2,2,0,0,1-1-.27,2.91,2.91,0,0,1-1.22-2.63V929.49a6.6,6.6,0,0,1,2.83-5.33l30-17.33a2.3,2.3,0,0,1,2.35-.13,2.89,2.89,0,0,1,1.22,2.63v13.76a6.62,6.62,0,0,1-2.82,5.33l-3.17,1.83a12.33,12.33,0,0,1-5.6,7.93.9.9,0,0,1-1.06-.07,1,1,0,0,1-.25-1.14,8.94,8.94,0,0,0,.53-3l-20.48,11.82A2.72,2.72,0,0,1,683.4,946.15Zm32-38.22a1.19,1.19,0,0,0-.6.2l-30,17.33a5.15,5.15,0,0,0-2.07,4v13.76a1.55,1.55,0,0,0,.47,1.33c.27.17.66,0,.86-.12l22.29-12.88.24,1a7.91,7.91,0,0,1,0,3.5,11.49,11.49,0,0,0,3.71-6.43l.06-.33,3.75-2.16a5.15,5.15,0,0,0,2.08-4V909.33a1.52,1.52,0,0,0-.48-1.33A.45.45,0,0,0,715.37,907.93Z"/><rect class="cls-27" x="687.55" y="923.44" width="23.66" height="1.49" transform="translate(-368.36 473.41) rotate(-29.99)"/><rect class="cls-27" x="687.55" y="928.14" width="23.66" height="1.49" transform="translate(-370.73 474.11) rotate(-30)"/><path class="cls-8" d="M668.72,907.94l18.12-10.27c1.35-.78,2.45.05,2.45,1.86v6a5.86,5.86,0,0,1-2.45,4.68l-4.3,2.49a11.76,11.76,0,0,1-5.3,7.71c-.19.12-.33,0-.24-.31a8.37,8.37,0,0,0,.43-4.45l-8.71,4.83c-1.35.78-2.45-.05-2.45-1.85v-6A5.9,5.9,0,0,1,668.72,907.94Z"/><path class="cls-27" d="M667.75,921.52a2,2,0,0,1-1-.27,2.91,2.91,0,0,1-1.22-2.63v-6a6.57,6.57,0,0,1,2.83-5.33h0L686.47,897a2.3,2.3,0,0,1,2.35-.12,2.9,2.9,0,0,1,1.22,2.63v6a6.61,6.61,0,0,1-2.82,5.33l-4,2.32a12.31,12.31,0,0,1-5.57,7.88.93.93,0,0,1-1.06-.07,1,1,0,0,1-.26-1.14,9.06,9.06,0,0,0,.53-3l-7.75,4.31A2.67,2.67,0,0,1,667.75,921.52Zm1.34-12.93a5.15,5.15,0,0,0-2.07,4v6a1.57,1.57,0,0,0,.47,1.34c.27.16.66,0,.86-.13l9.58-5.32.23,1a8.08,8.08,0,0,1,0,3.44,11.5,11.5,0,0,0,3.7-6.37l.07-.32,4.59-2.65a5.15,5.15,0,0,0,2.07-4v-6a1.57,1.57,0,0,0-.47-1.34,1,1,0,0,0-.85.13Z"/><path class="cls-8" d="M664.25,967.38l30-17.33c1.36-.78,2.45.05,2.45,1.85v25.6a5.84,5.84,0,0,1-2.45,4.68l-18.62,10.76a5.62,5.62,0,0,0,.41,4.07c.09.15,0,.48-.25.6-3.88,2.25-5-.58-5.32-1.7l-6.24,3.61c-1.35.78-2.45,0-2.45-1.86v-25.6A5.88,5.88,0,0,1,664.25,967.38Z"/><path class="cls-27" d="M663.28,1000.56a2,2,0,0,1-1-.27,2.89,2.89,0,0,1-1.22-2.63V972.07a6.57,6.57,0,0,1,2.83-5.33l30-17.34a2.3,2.3,0,0,1,2.35-.13,2.89,2.89,0,0,1,1.22,2.63v25.6a6.59,6.59,0,0,1-2.82,5.33l-18.33,10.58a4.8,4.8,0,0,0,.37,3.21,1,1,0,0,1,.1.8,1.32,1.32,0,0,1-.6.83c-1.64,1-3.07,1.19-4.23.71a3.68,3.68,0,0,1-1.87-2l-5.47,3.15A2.62,2.62,0,0,1,663.28,1000.56ZM664.62,968a5.15,5.15,0,0,0-2.07,4v25.59A1.57,1.57,0,0,0,663,999a.93.93,0,0,0,.86-.13l7.09-4.1.25,1a2.68,2.68,0,0,0,1.32,1.86,3.26,3.26,0,0,0,2.7-.51,6.78,6.78,0,0,1-.32-4.28l.06-.33,18.92-10.92a5.13,5.13,0,0,0,2.08-4V951.9a1.55,1.55,0,0,0-.47-1.33.93.93,0,0,0-.86.13Z"/><rect class="cls-27" x="667.43" y="967" width="23.66" height="1.49" transform="translate(-392.8 469.14) rotate(-29.99)"/><rect class="cls-27" x="667.43" y="971.69" width="23.66" height="1.49" transform="translate(-395.15 469.77) rotate(-29.99)"/><rect class="cls-27" x="667.43" y="976.38" width="23.66" height="1.49" transform="translate(-397.46 470.33) rotate(-29.99)"/><rect class="cls-27" x="667.43" y="981.08" width="23.66" height="1.49" transform="translate(-399.81 470.96) rotate(-29.99)"/><path class="cls-6" d="M830,1038.58l-75.18-43.2a1.05,1.05,0,0,1-.63-1h0s0,0,0-.07l.08-8.73a.38.38,0,0,1,.38-.38l14.31-.12a.32.32,0,0,0,.19-.05l56.74-33a4.1,4.1,0,0,1,3.68-.17l61,35.11a.46.46,0,0,0,.2,0l14.25-.12a.38.38,0,0,1,.38.38l-.06,8.77a1.57,1.57,0,0,1-.89,1.14l-70.81,41.21A4.07,4.07,0,0,1,830,1038.58Z"/><path class="cls-2" d="M831.56,1039.92a4.27,4.27,0,0,1-2.08-.5h0l-75.18-43.2a2,2,0,0,1-1.11-1.87l.08-8.75a1.35,1.35,0,0,1,1.34-1.34l14.15-.12,56.61-32.94A5,5,0,0,1,830,951l60.91,35,14.09-.11h0a1.38,1.38,0,0,1,1,.39,1.3,1.3,0,0,1,.39,1l-.06,8.77a2.49,2.49,0,0,1-1.37,2l-70.81,41.21A5.25,5.25,0,0,1,831.56,1039.92Zm-1.11-2.18a3.19,3.19,0,0,0,2.71-.16L904,996.36c.31-.18.41-.34.41-.38l.06-8.1-13.65.12a1.34,1.34,0,0,1-.69-.18l-61-35.1a3.18,3.18,0,0,0-2.72.16l-56.73,33a1.41,1.41,0,0,1-.67.19l-13.74.11-.07,8.15c0,.08,0,.13.14.19Z"/><path class="cls-2" d="M813.06,989.06c1-.35,33.11-16,45.77-20.37a.1.1,0,0,1,.09,0L890.56,987l.25.07,14.1-.12a.5.5,0,0,1,.5.5l-.06,8.65a1.57,1.57,0,0,1-.89,1.14l-70.63,41.11a.12.12,0,0,1-.18-.1l.08-9.06h0l-20.74-40A.1.1,0,0,1,813.06,989.06Z"/><path class="cls-2" d="M833.83,1039.43l-.6-.27a1.1,1.1,0,0,1-.55-1l.08-8.84-20.78-40,.12-.9.63-.29c.27-.1,2.17-1,4.58-2.14,9.36-4.43,31.29-14.81,41.2-18.23l.42-.14.48.23,31.52,18.19,14-.11a1.47,1.47,0,0,1,1.48,1.48l-.06,8.65a2.49,2.49,0,0,1-1.37,2Zm.87-10.12-.06,7.41L904,996.36c.31-.18.4-.34.41-.38l.06-8.1-13.75.12-.62-.2-31.29-18.06c-10,3.51-31.43,13.65-40.64,18l-3.84,1.81,20.48,39.49Z"/><path class="cls-8" d="M904.8,985.8l-75.18-43.19a4.07,4.07,0,0,0-3.68.16L755.13,984c-1.09.63-1.21,1.58-.26,2.12l75.18,43.2a4.07,4.07,0,0,0,3.68-.16l70.81-41.22C905.63,987.3,905.75,986.35,904.8,985.8Z"/><path class="cls-2" d="M831.64,1030.65a4.26,4.26,0,0,1-2.08-.49L754.38,987a2,2,0,0,1-1.12-1.76,2.43,2.43,0,0,1,1.38-2.05l70.81-41.22a5,5,0,0,1,4.66-.17L905.29,985a2,2,0,0,1,1.12,1.76,2.45,2.45,0,0,1-1.38,2L834.22,1030A5.21,5.21,0,0,1,831.64,1030.65Zm-76.43-45.46a1.55,1.55,0,0,1,.14.08l75.18,43.2a3.19,3.19,0,0,0,2.71-.16l70.81-41.22a.92.92,0,0,0,.41-.36s-.06,0-.14-.08h0l-75.18-43.2a3.19,3.19,0,0,0-2.71.16l-70.82,41.22a1,1,0,0,0-.41.36Z"/><rect class="cls-2" x="755.66" y="992.91" width="9.02" height="1.94" transform="translate(-256.11 1723.84) rotate(-88.28)"/><rect class="cls-6" x="881.17" y="1002.37" width="1.49" height="6.77"/><path class="cls-6" d="M849.51,1005.14l-49.65-28.92a1.07,1.07,0,0,1-.63-1h0s0,0,0-.06l.08-8.73a.38.38,0,0,1,.38-.38l29.79-9a.45.45,0,0,0,.19,0l14-7.91a4.09,4.09,0,0,1,3.69-.16l35.51,20.83a.45.45,0,0,0,.19.05l14.26-.12a.38.38,0,0,1,.38.38l-.06,8.77a1.57,1.57,0,0,1-.89,1.14l-43.54,25A4.07,4.07,0,0,1,849.51,1005.14Z"/><path class="cls-2" d="M851.1,1006.48A4.2,4.2,0,0,1,849,1006h0l-49.65-28.92a2,2,0,0,1-1.11-1.87v0h0l.08-8.73a1.36,1.36,0,0,1,1.16-1.33l29.8-9,13.87-7.84a5,5,0,0,1,4.65-.17l35.38,20.75,14.09-.11h0a1.34,1.34,0,0,1,1,.39,1.35,1.35,0,0,1,.4,1l-.06,8.77a2.51,2.51,0,0,1-1.37,2l-43.54,25A5.21,5.21,0,0,1,851.1,1006.48ZM850,1004.3a3.19,3.19,0,0,0,2.71-.16l43.55-25c.3-.18.39-.34.4-.38l.06-8.1-13.66.12h0a1.32,1.32,0,0,1-.67-.18l-35.52-20.84a3.23,3.23,0,0,0-2.71.17l-14,7.91a1.25,1.25,0,0,1-.48.17l-29.38,8.89-.08,8.3a.23.23,0,0,0,.14.17Z"/><path class="cls-2" d="M884.68,969.7h12.5a.5.5,0,0,1,.5.5l-.06,8.65a1.57,1.57,0,0,1-.89,1.14l-43.36,24.89a.11.11,0,0,1-.17-.1l.07-9.06,0,0h0C852.19,992.83,884.68,969.7,884.68,969.7Z"/><path class="cls-2" d="M853.36,1006l-.6-.29a1.08,1.08,0,0,1-.54-1l.08-8.93c-.29-1,.28-3.14,15.68-15,7.91-6.08,16-11.88,16.13-11.94l.27-.14c.18,0,.18,0,12.8,0a1.34,1.34,0,0,1,1,.43,1.47,1.47,0,0,1,.43,1.05l-.06,8.65a2.51,2.51,0,0,1-1.37,2Zm.88-10.07-.06,7.36,42.07-24.14c.3-.18.39-.34.4-.38l.05-8.1H885c-14.6,10.41-29.9,22.4-30.74,24.83l.09.23Z"/><path class="cls-8" d="M897.07,968.59l-49.65-28.92a4.12,4.12,0,0,0-3.69.16l-43.53,25c-1.09.64-1.21,1.59-.26,2.13l49.65,28.93a4.07,4.07,0,0,0,3.68-.17l43.54-25C897.9,970.09,898,969.14,897.07,968.59Z"/><path class="cls-2" d="M851.18,997.21a4.22,4.22,0,0,1-2.07-.49l-49.66-28.93a2,2,0,0,1-1.12-1.76,2.46,2.46,0,0,1,1.38-2l43.54-25a5,5,0,0,1,4.65-.16l49.66,28.93a2,2,0,0,1,1.12,1.75,2.45,2.45,0,0,1-1.38,2l-43.54,25A5.19,5.19,0,0,1,851.18,997.21ZM800.28,966s.06,0,.14.09L850.08,995a3.16,3.16,0,0,0,2.71-.17l43.54-25a1,1,0,0,0,.4-.36s-.06,0-.14-.08h0l-49.65-28.92a3.19,3.19,0,0,0-2.71.16l-43.54,25a.94.94,0,0,0-.4.35Z"/><rect class="cls-2" x="800.73" y="973.75" width="9.02" height="1.94" transform="translate(-193.24 1750.3) rotate(-88.28)"/><rect class="cls-6" x="885.74" y="978.84" width="7.87" height="1.49" transform="translate(-102.82 1854.84) rotate(-89.16)"/><path class="cls-6" d="M933.51,974.51l-10.15-.92-.05,0L905.17,963.1a8.72,8.72,0,0,0-7.88.13l-3.73,2.15-1.22-.71a8.72,8.72,0,0,0-7.88.13L880.74,967l-1.23-.71a8.6,8.6,0,0,0-6-.61h0l-13.29-3.94.32-1.5c2.81-1.69-1.2-2.35-1.74-2.49L846,954.24a.12.12,0,0,0-.15.12V965a2.57,2.57,0,0,0,1.51,2.15l6.92,4a.1.1,0,0,1,.05.13l-.83,2.69a.1.1,0,0,1-.1.08l-3.67.45a.11.11,0,0,0-.1.11c0,1.07,0,10.78,0,10.94h0c.22,1.33,1.86,2.44,4.23,2.69a66.31,66.31,0,0,1,9.62,1.72l7.24,1.87a126.83,126.83,0,0,0,21.81,3.55,44.87,44.87,0,0,1,18.71,5.3l.72.42,17.33-10c2.68-1.55,4.17-3.61,4.29-5.74v-10.7A.12.12,0,0,0,933.51,974.51Z"/><path class="cls-2" d="M912,1002.2l-1.21-.7a43.62,43.62,0,0,0-18.3-5.17,127.87,127.87,0,0,1-22-3.58l-7.24-1.87a64.77,64.77,0,0,0-9.49-1.69c-2.78-.3-4.77-1.67-5.08-3.5,0-.1,0-.28-.06-11.11a1.08,1.08,0,0,1,1-1.07l3.13-.38.46-1.51L846.86,968a3.5,3.5,0,0,1-2-3v-11.1l.43-.38a1.08,1.08,0,0,1,1-.19l13,3.5c1,.24,3,.68,3.24,2.06a2.06,2.06,0,0,1-1.08,1.93l0,.23,12.2,3.61a9.51,9.51,0,0,1,6.48.77l.74.43L884,964a9.65,9.65,0,0,1,8.84-.12l.75.43,3.24-1.88a9.65,9.65,0,0,1,8.84-.12l18,10.38,10,.91a1.1,1.1,0,0,1,1,1.08l0,10.7c-.14,2.57-1.84,4.89-4.77,6.58Zm-61.4-26.85c0,3.5,0,9.72,0,10.11.12.68,1.32,1.58,3.36,1.79a68.25,68.25,0,0,1,9.76,1.75l7.25,1.87a125.71,125.71,0,0,0,21.63,3.53,45.42,45.42,0,0,1,19.12,5.42l.24.13,16.84-9.72c2.35-1.36,3.71-3.12,3.81-5v-9.86l-9.58-.87-.22-.11-18.17-10.49a7.73,7.73,0,0,0-6.9.13l-4.21,2.43-1.72-1a7.73,7.73,0,0,0-6.9.13l-4.21,2.43-1.72-1a7.65,7.65,0,0,0-5.27-.51l-.24.06-.3-.07-14.16-4.19.58-2.79.37-.22.31-.2a7.44,7.44,0,0,0-1.53-.46l-.27-.07-11.7-3.16V965c0,.46.37.93,1,1.31l6.92,4a1.1,1.1,0,0,1,.5,1.27l-1,3.29-.72.16Z"/><path class="cls-2" d="M912,1000.42a.38.38,0,0,0,.57.32l16.75-9.67c2.69-1.55,4.17-3.61,4.29-5.74l0-10.7a.13.13,0,0,0-.11-.12l-.31,0H912.39a.38.38,0,0,0-.38.38Z"/><path class="cls-2" d="M912.39,1001.77a1.24,1.24,0,0,1-.67-.19,1.34,1.34,0,0,1-.68-1.16V974.86a1.36,1.36,0,0,1,1.35-1.35l21.23,0a1.09,1.09,0,0,1,1,1.08v10.7c-.15,2.57-1.84,4.89-4.78,6.58l-16.75,9.67A1.3,1.3,0,0,1,912.39,1001.77Zm.59-26.31v23.93l15.87-9.16c2.35-1.36,3.7-3.12,3.8-5l0-9.82Z"/><g id="icon"><path class="cls-8" d="M893.56,954.56l-1.22-.71a8.72,8.72,0,0,0-7.88.12l-3.72,2.16-1.23-.71a8.72,8.72,0,0,0-7.88.12l-3.72,2.16-11.49-6.64a8.72,8.72,0,0,0-7.88.13l-1,.56c-2.24,1.29-2.33,3.33-.22,4.55l28.16,16.26c.09.05,0,.14-.12.13l-5.12-.72q-5.53-.76-11.19-1.16l-2.81-.19c-3-.21-5.93,1.06-6.45,2.83l-.12.41c-.5,1.69,1.33,3.23,4.19,3.54h0a66.31,66.31,0,0,1,9.62,1.72l7.24,1.87a126.83,126.83,0,0,0,21.81,3.55h0a44.87,44.87,0,0,1,18.71,5.3l.72.41,17.33-10c3.71-2.14,5.17-5.26,3.83-8.19l-.23-.51a17.75,17.75,0,0,0-7.53-7.6h0l-20.22-11.67a8.72,8.72,0,0,0-7.88.12Z"/><path class="cls-2" d="M912,991.38l-1.21-.7a43.47,43.47,0,0,0-18.3-5.17,127.87,127.87,0,0,1-22-3.58l-7.24-1.87a66.12,66.12,0,0,0-9.49-1.7,6.22,6.22,0,0,1-4.62-2.29,2.93,2.93,0,0,1-.39-2.48l.12-.42c.65-2.22,4-3.76,7.44-3.52l2.82.19c3.76.26,7.55.65,11.25,1.17l.64.09-24.18-14a3.52,3.52,0,0,1-2-3,3.89,3.89,0,0,1,2.22-3.23l1-.56a9.65,9.65,0,0,1,8.84-.13l11,6.36,3.24-1.88a9.67,9.67,0,0,1,8.85-.12l.74.43,3.24-1.88a9.62,9.62,0,0,1,8.84-.12l.75.42,3.24-1.87a9.62,9.62,0,0,1,8.84-.12l20.22,11.67a18.66,18.66,0,0,1,7.93,8l.23.51c1.56,3.42-.06,7-4.22,9.44ZM855.6,971.57c-2.51,0-4.53,1.07-4.85,2.15l-.12.42a1,1,0,0,0,.15.85,4.4,4.4,0,0,0,3.21,1.44,68.25,68.25,0,0,1,9.76,1.75l7.25,1.87a125.71,125.71,0,0,0,21.63,3.52A45.57,45.57,0,0,1,911.75,989l.24.13,16.84-9.72c3.28-1.89,4.56-4.49,3.44-6.95L932,972a16.76,16.76,0,0,0-7.13-7.16l-20.22-11.67a7.73,7.73,0,0,0-6.9.13l-4.21,2.43-1.72-1a7.73,7.73,0,0,0-6.9.13l-4.21,2.43-1.72-1a7.73,7.73,0,0,0-6.9.13l-4.21,2.43-12-6.92a7.79,7.79,0,0,0-6.9.13l-1,.56c-.8.47-1.26,1-1.26,1.55s.37.93,1,1.32l28.86,16.66-.22.82a1.12,1.12,0,0,1-1.22.71l-5.11-.72c-3.66-.51-7.4-.89-11.12-1.15l-2.82-.19Z"/><rect class="cls-28" x="871.53" y="955.04" width="1.94" height="10.61" transform="translate(-395.43 1235.8) rotate(-60)"/><rect class="cls-28" x="876.09" y="970.1" width="1.94" height="6.72" transform="translate(-404.53 1246.18) rotate(-59.99)"/><rect class="cls-28" x="883.29" y="954.09" width="1.94" height="8.13" transform="translate(-387.66 1244.86) rotate(-60)"/><rect class="cls-28" x="895.43" y="952.92" width="1.94" height="6.54" transform="matrix(0.5, -0.87, 0.87, 0.5, -379.92, 1254.27)"/></g><rect class="cls-2" x="850.15" y="958.48" width="1.94" height="10.82"/><rect class="cls-2" x="868.37" y="980.59" width="1.94" height="10.82"/><rect class="cls-2" x="902.5" y="986.75" width="1.94" height="10.82"/><rect class="cls-2" x="854.47" y="977.66" width="1.94" height="10.82"/><path class="cls-8" d="M798.73,985.08l-16-9.24a.55.55,0,0,0-.6,0l-6.74,4.2a.27.27,0,0,0-.09.36l6.5,7a.23.23,0,0,1,0,.14v2.25a2.14,2.14,0,0,0,.89,1.7l2.24-2.66a.28.28,0,0,1,.09.1l7.15,8.06a.28.28,0,0,0,.38.09l6.75-4.21a1.36,1.36,0,0,0,.29-.7v-5.32A2.16,2.16,0,0,0,798.73,985.08Z"/><path class="cls-2" d="M792.43,998a1.36,1.36,0,0,1-.29,0,1.26,1.26,0,0,1-.7-.47L785,990.25l-2,2.43-.7-.41a3.06,3.06,0,0,1-1.38-2.54v-2l-6.4-6.89a1.24,1.24,0,0,1,.41-1.68l6.73-4.2a1.53,1.53,0,0,1,1.61,0l16,9.24a3.09,3.09,0,0,1,1.38,2.55v5.32a2.25,2.25,0,0,1-.52,1.32l-.24.21-6.75,4.21A1.28,1.28,0,0,1,792.43,998Zm-6.64-9.8,6.78,7.65,6.07-3.78s0,0,0-.05v-5.26a1.25,1.25,0,0,0-.4-.87l-15.84-9.14-5.78,3.6,6.13,6.69,0,.41v2.25a.28.28,0,0,0,0,.09l1.92-2.29.93.53Z"/><path class="cls-28" d="M787.49,992.35l0,.45,4.72,4a.44.44,0,0,0,.62.15l6.6-4.11a1.36,1.36,0,0,0,.29-.7v-5a.18.18,0,0,0-.28-.16l-6.66,4.15-.07.07Z"/><path class="cls-2" d="M792.54,998a1.24,1.24,0,0,1-.33,0,1.43,1.43,0,0,1-.77-.48l-5-4.23.17-1.65,5.63-1.28,6.66-4.14a1.12,1.12,0,0,1,1.17,0,1.16,1.16,0,0,1,.59,1v5a2.26,2.26,0,0,1-.51,1.32l-.24.21-6.6,4.11A1.39,1.39,0,0,1,792.54,998Zm-3.39-5,3.46,2.91,6.07-3.78,0-.05v-3.51l-5.29,3.29-.11.2Z"/><path class="cls-6" d="M791.75,997.13l-16-9.24a2.14,2.14,0,0,1-.89-1.7v-5.32c0-.66.4-1,.89-.68l16,9.25a2.12,2.12,0,0,1,.89,1.7v5.32C792.64,997.12,792.24,997.42,791.75,997.13Z"/><path class="cls-2" d="M792.1,998.21a1.77,1.77,0,0,1-.84-.23l-16-9.25a3.09,3.09,0,0,1-1.38-2.54v-5.32a1.76,1.76,0,0,1,.8-1.57,1.52,1.52,0,0,1,1.55.05l16,9.24a3.1,3.1,0,0,1,1.38,2.55v5.32a1.73,1.73,0,0,1-.79,1.56A1.41,1.41,0,0,1,792.1,998.21Zm.13-1.92-.48.84.48-.84Zm-16.41-14.93v4.83a1.23,1.23,0,0,0,.4.86L791.66,996v-4.82a1.21,1.21,0,0,0-.41-.86Z"/><rect class="cls-28" x="779.12" y="979.11" width="7.94" height="1.94" transform="translate(-399.8 562.27) rotate(-31.92)"/><rect class="cls-6" x="792.74" y="991.75" width="6.92" height="1.49" transform="translate(-397.86 552.95) rotate(-31.05)"/><path class="cls-24" d="M815.81,1036.92a2.47,2.47,0,1,1-2.7-4.14,1.38,1.38,0,0,1,.24-.14l6.92-4a2.47,2.47,0,0,1,2.46,4.29l-6.92,4Z"/><g class="cls-4"><polygon class="cls-29" points="46.77 1557.42 46.77 1582.99 57.39 1576.86 57.39 1551.09 46.77 1557.42"/><polygon class="cls-11" points="46.79 1557.42 46.79 1582.99 23.39 1569.46 23.39 1543.7 46.79 1557.42"/><polygon class="cls-10" points="23.39 1543.7 46.79 1557.42 57.39 1551.09 33.93 1537.44 23.39 1543.7"/></g><g class="cls-4"><polygon class="cls-29" points="78.01 1575.4 78.01 1600.97 88.64 1594.84 88.64 1569.07 78.01 1575.4"/><polygon class="cls-11" points="78.04 1575.4 78.04 1600.97 54.64 1587.45 54.64 1561.68 78.04 1575.4"/><polygon class="cls-10" points="54.64 1561.68 78.04 1575.4 88.64 1569.07 65.18 1555.41 54.64 1561.68"/></g><g class="cls-4"><polygon class="cls-29" points="110.55 1592.1 110.55 1617.66 121.17 1611.53 121.17 1585.76 110.55 1592.1"/><polygon class="cls-11" points="110.58 1592.1 110.58 1617.66 87.17 1604.14 87.17 1578.37 110.58 1592.1"/><polygon class="cls-10" points="87.17 1578.37 110.58 1592.1 121.17 1585.76 97.72 1572.11 87.17 1578.37"/></g><path class="cls-8" d="M39.58,1563l-.11-.06v-3.17a7.09,7.09,0,0,0-3.2-5.53L34.06,1553c-1.77-1-3.21-.21-3.21,1.82V1558l-.11-.06c-.82-.48-1.49-.1-1.49.85v7.86a3.31,3.31,0,0,0,1.49,2.57l8.84,5.1c.82.48,1.49.1,1.49-.85v-7.86A3.29,3.29,0,0,0,39.58,1563Zm-3.87,4.34v1.86l-1.1-.64v-1.85a2.9,2.9,0,0,1-.75-1.78c0-.82.58-1.16,1.3-.74a2.84,2.84,0,0,1,1.3,2.24C36.46,1567.06,36.15,1567.4,35.71,1567.38Zm1.9-5.47-4.9-2.84v-2.53c0-1.15.82-1.62,1.82-1l1.26.72a4,4,0,0,1,1.82,3.15Z"/><path class="cls-8" d="M71.17,1586a11.35,11.35,0,0,1-2.35-2.82c-.39-.65-.38-1.36,0-1.58a3,3,0,0,0,1.2-1.34.66.66,0,0,0,.92-.6,2.25,2.25,0,0,0-.59-1.53,7.48,7.48,0,0,0-3.79-6.64c-2.84-1.65-3.68-.08-3.78,2.27-.34-.07-.6.26-.6.84a2.71,2.71,0,0,0,.93,1.67,13.25,13.25,0,0,0,1.2,2.73c.38.66.39,1.38,0,1.58a3.12,3.12,0,0,1-2.35.1c-1.19-.36-2.08.36-2.08,1.83V1585a1.72,1.72,0,0,0,.78,1.35l11.81,6.82c.43.24.78,0,.78-.45v-2.54A6.06,6.06,0,0,0,71.17,1586Z"/><path class="cls-8" d="M106.63,1597.21l-11.9-6.87-.71-2.69a1.21,1.21,0,0,0-.51-.71l-3.65-2.11c-.3-.17-.54,0-.54.31a1.19,1.19,0,0,0,.54.94l3.27,1.89,4,15.42a1.21,1.21,0,0,0,.52.71l1.16.68-.13,0c-.56.32-.56,1.36,0,2.33s1.47,1.48,2,1.17.57-1.36,0-2.33l-.12-.2,2.52,1.46-.13,0c-.56.32-.56,1.36,0,2.32s1.47,1.49,2,1.17.56-1.36,0-2.32a1.37,1.37,0,0,0-.13-.2l.54.31c.3.17.55,0,.55-.31a1.2,1.2,0,0,0-.55-.94l-7.37-4.25-.83-3.15,8.59,5c.78.46,1.46.22,1.63-.57l.8-3.84A3.51,3.51,0,0,0,106.63,1597.21Z"/><g class="cls-4"><polygon class="cls-5" points="237.53 1600.6 237.53 1637.26 248.15 1631.12 248.15 1594.26 237.53 1600.6"/><polygon class="cls-6" points="237.56 1600.6 237.56 1637.26 139.1 1580.43 139.1 1543.57 237.56 1600.6"/><polygon class="cls-7" points="139.1 1543.57 237.56 1600.6 248.15 1594.26 149.65 1537.3 139.1 1543.57"/></g><path class="cls-8" d="M177.15,1571.59l-18-10.39c-1.1-.64-2-.13-2,1.14v12.19a4.42,4.42,0,0,0,2,3.45l11.25,6.49,5.62,9.7v-6.45l1.13.65c1.1.64,2,.13,2-1.14V1575A4.42,4.42,0,0,0,177.15,1571.59Zm-12.69,2.28c-.58.34-1.54-.21-2.12-1.22s-.59-2.1,0-2.44,1.54.22,2.12,1.23S165.05,1573.54,164.46,1573.87Zm4.88,2.82c-.59.33-1.54-.22-2.13-1.23s-.58-2.1,0-2.43,1.54.21,2.13,1.22S169.92,1576.35,169.34,1576.69Zm4.87,2.81c-.59.34-1.54-.21-2.12-1.23s-.59-2.09,0-2.43,1.53.21,2.12,1.22S174.8,1579.17,174.21,1579.5Zm-18.56-5.84v-9.9l-6.87-4c-1.11-.64-2-.13-2,1.14v12.19a4.41,4.41,0,0,0,2,3.45l1.12.65v6.45l5.62-3.2,11.25,6.49c1.11.64,2,.13,2-1.14v-.57l-9.62-5.56A7.71,7.71,0,0,1,155.65,1573.66Z"/><polygon class="cls-8" points="183.25 1577.72 183.25 1580.76 230.28 1607.92 230.28 1604.88 183.25 1577.72"/><polygon class="cls-8" points="215.41 1608.96 183.25 1590.37 183.25 1593.41 215.41 1612 215.41 1608.96"/><polygon class="cls-8" points="183.25 1587.09 230.28 1614.25 230.28 1611.2 183.25 1584.05 183.25 1587.09"/><g class="cls-30"><polygon class="cls-31" points="272.83 1769.02 272.83 1805.68 283.46 1799.55 283.46 1762.68 272.83 1769.02"/><polygon class="cls-32" points="272.86 1769.02 272.86 1805.68 137.19 1727.35 137.19 1690.49 272.86 1769.02"/><polygon class="cls-33" points="137.19 1690.49 272.86 1769.02 283.46 1762.68 147.74 1684.23 137.19 1690.49"/></g><path class="cls-8" d="M265.5,1790.74l-4.66-8a2.24,2.24,0,0,0-1.79-1.3l-1.37-2.35c2.05-1.92,1.84-6.47-.62-10.71-2.69-4.65-7.05-7.16-9.74-5.63s-2.69,6.54,0,11.18c2.46,4.25,6.32,6.71,9,5.92l1.36,2.35a2.23,2.23,0,0,0,.23,2.2l4.66,8c.58,1,1.53,1.55,2.11,1.22l.8-.46C266.08,1792.83,266.08,1791.75,265.5,1790.74Zm-10.1-14.08c-1.77,1-4.65-.65-6.42-3.71s-1.77-6.35,0-7.37,4.65.66,6.42,3.71S257.17,1775.65,255.4,1776.66Z"/><polygon class="cls-8" points="239.9 1777.15 147.35 1723.54 147.35 1705.95 239.9 1759.56 239.9 1777.15"/><g class="cls-4"><polygon class="cls-29" points="103.78 1684.8 103.78 1715.09 116.37 1707.83 116.37 1677.29 103.78 1684.8"/><polygon class="cls-11" points="103.81 1684.8 103.81 1715.09 76.08 1699.07 76.08 1668.54 103.81 1684.8"/><polygon class="cls-10" points="76.08 1668.54 103.81 1684.8 116.37 1677.29 88.58 1661.11 76.08 1668.54"/></g><path class="cls-8" d="M80.35,1696.86l4.89,2.83v-8.76l-4.89-2.83Zm7.74,4.48,4.88,2.82v-16.07l-4.88-2.82Zm7.74-18.9v23.36l4.88,2.82v-23.36Z"/><polygon class="cls-31" points="391.92 1673.73 391.92 1720.38 411.3 1709.18 411.3 1662.17 391.92 1673.73"/><polygon class="cls-32" points="391.97 1673.73 391.97 1720.38 349.27 1695.7 349.27 1648.69 391.97 1673.73"/><polygon class="cls-33" points="349.27 1648.69 391.97 1673.73 411.3 1662.17 368.51 1637.26 349.27 1648.69"/><path class="cls-8" d="M382.66,1691a17.21,17.21,0,0,0-.15-2.13l3.55-.44a32.15,32.15,0,0,0-1.61-5.39l-4-1.23a28.56,28.56,0,0,0-2.53-4.34l1-4.09a32.83,32.83,0,0,0-3.88-4.09l-2.18,2.82a16.82,16.82,0,0,0-1.78-1.2,15.15,15.15,0,0,0-1.78-.86l-2.18-5.33a10.88,10.88,0,0,0-3.88-.4l1,5.22a5.46,5.46,0,0,0-2.52,1.44l-4.05-3.47A10.72,10.72,0,0,0,356,1671l3.55,4.56a13.2,13.2,0,0,0-.15,2,17.08,17.08,0,0,0,.15,2.13l-3.55.46a31.94,31.94,0,0,0,1.61,5.37l4.05,1.23a29.46,29.46,0,0,0,2.52,4.35l-1,4.09a32.05,32.05,0,0,0,3.88,4.08l2.18-2.81a16.72,16.72,0,0,0,1.78,1.19,12.53,12.53,0,0,0,1.78.86l2.18,5.34a10.86,10.86,0,0,0,3.88.39l-1-5.21a5.53,5.53,0,0,0,2.53-1.44l4,3.45a10.52,10.52,0,0,0,1.61-3.51l-3.55-4.56A13.34,13.34,0,0,0,382.66,1691ZM371,1689.6a10.33,10.33,0,0,1-4.68-8.07c0-3,2.1-4.17,4.68-2.67a10.3,10.3,0,0,1,4.68,8.07C375.69,1689.9,373.6,1691.09,371,1689.6Z"/><path class="cls-8" d="M302,1569.88a17.08,17.08,0,0,0-.15-2.13l3.56-.45a32.43,32.43,0,0,0-1.61-5.39l-4.05-1.22a29,29,0,0,0-2.52-4.35l1-4.09a32.73,32.73,0,0,0-3.88-4.08l-2.18,2.82a16.34,16.34,0,0,0-1.78-1.2,13.72,13.72,0,0,0-1.78-.86l-2.19-5.34a10.59,10.59,0,0,0-3.87-.39l1,5.21a5.47,5.47,0,0,0-2.51,1.44l-4.05-3.46a10.64,10.64,0,0,0-1.62,3.53l3.56,4.55a13.34,13.34,0,0,0-.15,2,17.21,17.21,0,0,0,.15,2.13l-3.56.45a32.1,32.1,0,0,0,1.62,5.38l4.05,1.22a27.61,27.61,0,0,0,2.51,4.35l-1,4.09a32.08,32.08,0,0,0,3.87,4.09l2.19-2.82a18.5,18.5,0,0,0,1.78,1.2,13,13,0,0,0,1.78.85l2.18,5.35a10.84,10.84,0,0,0,3.88.38l-1-5.2a5.74,5.74,0,0,0,2.52-1.44l4.05,3.45a10.66,10.66,0,0,0,1.61-3.52l-3.56-4.55A13.56,13.56,0,0,0,302,1569.88Zm-11.64-1.36a10.28,10.28,0,0,1-4.68-8.07c0-3,2.09-4.16,4.68-2.66a10.29,10.29,0,0,1,4.68,8.06C295.06,1568.82,293,1570,290.38,1568.52Z"/></g></g></svg>