<?xml version="1.0" encoding="utf-8"?>
<!-- Generator: Adobe Illustrator 24.1.3, SVG Export Plug-In . SVG Version: 6.00 Build 0)  -->
<svg version="1.1" id="Layer_1" xmlns="http://www.w3.org/2000/svg" xmlns:xlink="http://www.w3.org/1999/xlink" x="0px" y="0px"
	 viewBox="0 0 360 360" style="enable-background:new 0 0 360 360;" xml:space="preserve">
<style type="text/css">
	.st0{fill:#F7AE43;}
</style>
<g>
	<path class="st0" d="M341.3,239.9l-84.1-70.1c-4.2-3.5-10.1-4.2-14.9-1.9c-4.9,2.3-8.1,7.2-8.1,12.7v29.6h-70.1
		c-7.8,0-14,6.3-14,14V277c0,7.8,6.3,14,14,14h70.1v29.7c0,5.4,3.2,10.4,8.1,12.7c1.9,0.9,3.9,1.4,6,1.4c3.2,0,6.4-1.1,9-3.3
		l84.1-70.1c3.2-2.7,5.1-6.6,5.1-10.8C346.4,246.5,344.5,242.6,341.3,239.9L341.3,239.9z M341.3,239.9"/>
	<path class="st0" d="M206.1,136.9V84c0-7.7-6.3-14-14-14H122V40.4c0-5.4-3.1-10.4-8.1-12.8c-4.9-2.2-10.8-1.5-14.9,1.9L14.8,99.7
		c-3.2,2.7-5,6.6-5,10.8s1.9,8.1,5,10.8L99,191.3c2.6,2.2,5.8,3.3,9,3.3c2.1,0,4.1-0.5,6-1.3c4.9-2.3,8.1-7.3,8.1-12.7v-29.7h70.1
		C199.8,150.9,206.1,144.6,206.1,136.9L206.1,136.9z M206.1,136.9"/>
</g>
</svg>
